<?xml version="1.0" encoding="UTF-8"?>
<svg id="Layer_1" xmlns="http://www.w3.org/2000/svg" viewBox="0 0 843 1080">
  <defs>
    <style>
      .cls-1 {
        fill: #112a46;
      }
    </style>
  </defs>
  <path class="cls-1" d="M250.78,248.34c-3.52-.02-6.52-2.54-7.14-6.45-1.2-7.62-2.3-15.26-3.52-22.87-.26-1.6-.77-3.18-1.38-4.69-2.06-5.18-3.02-5.76-8.52-5.01-3.65.5-6.84-.19-9.51-2.84-1.53-1.52-1.61-2.76.6-3.67,1.26-.52,2.46-1.16,3.72-1.68,11.26-4.66,17.64-12.93,18.86-25.15.37-3.7,1.05-7.37,1.48-11.06.2-1.71,1.15-2.06,2.62-1.92,5.3.51,7.72,2.95,8.18,8.3.41,4.79.55,9.63,1.3,14.37.5,3.19,1.65,6.32,2.85,9.34,1.25,3.15,3.51,5.25,6.93,6.41,3.12,1.06,6.17,2.64,8.85,4.56,2.39,1.71,1.78,3.14-1.05,4.01-3.36,1.03-6.91,1.83-9.94,3.52-8.08,4.5-11.77,11.83-11.98,20.93-.09,3.72.17,7.44.36,11.16.09,1.75-.38,2.86-2.71,2.77ZM250.16,192.41c-2.98,5.87-7.67,9.31-12.25,11.91,3.6,3.79,7.02,7.38,10.44,10.99,3.32-4.58,8.07-8,14.41-10.11-5.85-3.03-10.05-6.75-12.6-12.79Z"/>
  <path class="cls-1" d="M728.71,859.16c-4.19-.07-7.27-2.88-8.11-6.84-1.38-6.48-2.88-12.93-4.44-19.36-.71-2.91-2.28-4.56-5.75-4.45-3.62.12-7.26-.64-10.14-3.25-2.3-2.08-2.11-3.31.66-4.58.41-.19.82-.4,1.26-.52,12.18-3.44,16.75-12.71,18.33-24.17.57-4.11.84-8.26,1.26-12.39.2-1.99,1.41-2.25,3.1-1.88,3.52.77,4.87,2.74,5.37,7.13.53,4.66,1.36,9.3,2.12,13.93.78,4.75,3.53,8.06,7.71,10.28,2.25,1.19,4.53,2.3,6.73,3.58,1.32.77,2.64,1.63,3.72,2.7,2.17,2.14,1.9,3.61-.71,5.14-3.21,1.88-6.49,3.65-9.59,5.69-3.57,2.34-5.87,5.69-6.6,9.93-.94,5.45-1.79,10.91-2.54,16.39-.23,1.67-.56,2.87-2.37,2.66ZM741.17,819.17c-4.66-3.15-9.11-6.16-13.67-9.24-2.37,6.04-5.94,11.39-12.12,13.69,3.29,2.85,6.57,5.69,9.89,8.57,2.92-6.78,9.93-9.32,15.9-13.02Z"/>
  <path class="cls-1" d="M174.23,556.94c-4.93-.27-8.4-3.4-9.2-8.03-.03-.18-.06-.36-.1-.54-.51-2.49-.29-5.63-1.76-7.26-1.23-1.37-4.51-.69-6.71-1.43-2.6-.87-5.18-2.05-7.44-3.57-1.58-1.07-1.55-2.76.46-3.89,1.5-.85,2.95-1.8,4.38-2.76,4.4-2.96,7.47-6.77,8.25-12.24.39-2.77,1.24-5.48,1.86-8.22.45-1.97,1.72-2.36,3.49-1.9,2.97.77,4.85,2.73,5.91,5.53,1.29,3.4,2.53,6.81,3.79,10.21.78,2.13,2.19,3.24,4.51,3.76,2.97.66,5.91,1.71,8.66,3.01,1.11.52,1.68,2.16,2.5,3.3-.98.68-1.92,1.43-2.95,2.01-1.1.62-2.29,1.1-3.45,1.62-5.29,2.34-8.18,6.41-8.8,12.15-.21,1.99-.54,3.96-.75,5.95-.19,1.85-1.17,2.56-2.65,2.31ZM171.19,526.67c-2.33,2.68-4.58,5.25-6.85,7.86,1.75.96,3.56,1.96,5.04,2.77,2.54-2.35,4.97-4.6,7.37-6.81-1.74-1.19-3.66-2.51-5.56-3.82Z"/>
  <g>
    <path class="cls-1" d="M759.33,565.81c-6.45.24-11.44-2.46-14.52-7.97-5.14-9.19-10.15-18.47-14.82-27.9-38.36-77.5-76.56-155.07-115.04-232.51-3.41-6.86-8.54-12.84-12.68-19.35-2.87-4.52-5.52-9.18-8.05-13.9-1.91-3.56-1.53-5.26,1.38-7.97,3.87-3.61,8.22-6.25,13.75-6.39,4.02-.1,6.94,1.44,8.93,5.03,10.6,19.15,21.34,38.23,31.89,57.41,29.39,53.44,54.67,108.95,82.35,163.25,13.29,26.07,27.06,51.88,43.41,76.21,4.21,6.26,3.07,9.42-4.05,11.72-2.67.86-5.44,1.43-8.2,1.99-1.41.29-2.89.27-4.33.39ZM621.68,278.52c-1.3.95-2.13,1.66-3.05,2.21-1.85,1.12-2.08,2.33-.83,4.18,1.26,1.87,2.17,3.98,3.18,6.01,40.72,81.6,81.41,163.21,122.18,244.78,3.77,7.55,7.95,14.89,12.07,22.25,1.62,2.89,4.02,3.99,7.57,3.1,6.61-1.67,7.28-2.81,3.45-8.51-16.06-23.87-29.5-49.23-42.49-74.84-29.9-58.97-57.74-118.99-89.79-176.87-4.04-7.3-8.05-14.62-12.29-22.32ZM608.38,256.19c-4.26,2.57-5.16,3.84-3.98,6.48,2.18,4.86,4.63,9.61,7.07,14.59,2.5-1.29,4.71-2.43,7.15-3.69-3.47-5.88-6.81-11.56-10.24-17.37Z"/>
    <path class="cls-1" d="M592.97,178.62c-.84-2.27.53-2.91,2.19-3.27,3.97-.88,6.42.61,6.95,4.6,1.5,11.34,2.82,22.7,4.26,34.04.35,2.79.82,5.57,1.36,8.33.35,1.82-.4,2.69-2.05,3.2-3.9,1.19-7.15-.13-7.96-4.09-1.34-6.55-2.34-13.2-3.05-19.86-.82-7.67-1.16-15.39-1.7-22.96Z"/>
    <path class="cls-1" d="M589.64,232.04c-2.86,2.12-5.85,2.23-8.67.21-1.97-1.41-3.84-3.06-5.43-4.89-6.65-7.66-13.22-15.41-19.72-23.2-.77-.92-.92-2.35-1.36-3.55,1.43-.28,2.96-.99,4.27-.71,1.48.32,3.05,1.29,4.1,2.41,8.04,8.61,15.97,17.33,23.91,26.03,1.02,1.12,1.88,2.38,2.9,3.7Z"/>
    <path class="cls-1" d="M543.92,227.55c3.53-1.71,6.37-1.15,9.02-.03,6.5,2.76,12.93,5.69,19.34,8.63,2.71,1.24,5.36,2.64,7.98,4.07.63.34,1.02,1.11,1.52,1.68-.59.5-1.11,1.22-1.8,1.47-2.9,1.05-5.71.53-8.39-.86-8.21-4.24-16.41-8.47-24.6-12.75-.92-.48-1.71-1.22-3.08-2.22Z"/>
  </g>
  <g>
    <path class="cls-1" d="M411.9,557.85c6.11-38.38,17.53-74.9,33.42-110.03,9.22-20.39,20.1-39.9,34.94-56.82,5.23-5.97,11.3-11.32,17.52-16.27,7.13-5.67,15.7-7.49,24.73-6.43,9.02,1.06,14.64,6.37,17.41,14.83,3.11,9.5,2.98,19.3,2.16,29.08-2.67,31.77-11.4,62.22-20.79,92.47-5.39,17.35-11.52,34.46-17.36,51.8-.18-.04.38.13.96.21,8.97,1.15,15.54,7.6,15.31,16.67-.25,10.16-1.45,20.33-2.75,30.44-1.38,10.75-3.37,21.41-5.08,32.12-.15.92-.16,1.86-.25,2.99,4.2.48,8.27.75,12.26,1.44,12.11,2.09,24.24,4.09,36.27,6.6,19.07,3.97,37.87,8.98,55.7,17.02,10.51,4.74,20.56,10.27,28.31,19.09,2.41,2.74,4.62,5.78,6.34,8.99,4.47,8.33,3.68,16.42-2.02,23.97-5.05,6.7-11.8,11.35-19.04,15.32-17.12,9.4-35.69,14.82-54.48,19.57-1.01.26-2.01.54-2.57.69-2.41,13.05-5.06,25.71-7.05,38.48-3.56,22.85-4.05,45.88-3.56,68.97.6,27.83,3.78,55.42,6.89,83.03,1.21,10.74,1.24,21.63,1.62,32.45.25,7.3-3.15,12.3-9.55,16.1-26.47,15.74-54.45,27.66-84.85,32.89-24.73,4.26-49.82,5.62-74.87,3.89-26.85-1.86-53.67-4.37-80.41-7.44-16.48-1.89-32.92-4.94-48.6-10.66-6.74-2.46-13.37-5.76-19.3-9.78-10.24-6.95-14-16.71-11.72-29.35,3.89-21.53,7.63-43.14,10.12-64.86,4.31-37.59,4.49-75.28-2.83-112.58-2.52-12.84-7-25.3-10.53-37.95-.68-2.43-2.15-3.45-4.59-4.03-17.11-4.09-33.91-9.17-49.72-17.08-9.19-4.6-17.74-10.14-24.51-18.01-2.05-2.38-3.95-4.95-5.49-7.68-5.71-10.05-4.45-19.05,3.71-27.29,7.32-7.39,16.32-12.17,25.74-16.23,21.58-9.3,44.22-14.91,67.3-18.77,13.86-2.32,27.82-4.03,42.14-6.06-.73-6.01-1.7-12.64-2.31-19.31-.81-8.89-1.31-17.81-2-26.71-.3-3.88-.58-7.77-1.13-11.61-.42-2.98.39-4.83,3.44-5.66,7-1.91,13.96-3.93,20.93-5.91.69-.2,1.36-.45,2.37-.78-1.01-1.68-1.9-3.19-2.81-4.67-13.24-21.55-22.41-44.98-31.32-68.5-7.46-19.68-14.32-39.58-18.07-60.37-2.38-13.18-4.16-26.44-1.66-39.83,2.31-12.4,9.94-18.82,22.59-19.02,10.34-.16,19.63,3.38,28.31,8.61,13.54,8.17,24.37,19.32,33.79,31.87,18.01,24,31.58,50.49,42.45,78.33,7.68,19.68,14.26,39.78,21.26,59.72.69,1.96,1.46,2.97,3.25,2.06ZM557.6,775.33c-49.79,10.29-100.04,15.79-150.54,17.55-50.64,1.77-101.3-.02-151.87-7.35.27,1.22.52,2.22.7,3.22,2.25,13.15,5.28,26.23,6.58,39.48,3.76,38.25,1.44,76.31-5.03,114.17-2.27,13.27-4.01,26.64-5.78,39.99-.95,7.17.05,9.2,6.68,12.09,6.05,2.64,12.29,5.02,18.67,6.67,23.16,5.99,46.77,9.42,70.56,11.8,33.44,3.34,66.84,5.32,100.47,2.29,37.89-3.41,72.5-15.87,104.82-35.47,4.32-2.62,6.95-6.25,6.85-11.3-.21-11.04-.13-22.12-1.2-33.09-2.35-23.98-5.24-47.9-5.62-72.05-.38-24.23-.16-48.42,2.76-72.52.64-5.29,1.33-10.58,1.95-15.49ZM294.94,656.73c-.22-1.89-.5-3.75-.63-5.62-.13-1.89-.97-2.59-2.86-2.26-3.61.63-7.29.96-10.86,1.76-19.38,4.34-38.84,8.39-58.07,13.33-15.71,4.03-30.87,9.82-44.61,18.76-5.42,3.53-10.38,7.59-13.55,13.4-3.86,7.08-2.96,12.81,3.63,17.36,5.51,3.8,11.4,7.22,17.51,9.93,21.49,9.53,44.26,14.71,67.27,18.87,39.53,7.15,79.46,10.24,119.57,11.17,37.16.86,74.25-.48,111.27-4.04,30.3-2.92,60.36-7.25,89.91-14.7,17.47-4.41,34.77-9.47,50.44-18.62,5.54-3.24,10.85-7.37,15.14-12.13,6.38-7.08,5.44-14.52-2.29-20.03-6.04-4.3-12.55-8.22-19.36-11.08-33.54-14.08-68.79-20.5-104.95-22.53-.69-.04-1.93.65-2.05,1.18-.47,2.2-.6,4.48-.87,6.91,1.48,0,2.51.01,3.54,0,10.41-.17,20.59.95,30.11,5.57,6.02,2.92,11.02,7,14.24,12.95,3.07,5.66,2.05,10.96-3.43,14.24-4.27,2.56-8.98,4.99-13.79,5.93-13.5,2.63-27.09,5.34-40.78,6.41-32.71,2.56-65.47,4.8-98.25,6.04-36.08,1.36-72.17.71-108.01-4.62-11.47-1.71-22.79-3.98-33.42-8.87-4.86-2.24-9.15-5.19-12.04-9.84-2.94-4.73-2.87-9.26.92-13.34,2.46-2.65,5.41-5.1,8.58-6.8,11.59-6.22,24.13-8.93,37.68-9.31ZM510.84,566.45c-2.47-.19-4.03-.39-5.6-.43-8.31-.22-16.62-.56-24.93-.58-38.44-.09-76.77,1.83-114.96,6.26-21.04,2.44-41.8,6.32-61.96,12.98-5.79,1.91-5.56,1.97-5.28,7.85.61,13.02.46,26.06,2.38,39.01,3.04,20.5,5.7,41.06,8.61,61.58.13.91,1.06,2.36,1.72,2.42,6.34.61,12.71.97,19.19,1.41.27-3.21.22-5.97.78-8.6,2.73-12.85,5.15-25.79,8.59-38.46,4.4-16.22,9.58-32.23,14.68-48.25.62-1.96,2.45-4.2,4.28-4.99,6.92-2.99,14.46.44,17.3,7.47.71,1.75,1.28,3.57,1.77,5.39,7.67,28.65,14.77,57.46,24.52,85.52.58,1.67,1.19,2.41,3.02,2.33,6.1-.27,12.2-.45,18.3-.55,1.75-.03,2.36-.65,2.46-2.39.24-3.99.73-7.96,1.04-11.95,1.36-17.43,2.51-34.86.49-52.33-.28-2.4.48-4.93.78-7.4.28-2.26,1.08-4.12,3.72-4.32,3.2-.24,6.68-.5,8.57,2.6,1.61,2.63,2.94,5.68,3.43,8.71,2.65,16.29,2.66,32.7,1.56,49.12-.37,5.52-1.06,11.02-1.67,17.2,17.69-1.41,35.14-2.8,52.19-4.16,0-4.11-.21-7.57.04-10.99.84-11.86,1.27-23.79,2.91-35.55,2.69-19.37,6.25-38.62,9.32-57.94,1.08-6.82,1.8-13.71,2.74-20.99ZM342.45,564.38c-1.39-1.99-2.59-3.66-3.74-5.38-12.47-18.69-21.56-38.99-28.58-60.26-3.43-10.4-6.51-20.9-7.23-31.91-.19-2.99-.64-6.41,2.51-8.27,3.3-1.96,6.94-1.76,10.26.04,1.51.82,2.91,2.16,3.9,3.59,2.82,4.05,5.63,8.14,8.04,12.45,15.2,27.12,28.24,55.26,39.33,84.3.71,1.86,1.44,2.64,3.6,2.3,3.63-.56,7.33-.69,10.99-1.01,4.97-.43,9.95-.86,15.21-1.32-.38-1.1-.6-1.78-.86-2.45-3.96-10.31-8.17-20.52-11.83-30.93-11.46-32.56-25.27-63.99-44.13-93.02-9.57-14.74-20.4-28.47-34.75-38.84-5.54-4.01-11.92-7.01-18.23-9.76-4.52-1.97-8-.61-10.59,3.6-1.89,3.07-3.46,6.59-4.12,10.1-2.55,13.7-.69,27.3,2.16,40.71,5.64,26.54,14.93,51.91,25.28,76.93,7.05,17.03,14.75,33.74,24.05,49.67.58.99,1.98,2.29,2.84,2.17,5.17-.68,10.3-1.72,15.88-2.72ZM446.98,556.79c0-2.43-.07-4.11.02-5.78.1-1.78.24-3.58.54-5.33,4.24-24.64,12.44-48.02,23.03-70.56,3.25-6.91,7.49-13.37,11.54-19.88,2.08-3.34,5.51-4.38,9.39-3.74,2.67.44,4.23,1.92,4.03,4.71-.17,2.41-.38,4.84-.89,7.19-5.2,24.27-10.52,48.51-15.67,72.79-1.39,6.53-2.34,13.16-3.58,20.27,3.76,0,7.02-.25,10.23.07,3.22.32,4.56-.66,5.22-3.96,1.5-7.52,3.2-15.03,5.37-22.38,8.38-28.44,17.09-56.79,23.3-85.83,3.21-15.03,6.44-30.11,6.37-45.54-.03-6.19-1.22-12.59-3.1-18.5-2.08-6.54-5.53-7.63-10.93-3.53-6.41,4.86-12.6,10.22-17.99,16.17-10.59,11.68-18.51,25.28-25.89,39.15-18.82,35.35-31.12,73.08-40.49,111.86-1.03,4.26-1.83,8.57-2.73,12.83h22.24ZM252.05,774.85c2.14,0,3.98-.15,5.78.02,13.92,1.35,27.8,3.17,41.75,4.04,18.47,1.15,36.99,1.9,55.5,2.2,20.4.33,40.84.58,61.22-.31,20.36-.89,40.68-3,60.98-4.99,27.01-2.65,53.83-6.69,80.29-12.82.94-.22,2.27-.74,2.54-1.45.86-2.27,1.31-4.7,1.93-7.15-106.41,18.81-212.23,18.59-318.18-.76,2.77,7.17,5.51,14.28,8.19,21.22ZM381.5,681.31c-5.73-20.86-11.51-41.89-17.28-62.92-.19-.03-.37-.05-.56-.08-5.5,20.74-11,41.48-16.7,63h34.54ZM255.71,685.49c15.21,6.2,30.21,7.61,45.75,9.4-1.72-9.83-3.35-19.15-5.04-28.84-4.77,1.24-9.25,2-13.41,3.59-6.73,2.56-13.42,5.37-19.8,8.69-2.76,1.44-4.71,4.42-7.5,7.16ZM313.47,471.27c.15,1.24.24,2.5.47,3.73.47,2.48.94,4.96,1.55,7.41,6.91,27.84,18.61,53.54,34.48,77.4,2.45,3.69,3.67,4.08,8.08,2.05-16.26-29.47-27.25-61.49-44.57-90.59ZM548.33,675.75c-1.11-.69-1.36-.89-1.64-1.02-11.67-5.18-24.19-6.01-36.65-7.13-.52-.05-1.56.82-1.63,1.35-.87,6.96-1.61,13.93-2.43,21.41,4.21-.64,8.11-.88,11.81-1.87,7.79-2.08,15.56-4.3,23.15-7.02,2.62-.94,4.64-3.52,7.4-5.73ZM456.25,556.25c1.52.08,2.45.05,3.37.2,2.97.47,4.35-.69,4.82-3.74.44-2.89,1.72-5.64,2.34-8.51,3.41-15.72,6.65-31.47,10.11-47.18,2.12-9.62,4.53-19.18,6.82-28.77-14.27,27.6-22.99,56.89-27.45,88ZM344.05,697.58h44.28c-.97-2.25-1.97-4.19-2.66-6.24-.6-1.8-1.55-2.31-3.46-2.3-5.78.02-11.57-.12-17.34-.45-6.17-.35-12.33-.98-18.85-1.51-.62,3.29-1.23,6.55-1.97,10.5Z"/>
    <path class="cls-1" d="M439.71,599.77c.14,4.63-1.88,7.03-5.77,7.61-7.01,1.04-11.65-3.46-10.02-9.78.2-.79.48-1.78,1.07-2.22,3.37-2.54,7.11-1.98,10.83-.94,3,.85,4.14,3.01,3.89,5.32Z"/>
  </g>
  <path class="cls-1" d="M170.18,80.95c-.3-3.16-.68-6.31-.89-9.47-.16-2.38.63-2.89,2.93-2.11,4.07,1.38,6.09,4.06,5.89,8.32-.29,6.15,1.55,11.04,7.37,13.93,2.03,1.01,3.96,2.2,5.92,3.33,1.25.73,2.65,1.33,3.67,2.3,1,.95,2.3,2.38,2.18,3.46-.1.93-1.91,1.87-3.13,2.45-3.19,1.51-6.52,2.72-9.7,4.26-3.54,1.71-5.41,4.72-5.86,8.6-.37,3.15-.71,6.31-1.08,9.47-.3,2.57-1.14,3.16-3.6,2.37-3.21-1.03-5.3-3.06-5.56-6.61-.16-2.17-.17-4.38-.57-6.51-.46-2.47-1.2-4.89-1.95-7.3-.6-1.89-2.01-2.68-4-3.12-2.14-.48-4.37-1.31-6.13-2.59-2.46-1.78-2.17-3.52.49-5.02,1.74-.98,3.55-1.82,5.37-2.64,5.65-2.56,9.21-6.45,8.64-13.13ZM172.17,106.74c3.54-5.16,9.72-6.25,15.2-9.04-3.73-2.36-7.08-4.48-9.07-5.73-2.5,1.82-4.51,3.38-6.63,4.79-2.13,1.42-4.37,2.68-6.52,3.99,2.33,1.99,4.51,3.86,7.02,6Z"/>
  <path class="cls-1" d="M734.61,178.82c-2.98-.7-5.48-2.12-6.62-5.28-.18-.51-.4-1.02-.5-1.55-.68-3.54-1.69-6.78-6.01-7.39-.57-.08-1.2-.56-1.56-1.04-.66-.9-1.15-1.93-1.7-2.91.9-.51,1.76-1.13,2.72-1.51,1.17-.47,2.43-.72,3.64-1.1,2.16-.68,3.22-2.2,3.37-4.43.14-2.17.34-4.34.5-6.51.14-1.95,1.21-2.5,2.97-1.99,3.05.9,4.69,3.26,5.91,5.96.52,1.15.89,2.39,1.14,3.62.73,3.57,1.43,7.01,5.64,8.36.93.3,1.43,1.91,2.14,2.91-.95.59-1.89,1.2-2.85,1.77-.31.18-.67.27-1.01.4-4.93,1.92-5.36,2.52-5.3,7.79.02,1.7-.02,3.2-2.47,2.89ZM730.42,163.59c1.92,1.94,3.24-.21,5.03-.43-2.11-2.97-3.41.34-5.03.43Z"/>
  <path class="cls-1" d="M418.06,320.24c-.05.63-.12,1.27-.14,1.9-.17,5.75-2.98,7.42-8.69,6.92-3.36-.29-5.97-5.54-5.03-9.6,1.11-4.86,3.88-7.27,7.98-6.54,1.3.23,2.73-2.04,3.71.15,1.02,2.27,1.8,4.64,2.69,6.97-.17.07-.35.14-.52.21Z"/>
  <path class="cls-1" d="M538.73,80.82c-1.16,1.7-1.88,3.59-3.25,4.56-1.88,1.33-4.24.96-6.07-.53-3.18-2.59-4.45-6.1-4.03-10.12.21-2.03,1.46-3.51,3.53-4.02,2.68-.66,5.05.43,6.44,2.46,1.47,2.15,2.18,4.83,3.38,7.65Z"/>
  <path class="cls-1" d="M54.86,410.91c-.96,1.5-1.58,3.27-2.83,4.21-1.77,1.33-4.08.85-5.43-.77-1.5-1.81-2.78-3.99-3.51-6.22-.86-2.67.42-4.86,2.66-5.85,2.22-.98,5.04-.3,6.42,2.01,1.12,1.88,1.69,4.09,2.69,6.62Z"/>
  <path class="cls-1" d="M782.16,278.6c.12,1.8-.61,3.19-3.01,3.25-2.2.05-3.91-2.21-3.9-5.25,0-2.07,2.01-4.46,3.69-4.42,1.54.04,3.17,3.11,3.22,6.42Z"/>
  <path class="cls-1" d="M670.16,602.6c.12,1.8-.61,3.19-3.01,3.25-2.2.05-3.91-2.21-3.9-5.25,0-2.07,2.01-4.46,3.69-4.42,1.54.04,3.17,3.11,3.22,6.42Z"/>
  <path class="cls-1" d="M151.16,193.6c.12,1.8-.61,3.19-3.01,3.25-2.2.05-3.91-2.21-3.9-5.25,0-2.07,2.01-4.46,3.69-4.42,1.54.04,3.17,3.11,3.22,6.42Z"/>
  <path class="cls-1" d="M557.47,747.87c-2.07.93-4.05,2.01-5.35,3.93-.87,1.29-1.51,2.68-2.01,4.14-1.3,3.78-1.97,7.79-2.57,11.74-1.93,12.82-2.62,25.84-3.28,38.78-.84,16.63-1.31,33.28-1.75,49.92-.45,17.1-.83,34.2-1.39,51.3-.25,7.7-.54,15.39-.92,23.08-.09,1.74-.18,3.49-.28,5.23-.05.84-.1,1.69-.15,2.53-.03.57,0,.07,0-.03-.02.25-.03.5-.05.74-.03.45-.06.9-.09,1.35-.2,3.11-.42,6.22-.69,9.32-.43,5.01-.93,10.04-1.77,15-.51,3.04-1.04,6.3-2.4,9.1-.09.19-.32.45-.35.65.16-.97.58-.78.11-.24-.1.12-.31.28-.37.42.39-.83,1.18-1.05.53-.5-.17.14-.34.29-.51.43-.41.35-.82.69-1.24,1.03-1.43,1.16-2.89,2.28-4.39,3.36-.77.55-1.55,1.09-2.33,1.63-.37.25-2.34,1.2-2.43,1.59.07-.31,1.23-.76.37-.24-.21.13-.42.26-.63.39-.42.26-.85.52-1.28.77-.91.54-1.83,1.07-2.75,1.59-1.86,1.04-3.75,2.03-5.66,2.97-.86.43-1.73.84-2.6,1.25-.29.14-.59.27-.88.41,1.73-.82,1.03-.47.64-.3-.6.27-1.2.54-1.8.8-2.06.9-4.13,1.76-6.23,2.57-2.22.86-4.47,1.68-6.72,2.46-.51.17-1.01.35-1.52.52-1.8.6,1.49-.47-.29.1-1.27.41-2.55.81-3.84,1.19-4.86,1.46-9.78,2.74-14.73,3.87-.64.15-1.28.29-1.92.43-.49.11-2.89.59-.52.12-1.38.27-2.76.57-4.14.83-2.76.53-5.53,1.02-8.31,1.47-5.65.91-11.33,1.65-17.02,2.25-.73.08-1.47.15-2.2.22-.36.03-1.87.26-.09.01-.29.04-.6.05-.89.08-1.64.15-3.29.28-4.93.4-3.05.23-6.1.41-9.16.56-6.33.31-12.66.45-18.99.44-3.44,0-6.88-.05-10.32-.14-1.5-.04-2.99-.09-4.49-.14-1.67-.06,1.13.05-.54-.02-.34-.01-.67-.03-1.01-.04-1.01-.04-2.02-.09-3.03-.14-6.98-.36-13.96-.89-20.91-1.57-30.37-2.99-60.11-8.87-89.34-17.25-7.75-2.22-15.45-4.62-23.09-7.17-2.92-.97-6.85,0-9.44,1.49-1.39.8-4.45,3.33-1.42,4.34,30.42,10.15,61.73,17.78,93.48,22.36,27.55,3.97,55.54,5.68,83.36,4.34,23.61-1.13,47.34-4.33,70.06-11.01,17.93-5.28,35.88-12.6,50.76-24.14,1.86-1.44,4.14-2.91,5.45-4.9.82-1.23,1.38-2.56,1.82-3.97,1.15-3.71,1.69-7.62,2.19-11.46,1.65-12.79,2.21-25.73,2.75-38.61.71-16.64,1.11-33.29,1.53-49.94.44-17.22.85-34.45,1.52-51.66.16-4.02.33-8.04.52-12.06.09-1.88.18-3.76.28-5.64.05-.92.1-1.83.15-2.75.03-.45.05-.9.08-1.36.01-.23.1-1.66.06-1.1.4-6.57.88-13.15,1.55-19.7.84-8.15,1.59-16.77,5.03-24.3.27-.58-.65.9-.26.42.08-.09.13-.21.21-.31.14-.17.3-.35.43-.53.58-.79-1.11.92-.42.38.42-.32,1.07-.54-.97.6.52-.29,1.2-.54-1.25.56,1.21-.54,5.83-2.64,3.8-4.58-1.88-1.79-6.81-.55-8.76.33h0Z"/>
  <path class="cls-1" d="M540.29,997.38c5.25-6.59,10.48-13.21,15.27-20.14s9.32-14.5,13.38-22.09c.77-1.43-1.6-2.04-2.43-2.15-2.18-.3-4.71.21-6.72,1.06-.45.19-.9.36-1.35.54-.53.19-.24.1.85-.27-.23.07-.46.14-.69.2-.33.09-.66.15-.99.24,2.18-.6,1.13-.24.57-.14-1.2.21-2.42.34-3.62.57-4.6.89-9.02,2.59-12.57,5.73,3.97-.13,7.95-.26,11.92-.39,2.72-9.46,3.82-19.29,4.44-29.09.65-10.39.7-20.8.85-31.2.08-5.51.2-11.03.5-16.53.05-.92-2.03-1.31-2.48-1.37-1.57-.21-3.46.05-4.96.48-2.19.63-5.84,1.78-5.99,4.49-1.1,19.78.1,39.71-2.5,59.4-.71,5.35-1.71,10.67-3.2,15.86-.59,2.04,2.69,2.27,3.9,2.21s2.34-.26,3.49-.54c1.39-.35,3.42-1.07,4.54-2.06.2-.18,1.85-1.29,1.85-1.47-.72.44-.89.55-.52.33.14-.08.28-.16.42-.24,1.02-.62-1.5.6-.43.19,1.14-.43-1.84.5-.69.21.26-.07.53-.13.8-.2-2.56.7-.65.16.07.05,3.68-.54,7.3-1.32,10.74-2.78l-9.14-1.09c-2.08,3.88-4.24,7.72-6.52,11.48-.24.39-.27.45-.11.19-.14.22-.27.44-.41.67-.27.44-.55.88-.82,1.32-.48.76-.96,1.51-1.45,2.26-1.06,1.63-2.15,3.25-3.26,4.85-4.74,6.82-9.89,13.34-15.06,19.83-1.89,2.37,1.64,3.11,3.39,3.03s3.6-.43,5.25-1.11c1.3-.54,2.78-1.18,3.68-2.31h0Z"/>
  <path class="cls-1" d="M494.16,1014c6.33-3.06,12.67-6.24,18.5-10.18s10.99-8.59,15.73-13.68c.8-.86,1.54-2.11,1.21-3.35s-1.61-2.01-2.72-2.29c-3.11-.79-7.25.14-9.49,2.54s-4.71,4.87-7.27,7.09c-.27.24-.54.47-.82.7-.93.8.98-.79.1-.08-.63.51-1.26,1.01-1.91,1.51-1.13.86-2.29,1.69-3.46,2.49s-2.38,1.56-3.6,2.3c-.65.39-1.3.77-1.96,1.15-.42.24-1.76.93.1-.05-.32.17-.63.35-.95.52-2.99,1.62-6.04,3.12-9.1,4.6-1.3.63-2.8,1.58-3.52,2.91-.53.98-.68,2.36.15,3.25,2.13,2.32,6.47,1.79,9,.57h0Z"/>
  <path class="cls-1" d="M440.18,1022.49c7.08-2.87,13.81-6.44,20.27-10.5,2.31-1.45,3.45-5.14.76-6.81-3.03-1.89-6.81-.92-9.62.84-.39.25-.78.49-1.18.73-.42.26-1.94,1.12,0,.01-.7.4-1.39.82-2.1,1.22-1.51.85-3.03,1.67-4.58,2.46-3.09,1.57-6.24,3.01-9.45,4.31-1.31.53-2.84,1.84-3.46,3.15-.52,1.11-.59,2.65.25,3.65,2.24,2.67,6.27,2.08,9.1.94h0Z"/>
</svg>