<?xml version="1.0" encoding="UTF-8"?>
<svg id="Layer_1" xmlns="http://www.w3.org/2000/svg" viewBox="0 0 837.5 1080">
  <defs>
    <style>
      .cls-1 {
        fill: #112a46;
      }
    </style>
  </defs>
  <g>
    <path class="cls-1" d="M114.62,924.27c14.33,8.88,30.8,13.69,47.24,16.83,19.67,3.75,39.79,4.76,59.78,4.52,21.96-.27,43.89-2.31,65.59-5.64,22.72-3.49,45.25-8.32,67.35-14.66,20.58-5.91,40.89-13.07,60.34-22.03,2.2-1.01,4.39-2.05,6.57-3.12,1.93-.94,4.56-3.38,2.82-5.65s-5.68-1.73-7.82-.68c-8.97,4.38-18.14,8.33-27.45,11.92-2.43.94-4.87,1.85-7.31,2.74-1.02.37.2-.07.34-.12-.32.13-.65.24-.98.35-.59.21-1.18.42-1.76.63-1.31.46-2.63.92-3.95,1.38-5.09,1.74-10.21,3.39-15.35,4.96-10.49,3.19-21.08,6.03-31.75,8.53-5.38,1.26-10.77,2.44-16.18,3.54-2.75.56-5.5,1.09-8.26,1.61-1.31.24-2.61.51-3.92.72,1.74-.28-.7.12-1.04.18-.73.13-1.45.25-2.18.37-21.6,3.67-43.45,6.06-65.36,6.79-2.64.09-5.28.15-7.91.19-1.24.02-2.47.03-3.71.03-.61,0-1.23-.03-1.85,0,1.55-.07-.53,0-.97,0-5.08-.04-10.16-.17-15.24-.43-9.58-.49-19.15-1.39-28.63-2.88-2.24-.35-4.47-.74-6.7-1.16-.52-.1-1.04-.2-1.56-.3-.76-.14,1.28.26.13.03-.23-.05-.46-.09-.68-.14-1.13-.23-2.26-.48-3.38-.73-4.13-.93-8.22-2-12.27-3.24-3.76-1.16-7.48-2.46-11.13-3.94-.84-.34-1.68-.7-2.51-1.06-.41-.18-.82-.36-1.23-.55-.18-.08-.37-.16-.54-.25,1.25.61.17.08-.1-.05-1.62-.77-3.23-1.57-4.8-2.42s-3.12-1.75-4.64-2.69c-2.39-1.48-6.13-.88-8.29.79-1.77,1.38-3.21,4.09-.72,5.63h0Z"/>
    <path class="cls-1" d="M134.54,1024.37c16.6,10.29,36.15,15.22,55.3,18.04,23.53,3.46,47.57,3.62,71.28,2.14,26.26-1.63,52.4-5.46,78.13-10.93,25.44-5.41,50.49-12.59,74.83-21.77,21.2-8,41.98-17.64,60.9-30.2,1.98-1.31,3.93-2.67,5.86-4.06s2.96-4.29.65-5.9-6.11-.86-8.3.72c-4.02,2.9-8.15,5.63-12.38,8.21-.51.31-1.05.59-1.54.93,1.46-1.04-.25.14-.59.34-1.16.68-2.32,1.35-3.49,2.01-2.28,1.29-4.59,2.55-6.91,3.77-10.02,5.27-20.35,9.95-30.85,14.17-2.8,1.13-5.61,2.22-8.44,3.29-.73.28-1.46.55-2.19.82-.27.1-.53.2-.8.3,1.62-.55.2-.08-.1.04-1.48.54-2.97,1.07-4.46,1.6-5.78,2.04-11.61,3.96-17.46,5.77-12.2,3.77-24.55,7.08-36.99,9.97-6.39,1.48-12.8,2.85-19.24,4.1-3.15.61-6.3,1.2-9.45,1.76-.38.07-.75.13-1.13.2-.95.17,1.49-.25,0,0-.75.13-1.5.26-2.25.38-1.65.28-3.31.55-4.96.81-12.63,2-25.33,3.56-38.07,4.61-12.21,1.01-24.47,1.57-36.72,1.53-1.39,0-2.78-.02-4.17-.04,1.62.02-.81-.02-1.2-.03-.76-.02-1.51-.04-2.27-.06-2.98-.08-5.96-.21-8.94-.37-5.49-.3-10.97-.75-16.44-1.37s-10.6-1.36-15.85-2.32c-1.18-.22-2.35-.44-3.53-.68-.58-.12-1.16-.24-1.74-.36-.29-.06-.58-.12-.86-.18-1.34-.28.84.19-.21-.04-2.35-.54-4.7-1.1-7.03-1.73-4.53-1.22-9-2.64-13.39-4.3-2.03-.77-4.03-1.59-6.01-2.48-.92-.41-1.82-.84-2.73-1.27-.97-.46,1,.51.05.02-.18-.09-.35-.18-.53-.27-.53-.27-1.05-.54-1.57-.81-1.78-.94-3.52-1.94-5.23-3-2.43-1.5-6.11-1.05-8.3.72-1.78,1.43-3.18,4.33-.65,5.9h0Z"/>
    <path class="cls-1" d="M99.68,832.31c21.16,8.09,43.66,12.08,66.17,14.04,26,2.27,52.25,1.74,78.22-.59,27.48-2.47,54.81-7.08,81.59-13.72,25.79-6.4,51.24-14.74,75.45-25.73,21.32-9.68,41.97-21.48,59.77-36.81,1.95-1.68,3.86-3.4,5.72-5.17s1.15-3.92-1.22-4.54c-2.69-.71-6.19.29-8.2,2.2-1.86,1.77-3.77,3.5-5.72,5.17-.95.81-1.9,1.62-2.87,2.41-.49.4-.98.8-1.47,1.19-.2.16-.39.32-.59.47-.2.16-.4.32-.6.47.49-.38.58-.46.29-.23-4.32,3.29-8.69,6.49-13.23,9.48s-9.5,6.01-14.39,8.77c-1.23.69-2.46,1.37-3.69,2.05-.25.14-.5.27-.75.4-1.28.7,1.09-.57-.2.11-.76.4-1.51.8-2.27,1.2-2.56,1.33-5.14,2.63-7.74,3.89-11.25,5.46-22.81,10.26-34.56,14.54-1.39.5-2.78,1-4.17,1.49-.34.12-1.39.48-.04.01-.37.13-.74.26-1.11.38-.81.28-1.63.56-2.45.83-3.14,1.06-6.29,2.08-9.45,3.07-6.25,1.96-12.55,3.78-18.87,5.48s-12.85,3.31-19.32,4.78c-3.33.76-6.68,1.48-10.02,2.17-1.6.33-3.2.65-4.8.97-.8.16-1.6.31-2.4.47-.32.06-.64.12-.96.18,1.51-.29-.29.05-.59.11-13.21,2.46-26.5,4.42-39.86,5.88-6.55.71-13.11,1.3-19.69,1.77-3.33.23-6.66.43-9.99.6-1.58.08-3.15.15-4.73.21-.78.03-1.57.06-2.35.09-.31.01-.63.02-.94.03,1.3-.04-.12,0-.41.01-12.62.37-25.27.22-37.87-.55-5.92-.36-11.83-.87-17.72-1.54-2.92-.33-5.84-.7-8.76-1.12.18.03,1.02.15.08,0-.41-.06-.82-.12-1.23-.18-.61-.09-1.22-.19-1.83-.28-1.41-.22-2.82-.46-4.23-.7-10.46-1.83-20.84-4.26-30.92-7.61-1.14-.38-2.27-.77-3.39-1.17-.5-.18-1-.36-1.5-.54-.28-.1-.55-.2-.83-.31,1.05.39-.07-.03-.23-.09-2.69-1.03-5.81-.63-8.24.97-1.42.94-3.62,3.91-.9,4.95h0Z"/>
    <path class="cls-1" d="M84.46,732.36c21.2,5.34,43.16,7.61,64.97,8.51,25.52,1.04,51.13-.02,76.55-2.5,26.83-2.62,53.49-6.95,79.78-12.9,25.61-5.8,50.9-13.23,75.36-22.8,21.79-8.53,43.17-18.8,62.51-32.06,2.35-1.61,4.67-3.26,6.96-4.95,1.99-1.47,1.12-3.5-1.06-3.94-2.83-.58-5.94.53-8.2,2.2-.54.39-1.07.79-1.61,1.18-.22.16-.43.31-.65.47-1.06.77.58-.4-.09.07-1.1.78-2.22,1.55-3.34,2.31-2.22,1.51-4.47,2.97-6.75,4.4-4.58,2.88-9.26,5.6-14.01,8.19-2.52,1.37-5.05,2.7-7.61,4-.6.3-1.19.6-1.79.9,1.27-.63-.84.41-1.1.54-1.35.66-2.71,1.31-4.07,1.96-5.29,2.5-10.64,4.86-16.04,7.1-5.72,2.37-11.49,4.61-17.31,6.73-2.89,1.05-5.79,2.07-8.7,3.07-.31.11-.62.21-.93.31,1.3-.44.22-.07-.11.03-.7.23-1.4.47-2.1.7-1.56.51-3.12,1.02-4.69,1.52-12.28,3.92-24.71,7.37-37.24,10.41-6.46,1.57-12.94,3.02-19.44,4.38-1.51.31-3.01.62-4.52.92,1.37-.27-.85.17-1.2.23-.92.18-1.85.36-2.77.54-3.2.61-6.4,1.2-9.6,1.76-12.93,2.26-25.94,4.13-38.99,5.6-6.43.72-12.88,1.35-19.33,1.87-3.23.26-6.46.5-9.69.71-.33.02-.66.04-.99.06-1.59.1.7-.04-.27.02-.74.04-1.48.09-2.22.13-1.64.09-3.28.18-4.91.26-12.25.58-24.52.78-36.78.51-5.83-.13-11.67-.37-17.49-.73-2.86-.18-5.72-.38-8.58-.62-.65-.05-1.3-.11-1.95-.17-.29-.03-2.13-.2-1.08-.1-1.42-.14-2.84-.28-4.26-.43-10.28-1.1-20.52-2.65-30.63-4.86-2.31-.5-4.61-1.05-6.9-1.62-2.61-.66-6.21.44-8.2,2.2s-1.26,3.36,1.06,3.94h0Z"/>
    <path class="cls-1" d="M71,632.89c21.51,5.41,43.64,7.77,65.76,8.69,25.44,1.05,50.93-.03,76.26-2.48,27-2.61,53.83-6.98,80.28-12.97,25.52-5.78,50.75-13.18,75.14-22.7,22.17-8.66,43.78-19.13,63.47-32.57,2.11-1.44,4.18-2.91,6.24-4.43,1.88-1.39,1.29-3.09-.92-3.42-2.72-.4-6.01.58-8.2,2.2s-4.24,3.07-6.41,4.54c-1.07.73-2.15,1.45-3.24,2.16-.29.19-1.52.98-.66.43-.7.45-1.4.9-2.11,1.34-4.58,2.88-9.26,5.6-14.01,8.19-5.02,2.73-10.11,5.31-15.27,7.76-.62.29-1.23.58-1.85.87,1.1-.52.15-.07-.13.06-.35.16-.69.32-1.04.48-1.39.64-2.79,1.27-4.19,1.89-2.7,1.19-5.41,2.35-8.13,3.48-5.64,2.34-11.34,4.55-17.08,6.64-2.97,1.08-5.94,2.13-8.93,3.15-1.39.47-2.78.94-4.18,1.41-1.09.36-.08.03.12-.04-.39.13-.78.26-1.17.38-.86.28-1.72.56-2.58.83-12.28,3.92-24.71,7.37-37.24,10.41-3.14.76-6.28,1.5-9.44,2.21-1.5.34-2.99.67-4.49,1-.83.18-1.67.36-2.5.54-.33.07-.67.14-1,.21-.47.1-1.5.32-.44.09-6.53,1.36-13.09,2.61-19.66,3.76-12.85,2.25-25.77,4.11-38.73,5.57-3.27.37-6.54.71-9.82,1.03-1.5.15-3.01.28-4.51.42-1.09.1-.28.03-.05,0-.42.04-.83.07-1.25.11-.92.08-1.83.15-2.75.23-6.34.51-12.7.92-19.05,1.23-12.18.59-24.37.79-36.56.53-2.99-.06-5.97-.16-8.96-.28-.68-.03-1.36-.06-2.04-.09-.38-.02-.75-.04-1.13-.05-.23-.01-1.22-.06-.3-.01-1.49-.08-2.98-.16-4.47-.26-5.51-.34-11.01-.8-16.51-1.38-10.3-1.09-20.56-2.63-30.68-4.82-2.77-.6-3.84-.85-6.23-1.46-2.71-.68-5.73-.1-8.16,1.26-1.09.61-3.93,3.18-1.19,3.87h0Z"/>
    <path class="cls-1" d="M482.8,837.45c-3.16-19.85-6.24-39.72-9.27-59.59s-6.06-40.1-9.04-60.16-5.76-38.95-8.62-58.42c-2.67-18.13-5.33-36.25-8.02-54.38-2.37-16.01-4.77-32.03-7.22-48.03-.28-1.81-.55-3.61-.83-5.42-.11-.73-1.63-.86-2.06-.89-1.36-.1-2.95.17-4.25.54-1.36.39-2.76.86-3.95,1.66-.58.39-1.46.99-1.34,1.8,2.42,15.68,4.77,31.38,7.11,47.08,2.66,17.9,5.29,35.81,7.93,53.71,2.85,19.35,5.69,38.7,8.56,58.04,2.97,20.03,5.96,40.05,9,60.07,3.03,19.94,6.1,39.87,9.25,59.79.39,2.44.77,4.87,1.16,7.31.12.73,1.62.86,2.06.89,1.36.1,2.95-.17,4.25-.54,1.36-.39,2.76-.86,3.95-1.66.58-.39,1.47-.99,1.34-1.8h0Z"/>
    <path class="cls-1" d="M144.81,1019.5c-4.38-22.77-8.5-45.59-12.53-68.43-4.9-27.73-9.65-55.48-14.29-83.25-4.95-29.55-9.78-59.13-14.48-88.72-4.5-28.28-8.89-56.58-13.11-84.9-3.51-23.56-6.91-47.14-10-70.76-.33-2.49-.65-4.98-.97-7.47s-12-.09-11.59,3.11c2.93,23,6.21,45.96,9.59,68.9,4.1,27.85,8.39,55.68,12.78,83.49,4.68,29.6,9.48,59.17,14.4,88.73,4.7,28.25,9.5,56.48,14.45,84.69,4.12,23.46,8.32,46.91,12.76,70.32.47,2.47.94,4.93,1.41,7.4.5,2.61,12.17-.08,11.59-3.11h0Z"/>
    <path class="cls-1" d="M93.18,632.23c-3.24-1.84-6.48-3.8-9.29-6.27-1.85-1.63-3.55-3.48-4.28-5.89-1.73-5.72,3.55-10.66,6.83-14.62,4.88-5.9,9.9-11.83,15.87-16.67,5.62-4.56,12.02-7.63,18.54-11.05,13.9-7.29,27.86-13.71,41.82-19.31,7.29-2.93,14.65-5.67,22.08-8.25,3.73-1.29,7.48-2.54,11.24-3.74-1.01.32.21-.07.46-.14.47-.15.94-.3,1.42-.44.94-.29,1.89-.59,2.84-.87,1.89-.58,3.79-1.14,5.69-1.7,7.7-2.25,15.46-4.3,23.27-6.16,1.83-.44,3.66-.86,5.5-1.28.48-.11.97-.22,1.45-.33.25-.06,1.51-.33.47-.11,1.16-.25,2.32-.5,3.49-.75,3.87-.81,7.75-1.58,11.65-2.29,7.76-1.42,15.55-2.65,23.37-3.67.97-.13,1.95-.25,2.92-.37,1.07-.13,1.54-.19,2.07-.25,1.95-.22,3.9-.43,5.85-.63,3.89-.39,7.78-.73,11.68-1.02,28.37-2.07,56.5-.89,84.77,3.48,6.28.97,12.74,2.11,19.02,3.54,5.24,1.19,10.8,2.39,15.43,5.22,9.53,5.83,14.01,17.44,7.74,27.35-1.67,2.63-4.01,4.85-6.52,6.67-.46.33-1.52,1.1-1.32,1.87s1.51.91,2.08.96c2.6.22,6.06-.64,8.2-2.2,5.47-3.97,10.54-9.34,11.83-16.21,1.05-5.59-.33-11.05-3.66-15.62-7.34-10.08-20.78-12.2-32.24-14.37-29.07-5.5-58.61-7.68-88.17-6.41-33.45,1.44-66.72,6.93-99.05,15.55-32.19,8.58-63.6,20.32-93.44,35.16-7.14,3.55-14.2,7.28-21.14,11.23-7.36,4.19-13.65,9.74-19.32,16.01-2.72,3.01-5.3,6.13-7.87,9.25-2.19,2.66-4.65,5.32-5.94,8.57-2.13,5.37.46,10,4.51,13.56,2.81,2.47,6.05,4.42,9.29,6.27,2.1,1.2,5.41.31,7.5-.51.58-.23,5.3-2.46,3.39-3.54h0Z"/>
  </g>
  <path class="cls-1" d="M420.2,574.55c3.39,20.2,4.89,40.68,6.05,61.11s1.89,41.69,3.34,62.52c1.3,18.68,3.04,37.39,5.31,55.98,1.65,13.47,3.87,26.84,6.94,40.06,3.77,16.26,8.44,32.31,13.06,48.35.77,2.66,1.54,5.32,2.31,7.98s4.65,2.72,6.77,2.09c2.47-.74,5.05-2.34,4.82-5.19-1.18-14.93-2.56-29.84-4-44.75-1.89-19.69-3.91-39.36-6.03-59.03-2.32-21.53-4.77-43.04-7.39-64.54-2.44-19.99-5.01-39.98-7.91-59.91-2.26-15.55-4.64-31.12-7.78-46.52-.29-1.42-.59-2.84-.9-4.25-.58-2.67-4.78-2.68-6.77-2.09-2.21.66-5.36,2.4-4.82,5.19,3.14,16.17,6.05,32.39,8.83,48.63,3.16,18.44,6.15,36.91,9.02,55.39,2.99,19.3,5.85,38.62,8.56,57.97,2.63,18.77,5.13,37.57,7.45,56.39,2.06,16.7,3.98,33.43,5.62,50.18.18,1.82.35,3.63.52,5.45.1,1.05,1.56,1.85,2.39,2.12,1.32.43,3.07.36,4.38-.03,2.44-.73,5.09-2.34,4.82-5.19-1.54-16.4-3.38-32.77-5.35-49.13-2.24-18.57-4.67-37.12-7.23-55.65-2.68-19.35-5.5-38.67-8.46-57.98s-5.87-37.46-9.03-56.16c-2.81-16.6-5.74-33.17-8.89-49.71-.34-1.79-.69-3.58-1.04-5.38l-11.59,3.11c3.18,14.61,5.49,29.42,7.71,44.2,2.92,19.54,5.5,39.14,7.93,58.75,2.67,21.49,5.14,43,7.5,64.52,2.19,20.04,4.27,40.09,6.23,60.16,1.53,15.67,3,31.35,4.29,47.04.12,1.44.24,2.89.35,4.33l11.59-3.11c-4.93-17.04-9.96-34.06-14.17-51.3-3.19-13.07-5.66-26.27-7.44-39.61-2.39-17.96-4.02-36.06-5.46-54.11-1.65-20.7-2.37-41.16-3.45-61.9-1.08-20.68-2.37-41.4-5.36-61.9-.35-2.4-.72-4.79-1.12-7.17-.18-1.07-1.48-1.83-2.39-2.12-1.32-.43-3.07-.36-4.38.03-2.27.68-5.29,2.39-4.82,5.19h0Z"/>
  <g>
    <g>
      <path class="cls-1" d="M616.41,939.21c-1.17,1.08-2.38,2.11-3.49,3.24-24.77,25.17-55.02,39.14-89.75,43.79-13.38,1.79-26.24-1.01-38.78-5.48-14.75-5.25-28.27-12.91-41.36-21.4-14-9.07-27.92-18.29-42.2-26.91-7.27-4.39-15.26-7.59-22.92-11.33-.88-.43-1.83-.76-2.63-1.3-2.96-1.99-2.91-3.83.2-5.62,10.89-6.28,22.28-7.9,34.4-3.97,11.41,3.7,23.1,5.66,35.18,5.24,12.5-.43,24.38-3.41,35.94-7.97,1.17-.46,2.28-1.07,3.4-1.66.48-.26.89-.64,2.45-1.79-2.26.14-3.38.05-4.43.29-19.13,4.4-37.41.95-55.02-6.57-7.95-3.4-15.53-7.8-22.94-12.3-3.37-2.05-6.21-5.2-8.78-8.29-2.28-2.74-1.19-5,2.31-5.73,1.63-.34,3.34-.42,5.02-.43,29.37-.29,53.68-12.19,74.42-32.35,13.26-12.89,23.57-28.12,34.46-42.91,5.48-7.44,11.14-14.79,17.29-21.67,6.69-7.5,15.03-12.57,25.26-13.93.28-.04.69,0,.81-.17,2.16-3.15,5.53-5.05,8.03-7.75,4.37-4.7,2.42-10.67,2.05-16.25-.98-14.84-.41-29.46,6.04-43.27,3.58-7.65,8.51-14.12,15.67-18.81,9.69-6.33,19.24-6.88,28.98-.01,5.23,3.69,5.66,3.4,6.52-2.79,19.52-140.46,39.02-280.92,58.56-421.37,9.18-65.99,18.49-131.96,27.57-197.96.76-5.55,4.59-8.09,8.24-7.74,5.01.48,10.18,1.75,14.72,3.87,4.18,1.95,5.62,6.15,4.92,11.08-16.27,113.72-32.44,227.45-48.69,341.17-13.15,92.06-26.36,184.11-39.62,276.15-.49,3.43-.06,5.34,3.93,5.5,1.87.07,3.8.97,5.54,1.83,13.6,6.75,21.92,25.27,18.06,39.97-3.34,12.7-10.44,23.52-17.13,34.55-1.96,3.24-4.35,6.26-5.97,9.65-1.51,3.16-2.55,6.63-3.27,10.07-.68,3.22-.94,6.59-.85,9.88.04,1.65.96,3.49,1.97,4.88,13.56,18.69,20.44,39.89,22.78,62.55,3.04,29.45-5.05,56.77-18.01,82.75-17.22,34.54-47.12,49.54-84.04,53.19-1.11.11-2.39.38-3.33-.02-1.53-.66-2.84-1.81-4.24-2.76,1.06-1.03,1.95-2.58,3.22-3,15.9-5.34,27.94-15.77,38.1-28.67,4.28-5.43,8.34-11.04,12.5-16.57-.35-.3-.7-.59-1.04-.89ZM582.01,951.71c1.5-.3,1.95-.29,2.29-.48.86-.47,1.71-.97,2.48-1.57,21.91-16.98,40.18-36.98,51.94-62.44.68-1.47,2.63-2.35,4-3.51.43,1.73,1.51,3.6,1.2,5.18-7.44,36.89-27.44,66.09-55.56,90.26-.87.75-1.67,1.58-2.5,2.37,2.14.18,3.88-.25,5.49-.95,12.56-5.44,24.29-12.32,34.56-21.39,29.32-25.88,44.53-57.73,41.05-97.55-1.87-21.34-9.33-40.8-18-60.12-3.84-8.56-8.47-12.99-18.15-14.97-21.85-4.46-42.87-12.08-63.07-21.73-1.6-.76-3.44-1.48-5.15-1.46-10.01.11-19.41,2.73-26.5,9.95-7.13,7.27-13.64,15.2-19.93,23.23-8.82,11.25-16.69,23.27-25.83,34.24-22.58,27.09-50.63,43.93-86.96,44.27-.97,0-1.93.47-3.81.96,1.7,1.19,2.5,1.94,3.44,2.38,16.15,7.46,32.8,13.31,50.79,13.76,32.48.81,59.36-10.08,77.53-38.31,5.16-8.01,9.79-16.37,14.98-24.35,7.02-10.79,14.28-21.43,21.62-32,.79-1.14,2.8-1.42,4.24-2.1-.49,1.46-.69,3.11-1.52,4.34-5.73,8.46-12.21,16.48-17.29,25.31-8.44,14.7-15.8,30.02-23.99,44.88-17.66,32.03-46.18,46.46-81.48,49.38-12.46,1.03-24.58-1.3-36.44-5.05-8.66-2.73-17.34-3.29-25.96.09-1.42.56-2.69,1.5-4.59,2.58,1.51.82,2.17,1.35,2.92,1.57,18.37,5.31,34.86,14.52,51.17,24.23,10.48,6.23,21.18,12.09,31.94,17.83,2.2,1.17,5.23,1.95,7.57,1.46,7.93-1.65,15.95-3.35,23.55-6.1,21.86-7.9,37.36-23.48,48.76-43.15,10.26-17.7,19.68-35.89,29.49-53.86.73-1.33,1.65-2.55,2.49-3.82l1.54.64c-.68,2.41-.96,5.03-2.12,7.19-10.4,19.39-20.39,39.04-31.61,57.95-13.43,22.63-33.46,37-59.2,43.13-1.34.32-2.61.96-4.53,1.68,1.26.84,1.68,1.26,2.17,1.42,1.19.4,2.42.73,3.65.99,25.42,5.39,50.19,2.57,74.44-6.1,2.41-.86,4.68-2.58,6.56-4.37,9.04-8.61,15.99-18.77,21.12-30.13,10.59-23.44,16.99-48.07,20.51-73.5.21-1.55.57-3.08.86-4.62,1.22.9,1.85,1.79,1.77,2.6-3.51,35.23-12.19,68.85-31.94,99.76ZM627.12,671.2c1.46-.56,2.28-.72,2.9-1.15,9.44-6.56,17.89-13.77,17.05-26.87-.04-.69.15-1.39.25-2.09,9.53-69.61,18.79-139.25,28.68-208.8,7.27-51.09,16.04-101.96,22.93-153.09,9.63-71.57,18.14-143.3,27.11-214.96q1.02-8.14-6.62-10.45-6.31-1.91-7.23,4.57c-4.91,35.14-9.82,70.28-14.72,105.42-12.86,92.37-25.69,184.74-38.58,277.1-10.48,75.14-21.03,150.27-31.53,225.41-.2,1.43-.15,2.89-.24,4.92ZM620.3,680.4c-.33-.93-.37-1.4-.62-1.68-7.68-8.3-15.81-9.8-25.82-4.74-6.28,3.18-11.26,7.8-14.99,13.77-4.84,7.72-8.4,16.05-8.88,25.14-.57,10.74-.14,21.54-.15,32.31,0,2.82,1.76,3.73,4.2,4.33,6.8,1.68,13.59,3.42,20.32,5.35,14.41,4.13,28.77,8.47,43.21,12.51,1.5.42,4.4,0,4.96-1,6.04-10.74,12.54-21.34,17.23-32.68,2.95-7.16,3.89-15.48,4.1-23.32.13-4.83-2.08-10.16-4.58-14.5-3.26-5.66-9.41-6.7-16.26-7.05,6.54,23.92-2.8,44.35-11.24,65.5-4.03-2.52-5.38-4.77-4.2-9.08,3.58-13.09,6.95-26.27,9.64-39.57.9-4.46,0-9.5-1.03-14.06-1.16-5.21-4.61-7.34-9.88-7.25-2.37.04-4.76.25-7.1.65-8.58,1.46-16.46,4.5-23,10.51-.66.61-1.88.61-2.85.89.09-1.13-.15-2.44.35-3.34.66-1.17,1.83-2.11,2.91-2.99,5.55-4.56,12.04-7.05,19.01-8.46,1.55-.31,3.06-.82,4.7-1.26ZM569.41,760.18c-.14.42-.28.85-.42,1.27,1.32.67,2.62,1.37,3.95,2.01,17.76,8.56,36.59,14.05,55.56,19.06,3.77,1,7.69,1.5,11.57,2.01,1.48.2,3.13.05,4.54-.43.83-.28,1.33-1.52,1.98-2.34-.76-.5-1.46-1.23-2.3-1.45-3.93-1.03-7.93-1.77-11.83-2.87-18.88-5.31-37.73-10.71-56.61-16.03-2.1-.59-4.3-.84-6.45-1.24ZM646.03,776.13c.1-.52.19-1.04.29-1.56-1.4-.69-2.75-1.57-4.22-2.04-7.2-2.29-14.4-4.61-21.68-6.67-15.35-4.35-30.73-8.61-46.15-12.7-2.32-.61-4.94-.09-7.42-.09-.14.55-.28,1.09-.42,1.64,1.58.74,3.08,1.71,4.74,2.18,10.65,2.99,21.33,5.85,31.99,8.78,12.28,3.38,24.54,6.84,36.85,10.12,1.9.51,4.01.24,6.03.34ZM661.83,742.32c.36.12.72.24,1.08.36,6.13-10.41,12.27-21.07,10.8-33.79-1.23-10.58-6.82-18.87-17.15-23.06-2.28-.93-4.9-1.92-7.44.63,1,.61,1.65,1.12,2.38,1.44,9.28,4.06,14.23,11.43,15.99,21.14,1.56,8.63.09,17-2.71,25.18-.93,2.72-1.96,5.4-2.94,8.1ZM408.11,883.19c.51,1.18.54,1.53.73,1.65,14.27,9.43,29.98,15.02,46.91,16.88,4.65.51,8.29-2.73,11.89-5.84-20.84.89-40.12-4.73-59.53-12.69ZM410.19,932.51l-1.11,1.81c14.03,8.92,28.01,17.93,42.16,26.64,2.07,1.27,5,1.15,7.54,1.67.18-.57.35-1.14.53-1.71-16.37-9.47-32.74-18.94-49.11-28.41ZM668.04,842.21c-2.28-17.19-7.68-33.74-19.63-47.67,6.62,16.06,13.23,32.12,19.63,47.67ZM513.85,976.52c-8.05.41-15.06.76-23.04,1.16,7.07,5.68,17.02,5.25,23.04-1.16ZM642.02,665.6c-4.61,3.83-8.87,7.37-13.68,11.36,7.74.18,14.7-5.46,13.68-11.36ZM499.67,889.51c-.32-.4-.65-.8-.97-1.2-3.75,2.82-7.5,5.65-11.25,8.47.27.35.54.7.81,1.05,5.79-.08,9.21-3.37,11.42-8.32ZM535.88,975.95c-.19-.41-.38-.81-.57-1.22l-15.26,5.61c.17.46.34.92.51,1.37,6.1.86,10.75-2.36,15.33-5.77ZM469.06,900.12c4.7,2.5,7.11,1.62,9.08-2.93-2.99.96-5.5,1.77-9.08,2.93ZM639.7,679.98c-.31-.64-.62-1.29-.92-1.93-1.96.89-3.91,1.78-5.87,2.67.29.63.57,1.26.86,1.88,1.98-.88,3.96-1.75,5.94-2.63Z"/>
      <path class="cls-1" d="M569.12,991.81c-.5,0-.99-.06-1.43-.26-1.13-.48-2.13-1.22-3.11-1.93-.4-.29-.81-.59-1.22-.87l-.51-.35.45-.43c.32-.31.62-.67.94-1.05.72-.85,1.47-1.73,2.46-2.07,14.3-4.8,26.33-13.86,37.87-28.51,2.94-3.73,5.82-7.61,8.61-11.36,1.2-1.61,2.39-3.22,3.6-4.82l-.35-.3c-.26.24-.53.48-.8.72-.79.71-1.6,1.44-2.35,2.2-23.98,24.37-54.28,39.15-90.04,43.93-11.68,1.57-24.08-.19-39.02-5.51-12.84-4.57-25.63-11.19-41.47-21.45-2.72-1.77-5.45-3.54-8.17-5.31-11.07-7.21-22.52-14.66-34.02-21.59-4.99-3.01-10.41-5.5-15.66-7.92-2.38-1.09-4.83-2.22-7.22-3.39-.28-.14-.57-.26-.85-.39-.62-.27-1.26-.55-1.84-.94-1.65-1.11-2.44-2.19-2.4-3.32.04-1.12.9-2.16,2.63-3.16,11.26-6.5,22.97-7.85,34.8-4.01,12.05,3.91,23.5,5.62,35.01,5.22,11.54-.4,23.25-2.99,35.77-7.93,1.04-.41,2.06-.95,3.04-1.48l.3-.16c.26-.14.51-.33,1.02-.72.02-.02.05-.04.07-.06-.16,0-.31,0-.46.01-.99.03-1.65.05-2.27.19-17.44,4.01-35.54,1.86-55.33-6.59-7.53-3.21-14.64-7.25-23-12.33-3.41-2.07-6.29-5.26-8.9-8.39-1.48-1.77-1.44-3.13-1.15-3.96.44-1.25,1.76-2.17,3.74-2.58,1.74-.37,3.56-.43,5.12-.45,27.83-.27,52.06-10.81,74.07-32.21,11.06-10.75,20.22-23.37,29.09-35.57,1.77-2.43,3.53-4.86,5.31-7.28,4.52-6.14,10.57-14.15,17.31-21.71,7.18-8.05,15.78-12.79,25.56-14.09.08-.01.18-.02.27-.02.07,0,.18,0,.24-.02,1.32-1.9,3.07-3.35,4.76-4.76,1.12-.93,2.27-1.89,3.26-2.95,3.34-3.59,2.82-7.91,2.27-12.48-.13-1.12-.27-2.27-.35-3.4-.87-13.22-.83-28.73,6.08-43.52,3.91-8.38,9.1-14.6,15.85-19.01,10.31-6.74,19.98-6.74,29.54,0,1.93,1.36,3.72,2.55,4.4,2.26.67-.29.99-2.22,1.33-4.71l20-143.94c12.85-92.48,25.69-184.95,38.56-277.43,3.3-23.72,6.62-47.44,9.93-71.15,5.81-41.56,11.82-84.53,17.64-126.81.84-6.11,5.14-8.51,8.79-8.17,5.35.51,10.49,1.87,14.88,3.91,4.15,1.93,6,6.05,5.2,11.6-9.3,65-18.57,130.01-27.84,195.01-6.95,48.72-13.89,97.44-20.85,146.16-12.65,88.53-25.98,181.44-39.62,276.16-.3,2.08-.18,3.21.4,3.91.52.63,1.52.96,3.06,1.02,1.96.08,3.91.97,5.74,1.88,13.89,6.9,22.28,25.46,18.32,40.54-3.02,11.5-9.2,21.62-15.18,31.4-.67,1.09-1.34,2.19-2,3.28-.71,1.17-1.49,2.33-2.23,3.45-1.32,1.97-2.69,4.02-3.71,6.16-1.35,2.82-2.44,6.17-3.23,9.96-.64,3.06-.93,6.34-.84,9.76.03,1.33.72,3,1.87,4.6,12.85,17.71,20.34,38.25,22.87,62.79,2.73,26.45-3,52.83-18.06,83.03-15.92,31.93-43.54,49.42-84.44,53.46-.2.02-.41.04-.62.07-.51.06-1.02.13-1.52.13ZM564.4,988.26c.26.18.51.37.76.55.97.71,1.89,1.38,2.91,1.82.64.28,1.56.16,2.44.06.22-.03.43-.05.64-.07,40.52-4,67.88-21.31,83.64-52.91,14.97-30.01,20.67-56.22,17.96-82.48-2.52-24.37-9.94-44.75-22.69-62.31-.6-.83-2.01-3-2.06-5.16-.09-3.49.2-6.86.86-9.99.81-3.86,1.93-7.29,3.31-10.18,1.05-2.21,2.44-4.28,3.78-6.28.74-1.11,1.51-2.26,2.21-3.41.66-1.1,1.33-2.19,2-3.29,5.94-9.72,12.08-19.77,15.07-31.13,3.78-14.4-4.53-32.81-17.79-39.39-1.74-.86-3.58-1.71-5.34-1.78-1.86-.07-3.06-.51-3.79-1.38-.97-1.16-.87-2.94-.62-4.69,13.64-94.72,26.97-187.63,39.62-276.15,6.96-48.72,13.91-97.44,20.85-146.16,9.27-65.01,18.54-130.01,27.84-195.01.73-5.07-.92-8.82-4.64-10.55-4.29-2-9.32-3.32-14.56-3.82-3.18-.32-6.95,1.85-7.7,7.31-5.82,42.28-11.82,85.25-17.64,126.81-3.32,23.72-6.63,47.43-9.93,71.15-12.87,92.47-25.71,184.95-38.56,277.43l-20,143.94c-.47,3.37-.81,5.01-1.92,5.49-1.08.47-2.47-.31-5.38-2.36-9.19-6.48-18.48-6.47-28.41.03-6.59,4.31-11.66,10.39-15.49,18.6-6.81,14.59-6.85,29.94-5.99,43.03.07,1.1.21,2.24.34,3.35.55,4.59,1.13,9.34-2.53,13.28-1.03,1.11-2.21,2.09-3.35,3.04-1.67,1.39-3.39,2.82-4.64,4.65-.22.32-.63.35-.95.37-.07,0-.14,0-.2.02-9.54,1.27-17.93,5.9-24.95,13.76-6.71,7.53-12.75,15.52-17.26,21.64-1.78,2.42-3.55,4.85-5.31,7.28-8.89,12.24-18.08,24.89-29.2,35.7-22.21,21.59-46.66,32.21-74.76,32.49-1.5.01-3.26.08-4.92.42-1.62.34-2.69,1.02-3,1.93-.29.84.05,1.87.98,2.99,2.55,3.07,5.37,6.18,8.65,8.18,8.33,5.05,15.41,9.07,22.88,12.26,19.59,8.36,37.49,10.5,54.71,6.54.71-.16,1.45-.19,2.46-.22.57-.02,1.24-.04,2.05-.09l1.69-.1-1.36,1c-.6.44-1.03.77-1.36,1.02-.53.41-.83.63-1.16.81l-.3.16c-1.01.54-2.05,1.1-3.14,1.53-12.64,4.98-24.45,7.6-36.11,8-11.62.41-23.19-1.32-35.35-5.27-11.71-3.8-22.83-2.52-33.99,3.93-1.39.8-2.1,1.58-2.13,2.32-.03.74.63,1.56,1.96,2.45.51.34,1.08.59,1.68.86.3.13.6.26.89.41,2.38,1.16,4.83,2.29,7.2,3.38,5.27,2.42,10.73,4.93,15.76,7.97,11.51,6.94,22.96,14.4,34.04,21.61,2.72,1.77,5.44,3.54,8.17,5.31,15.77,10.22,28.5,16.8,41.26,21.35,14.78,5.26,27.03,7,38.55,5.46,35.54-4.75,65.64-19.43,89.46-43.64.77-.78,1.6-1.53,2.39-2.25.37-.33.74-.67,1.11-1.01l.33-.3,1.74,1.48-.28.38c-1.3,1.73-2.59,3.46-3.88,5.19-2.79,3.76-5.68,7.64-8.63,11.38-11.66,14.8-23.84,23.97-38.33,28.84-.73.25-1.35.98-2.02,1.77-.19.23-.39.46-.59.68ZM522.5,982.35c-.66,0-1.33-.04-2.02-.14l-.3-.04-.79-2.12,16.17-5.95.91,1.93-.29.32c-3.64,2.7-8.08,6-13.68,6ZM520.91,981.26c5.44.66,9.58-1.95,14.34-5.47l-.2-.44-14.36,5.28.23.62ZM501.91,982.17c-3.96,0-7.99-1.35-11.41-4.1l-1.02-.82,25.59-1.29-.85.9c-3.31,3.52-7.76,5.31-12.31,5.31ZM492.23,978.12c6.45,4.43,14.78,4.01,20.34-1.03l-20.34,1.03ZM586.83,982.06c-.33,0-.67-.01-1.01-.04l-1.11-.09.81-.77c.26-.25.52-.5.78-.76.56-.54,1.13-1.11,1.73-1.62,30.32-26.06,48.44-55.49,55.4-89.98.19-.94-.21-2.05-.63-3.23-.12-.33-.24-.66-.35-1-.28.21-.57.41-.86.61-1.03.71-2,1.38-2.41,2.26-10.78,23.33-27.82,43.82-52.09,62.63-.81.62-1.7,1.14-2.55,1.61-.29.16-.58.2-1.12.29-.32.05-.73.12-1.31.23l-1.15.23.63-.99c17.75-27.77,27.87-59.4,31.87-99.54.05-.48-.28-1.04-.94-1.64-.04.21-.09.43-.13.64-.21,1.03-.42,2.09-.56,3.13-3.78,27.3-10.51,51.39-20.55,73.64-5.29,11.72-12.43,21.91-21.23,30.29-2.31,2.2-4.58,3.71-6.74,4.48-25.95,9.28-50.38,11.28-74.71,6.12-1.22-.26-2.47-.6-3.7-1.01-.39-.13-.69-.35-1.2-.72-.28-.2-.63-.45-1.09-.76l-.81-.54.91-.34c.66-.25,1.23-.48,1.76-.7,1.02-.42,1.9-.78,2.82-1,25.83-6.16,45.64-20.59,58.89-42.9,8.39-14.14,16.22-28.94,23.79-43.25,2.59-4.9,5.19-9.8,7.81-14.69.76-1.41,1.12-3.02,1.5-4.73.14-.64.29-1.29.46-1.93l-.75-.31c-.19.29-.39.58-.59.86-.57.83-1.17,1.69-1.65,2.58-3.14,5.75-6.29,11.61-9.34,17.28-6.48,12.06-13.18,24.54-20.16,36.59-12.65,21.84-28.69,36.03-49.02,43.37-7.94,2.87-16.63,4.67-23.61,6.12-2.71.56-5.95-.46-7.91-1.51-9.57-5.11-20.85-11.23-31.96-17.84-15.56-9.26-32.32-18.75-51.05-24.17-.54-.16-1.02-.44-1.68-.84-.37-.22-.8-.48-1.35-.78l-.79-.43.78-.44c.64-.37,1.21-.71,1.74-1.04,1.04-.64,1.94-1.19,2.92-1.58,7.99-3.13,16.59-3.17,26.3-.1,13.75,4.34,25.27,5.93,36.25,5.02,38.08-3.16,64.6-19.23,81.08-49.12,3.54-6.43,6.99-13.05,10.32-19.46,4.37-8.4,8.88-17.08,13.67-25.43,3.32-5.78,7.3-11.3,11.15-16.63,2.05-2.84,4.17-5.77,6.16-8.71.52-.77.77-1.74,1.04-2.76.04-.15.08-.3.12-.45-.18.07-.37.13-.55.19-1.01.35-2.06.71-2.51,1.35-8.89,12.81-15.56,22.67-21.62,31.99-2.68,4.12-5.25,8.4-7.73,12.55-2.33,3.89-4.75,7.92-7.25,11.8-17.26,26.81-42.77,39.41-77.97,38.54-19.78-.5-37.64-7.64-50.99-13.8-.65-.3-1.21-.72-1.99-1.31-.42-.32-.92-.69-1.53-1.11l-.89-.62,1.05-.27c.67-.17,1.22-.35,1.7-.49.9-.28,1.54-.48,2.23-.49,33.78-.31,62.1-14.73,86.58-44.09,5.25-6.3,10.17-13.07,14.93-19.61,3.51-4.83,7.15-9.83,10.89-14.62,5.63-7.18,12.4-15.56,19.97-23.27,6.46-6.58,15.49-9.98,26.85-10.1h.07c1.89,0,3.83.81,5.3,1.51,21.71,10.38,42.3,17.47,62.96,21.69,9.36,1.91,14.38,6.05,18.51,15.26,8.24,18.35,16.12,38.35,18.04,60.28,3.36,38.47-10.12,70.52-41.22,97.96-9.63,8.5-20.98,15.53-34.69,21.47-1.6.7-3.13,1.03-4.72,1.03ZM643.02,882.82l.19.78c.13.53.33,1.09.53,1.63.45,1.25.92,2.55.67,3.77-7,34.72-25.23,64.33-55.73,90.54-.56.48-1.11,1.01-1.63,1.53,1.38-.03,2.68-.33,4.1-.95,13.61-5.9,24.88-12.87,34.43-21.3,30.85-27.22,44.22-58.99,40.88-97.13-1.9-21.78-9.75-41.69-17.95-59.96-3.98-8.87-8.8-12.85-17.8-14.69-20.73-4.24-41.4-11.36-63.19-21.77-1.29-.62-3.2-1.42-4.93-1.42-11.09.12-19.88,3.42-26.15,9.8-7.53,7.67-14.28,16.03-19.89,23.19-3.74,4.77-7.36,9.76-10.87,14.59-4.77,6.56-9.69,13.34-14.97,19.66-24.68,29.6-53.24,44.13-87.34,44.45-.54,0-1.13.19-1.95.44-.23.07-.47.14-.73.22.26.19.49.36.7.52.73.55,1.26.94,1.81,1.2,13.26,6.13,31,13.22,50.59,13.71,34.81.88,60.04-11.58,77.1-38.08,2.49-3.87,4.9-7.89,7.23-11.78,2.49-4.15,5.07-8.45,7.75-12.58,6.06-9.33,12.74-19.2,21.63-32.02.63-.91,1.84-1.32,3-1.72.52-.18,1-.34,1.44-.55l1.06-.5-.38,1.11c-.15.45-.27.92-.4,1.39-.28,1.06-.57,2.16-1.18,3.07-2,2.95-4.12,5.89-6.18,8.74-3.83,5.31-7.8,10.81-11.09,16.54-4.78,8.33-9.29,17-13.65,25.39-3.33,6.41-6.78,13.04-10.33,19.48-16.66,30.21-43.44,46.45-81.87,49.64-11.11.92-22.76-.69-36.64-5.07-9.48-2.99-17.86-2.96-25.63.08-.9.35-1.76.88-2.76,1.5-.32.2-.65.4-1.01.61.23.13.43.25.62.36.62.37,1.03.61,1.44.73,18.85,5.45,35.67,14.98,51.28,24.28,11.09,6.6,22.36,12.71,31.92,17.82,2.38,1.27,5.23,1.82,7.24,1.41,6.95-1.44,15.61-3.24,23.48-6.08,20.1-7.26,35.96-21.3,48.5-42.93,6.97-12.03,13.67-24.5,20.14-36.56,3.05-5.67,6.2-11.54,9.34-17.29.51-.93,1.12-1.81,1.7-2.67.27-.39.54-.79.81-1.19l.23-.35,2.33.97-.12.43c-.21.75-.39,1.54-.56,2.3-.38,1.7-.77,3.45-1.6,4.98-2.62,4.88-5.21,9.78-7.8,14.68-7.58,14.32-15.41,29.13-23.82,43.29-13.39,22.56-33.41,37.15-59.52,43.37-.84.2-1.65.53-2.67.95-.29.12-.59.24-.91.37.12.09.24.17.34.25.45.32.69.5.93.58,1.2.4,2.4.73,3.59.98,24.14,5.12,48.4,3.13,74.17-6.08,2.03-.73,4.18-2.16,6.38-4.26,8.7-8.29,15.77-18.38,21.01-29.97,10.01-22.16,16.7-46.16,20.47-73.36.15-1.07.37-2.15.57-3.19.1-.48.19-.97.28-1.45l.15-.78.64.47c1.41,1.04,2.07,2.06,1.97,3.06-3.97,39.83-13.95,71.33-31.41,99.01.08-.01.15-.02.21-.04.45-.07.67-.11.8-.18.81-.45,1.67-.94,2.42-1.52,24.14-18.71,41.08-39.08,51.79-62.26.52-1.13,1.65-1.91,2.75-2.66.47-.33.96-.66,1.38-1.01l.61-.52ZM459.12,963.21l-.44-.09c-.78-.16-1.62-.26-2.44-.36-1.84-.22-3.75-.44-5.26-1.37-10.7-6.59-21.47-13.46-31.89-20.1-3.43-2.18-6.85-4.37-10.28-6.55l-.42-.26,1.62-2.65,49.88,28.86-.78,2.52ZM409.76,934.16c3.29,2.09,6.58,4.19,9.87,6.29,10.41,6.64,21.18,13.51,31.87,20.09,1.32.81,3.04,1.02,4.85,1.23.69.08,1.39.16,2.08.29l.28-.9-48.35-27.97-.6.98ZM456.73,902.28c-.34,0-.68-.02-1.03-.06-17.09-1.88-32.95-7.59-47.13-16.96-.24-.16-.33-.4-.49-.82-.09-.24-.22-.58-.42-1.05l-.49-1.13,1.13.46c15.61,6.4,36.46,13.65,59.32,12.66l1.43-.06-1.29,1.12c-3.32,2.87-6.74,5.83-11.03,5.83ZM409.01,884.1c.06.16.12.33.15.37,14,9.24,29.71,14.89,46.64,16.75,3.99.43,7.28-2.09,10.44-4.79-21.97.63-41.98-6.14-57.23-12.33ZM473.38,901.99c-1.27,0-2.75-.47-4.55-1.43l-1.04-.55,11.26-3.63-.44,1.01c-1.06,2.45-2.26,3.83-3.76,4.36-.46.16-.94.24-1.46.24ZM470.39,900.22c1.74.77,3.06.96,4.12.59,1.01-.35,1.87-1.25,2.68-2.78l-6.8,2.19ZM488.01,898.33l-1.27-1.65,12.04-9.06,1.47,1.81-.12.28c-2.55,5.73-6.43,8.54-11.87,8.62h-.25ZM488.15,896.88l.34.45c4.85-.14,8.23-2.61,10.59-7.74l-.47-.58-10.46,7.88ZM669.04,845.95l-22.28-54.1,2.03,2.36c10.66,12.43,17.12,28.11,19.75,47.93l.5,3.81ZM650.14,797.45l16.8,40.79c-2.7-16.42-8.22-29.83-16.8-40.79ZM641.39,785.11c-.47,0-.93-.03-1.38-.09l-.51-.07c-3.68-.49-7.49-.99-11.13-1.96-17.17-4.54-37.05-10.13-55.65-19.09-.91-.44-1.82-.91-2.72-1.37l-1.63-.83.69-2.09.43.08c.68.13,1.36.24,2.04.35,1.47.24,2.99.49,4.45.9,8.91,2.51,17.81,5.04,26.71,7.57,9.96,2.83,19.92,5.66,29.89,8.46,2.16.61,4.4,1.12,6.56,1.61,1.73.39,3.52.8,5.27,1.26.67.17,1.23.6,1.77,1.02.22.17.45.34.68.49l.46.3-.35.43c-.19.24-.37.52-.55.79-.46.71-.93,1.45-1.67,1.7-1.04.35-2.22.54-3.39.54ZM569.6,761.2l.87.45c.89.46,1.79.92,2.69,1.36,18.52,8.92,38.34,14.5,55.47,19.03,3.58.95,7.35,1.45,11,1.93l.51.07c1.43.19,3,.04,4.31-.4.41-.14.78-.73,1.15-1.29.1-.15.2-.3.29-.45-.1-.08-.21-.16-.31-.24-.48-.37-.94-.72-1.41-.84-1.73-.45-3.51-.86-5.24-1.25-2.17-.5-4.42-1.01-6.61-1.62-9.97-2.8-19.93-5.63-29.9-8.46-8.9-2.53-17.8-5.06-26.71-7.57-1.41-.4-2.9-.64-4.34-.88-.55-.09-1.09-.18-1.63-.28l-.15.45ZM646.45,776.65l-.44-.02c-.63-.03-1.26-.02-1.9-.02-1.41.01-2.87.03-4.24-.34-8.34-2.22-16.79-4.57-24.97-6.84-3.96-1.1-7.92-2.2-11.89-3.29-3.86-1.06-7.73-2.12-11.59-3.17-6.69-1.82-13.61-3.71-20.4-5.61-1.18-.33-2.28-.91-3.35-1.47-.48-.25-.97-.51-1.46-.74l-.38-.18.62-2.42h.39c.77,0,1.57-.05,2.35-.1,1.74-.11,3.54-.23,5.2.21,13.73,3.64,28.4,7.67,46.16,12.7,6.62,1.87,13.29,4,19.73,6.05l1.96.62c1.05.34,2.04.87,2.99,1.38.43.23.86.47,1.3.68l.34.17-.43,2.36ZM567.01,754.44c.38.19.75.38,1.13.58,1.07.56,2.08,1.09,3.16,1.39,6.79,1.9,13.7,3.79,20.39,5.61,3.87,1.05,7.73,2.11,11.6,3.17,3.97,1.09,7.93,2.19,11.89,3.29,8.17,2.27,16.63,4.61,24.96,6.83,1.24.33,2.56.31,3.97.3.51,0,1.02-.01,1.52,0l.14-.76c-.33-.17-.66-.35-.99-.53-.95-.52-1.85-1-2.82-1.31l-1.96-.62c-6.44-2.05-13.1-4.18-19.7-6.04-17.76-5.03-32.42-9.06-46.15-12.7-1.51-.4-3.15-.29-4.88-.18-.67.04-1.35.09-2.03.1l-.22.87ZM638.93,768.06c-.57,0-1.09-.06-1.5-.17-8.55-2.39-17.22-4.93-25.6-7.39-5.87-1.72-11.73-3.44-17.61-5.12-5.89-1.69-12.34-3.39-20.3-5.35-2.38-.59-4.58-1.58-4.58-4.82,0-3.29-.03-6.58-.07-9.87-.08-7.37-.17-14.99.22-22.47.43-8.14,3.36-16.45,8.96-25.38,3.81-6.08,8.92-10.77,15.19-13.95,10.19-5.16,18.58-3.62,26.42,4.84.24.26.33.57.46,1.01.07.23.15.5.27.84l.18.51-.52.14c-.52.14-1.03.29-1.53.44-1.09.32-2.13.62-3.2.83-7.7,1.56-13.84,4.29-18.79,8.36l-.15.12c-1.01.83-2.06,1.69-2.64,2.73-.28.5-.27,1.23-.26,2.01,0,.15,0,.3,0,.45.12-.02.24-.04.35-.07.66-.12,1.29-.24,1.63-.55,6-5.51,13.61-8.99,23.26-10.63,2.33-.4,4.75-.62,7.18-.66,5.79-.13,9.21,2.4,10.38,7.65,1.07,4.77,1.93,9.8,1.03,14.27-2.31,11.46-5.29,23.68-9.64,39.6-1.02,3.73-.18,5.78,3.48,8.2.47-1.17.94-2.33,1.4-3.5,8.06-20,15.66-38.89,9.59-61.12l-.18-.67.69.04c6.21.31,13.14,1.16,16.67,7.3,2.2,3.82,4.79,9.48,4.65,14.76-.26,9.69-1.61,17.38-4.14,23.5-3.77,9.12-8.78,17.89-13.63,26.37-1.21,2.12-2.43,4.24-3.62,6.37-.53.95-2.43,1.41-4.03,1.41ZM604.65,671.54c-3.29,0-6.77.97-10.57,2.89-6.1,3.09-11.08,7.66-14.79,13.58-5.51,8.79-8.39,16.94-8.81,24.91-.39,7.45-.31,15.05-.22,22.4.04,3.3.07,6.59.07,9.89,0,2.43,1.4,3.25,3.82,3.84,7.97,1.96,14.43,3.67,20.34,5.36,5.88,1.69,11.75,3.41,17.62,5.12,8.38,2.45,17.04,4.99,25.59,7.39,1.38.39,4-.07,4.39-.76,1.2-2.13,2.41-4.25,3.62-6.37,4.83-8.45,9.83-17.19,13.57-26.25,2.48-6.01,3.81-13.58,4.06-23.14.13-5.05-2.38-10.53-4.51-14.24-2.87-4.99-7.94-6.33-15.17-6.76,5.83,22.26-1.77,41.12-9.81,61.09-.54,1.35-1.09,2.7-1.63,4.06l-.22.56-.51-.32c-3.82-2.39-5.76-4.73-4.42-9.63,4.35-15.9,7.32-28.09,9.63-39.53.86-4.28.02-9.19-1.02-13.85-1.07-4.77-4.05-6.96-9.38-6.86-2.38.04-4.75.26-7.03.65-9.45,1.61-16.89,5.01-22.75,10.38-.56.51-1.36.66-2.13.8-.31.06-.63.11-.92.2l-.7.2.06-.72c.03-.33.02-.68.02-1.03-.01-.87-.02-1.77.39-2.51.67-1.2,1.79-2.12,2.88-3.01l.15-.12c5.08-4.17,11.37-6.97,19.23-8.56,1.03-.21,2.05-.5,3.12-.81.34-.1.69-.2,1.04-.3-.04-.14-.08-.27-.11-.38-.09-.31-.15-.53-.23-.61-4.67-5.04-9.41-7.52-14.66-7.52ZM663.13,743.28l-1.95-.65.18-.48c.31-.84.62-1.69.93-2.53.67-1.82,1.37-3.7,2.01-5.57,3.21-9.39,4.07-17.31,2.69-24.93-1.83-10.15-6.97-16.94-15.69-20.77-.52-.23-.99-.54-1.54-.89-.27-.18-.57-.37-.91-.58l-.54-.33.45-.45c2.82-2.84,5.8-1.63,7.98-.74,10.12,4.11,16.16,12.22,17.46,23.47,1.51,13.05-5.06,24.24-10.87,34.1l-.21.35ZM662.48,742.01l.2.07c5.94-10.1,11.99-20.55,10.53-33.13-1.26-10.86-7.08-18.7-16.84-22.66-1.99-.81-4.23-1.71-6.43.1.13.08.25.16.37.24.53.35.95.62,1.39.81,8.93,3.91,14.41,11.14,16.28,21.5,1.41,7.8.54,15.88-2.73,25.44-.64,1.88-1.34,3.76-2.02,5.59-.25.68-.5,1.36-.75,2.04ZM633.51,683.26l-1.27-2.79,6.77-3.09,1.36,2.84-6.86,3.03ZM633.56,680.97l.44.98,5.01-2.22-.49-1.03-4.97,2.26ZM628.7,677.46c-.13,0-.25,0-.38,0l-1.33-.03,15.37-12.77.15.85c.41,2.36-.37,4.83-2.2,6.95-2.68,3.11-7.1,5-11.6,5ZM641.61,666.58l-11.85,9.85c3.84-.27,7.5-1.97,9.79-4.62,1.39-1.62,2.11-3.44,2.06-5.22ZM626.58,671.95l.04-.77c.03-.69.05-1.31.06-1.88.03-1.13.05-2.11.19-3.08,4.5-32.16,9-64.33,13.5-96.49,6.02-42.97,12.04-85.94,18.03-128.92,8.21-58.83,16.39-117.65,24.58-176.48,4.67-33.54,9.33-67.08,14-100.62,4.09-29.37,8.19-58.73,12.3-88.1l2.42-17.32c.47-3.39.71-5.09,1.81-5.79,1.1-.7,2.76-.2,6.07.8,7.89,2.39,8.02,2.6,6.97,11-2.66,21.23-5.28,42.46-7.9,63.7-6.12,49.6-12.44,100.89-19.22,151.26-3.83,28.44-8.32,57.28-12.66,85.17-3.46,22.25-7.04,45.26-10.27,67.93-6.93,48.73-13.66,98.33-20.17,146.29-2.83,20.84-5.66,41.68-8.51,62.51-.03.21-.07.43-.11.64-.08.47-.17.92-.14,1.34.87,13.53-8.05,20.92-17.26,27.32-.46.32-.97.49-1.68.73-.38.13-.81.28-1.33.48l-.72.28ZM714.79,53.17c-.31,0-.56.05-.75.17-.71.45-.95,2.2-1.36,5.08l-2.42,17.32c-4.1,29.37-8.21,58.73-12.3,88.1-4.67,33.54-9.34,67.08-14,100.62-8.18,58.83-16.37,117.66-24.58,176.48-6,42.97-12.01,85.95-18.03,128.92-4.5,32.16-9.01,64.33-13.5,96.49-.13.91-.15,1.86-.18,2.96,0,.37-.02.75-.03,1.15.24-.08.46-.16.66-.23.65-.22,1.09-.37,1.43-.6,8.97-6.24,17.67-13.42,16.83-26.43-.04-.54.06-1.07.15-1.58.04-.2.07-.4.1-.6,2.85-20.83,5.68-41.67,8.51-62.51,6.51-47.96,13.24-97.56,20.17-146.3,3.23-22.68,6.81-45.69,10.27-67.95,4.34-27.88,8.83-56.71,12.65-85.15,6.78-50.37,13.1-101.65,19.22-151.25,2.62-21.24,5.24-42.47,7.9-63.7q.97-7.72-6.25-9.91c-2.17-.66-3.61-1.09-4.5-1.09Z"/>
    </g>
    <g>
      <path class="cls-1" d="M411.28,966.87c-1.39.91-2.18,1.84-2.99,1.86-1.03.03-2.14-.56-3.12-1.06-16.71-8.45-33.42-16.91-50.09-25.45-.8-.41-1.2-1.6-1.78-2.43,1.05-.43,2.15-1.31,3.13-1.18,1.62.22,3.22.94,4.71,1.69,15.45,7.85,30.88,15.73,46.29,23.65,1.17.6,2.14,1.59,3.86,2.9Z"/>
      <path class="cls-1" d="M408.21,969.23c-1.07,0-2.16-.55-3.12-1.03l-.15-.08c-16.02-8.1-33.08-16.73-50.09-25.45-.68-.35-1.08-1.07-1.47-1.77-.16-.28-.32-.57-.49-.82l-.36-.51.58-.24c.31-.13.62-.29.94-.46.79-.42,1.61-.87,2.44-.75,1.71.23,3.35.97,4.87,1.74,15.74,7.99,31.31,15.95,46.29,23.65.81.42,1.5.99,2.38,1.71.45.37.96.79,1.55,1.24l.56.43-.59.39c-.47.31-.86.61-1.21.88-.75.58-1.34,1.04-2.04,1.06-.03,0-.06,0-.1,0ZM354.03,940.01c.08.13.15.27.23.41.32.57.64,1.16,1.05,1.37,17,8.71,34.07,17.35,50.08,25.45l.15.08c.88.45,1.89.99,2.73.93.37-.01.85-.38,1.46-.85.22-.17.45-.35.71-.53-.38-.3-.72-.58-1.04-.84-.83-.68-1.49-1.23-2.21-1.59-14.97-7.7-30.55-15.66-46.28-23.65-1.44-.73-2.98-1.43-4.55-1.64-.52-.07-1.19.29-1.84.64-.17.09-.33.18-.49.26Z"/>
    </g>
    <g>
      <path class="cls-1" d="M344.71,956.69c14.18,5.31,28.75,8.33,41.2,16.66.91.61,1.89,1.38,2.36,2.31.35.69.17,1.9-.24,2.62-.21.36-1.66.46-2.19.12-12.88-8.33-27.58-12.28-41.74-17.52-.91-.33-1.46-1.63-2.17-2.48.96-.59,1.91-1.18,2.77-1.7Z"/>
      <path class="cls-1" d="M386.85,979.11c-.47,0-.95-.09-1.27-.29-9.9-6.4-21.1-10.28-31.93-14.03-3.19-1.11-6.5-2.25-9.72-3.44-.77-.28-1.28-1.04-1.77-1.77-.2-.3-.4-.6-.62-.86l-.37-.44,3.47-2.14.23.08c4.06,1.52,8.21,2.87,12.23,4.18,10.36,3.37,20.14,6.56,29.08,12.53.82.55,1.97,1.4,2.53,2.5.45.88.23,2.26-.25,3.09-.13.23-.39.39-.79.49-.24.06-.54.09-.83.09ZM342.67,958.53c.11.16.22.32.33.49.4.6.81,1.22,1.28,1.39,3.21,1.19,6.51,2.33,9.7,3.43,10.88,3.77,22.14,7.66,32.14,14.13.31.2,1.32.14,1.53,0,.32-.58.42-1.6.18-2.08-.45-.89-1.47-1.64-2.19-2.12-8.82-5.9-18.54-9.06-28.83-12.41-3.95-1.29-8.03-2.61-12.04-4.11l-2.09,1.29Z"/>
    </g>
    <g>
      <path class="cls-1" d="M680.92,827.09c7.39,3.82,12.88,34.22,7.49,44.89-.49-1.82-1.23-3.62-1.42-5.48-1.03-9.85-1.76-19.73-2.96-29.56-.39-3.19-1.92-6.23-3.1-9.86Z"/>
      <path class="cls-1" d="M688.27,873.37l-.34-1.27c-.15-.57-.33-1.14-.51-1.7-.39-1.25-.79-2.53-.93-3.85-.4-3.82-.76-7.71-1.11-11.47-.55-5.93-1.12-12.07-1.85-18.07-.26-2.09-1.04-4.17-1.87-6.37-.41-1.08-.83-2.21-1.21-3.39l-.38-1.16,1.08.56c7.97,4.12,13.15,34.78,7.7,45.56l-.59,1.17ZM681.92,828.45c.22.62.45,1.24.68,1.83.85,2.26,1.65,4.39,1.92,6.6.74,6.02,1.31,12.16,1.86,18.1.35,3.76.71,7.65,1.11,11.46.13,1.22.5,2.4.89,3.66.04.14.09.28.13.42,4.32-11.11-.54-36.18-6.59-42.08Z"/>
    </g>
    <g>
      <path class="cls-1" d="M707.37,869.08c-.83-1.7-1.92-2.89-1.92-4.09-.06-12.9-2.56-25.28-7.52-37.18-.13-.32.09-.78.15-1.19,6.66,2.31,13.89,33.5,9.29,42.46Z"/>
      <path class="cls-1" d="M707.36,870.2l-.44-.9c-.27-.56-.57-1.06-.87-1.54-.59-.99-1.11-1.84-1.11-2.77-.06-12.76-2.57-25.21-7.48-36.99-.15-.37-.05-.76.04-1.1.03-.12.06-.24.08-.35l.09-.6.57.2c2.49.86,4.62,5.05,5.97,8.41,4.35,10.85,6.87,28.39,3.61,34.75l-.46.89ZM698.43,827.33c-.03.12-.05.24-.04.29,4.96,11.9,7.5,24.48,7.55,37.37,0,.65.45,1.39.97,2.25.13.22.27.45.41.7,2.51-6.78.03-22.85-4.04-33.01-1.61-4.03-3.32-6.68-4.86-7.6Z"/>
    </g>
  </g>
  <path class="cls-1" d="M428.53,949.92c.22.21.31.34.25.26.15.2.29.4.43.61.29.47.54.96.76,1.47.52,1.22.88,2.51,1.16,3.8.69,3.17.93,6.44,1.03,9.68.19,6.89-.24,13.99-1.64,20.75-.45,2.18-.87,4.63-2.25,6.45-.12.16-.71.79-.14.2-.17.18-.34.36-.52.54-.43.42-.89.81-1.36,1.19-.25.2-.52.39-.78.58-.71.53.7-.43-.21.14-.61.39-1.22.77-1.85,1.14s-1.27.71-1.91,1.05c-.97.51.96-.48-.21.11-.41.2-.82.41-1.24.6-1.52.72-3.06,1.4-4.61,2.06-.78.33-1.56.65-2.34.97-.37.15-.74.3-1.12.45-.23.09-.47.19-.7.28-.84.34.01,0,.36-.14-1.68.65-3.36,1.32-5.04,1.97-3.79,1.47-7.59,2.92-11.29,4.59-2.96,1.33-6,2.78-8.52,4.86-1.77,1.46,1.1,1.72,2.05,1.67,2.43-.12,5.54-.76,7.58-2.16,8.38-5.8,17.11-11.06,25.46-16.91,8.96-6.29,18.2-13.14,24.79-22.01,2.71-3.65,4.99-7.98,4.9-12.64l-11.59,3.11c2.52,9.46.08,19.12-2.38,28.32-.5,1.86,3.74,1.06,4.58.89,1.5-.3,3.03-.7,4.42-1.36.84-.4,1.9-.85,2.41-1.67,5.3-8.62,10.6-17.23,15.9-25.85l-11.5,2.62c-.81,8.91-4.83,17.09-8.71,25.01-.87,1.76,4.02,1,4.58.89,2.25-.45,5.32-1.12,6.83-3.03,5.38-6.82,10.97-13.48,16.74-19.98.55-.62-.62-1.02-.92-1.08-1.1-.25-2.59-.02-3.66.19-2.36.47-5.17,1.17-6.83,3.03-5.77,6.49-11.36,13.16-16.74,19.98l11.41-2.14c4.05-8.26,8.05-16.69,8.9-25.98.12-1.36-5.12-.31-5.45-.23-1.23.28-2.5.64-3.64,1.18-.84.4-1.9.85-2.41,1.67-5.3,8.62-10.6,17.23-15.9,25.85l11.41-2.14c2.54-9.46,5.16-19.54,2.57-29.28-.18-.66-1.6-.67-2-.68-1.37-.03-2.91.26-4.22.63s-2.76.83-3.97,1.57c-.58.35-1.41.82-1.39,1.59.07,3.67-1.63,7.18-3.76,10.33-.65.96-1.35,1.89-2.08,2.8-.87,1.07-1.28,1.54-2.05,2.37-1.79,1.92-3.69,3.73-5.65,5.47-4.21,3.73-8.69,7.15-13.27,10.41-.53.38-1.06.75-1.6,1.13-.31.22-.62.43-.93.65-.36.25.11-.08.15-.11-.18.12-.35.25-.53.37-1.14.79-2.29,1.57-3.44,2.34-2.25,1.51-4.51,2.99-6.77,4.47-4.15,2.7-8.36,5.33-12.43,8.15,3.21-.16,6.42-.33,9.62-.49.18-.15.37-.28.55-.43.61-.49-.85.54-.05.04.48-.3.97-.6,1.46-.88.27-.15.55-.29.82-.44.53-.29-1.2.59-.43.22.13-.07.27-.13.4-.2.64-.31,1.28-.61,1.92-.9,1.43-.64,2.88-1.25,4.33-1.84.43-.17.86-.34,1.29-.52-.03.01-1.37.54-.55.22.18-.07.36-.14.53-.21.82-.32,1.63-.64,2.45-.96,7.19-2.8,14.48-5.49,21.26-9.21,2.54-1.39,5.14-2.98,7.16-5.08,1.79-1.86,2.55-3.72,3.15-6.2,1.66-6.82,2.25-13.99,2.25-20.99,0-3.81-.19-7.66-.91-11.41-.53-2.74-1.33-5.61-3.39-7.61-.52-.51-2.39-.3-2.92-.25-1.5.14-3.1.52-4.51,1.03-.83.31-4.88,1.73-3.52,3.06h0Z"/>
</svg>