<?xml version="1.0" encoding="UTF-8"?>
<svg id="Layer_1" xmlns="http://www.w3.org/2000/svg" viewBox="0 0 837.5 1080">
  <defs>
    <style>
      .cls-1 {
        fill: #112a46;
      }
    </style>
  </defs>
  <g>
    <path class="cls-1" d="M238.84,533.5c-4.23.19-8.16,2.54-10.57,5.96-2.02,2.86-3.1,6.43-3.85,9.82-1.52,6.88-1.79,14-1.84,21.02-.03,3.68-.23,7.51.61,11.12.79,3.41,2.88,6,5.99,7.59,4.5,2.3,9.87,3.01,14.77,4.01,5.88,1.2,11.78,2.26,17.72,3.1,10.12,1.42,21.02,2.8,31.11.41,3.68-.87,7.8-2.57,9.97-5.84,1.7-2.57,2.51-5.99,3.29-8.93,2.35-8.87,3.79-18.23,3.7-27.41-.04-3.45.09-7.78-1.81-10.82-1.37-2.2-3.96-3.58-6.29-4.55-7.89-3.26-16.79-4.14-25.22-4.83-9.95-.82-19.95-.99-29.93-.84-2.18.03-4.36.08-6.54.15-1.98.06-4.6.58-5.73,2.42-1.04,1.69.88,2.78,2.4,2.74,9.17-.28,18.35-.28,27.51.13,4.65.21,9.29.53,13.91,1.04.53.06,1.07.12,1.6.19.13.02,1.19.15.28.03.21.03.41.05.62.08,1.11.15,2.21.32,3.32.5,1.85.31,3.7.66,5.53,1.1.83.2,1.66.41,2.47.65.39.11.77.23,1.16.35.19.06.37.12.56.18.82.27-.45-.19.16.06,1.25.5,2.49,1,3.65,1.7.25.15.49.32.74.47.5.3-.41-.33-.11-.09.1.09.21.16.32.25.41.37.81.73,1.15,1.17.14.18.25.39.39.57-.32-.41-.13-.29,0,.08.23.63.38,1.28.51,1.94.78,3.89.73,7.65.51,11.56-.26,4.55-.86,9.09-1.67,13.57-.71,3.91-1.57,7.82-2.76,11.62-.22.72-.46,1.43-.72,2.13-.11.31-.23.62-.35.93-.05.11-.1.23-.14.34-.21.54.29-.58-.02.04-.24.47-.5.9-.76,1.36-.33.57.56-.5-.03.04-.13.11-.25.23-.37.35-.47.44-.18-.14.23-.16-.15,0-.64.41-.77.5-.61.41.87-.4.38-.19-.15.06-.3.14-.45.21-.3.13-.7.21-.97.39.77-.51.93-.29.51-.18-.26.07-.51.15-.77.22-.39.1-.77.19-1.16.28-.97.23.99-.16-.19.03-.99.16-1.99.28-3,.36-.49.04-.98.07-1.47.1-1,.07.69,0,.03,0-.26,0-.52.02-.78.02-1.14.03-2.29.02-3.43,0-2.44-.05-4.88-.21-7.32-.42-10.63-.94-21.78-3.07-32.68-5.5-1.09-.24-2.18-.5-3.25-.81-.21-.06-1.54-.5-.83-.25-.45-.16-.89-.34-1.33-.53-.67-.3-1.3-.65-1.93-1.04-.13-.08-.65-.53-.1-.06-.1-.09-.22-.17-.32-.26-.29-.27-.58-.54-.85-.84-.21-.25-.41-.5-.6-.77-.07-.11-.14-.22-.21-.33-.35-.55.22.48-.06-.12-.31-.68-.57-1.36-.76-2.08-.46-1.72-.6-3.52-.67-5.29-.25-6.24,0-12.63.67-18.83.39-3.57.97-7.17,2.05-10.6.24-.76.53-1.5.81-2.25.04-.11.22-.49-.02.03.09-.2.19-.41.28-.61.16-.33.33-.65.51-.97.34-.6.73-1.16,1.13-1.72.54-.74-.44.38.21-.23.18-.16.75-.54.83-.75-.2.49-.72.48-.35.28.15-.08.31-.19.45-.28.36-.24.25.18-.5.26.1-.01.41-.15.49-.21.03-.02-1.25.42-.63.22.18-.06.82-.17-.06-.01-.96.18.27,0,.52-.01,1.64-.07,4.56-1.19,4.92-3.04.39-2.04-2.58-2.08-3.8-2.02Z"/>
    <path class="cls-1" d="M223.16,580.71c-.23,3.29.25,6.56,2.27,9.26,1.68,2.24,4.15,3.62,6.69,4.66,6.89,2.83,14.7,3.17,22.01,4.09s14.77,2.09,22.22,2.66c4.51.34,9.14.59,13.65.09,5.35-.59,10.28-2.44,13.2-7.16.37-.6.71-1.21,1.09-1.8.27-.42,1.15-1.31.16-.28.3-.31.56-.67.84-1,4.42-5.03,5.12-12.2,5.95-18.58.6-4.61.78-9.31.63-13.95s-.19-10.09-2.94-13.91c-.52-.72-1.25-1.39-2.05-1.78-1.9-.93-4.5-.61-6.2.66-1.18.87-2.59,3.02-.6,4,.13.06.25.13.37.2.5.3-.11-.13-.09-.1.11.26.49.55.66.8.07.11.41.66.19.28s.07.16.12.26c.19.44.36.89.5,1.35.66,2.08.94,4.27,1.13,6.43.05.61.09,1.22.13,1.83s.04.7.06,1.56c.03,1.25.03,2.49,0,3.74-.05,2.25-.16,4.49-.36,6.73-.17,1.93-.46,3.84-.74,5.75-.45,3.07-.88,6.56-1.97,9.3-.56,1.41-1.37,2.75-2.03,3.51-.25.28-.5.57-.73.87-.6.77-1.15,1.56-1.66,2.39-.33.55-.64,1.1-1,1.63-.09.13-.18.25-.27.39-.25.4.72-.85.18-.25-.22.24-.44.47-.66.71-.05.05-.13.1-.17.16-.21.29.92-.68.5-.42-.15.09-.28.22-.42.31s-.35.18-.47.3c.22-.23,1.16-.57.36-.22-.2.09-.4.17-.59.26-.75.34,1.34-.41.32-.12-.51.15-1.03.27-1.55.39-.7.17.95-.15.64-.11-.17.02-.33.06-.5.08-.33.05-.66.09-.99.13-.79.09-1.57.15-2.36.18-.4.02-.79.03-1.19.04-.89.03.38,0,.16,0-.26,0-.52,0-.78,0-1.06,0-2.13-.04-3.19-.08-6.16-.26-12.31-1-18.42-1.81-3.97-.53-7.92-1.1-11.9-1.57s-7.47-.86-11.08-1.72c-1.29-.31-2.57-.66-3.82-1.1-.24-.08-.47-.17-.71-.26-.76-.28.32.17-.23-.09-.5-.24-1-.48-1.47-.76s-.94-.6-1.38-.94c.42.32-.01-.01-.17-.17-.22-.21-.43-.43-.63-.66-.95-1.09-1.16-1.49-1.57-2.88s-.47-2.71-.37-4.12c.14-2.03-2.28-2.6-3.9-2.4s-4.71,1.2-4.86,3.26h0Z"/>
    <path class="cls-1" d="M344.16,743.26c-8.97,2.28-12.12,11.96-13.55,20.06-1.3,7.33-1.6,14.99-1.35,22.42.13,3.8.45,8.13,3.08,11.14,3.07,3.51,7.71,4.76,12.09,5.75,11.93,2.69,24.19,4.25,36.42,4.45,5.24.09,10.47-.18,15.64-1.07,3.99-.69,8.11-1.87,11.39-4.33,2.88-2.15,4.14-5.33,5.13-8.66,1.38-4.67,2.31-9.47,2.92-14.3s.97-10.21.64-15.31c-.21-3.3-.22-7.69-2.52-10.35-1.91-2.21-4.64-3.57-7.31-4.64-3.45-1.38-7.1-2.28-10.72-3.06-8.2-1.77-16.61-2.66-24.98-3.12-7.44-.41-15.07-.68-22.49.26-1.47.19-2.95.42-4.4.76-1.79.43-4.07,2.2-3.51,4.29s3.41,2.38,5.18,1.96c.52-.12,1.05-.19,1.56-.32.07-.02-1.34.2-.71.12.16-.02.33-.05.49-.07.35-.05.69-.09,1.04-.14,1.38-.17,2.77-.28,4.16-.36,3.5-.2,7.01-.22,10.51-.14.45,0,.9.02,1.35.03.94.02-.79-.03-.17,0,.23,0,.46.02.69.02,1.02.04,2.05.09,3.07.14,2.04.11,4.09.25,6.13.42,4.03.34,8.04.8,12.04,1.41,1.95.3,3.9.64,5.84,1.03.83.17,1.67.35,2.49.54.4.09.8.19,1.2.28.86.2-.92-.25-.07-.02.23.06.46.12.69.18,1.49.4,2.98.85,4.43,1.37.68.25,1.35.51,2.01.79.28.12.56.25.84.38.11.05.21.1.32.15.1.05.21.1.31.16.34.17.2.1-.4-.21.28-.06,1.11.65,1.36.82.43.29.8.64,1.22.95.27.2-.61-.72-.1-.09.12.15.26.3.37.46.1.13.2.42.33.52-.38-.29-.26-.8-.09-.11.47,1.91.79,3.82.99,5.78.06.65.02.2,0,.06.02.32.04.63.06.95.03.54.05,1.08.06,1.62.03,1.23.03,2.47,0,3.7-.13,4.92-.68,9.85-1.55,14.69-.38,2.11-.82,4.2-1.36,6.27-.04.14-.29,1.04-.05.19-.06.21-.12.42-.18.63-.12.4-.24.8-.37,1.2-.26.81-.54,1.61-.87,2.39-.12.3-.81,1.29-.76,1.59-.07-.43.58-.78.21-.35-.09.1-.16.22-.24.32-.1.12-.23.24-.33.37-.37.51.8-.66.26-.26-.24.18-.46.38-.7.55-.14.1-.33.19-.46.31.75-.71.8-.46.46-.29-.69.34-1.37.68-2.08.99-.81.35,1.13-.37.27-.11-.19.06-.37.13-.56.19-.43.14-.86.26-1.3.38-.95.25-1.9.44-2.86.63-.76.15.27-.05.35-.05-.28,0-.58.09-.86.13-.49.07-.99.14-1.48.19-1.15.14-2.31.24-3.46.32-2.48.17-4.97.22-7.45.2-.68,0-1.35-.02-2.03-.04-.25,0-.5-.01-.75-.02.99.03-.27-.01-.39-.02-1.42-.06-2.83-.14-4.25-.24-5.8-.41-11.57-1.12-17.31-2.06-2.82-.47-5.63-.99-8.42-1.58-.65-.14-1.31-.28-1.96-.43-.34-.08-.67-.15-1-.23.14.03.78.21.06.01-1.02-.28-2.04-.58-3.03-.97-.43-.17-.85-.36-1.27-.55-.24-.11-.71-.43.12.07-.19-.12-.39-.22-.58-.34-.3-.19-.59-.39-.87-.61-.11-.08-.21-.18-.32-.26-.73-.57.25.38-.08-.06-.4-.53-.8-1.02-1.14-1.59-.47-.79.17.57-.14-.31-.14-.41-.29-.81-.4-1.22-.21-.77-.35-1.55-.45-2.34-.03-.26-.06-.52-.09-.78,0,0-.07-.89-.04-.39s-.02-.43-.02-.42c-.02-.35-.03-.71-.04-1.06-.05-1.71-.04-3.41-.02-5.12.04-3.32.16-6.65.45-9.96.34-3.93.9-7.84,1.9-11.65-.22.83.14-.45.21-.69.14-.46.3-.92.46-1.37.33-.91.69-1.8,1.11-2.67.18-.36.36-.71.55-1.06.08-.14.16-.27.23-.41.39-.72-.5.69-.02.04.15-.2,1.31-1.96,1.51-1.87.02,0-.81.71-.22.22.13-.11.26-.23.4-.33.16-.13.34-.24.49-.37.36-.3.23.19-.44.26.24-.03.67-.34.9-.46.7-.4-1.16.32-.37.13.2-.05.4-.12.6-.17,1.79-.45,4.07-2.18,3.51-4.29s-3.42-2.41-5.18-1.96Z"/>
    <path class="cls-1" d="M329.84,790.93c-.25,3.46.33,7.09,2.58,9.84,1.87,2.29,4.46,3.82,7.21,4.85,2.94,1.1,6.08,1.7,9.15,2.3,9.56,1.88,19.26,3.27,28.97,4.05,5.5.45,11.06.72,16.58.47,4.61-.2,9.3-.78,13.6-2.56,1.81-.75,3.53-1.88,4.83-3.36,1.57-1.78,2.44-4.17,3.14-6.4,1.82-5.77,2.84-11.77,3.78-17.73.3-1.92.72-3.88.81-5.83.12-2.71-.18-5.47-.6-8.15-.44-2.85-1.08-5.69-2.02-8.43-.84-2.47-1.91-5.15-3.65-7.13-.98-1.11-1.96-1.85-3.29-2.5-1.93-.94-4.86.05-6.15,1.65-1.39,1.73-.65,3.51,1.18,4.4-.44-.21-.68-.45-.18-.06.14.11.29.23.43.34.6.46-.33-.46,0,0,.16.23.37.43.53.65.3.4.57.82.82,1.25.15.25.28.5.42.76.06.11.12.23.17.34.22.43-.31-.75.01.04,1.03,2.48,1.82,5.01,2.4,7.64.3,1.36.54,2.73.74,4.11.09.61.16,1.22.22,1.82.03.31.06.63.09.94.03.39-.02-.19-.02-.22,0,.17.02.34.03.51.1,1.9-.04,3.71-.33,5.59-.81,5.23-1.62,10.48-2.86,15.63-.15.64-.32,1.27-.48,1.91s.12-.37-.07.26c-.11.36-.21.72-.32,1.08-.35,1.11-.74,2.22-1.23,3.28-.19.4-.45.79-.62,1.2-.06.13.54-.69.07-.13-.13.15-.26.31-.39.47-.38.49.24-.3.4-.37-.12.06-.23.21-.34.29-.13.09-.25.18-.37.28-.59.47.57-.32.43-.25-.31.15-.6.34-.91.48-.27.13-1.45.59-.54.25s-.3.09-.57.17c-.44.13-.88.25-1.33.35-.41.1-.82.18-1.23.26-.21.04-1.07.19-.2.04s-.02,0-.23.03c-1.02.15-2.05.25-3.08.34-2.3.18-4.6.24-6.9.22-.57,0-1.14-.01-1.71-.02-.31,0-.63-.05-.94-.02.8-.06.46.02-.09,0-1.28-.05-2.57-.12-3.85-.2-9.67-.61-19.32-1.93-28.86-3.66-1.66-.3-3.31-.61-4.96-.95-.64-.13-1.29-.27-1.93-.41-.25-.06-.49-.11-.74-.17-.12-.03-.24-.06-.35-.08-.67-.15.92.25.56.14-.62-.18-1.24-.34-1.86-.54-.55-.18-1.11-.37-1.65-.59-.24-.09-.47-.19-.7-.3-.19-.08-1.06-.53-.61-.28.5.27-.37-.22-.46-.29-.22-.14-.43-.28-.64-.43-.24-.18-.47-.37-.71-.55-.62-.49.24.34-.3-.27-.38-.44-.74-.88-1.04-1.38-.08-.13-.48-.92-.33-.59.13.29-.19-.52-.24-.69-.55-1.69-.55-2.5-.42-4.28.33-4.63-8.53-3.52-8.83.59h0Z"/>
    <path class="cls-1" d="M87.92,722.01c-8.79,1.98-12.35,10.73-13.78,18.72-1.24,6.91-1.21,13.95-1.21,20.94,0,4.05,0,8.34,1.98,11.99,1.82,3.36,5.51,5.12,9.02,6.18,5.61,1.7,11.57,2.61,17.36,3.48s11.68,1.51,17.56,1.8c5.4.27,10.85.32,16.23-.21,4.39-.43,8.84-1.21,12.9-2.98,3.18-1.39,6.06-3.59,7.37-6.89,1.47-3.7,2.11-7.73,2.69-11.65,1.39-9.51,1.97-19.13,2.74-28.7.11-1.34.17-2.45-.66-3.59-.6-.82-1.48-1.49-2.34-2.02-2.46-1.52-5.32-2.48-8.07-3.3-8.42-2.51-17.25-3.87-25.98-4.72-9.57-.94-19.38-1.29-28.96-.16-2.29.27-4.58.65-6.84,1.12-1.66.35-4.12,2.03-3.58,4.01.57,2.12,3.49,2.02,5.11,1.68.44-.09.88-.18,1.32-.26.98-.19-1.1.17-.1.02.18-.03.37-.06.55-.09,1.04-.16,2.09-.3,3.13-.42,2.12-.24,4.25-.4,6.39-.49,1.06-.05,2.12-.08,3.18-.1.54,0,1.08-.01,1.62-.02.22,0,.43,0,.65,0,.22,0,.44,0,.65,0-.51,0-.61,0-.3,0,2.27.06,4.53.1,6.79.23,4.61.26,9.2.7,13.77,1.32,2.11.29,4.21.61,6.31.98.92.16,1.84.33,2.76.51.47.09.94.19,1.41.28-1.06-.22.58.13.91.2,3.23.72,6.45,1.55,9.55,2.72.57.21,1.14.44,1.7.69.1.05.21.09.31.14.59.25-.7-.37-.32-.15.24.14.5.25.74.38.39.21.77.44,1.13.7.15.11.29.25.45.35.41.25-.55-.67-.32-.29.05.08.14.13.19.21.07.1.17.25.26.34.35.35-.29-.75-.16-.31.19.62-.2-.35.03-.39-.04,0-.08,1.1-.09,1.16-.16,1.99-.31,3.98-.46,5.98-.36,4.69-.74,9.39-1.22,14.07-.46,4.43-.98,8.87-1.82,13.24-.32,1.67-.7,3.33-1.2,4.95.29-.94-.06.13-.14.35-.11.28-.22.56-.35.83-.11.24-.25.47-.36.72-.32.69.12-.36.18-.23.02.04-.28.35-.3.38-.18.18-.44.4-.58.6.55-.78.64-.51.3-.29-.12.08-.24.18-.36.27-.1.07-.2.14-.3.21-.43.31-.62.1.31-.16-.36.1-.74.4-1.08.56s-.67.28-1,.43c-.49.22-.04-.24.49-.17-.15-.02-.51.18-.67.23-.84.27-1.69.5-2.54.69-.39.09-.79.17-1.19.25s-1.1-.01.08,0c-.17,0-.39.06-.57.09-1.09.17-2.19.31-3.29.41-2.32.23-4.66.34-6.99.37-.59,0-1.19.01-1.78.01-.82,0-.13,0,.03,0-.37,0-.74,0-1.1-.02-1.38-.03-2.76-.08-4.14-.15-2.62-.13-5.24-.33-7.85-.59-5.7-.56-11.37-1.38-16.99-2.45-2.7-.51-4.29-.78-7.05-1.53-.93-.25-1.86-.53-2.76-.88-.2-.08-.4-.16-.6-.24-.06-.02-.81-.37-.26-.11s-.16-.09-.22-.12c-.2-.11-.4-.22-.59-.33-.31-.19-.61-.38-.89-.6-.16-.12-.32-.26-.48-.39.07.05.52.56.18.15-.47-.56-.93-1.08-1.32-1.7-.45-.72.14.45-.18-.37-.13-.33-.25-.66-.36-.99-.25-.82-.42-1.66-.54-2.51-.06-.43-.11-.87-.15-1.3-.02-.18-.03-.37-.05-.55-.08-.93.01.61-.02-.36-.04-1.13-.07-2.27-.06-3.4,0-1.26,0-2.51,0-3.77,0-3.39.08-6.79.35-10.17.3-3.71.8-7.44,1.81-11.03.06-.2.46-1.44.2-.7.14-.4.28-.8.43-1.2.32-.84.68-1.66,1.1-2.46.18-.35.37-.69.58-1.02.08-.13.17-.26.24-.39.39-.69-.52.62-.01.02.24-.28.45-.58.69-.86.1-.11.19-.22.29-.32.1-.1.2-.21.3-.31.3-.28.2-.2-.29.25.01-.15.62-.5.74-.59,1-.71-.69.28.11-.09.21-.1,1.37-.57.5-.26s.44-.1.68-.16c1.65-.37,4.12-2.01,3.58-4.01s-3.49-2.05-5.11-1.68Z"/>
    <path class="cls-1" d="M73.53,769.4c-.24,3.38.31,6.91,2.43,9.66,1.78,2.32,4.33,3.88,7.02,4.94,2.89,1.14,5.97,1.72,9.02,2.26,9.21,1.62,18.56,2.69,27.9,3.24,5.41.32,10.86.5,16.27.22,4.34-.22,8.88-.66,13-2.1,1.98-.69,3.96-1.53,5.59-2.89,1.85-1.54,3.02-3.58,3.75-5.85,1.79-5.64,2.17-11.63,2.72-17.49.42-4.53,1.33-9,1.81-13.52.29-2.75.47-5.53.3-8.3-.17-2.6-.48-5.32-1.98-7.53-.78-1.14-1.83-1.88-3.05-2.47-1.93-.95-4.86.04-6.15,1.65-1.39,1.74-.65,3.55,1.19,4.46-.4-.2-.78-.32-.19-.05.02,0,.19.17.2.17-.09.06-.44-.63-.33-.32s.53.83.73,1.08-.16-.32-.16-.34c.03.13.11.26.16.39.07.21.14.41.21.62.16.53.27,1.07.37,1.61.04.25.08.5.11.75.01.11.11,1.04.07.61s.02.38.03.51c.02.37.03.75.03,1.12.02,1.32-.03,2.64-.12,3.96-.31,4.45-1.23,8.8-1.74,13.22-.61,5.21-.85,10.47-1.82,15.63-.12.62-.25,1.25-.39,1.86-.03.14-.27,1.08-.15.64.11-.4-.13.43-.18.58-.16.5-.34,1-.54,1.48-.1.24-.21.47-.32.7-.05.09-.1.18-.15.28-.18.37-.22.1,0,.02.04-.01.3-.37.04-.09-.08.09-.15.2-.22.29-.09.1-.21.2-.28.32-.26.4.79-.64.38-.38-.14.09-.27.23-.41.33-.11.08-.22.16-.33.24-.62.48.58-.33.41-.25-.32.15-.62.34-.94.49s-.66.25-.97.41c.23-.12,1.2-.42.48-.19-.22.07-.45.15-.67.22-.82.25-1.66.46-2.5.63-.44.09-.88.15-1.32.25.41-.09,1.08-.17.34-.06-.29.04-.58.09-.87.12-1.03.14-2.07.24-3.11.33-2.24.18-4.48.26-6.72.28-1.22.01-2.43,0-3.65-.02-.6-.01-1.2-.03-1.79-.04-.16,0-.42-.05-.56-.02-.01,0,.91.04.43.01-.33-.01-.65-.03-.98-.04-9.32-.4-18.63-1.42-27.84-2.88-2.62-.41-5.22-.9-7.81-1.45-.4-.09,1.24.35.47.11-.54-.17-1.09-.32-1.63-.5s-1.03-.36-1.53-.57c-.27-.11-.55-.23-.81-.36-.11-.05-.23-.12-.34-.17-.45-.18.57.37.17.1-.46-.32-.95-.57-1.4-.91-.24-.18-.47-.38-.7-.57-.6-.51.16.26-.19-.19s-.72-.89-1.03-1.4c-.1-.17-.45-1-.19-.32-.13-.32-.25-.64-.35-.97-.2-.66-.34-1.34-.42-2.03.05.46-.02-.4-.02-.54,0-.52.02-1.03.06-1.55.33-4.68-8.54-3.59-8.83.57h0Z"/>
    <path class="cls-1" d="M221.51,715.92c-4.44.19-8.74,1.96-11.46,5.57-2.08,2.76-3.22,6.23-3.99,9.56-1.63,6.98-1.89,14.25-1.96,21.38-.04,3.45-.19,6.97.43,10.38s2.3,5.98,5.22,7.74c3.95,2.39,8.94,3.08,13.4,3.94,5.75,1.11,11.56,1.98,17.39,2.56,10.52,1.06,21.4,1.58,31.82-.59,3.91-.81,8-2.14,11.15-4.68,2.48-2.01,3.54-4.99,4.43-7.96,2.65-8.88,3.79-18.58,3.46-27.83-.08-2.13-.26-4.27-.64-6.37-.28-1.52-.6-2.88-1.51-4.15-1.5-2.09-4.12-3.37-6.45-4.29-7.8-3.09-16.55-3.91-24.84-4.57-9.94-.78-19.91-.98-29.88-.84-2.18.03-4.36.08-6.54.15-1.92.06-4.56.63-5.76,2.31s.99,2.34,2.29,2.3c9.05-.27,18.11-.28,27.16.12,2.31.1,4.63.23,6.93.4.28.02.57.04.85.06.66.05-.86-.07.22.02.56.05,1.12.09,1.68.14,1.1.1,2.19.21,3.29.33,4.07.44,8.14,1.02,12.13,1.94.76.18,1.52.37,2.27.57-.76-.2.44.13.63.19.45.14.9.28,1.34.44,1.31.45,2.6.98,3.81,1.65.14.08,1,.62.37.2.24.16.47.32.69.49.41.31.81.65,1.16,1.04.16.18.31.36.46.55.07.09.13.19.2.28.17.24-.23-.5-.06-.08.21.5.39.95.52,1.48,1,4.03,1.14,8.31.99,12.45-.16,4.59-.68,9.17-1.47,13.68-.65,3.68-1.45,7.4-2.75,10.91-.23.62-.49,1.23-.76,1.83-.31.67.25-.27-.15.28-.17.23-.34.47-.51.71-.52.68.28-.18-.06.08-.23.17-.46.37-.68.56-.53.46.81-.47.19-.13-.11.06-.22.14-.33.2-.14.08-.28.16-.43.24-.79.43-.15-.18.16-.06-.14-.05-.74.33-.89.38-.2.08-1.46.53-.61.24s-.36.1-.59.17c-.49.14-.99.27-1.48.38-.17.04-.35.08-.52.12-.96.22,1.1-.19.11-.02-.42.07-.83.15-1.25.22-1.03.17-2.07.3-3.12.4-.52.05-1.05.1-1.57.14-.77.07-.01,0,.12,0-.33.02-.66.04-.99.06-1.14.06-2.28.1-3.42.12-2.51.05-5.01,0-7.52-.11-10.11-.44-21.11-1.95-31.46-4.38-.53-.12-1.06-.25-1.58-.4.44.13-.72-.23-.92-.3-.82-.28-1.63-.59-2.4-.97-.34-.17-.68-.35-1.01-.55.48.29-.38-.28-.49-.37-.55-.43-1.05-.92-1.48-1.48s-.42-.52-.76-1.3c-.32-.73-.55-1.49-.72-2.27-.39-1.75-.5-3.57-.56-5.36-.19-6.35-.03-12.04.69-18.43.39-3.53.97-7.07,2.04-10.47.23-.72.48-1.44.77-2.15.13-.32.26-.64.41-.95.09-.2.19-.4.29-.6.25-.5-.21.34.1-.18.35-.59.71-1.17,1.13-1.72.17-.22.44-.43.57-.67.18-.34-.59.5-.11.11.14-.11.27-.25.42-.37.11-.09.26-.17.36-.28.29-.32-.86.47-.27.2.1-.05.22-.12.31-.18.61-.4-1.03.44-.34.17.6-.23-.67.2-.63.2.12,0,.41-.08.52-.14.02-.01-1.28.24-.64.14.75-.11-1.11.05-.34.01,1.93-.08,4.55-.61,5.76-2.31s-.98-2.36-2.29-2.3Z"/>
    <path class="cls-1" d="M204.68,763c-.24,3.34.24,6.59,2.38,9.28,1.66,2.09,4.15,3.48,6.62,4.38,2.89,1.05,5.87,1.69,8.88,2.27,9.78,1.91,19.7,3.31,29.63,4.12,5.18.42,10.4.67,15.6.45,4.9-.21,9.87-.7,14.47-2.52,1.8-.71,3.68-1.73,5.03-3.14,2.19-2.28,3.18-5.37,3.76-8.42.61-3.22.81-6.51,1.13-9.77.19-1.99.53-3.96.63-5.97.27-5.15.08-10.38-.46-15.51-.46-4.4-.97-9.8-3.73-13.47-.51-.67-1.2-1.25-1.96-1.62-1.86-.91-4.49-.27-6.16.79-1.18.75-2.62,2.57-.74,3.49.11.05.6.32.14.04-.41-.25-.03-.03.07.08.26.28.49.54.72.85.1.13.18.28.27.42-.35-.55,0,0,.06.15.21.45.41.89.58,1.36.78,2.09,1.22,4.31,1.57,6.51.41,2.56.66,5.15.82,7.74s.23,4.96.2,7.14c-.04,4.36-.67,8.66-1.08,12.99-.29,3.07-.62,6.2-1.6,9.14-.11.33-.23.67-.37.99-.12.3-.03.07,0,.01-.06.13-.12.26-.19.38-.15.28-.31.56-.48.83-.22.33-.75.86-.15.28-.2.19-.4.37-.6.56-.47.46.79-.5.31-.23-.14.08-.27.18-.41.27s-.29.16-.43.25c-.48.31,1.12-.5.38-.2-.34.14-.68.29-1.02.43-.76.32,1.09-.34.42-.14-.17.05-.33.11-.5.16-.44.13-.88.25-1.33.35-.22.05-.44.09-.65.15-.71.17,1.13-.2.4-.08-.47.08-.95.16-1.42.23-1.02.15-2.05.25-3.08.34-.55.04-1.09.07-1.64.11-.75.05.9-.03.13,0-.33.01-.66.02-.98.03-1.19.03-2.38.04-3.57.03-2.48-.02-4.97-.13-7.45-.28s-5.14-.38-7.71-.65c-.65-.07-1.31-.14-1.96-.21-.28-.03-.56-.06-.84-.09-.31-.03-1.27-.15-.41-.05-1.27-.15-2.55-.31-3.82-.48-4.47-.6-8.92-1.3-13.36-2.1-2.75-.5-5.52-1-8.23-1.69-.62-.16-1.24-.35-1.86-.54-.45-.13.54.2.1.04-.12-.04-.24-.08-.35-.13-.28-.1-.55-.21-.82-.32-.55-.23-1.09-.48-1.61-.76-.26-.14-.52-.29-.77-.45-.12-.08-.63-.43-.26-.16-.52-.39-1-.82-1.44-1.3-.88-.96-1.28-1.65-1.68-2.88-.47-1.46-.59-2.98-.49-4.51.14-1.92-2.35-2.16-3.78-1.95s-4.79,1.11-4.93,3h0Z"/>
    <path class="cls-1" d="M261.2,598.39c0,.1,0,.19,0,.29-.02.58.03-.34,0-.03-.03.35-.05.69-.08,1.04-.09,1-.19,2-.29,2.99-.32,3.09-.67,6.18-1.03,9.27-1.07,9.23-2.2,18.46-3.33,27.69-1.34,10.89-2.7,21.77-4.05,32.66-1.19,9.51-2.38,19.02-3.55,28.54-.65,5.24-1.36,10.48-1.88,15.73-.02.21-.04.42-.06.62-.13,1.72,2.47,1.51,3.61,1.32s2.28-.52,3.3-1.07c.53-.29,1.67-.89,1.72-1.57.35-4.55,1.04-9.09,1.6-13.62,1.13-9.2,2.28-18.4,3.43-27.59,1.36-10.88,2.72-21.77,4.06-32.65,1.18-9.6,2.36-19.19,3.49-28.79.62-5.33,1.35-10.67,1.71-16.02.03-.37.05-.75.06-1.13.04-1.96-8.63-.61-8.69,2.33h0Z"/>
    <path class="cls-1" d="M132.65,645.48c.28,0,1.51.04.57.01s-.06,0,.14,0c.22,0,.45.01.67.02.99.03,1.98.07,2.97.12,2.48.11,4.96.23,7.44.36,6.27.33,12.54.7,18.81,1.09,13.48.83,26.95,1.73,40.42,2.69,4.47.32,8.94.64,13.4,1.01,10.41.86,20.77,2.27,31.12,3.71,20.44,2.86,40.92,5.31,61.48,7.15,20.45,1.82,40.95,3.19,61.46,3.93,2.34.08,4.69.16,7.04.23l-2.92-2.93c-.8,21.44-1.68,42.87-2.52,64.3-.23,5.93-.46,11.87-.68,17.8-.08,2.14,2.16,3.14,4.05,2.96s4.69-1.36,4.77-3.57c.8-21.44,1.68-42.87,2.52-64.3.23-5.93.46-11.87.68-17.8.06-1.58-1.35-2.88-2.92-2.93-20.38-.58-40.75-1.82-61.06-3.52-20.43-1.7-40.83-3.88-61.14-6.7-11.26-1.56-22.51-3.22-33.82-4.34-4.9-.48-9.81-.84-14.73-1.2-13.17-.96-26.34-1.84-39.51-2.67-11.41-.72-22.83-1.5-34.26-1.87-1.08-.04-2.16-.07-3.24-.09-1.92-.04-4.57,1.51-4.77,3.57-.23,2.32,2.29,2.92,4.05,2.96h0Z"/>
    <path class="cls-1" d="M127.86,643.11c-4.05,20.89-7.21,41.95-9.43,63.12-.63,6.02-1.19,12.05-1.68,18.09-.14,1.71,2.48,1.49,3.6,1.3s2.28-.52,3.3-1.07c.53-.29,1.67-.89,1.72-1.56,1.71-21.21,4.33-42.35,7.87-63.33,1.01-5.97,2.09-11.93,3.24-17.88.33-1.71-2.63-1.47-3.6-1.3-1.14.19-2.28.52-3.3,1.07-.58.31-1.59.86-1.72,1.56h0Z"/>
    <path class="cls-1" d="M408.24,805.44c1.97-3.58,3.94-7.16,5.92-10.74.33-.59.52-1.18,0-1.75s-1.64-.73-2.34-.73c-1.15,0-2.35.21-3.41.68-.81.36-1.89.86-2.34,1.67-1.97,3.58-3.94,7.16-5.92,10.74-.33.59-.52,1.18,0,1.75s1.64.73,2.34.73c1.15,0,2.35-.21,3.41-.68.81-.36,1.89-.86,2.34-1.67h0Z"/>
    <path class="cls-1" d="M398.96,809.06c2.34-2.14,4.68-4.28,7.01-6.43.54-.49.99-1.41.79-2.16s-1.04-1.3-1.76-1.48c-2.19-.55-4.49.2-6.15,1.65-.22.2-1.07.76-.07.07-.24.17-.46.37-.69.55-.47.36-.95.7-1.43,1.03s-.99.64-1.49.94c-.29.17-1.26.61,0,0-.26.13-.52.28-.78.41-1.06.53-2.14.96-3.24,1.4,1.47-.59.44-.16.09-.04-.28.09-.56.18-.84.26-.57.16-1.14.31-1.71.44-.99.23-2.17.83-2.87,1.58-.48.5-1.05,1.41-.79,2.16.69,1.96,3.45,1.77,5.04,1.41,5.92-1.35,11.35-4.24,15.91-8.21l-7.12-1.99c-2.34,2.14-4.68,4.28-7.01,6.43-.54.49-.99,1.41-.79,2.16s1.04,1.3,1.76,1.48c2.14.54,4.54-.17,6.15-1.65h0Z"/>
    <path class="cls-1" d="M386.85,807.65c.54-.55,1.1-1.07,1.7-1.55l-.6.49c.42-.35.86-.68,1.31-.99.33-.18.58-.42.77-.73.19-.18.26-.41.22-.69-.1-.26-.27-.42-.53-.48-.32-.17-.66-.26-1.03-.25h-.94c-.76.05-1.51.18-2.25.38-1.03.29-2.07.65-2.95,1.27-.74.52-1.45,1.09-2.14,1.67-.51.43-1,.88-1.46,1.36-.25.19-.37.42-.36.7-.08.24,0,.43.24.58.28.19.59.29.92.31.44.09.88.11,1.32.06,1.15-.08,2.32-.32,3.39-.74.86-.34,1.76-.73,2.41-1.39h0Z"/>
    <path class="cls-1" d="M275.22,780c2.94-2.44,5.47-5.31,7.62-8.47.35-.52-.4-.88-.73-.98-.82-.24-1.97-.11-2.77.04-1.13.21-2.29.51-3.31,1.04-.69.36-1.32.73-1.77,1.39-.37.54-.75,1.08-1.15,1.6l.35-.46c-1.79,2.36-3.85,4.51-6.13,6.4-.39.33-.57.85-.14,1.21.49.41,1.69.36,2.23.32,2.03-.17,4.22-.78,5.81-2.1h0Z"/>
    <path class="cls-1" d="M266.63,780.31c.66-.57,1.33-1.14,1.99-1.7.33-.24.57-.55.71-.93.19-.28.24-.58.15-.92-.1-.34-.29-.58-.6-.72-.31-.25-.67-.4-1.08-.45l-.97-.1c-.77,0-1.53.09-2.27.3l-1.14.39c-.65.26-1.24.62-1.77,1.06-.66.57-1.33,1.14-1.99,1.7-.33.24-.57.55-.71.93-.19.28-.24.58-.15.92.1.34.29.58.6.72.31.25.67.4,1.08.45l.97.1c.77,0,1.53-.09,2.27-.3l1.14-.39c.65-.26,1.24-.62,1.77-1.06h0Z"/>
    <path class="cls-1" d="M255.19,779.98c.4-.34.79-.69,1.19-1.03.34-.29.56-.65.68-1.07.18-.34.22-.7.11-1.09-.1-.39-.31-.68-.64-.89-.31-.3-.68-.5-1.12-.58l-.99-.17c-.78-.05-1.54.03-2.29.24l-1.13.4c-.65.28-1.23.68-1.74,1.17-.4.34-.79.69-1.19,1.03-.34.29-.56.65-.68,1.07-.18.34-.22.7-.11,1.09.1.39.31.68.64.89.31.3.68.5,1.12.58l.99.17c.78.05,1.54-.03,2.29-.24l1.13-.4c.65-.28,1.23-.68,1.74-1.17h0Z"/>
    <path class="cls-1" d="M223.19,778.23c5.28.58,10.56,1.15,15.84,1.73,2.04.22,4.58-.18,6.15-1.65.48-.45,1.08-1.07.88-1.8-.18-.67-1.05-1.05-1.66-1.11-5.28-.58-10.56-1.15-15.84-1.73-2.04-.22-4.58.18-6.15,1.65-.48.45-1.08,1.07-.88,1.8.18.67,1.05,1.05,1.66,1.11h0Z"/>
    <path class="cls-1" d="M97.8,785.23l7.07.14c1.15.02,2.36-.21,3.41-.67.77-.33,1.89-.97,2.31-1.75.32-.6.52-1.33-.04-1.89-.6-.61-1.54-.82-2.37-.84l-7.07-.14c-1.15-.02-2.36.21-3.41.67-.77.33-1.89.97-2.31,1.75-.32.6-.52,1.33.04,1.89.6.61,1.54.82,2.37.84h0Z"/>
    <path class="cls-1" d="M121.48,787.04l.37.03c.5.08,1,.09,1.51.02.58-.02,1.16-.12,1.72-.28.57-.14,1.11-.34,1.63-.61.47-.19.9-.45,1.29-.77l.58-.57c.29-.33.4-.7.33-1.13l-.29-.47c-.39-.31-.84-.5-1.35-.55l-.37-.03c-.5-.08-1-.09-1.51-.02-.58.02-1.16.12-1.72.28-.57.14-1.11.34-1.63.61-.47.19-.9.45-1.29.77l-.58.57c-.29.33-.4.7-.33,1.13l.29.47c.39.31.84.5,1.35.55h0Z"/>
    <path class="cls-1" d="M136.15,785.24c.13-.11.27-.23.4-.34.33-.2.58-.47.75-.81.19-.22.25-.48.19-.78-.1-.29-.28-.48-.56-.58-.31-.21-.66-.31-1.05-.33l-.95-.04c-.77.03-1.52.14-2.26.35l-1.14.37c-.64.24-1.24.56-1.8.97-.13.11-.27.23-.4.34-.33.2-.58.47-.75.81-.19.22-.25.48-.19.78.1.29.28.48.56.58.31.21.66.31,1.05.33l.95.04c.77-.03,1.52-.14,2.26-.35l1.14-.37c.64-.24,1.24-.56,1.8-.97h0Z"/>
  </g>
  <g>
    <path class="cls-1" d="M400.13,383.54c-9.82,1.81-19.74,7.17-24.35,16.43-2.52,5.06-2.86,10.51-2.46,16.06.42,5.95,1.33,11.88,2.05,17.8,2.92,24.2,5.86,48.39,8.8,72.59.37,3.06.73,6.12,1.12,9.17.3,2.35.66,4.72,1.52,6.93,1.87,4.82,5.8,7.83,10.72,9.13s10.27,1.02,15.4.79c6.04-.27,12.08-.61,18.11-1.03,23.91-1.64,47.75-4.4,71.41-8.27,6.17-1.01,12.33-2.11,18.48-3.26,5.26-.99,10.61-1.83,15.76-3.3,4.82-1.38,9.86-3.45,13.33-7.21,3.78-4.08,4.71-9.21,4.51-14.6-.21-5.71-1.1-11.44-1.72-17.12-.67-6.12-1.34-12.24-2-18.36-1.33-12.16-2.65-24.32-3.98-36.48-.67-6.12-1.34-12.24-2-18.36-.57-5.23-.92-10.54-1.93-15.7-.81-4.15-2.21-8.43-4.95-11.73-3.41-4.1-8.62-5.78-13.83-5.77-3.99,0-7.93.71-11.88,1.22-2.98.39-5.96.74-8.94,1.08-7.03.8-14.07,1.52-21.12,2.21-15.36,1.5-30.74,2.86-46.12,4.22-10.86.96-21.75,1.8-32.58,3.08-1.12.13-2.25.26-3.37.46-1.72.3-4.54,1.09-4.88,3.17-.33,1.97,2.48,2.48,3.85,2.24,2.9-.51,5.86-.75,8.78-1.04,5.31-.53,10.62-1.02,15.93-1.49,14.39-1.3,28.79-2.54,43.18-3.88,13.76-1.28,27.54-2.57,41.26-4.26,2.71-.33,5.42-.71,8.12-1.08,1.29-.18,2.59-.34,3.89-.43.29-.02.58-.04.87-.05-.62.02.11,0,.19,0,.72.02,1.43.04,2.14.13.62.07,1.84.37,2.72.79.79.37,1.75.98,2.16,1.33,3.05,2.58,4.48,6.26,5.41,10.06,1.13,4.59,1.46,9.34,1.97,14.02,2.57,23.57,5.15,47.15,7.72,70.72.65,5.96,1.3,11.91,1.95,17.87.48,4.46,1.13,9.65-1.06,13.79-.52.98-.95,1.57-1.41,2.07-.35.38-.73.72-1.11,1.07-.44.4.46-.33-.02.02-.28.21-.56.41-.84.6-.17.11-1.58.94-.68.46-.42.23-.84.43-1.27.63s-.88.39-1.32.56c-.03.01-1.14.44-.45.18.62-.24-.35.11-.47.15-4.79,1.55-9.84,2.33-14.77,3.27-10.39,1.98-22.54,4-33.73,5.61-11.54,1.65-23.12,3.04-34.72,4.16s-23.11,1.97-34.69,2.57c-2.81.14-5.62.28-8.42.38.84-.03.19,0,.02,0-.31,0-.61,0-.92,0-.49,0-.98,0-1.47-.02-1.16-.04-2.32-.12-3.48-.27-.12-.01-.72-.13-.09-.01-.24-.04-.47-.09-.71-.14-.52-.11-1.04-.24-1.56-.39-.23-.07-.45-.14-.67-.21-.11-.04-.8-.31-.33-.12-.53-.23-1.05-.49-1.55-.78-1.55-.91-2.96-2.36-3.8-4.16-2.12-4.57-2.18-10.11-2.78-15.03-.72-5.93-1.44-11.85-2.16-17.78-1.43-11.77-2.86-23.54-4.28-35.31s-2.9-23.43-4.24-35.16c-.6-5.2-.97-10.56.78-15.6.61-1.74,1.74-3.65,2.92-5.25.35-.48-.25.3.12-.16.19-.23.38-.46.58-.68.32-.36.65-.71.98-1.05s.69-.67,1.04-.99c.22-.2.45-.4.68-.59.32-.27-.34.24.21-.17.88-.65,1.77-1.27,2.72-1.84.21-.12.42-.24.63-.37-.71.41-.16.08,0,0,.49-.24.99-.49,1.49-.71s1.02-.42,1.53-.63c.2-.08.83-.26-.09.03.23-.07.47-.15.7-.23.47-.15.94-.28,1.41-.4.23-.06,2.11-.46.97-.25,1.72-.32,4.53-1.08,4.88-3.17.33-1.96-2.48-2.49-3.85-2.24Z"/>
    <path class="cls-1" d="M435.96,492.1c.48,1.9,2.17,3.23,3.74,4.24,2.16,1.38,4.47,2.36,7.08,1.73,1.89-.45,3.76-1.93,5.43-2.94,1.13-.68,2.26-1.35,3.39-2.03,3.97-2.36,7.96-4.69,11.87-7.14,9.27-5.81,17.82-12.59,26.04-19.79,7.76-6.8,15.25-13.9,22.67-21.06.81-.78,1.11-1.74.47-2.71-1.83-2.78-4.71-5.47-8.2-5.6-1.97-.08-4.66.63-5.71,2.48s.88,2.91,2.47,2.97c.68.03-.32-.11-.37-.1-.28.05.22.12.41.23.48.28.64.42,1.06.81.88.82,1.65,1.76,2.31,2.77l.47-2.71c-6.15,5.93-12.34,11.81-18.69,17.53-2.41,2.17-4.85,4.32-7.32,6.43-1.07.91-2.14,1.81-3.22,2.7-.51.42-1.02.84-1.53,1.25-.23.19-.47.38-.7.56-.4.33.59-.47.19-.15-.16.13-.32.26-.49.39-6.58,5.23-13.54,9.85-20.75,14.16-4.41,2.64-8.85,5.24-13.24,7.92l5.37-1.02c1.09.42-.32-.17-.61-.31-.58-.29-1.15-.61-1.7-.97-.62-.41-.59-.35-1.09-.88-.19-.21-.38-.42-.54-.66-.11-.16-.1-.15.01.04-.06-.15-.11-.31-.15-.47-.85-3.39-9.56-1.11-8.69,2.33h0Z"/>
    <path class="cls-1" d="M423.53,426.82c3.22,17.59,6.72,35.13,10.07,52.69.8,4.19,1.59,8.39,2.36,12.59.22,1.18,1.78,1.6,2.76,1.68,1.57.13,3.07-.37,4.39-1.18,7.38-4.51,14.96-8.72,22.18-13.49,8.65-5.71,16.65-12.34,24.39-19.22,7.06-6.28,13.92-12.78,20.72-19.34,1.97-1.9.07-3.64-1.98-3.87-20.46-2.3-40.68-5.55-60.79-9.82-5.74-1.22-11.47-2.51-17.17-3.88-2.07-.5-4.65.06-6.15,1.65-1.27,1.35-.94,3.24.99,3.7,20.54,4.93,41.31,8.87,62.23,11.81,5.89.83,11.8,1.57,17.71,2.24l-1.98-3.87c-6.15,5.93-12.34,11.81-18.69,17.53-2.41,2.17-4.85,4.32-7.32,6.43-.51.43-1.02.86-1.53,1.3-.41.35.55-.45.13-.11-.11.09-.21.18-.32.26-.31.26-.62.52-.94.78-1.02.84-2.06,1.68-3.09,2.51-6.58,5.23-13.54,9.85-20.75,14.16-4.41,2.64-8.85,5.24-13.24,7.92l7.15.51c-3.22-17.59-6.72-35.13-10.07-52.69-.8-4.19-1.59-8.39-2.36-12.59-.36-1.98-3.66-1.86-5.05-1.45-1.61.48-4.02,1.72-3.65,3.78h0Z"/>
    <path class="cls-1" d="M389.33,526.93c2.43,3.43,5.95,5.92,10.08,6.82,3.68.8,7.38.65,11.11.29,10.29-1,20.62-1.74,30.92-2.61,21.28-1.78,42.69-3,63.75-6.66,10.63-1.85,21.17-4.15,31.58-7.01,5.06-1.39,10.62-2.53,15.09-5.38s6.66-7.59,7.62-12.53.52-10.42-.12-15.54-1.46-10.71-2.19-16.07c-1.47-10.73-2.95-21.46-4.42-32.2-1.3-9.45-2.36-18.94-3.68-28.39-1.24-8.82-3.17-17.58-7.57-25.42-1.04-1.86-2.23-3.62-3.54-5.29s-4.21-1.39-5.88-.54c-1.42.73-3.46,2.57-2.1,4.29,5.13,6.55,7.71,14.4,9.28,22.49,1.66,8.62,2.36,17.4,3.55,26.09,1.42,10.32,2.84,20.64,4.25,30.97.71,5.16,1.42,10.32,2.13,15.48s1.53,10.08,1.94,15.15c.36,4.4.23,9.38-1.5,13.41-.21.49-.44.97-.7,1.44-.13.23-.26.46-.4.69,0,.02-.38.54-.15.23-.28.37-.58.72-.9,1.05-.06.06-.66.59-.35.34.29-.23-.52.36-.59.41-.1.08-.7.4-.1.08-.24.13-.49.26-.74.37-.19.09-.38.17-.57.25-.11.05-.92.38-.41.18s-.31.1-.43.14c-.27.09-.53.17-.8.26-.64.2-1.28.39-1.93.58-9.73,2.88-19.59,5.31-29.54,7.27-1.18.23-2.37.46-3.56.68-.55.1-1.11.2-1.66.3-.93.17-.45.08-.24.05-.4.07-.79.14-1.19.21-2.54.44-5.08.84-7.63,1.22-5.03.74-10.07,1.36-15.12,1.87-10.28,1.04-20.58,1.8-30.88,2.66s-20.78,1.74-31.17,2.61c-4.04.34-8.09.8-12.14,1.03-.34.02-.69.04-1.03.05-.2,0-.4,0-.6.01-.59.03.8.06.21,0-.81-.08-1.61-.08-2.42-.19-.2-.03-.4-.08-.6-.1-.55-.06.61.22.09.02-.33-.13-.71-.18-1.05-.29-.4-.13-.79-.28-1.18-.44.63.26-.59-.33-.75-.43-1.65-1-2.58-2.02-3.74-3.66-2.16-3.06-10.48.21-7.98,3.75h0Z"/>
    <path class="cls-1" d="M442.44,491.63c1.11.54,2.21,1.09,3.32,1.63.74.36,1.5.68,2.28.93,1.16.36,2.37.38,3.57.31.6-.05,1.19-.19,1.74-.42.55-.16,1.06-.4,1.54-.72.42-.24.77-.56,1.05-.95.29-.29.47-.63.56-1.04l-.02-.69c-.16-.48-.47-.84-.92-1.07-.9-.46-1.91-.48-2.9-.42h-.11c.37,0,.74-.01,1.1-.03-.22,0-.44,0-.67-.04l.98.14c-.37-.06-.73-.16-1.08-.3l.81.31c-.75-.29-1.46-.67-2.18-1.02s-1.49-.74-2.24-1.1c-.89-.44-1.92-.52-2.9-.42-.6.05-1.19.19-1.74.42-.55.16-1.06.4-1.54.72-.65.46-1.52,1.13-1.61,1.99l.02.69c.16.48.47.84.92,1.07h0Z"/>
    <path class="cls-1" d="M448.44,487.79c.55,0,1.09.02,1.64.08l-.75-.07c1.87.2,3.69.71,5.49,1.23.4.08.81.09,1.21.06.52,0,1.03-.06,1.54-.17,1.1-.2,2.31-.53,3.32-1.03l.83-.43c.39-.21.72-.5.97-.86l.06-.38c-.16-.3-.42-.46-.76-.48-2.57-.74-5.18-1.41-7.88-1.38-1.08.01-2.13.17-3.17.45-.97.26-2.12.63-2.97,1.19-.31.21-1.25.74-1.03,1.24s1.06.56,1.51.56h0Z"/>
    <path class="cls-1" d="M455.37,484.01c1.29.21,2.58.42,3.87.63,1.51.25,3.03.58,4.56.58,1.18,0,2.32-.16,3.42-.65.78-.35,1.88-1.01,2.3-1.82.32-.64.49-1.41-.07-2-.59-.62-1.55-.93-2.39-.92-.65,0-1.3-.07-1.94-.17l.98.15c-1.84-.28-3.67-.6-5.5-.9-1.13-.18-2.15-.19-3.27.11-.96.26-2.18.79-2.88,1.54-.48.52-1.08,1.3-.81,2.07.26.73.97,1.26,1.74,1.39h0Z"/>
    <path class="cls-1" d="M465.85,479.15c.21,0,.42,0,.63,0h-1.11c1.17,0,2.32.1,3.47.33l-1-.21c.92.19,1.81.46,2.7.76,1.01.35,2.29.27,3.29,0s2.2-.84,2.85-1.65c.51-.63,1.03-1.49.74-2.33s-.97-1.36-1.81-1.65c-1.41-.49-2.86-.85-4.34-1.09s-3.04-.24-4.56-.22c-.61.04-1.19.18-1.75.41-.55.16-1.06.42-1.53.77-.64.47-1.49,1.35-1.55,2.22s.27,1.61,1.02,2.05c.91.55,1.9.61,2.94.6h0Z"/>
    <path class="cls-1" d="M472.72,469.35c1.31,1.21,3.1,1.5,4.61,2.36l-.56-.32c.38.22.73.49,1.03.82.28.23.59.37.94.41.44.13.89.18,1.35.14.57,0,1.13-.08,1.67-.22.59-.1,1.17-.27,1.72-.5l.99-.46c.53-.27.99-.63,1.38-1.07l.32-.55c.12-.38.03-.7-.26-.97-.27-.31-.59-.56-.94-.77-.52-.31-1.04-.6-1.6-.83-.77-.32-1.57-.58-2.3-1l.56.32c-.28-.17-.55-.36-.79-.58-.28-.23-.59-.37-.94-.41-.44-.13-.89-.18-1.35-.14-.57,0-1.13.08-1.67.22-.59.1-1.17.27-1.72.5l-.99.46c-.53.27-.99.63-1.38,1.07-.33.48-.58,1.05-.06,1.53h0Z"/>
    <path class="cls-1" d="M487.13,458.07c1.62,1.1,3.28,2.12,5.01,3.04.41.18.83.27,1.27.28.52.07,1.05.06,1.58-.03.6-.07,1.18-.21,1.74-.43.55-.16,1.06-.38,1.55-.68l.79-.56c.41-.32.7-.72.87-1.21v-.59c-.14-.42-.44-.72-.86-.88-1.31-.69-2.58-1.44-3.82-2.24l.57.37c-.21-.14-.42-.28-.63-.42-.28-.26-.6-.42-.97-.49-.44-.16-.89-.22-1.36-.2-.57-.01-1.13.05-1.68.19-.59.09-1.17.26-1.72.5l-.98.49c-.53.29-.99.68-1.36,1.15l-.31.61c-.11.42-.01.78.29,1.09h0Z"/>
  </g>
  <g>
    <g>
      <path class="cls-1" d="M764.84,778.86c2.93-21.46,4.29-43.07,4.93-64.7s.72-42.75,1.57-64.11c.47-11.82,1.16-23.64,2.15-35.43.12-1.47.25-2.94.38-4.4.17-1.87.73-3.93-1.11-5.16-.74-.5-1.68-.7-2.55-.8-.4-.04-.8-.06-1.2-.08-5.16-.28-10.33-.43-15.5-.61-9.71-.34-19.42-.67-29.13-.99-12.75-.42-25.5-.83-38.25-1.25-14.11-.46-28.21-.92-42.32-1.38-14.09-.46-28.19-.93-42.28-1.42-12.36-.42-24.72-.86-37.07-1.32-9.23-.34-18.46-.7-27.68-1.12-1.57-.07-3.15-.15-4.72-.23-1.84-.09-3.53.25-5.13,1.18-1.14.66-2.59,1.81-2.67,3.27-1.17,22.89-2.55,45.77-4.07,68.64-1.39,20.85-2.89,41.69-4.35,62.54-.8,11.4-1.59,22.8-2.35,34.2-.14,2.17,1.83,3.24,3.74,3.45,5.46.6,10.95,1.04,16.43,1.46,7.76.6,15.53,1.12,23.3,1.62,9.4.61,18.81,1.17,28.22,1.72,10.4.6,20.79,1.18,31.19,1.75s21.47,1.15,32.21,1.72c10.43.55,20.85,1.08,31.28,1.62,9.46.49,18.93.97,28.4,1.46,7.85.4,15.71.81,23.56,1.23,5.59.3,11.19.6,16.78.93,2.68.16,5.36.33,8.04.58.09,0,.19.04.28.04.27.02-1.72-.44-1.21-.24,0,0,.02,0,.03,0,0,0-1.09-.51-1.08-.5,0,0-1.27-1.64-1.27-1.64.15,1.06,1.49,1.86,2.37,2.15,1.3.43,3.03.38,4.32,0,2.36-.71,5.11-2.39,4.72-5.21-.41-2.98-6.48-2.73-8.69-2.87-4.8-.32-9.61-.58-14.41-.84-7.32-.4-14.64-.78-21.95-1.16-9.11-.47-18.21-.94-27.32-1.4-10.31-.53-20.62-1.06-30.93-1.59s-21.52-1.12-32.29-1.7c-10.64-.57-21.29-1.16-31.93-1.76-9.77-.56-19.54-1.13-29.31-1.74-8.32-.52-16.64-1.06-24.95-1.67-6.14-.45-12.27-.91-18.4-1.51-1.1-.11-2.21-.22-3.31-.34l3.74,3.45c1.35-20.45,2.82-40.89,4.26-61.34,1.52-21.52,2.99-43.05,4.3-64.58.8-13.15,1.54-26.3,2.21-39.46l-7.79,4.45c8.14.41,16.29.73,24.44,1.05,11.66.45,23.33.87,34.99,1.27,13.68.48,27.36.94,41.05,1.39,14.18.47,28.37.93,42.55,1.39,13.17.43,26.33.85,39.5,1.29,10.66.35,21.32.7,31.98,1.07,6.55.23,13.1.44,19.64.72,1.3.06,2.59.15,3.89.2.67.03-.08.1-1.06-.23l-1.09-.5-1.38-2.18c-.12.07-.12,1.32-.14,1.48-.06.66-.12,1.31-.18,1.97-.14,1.62-.28,3.25-.41,4.87-.49,5.97-.89,11.94-1.24,17.92-1.24,21.69-1.51,43.4-1.96,65.12-.44,21.03-1.18,42.06-3.34,62.99-.56,5.43-1.21,10.86-1.95,16.27-.37,2.73,3.09,3.7,5.2,3.46,2.4-.27,5.95-1.64,6.33-4.45Z"/>
      <path class="cls-1" d="M692.42,632.65c-3.31-5.05-7.91-8.86-13.7-10.76-6.88-2.26-14.36-1.44-21.12.8-6.89,2.28-12.56,6.76-17.09,12.35s-7.73,11.81-8.22,18.93c-.88,12.73,8.96,23.5,20.81,26.6,12.83,3.36,28.74-.8,36.92-11.61,6.86-9.07,8.98-22.04,4.38-32.61-.56-1.29-1.23-2.53-1.99-3.71-1.94-3.05-12.58,1.22-11.41,3.06,5.53,8.68,5.65,20.02,1.32,29.22-.51,1.08-1.07,2.12-1.7,3.13-.59.95-1.28,1.89-2.22,2.97-.77.88-1.61,1.69-2.48,2.48.71-.64-.08.06-.2.16-.21.16-.42.32-.64.48-.47.34-1.17,1.01-1.74,1.16l.51-.31c-.19.1-.37.21-.56.31-.28.15-.57.29-.85.43-.14.07-1.1.55-.21.11s-.07.01-.23.07c-.29.11-.61.19-.89.32,1.59-.72.79-.25.29-.1-.3.09-.61.16-.91.24-1.1.29,1.54-.26.15-.04-.48.08-2.38.15-.61.13-.63,0-1.26.11-1.89.13-.19,0-.78.11-.95.01.03.02,1.19.05.29,0-.74-.05-1.47-.08-2.21-.17-.31-.04-.63-.09-.94-.13-1.05-.14.79.18-.24-.04-.52-.11-1.03-.22-1.55-.35-1.23-.32-2.44-.71-3.62-1.19s-1.77-.77-3-1.49c-1.1-.65-2.15-1.37-3.15-2.16-4.35-3.46-7.42-8.26-8.61-13.71-1.32-6.06.14-12.12,3.09-17.48,1.45-2.64,3.25-5.04,5.26-7.28.99-1.1,2.02-2.17,3.11-3.18.07-.06.95-.83.28-.27.27-.22.54-.44.82-.65.59-.45,1.2-.87,1.82-1.27.37-.23.63-.68-.06.02.27-.27.83-.46,1.17-.63.28-.14.64-.25.89-.42-.81.35-.94.41-.4.19.2-.08.4-.16.61-.23.19-.07.43-.13.61-.22-1.64.8-.51.16.04.01.31-.08.63-.14.93-.23-1.89.54-.46.11.02.04s1.29.07-.16,0c.31.01.64-.06.94-.07s.63-.02.94-.04c.52,0,.42,0-.3,0,.21,0,.42.01.63.02.63.03,1.25.09,1.87.17.16.02,1.19.21.23.02.41.08.82.17,1.22.27,5.32,1.31,10.07,4.74,13.24,9.58,1.99,3.04,12.59-1.27,11.41-3.06Z"/>
      <path class="cls-1" d="M518.57,720.8c5.3,8.39,12.15,16.28,20.99,21.04,8.89,4.79,19.03,5.6,28.72,2.83,5.47-1.57,10.68-4.03,15.2-7.5,4.89-3.74,8.75-8.37,12.77-12.98,4.31-4.96,8.6-9.93,12.94-14.87.84-.95,1.69-1.9,2.6-2.78.43-.42.87-.82,1.33-1.2.92-.77-.55.3.46-.34.21-.13,1.22-.73.26-.22.09-.05.55-.35.7-.35l-.59.25c.63-.22.5-.18-.4.12-.12.03-1.44.26-.44.11l-.68.09c.45-.02.49-.03.11-.03-.85.06,1.47.15.57.02.73.11,1.45.3,2.14.53,4.74,1.59,8.52,5.78,11.04,9.93,2.81,4.62,4.88,9.67,8.04,14.08,2.97,4.14,6.61,7.22,11.33,9.15s9.65,2.32,14.56,2.03c11.35-.67,22.64-5.24,31.46-12.35,8.38-6.75,14.31-16.3,19.77-25.43s10.71-18.96,18.27-26.76c1.84-1.89,3.79-3.66,5.84-5.32.28-.23.52-.41,1.13-.85.54-.4,1.09-.78,1.64-1.15,1.1-.74,2.22-1.44,3.38-2.1-.97.55.73-.37,1.01-.51.58-.29,1.17-.56,1.77-.83.91-.42-.13.03-.24.1.29-.19.75-.3,1.08-.42.24-.09.48-.18.72-.26.24-.08.48-.17.73-.25l-.77.24c.4.09,1.39-.39,1.84-.51,1.26-.33-1.09.2-.24.05.31-.06.62-.12.93-.18.25-.04.5-.08.75-.12,1.29-.22-1.22.08.08,0,.63-.04,1.25-.09,1.88-.12-1.18.06.71.02,1.04.03.63.03,1.27.08,1.9.15.77.08.31.04.15.02.38.06.76.13,1.14.2.64.13,1.27.28,1.9.45,2.48.66,5.78-.28,7.99-1.42,1.02-.53,3.9-2.42,1.36-3.1-12.12-3.24-25.47.7-35.82,7.23-9.42,5.96-16.52,14.42-22.47,23.72s-10.8,19-17.43,27.67c-1.66,2.17-3.44,4.26-5.34,6.22-.8.83-1.62,1.64-2.47,2.41-.43.39-.87.77-1.32,1.15-.22.19-.45.37-.68.56-.22.17-.18.15.1-.07-.14.11-.28.21-.42.32-.9.67-1.83,1.31-2.77,1.92-.5.32-1.01.62-1.52.93-.74.45.02,0,.15-.07-.36.21-.73.4-1.1.59-.48.25-.96.48-1.44.71-.36.17-2.19.9-.64.32-1.09.41-2.27.76-3.33,1.23,1.74-.77-.02,0-.53.13-.42.11-2.47.51-.51.15-.57.1-1.13.23-1.71.32-.23.04-.46.07-.68.11-1.14.18,1.11-.1.05,0-.57.05-1.13.11-1.7.14-.23.01-.45.02-.68.03-1.16.07,1.04.03-.12,0s-2.22-.09-3.33-.19c-1.05-.1.47.12-.15-.02-.27-.06-.54-.09-.81-.14-.54-.1-1.07-.22-1.6-.35-1.05-.27-2.1-.59-3.11-1.01-1.54-.63-3.72-1.95-5.27-3.22-8.27-6.77-10.01-18.42-17.88-25.58-4.64-4.22-10.42-5.96-16.62-5.05-3.88.57-7.87,1.98-11.07,4.3-2.35,1.69-4.29,3.75-6.18,5.92-4.36,5-8.72,10.01-13.07,15.02-2.03,2.33-4,4.72-6.14,6.94-.9.93-1.83,1.83-2.8,2.69-.49.43-.99.85-1.49,1.27-.6.5-.24.2-.11.1-.3.23-.6.45-.9.68-.98.71-2,1.36-3.03,1.99-.74.45.04,0,.16-.08-.29.18-.61.33-.92.49-.51.26-1.02.49-1.53.73-1.09.52,1.21-.45.08-.04-.21.08-.41.16-.62.24-.52.19-2.26.5-.35.15-.46.09-.94.26-1.39.38-.49.13-1.17.07.45-.1-.31.03-.63.12-.93.17-.26.04-.52.07-.77.12-.73.14,1.43-.13.33-.05-.52.04-1.03.09-1.55.11-.08,0-.61.03-.62.02,0,.01,1.13.02.15-.01-.57-.02-1.13-.03-1.7-.08-.51-.04-1.03-.09-1.54-.16.88.11-.42-.08-.69-.13-1.08-.2-2.14-.47-3.19-.78-8.52-2.57-16.06-9.15-21.71-16.25-1.61-2.03-3.08-4.17-4.46-6.36-1.82-2.89-12.42,1.46-11.41,3.06h0Z"/>
      <path class="cls-1" d="M685.81,724.36c-3.22,1.9-4.83,5.41-5.73,8.9-1,3.83-1.23,7.81-1.13,11.75.07,3.13.34,6.57,1.78,9.42,2.2,4.37,7.13,5.41,11.67,5.1,4.26-.29,8.12-2.12,12.2-3.19.52-.14,2.19-.33.06-.06.44-.06.88-.12,1.32-.18.83-.11-.63.01-.66.01.25.02.52,0,.78,0,.16,0,.35.05.51.04-1.31.08-.69-.1-.15.03.18.04.44.18.62.18-.67.01-.73-.31-.33-.09s.8.42,1.18.67c-.77-.48,0,.02.14.15.17.15.34.31.51.47.42.41.79.84,1.16,1.31.1.13.17.27.27.4-.49-.64-.12-.28-.03,0,.03.09.24.85.22.85-.14-.02.16-.86-.01-.39-.03.08-.09.36-.08.44.05.49-.79-.61.22-.46-.01,0-.19.34-.23.4-.53.79.82-.75.1-.11-.22.19-.44.39-.65.58-.6.54,1.12-.81.45-.34-.1.07-.2.15-.3.22-.31.22-.62.44-.93.66-2.45,1.75-6.34,4.75-4.86,8.29.69,1.66,2.41,2.56,4.01,3.16,2.02.75,4.09,1.27,6.17,1.82.95.25,1.89.5,2.82.8.21.07.42.14.63.2,1.04.32-.74-.3.06.02.44.17.87.34,1.3.54s.81.39,1.2.62c.2.12.4.27.61.37.62.32-.57-.53-.03-.03.33.3.66.58.95.92.09.11.17.23.27.34.59.68-.11-.32.13.16,1.13,2.27,4.4,2.14,6.52,1.52,1.34-.39,2.81-.95,3.8-1.97.57-.59,1.54-1.7,1.09-2.6-1.86-3.75-5.69-5.31-9.48-6.51-1.67-.53-3.38-.94-5.07-1.39-.73-.19-1.45-.39-2.17-.62-.17-.05-.34-.12-.52-.17-.53-.16,1.08.45.38.13-.34-.16-.69-.28-1.02-.46-.17-.09-.96-.52-.3-.14.6.34.04-.06-.13-.19-.56-.44.32.74.06.1-.03-.08-.01-.26-.06-.33.04.05-.19.71.03.11.03-.08.06-.24.07-.31.07-.61.05.07-.02,0,.32.33-.45.31.04.02.02-.01.16-.22.19-.27.29-.62-.82.79-.29.34.09-.07.17-.17.25-.25.36-.34,1.51-1.08-.04-.03,2.37-1.6,6.09-3.84,6.31-7.04.29-4.29-4.7-7.7-8.38-8.54-4.74-1.08-9.59.24-14.08,1.75-.89.3-1.79.6-2.69.87-.44.13-.88.25-1.33.37-.17.04-.35.08-.53.12-1.03.26,1.49-.23.51-.1-.42.06-.85.08-1.27.15,1.56-.24,1.06,0,.57-.04-.17-.01-.46-.08-.61-.03.86-.24,1.04.21.56.07-.22-.07-.48-.13-.71-.17-.64-.11.45-.11.36.13,0,0-.59-.28-.68-.33-.23-.13-.44-.27-.66-.41.71.46.26.22.13.07-.16-.18-.34-.34-.49-.53-.11-.14-.43-.49-.45-.67.02.21.33.69.18.29-.08-.2-.18-.39-.27-.59-.56-1.37-.87-2.85-1.08-4.31-.14-.99-.24-1.99-.29-2.99-.01-.18-.02-.36-.03-.54,0-.09-.03-1.1-.03-.67,0,.51,0-.41,0-.4,0-.28,0-.56.01-.84.04-2.09.23-4.18.58-6.25.17-.98.37-1.96.63-2.92.18-.68.36-1.89.81-2.44-.47.57-.26.55-.08.2.11-.21.21-.43.32-.63.15-.28.31-.55.49-.81.73-1.06-.48.65.03-.06.06-.09.16-.13.23-.21.46-.55-1.26.85-.42.36,1.62-.95,3.33-3.55.93-4.72s-5.83-.34-8.1,1h0Z"/>
    </g>
    <path class="cls-1" d="M522.12,773.29c31.3,4.84,62.77,8.58,94.33,11.2,31.73,2.64,63.54,4.14,95.38,4.56,17.72.24,35.45.12,53.17-.34,2.4-.06,6.15-1.9,6.27-4.68.12-2.96-2.86-3.92-5.31-3.86-15.75.41-31.5.55-47.26.41-3.94-.04-7.88-.09-11.81-.16-1.97-.03-3.94-.07-5.91-.12-.82-.02-1.64-.04-2.46-.06-.49-.01-.98-.02-1.48-.04-.33,0-.66-.02-.98-.02.65.02.65.02,0,0-7.87-.22-15.75-.49-23.62-.84-31.31-1.39-62.58-3.87-93.72-7.43-17.61-2.02-35.18-4.38-52.69-7.09-2.58-.4-6.4.9-7.42,3.53s.97,4.54,3.52,4.93h0Z"/>
    <path class="cls-1" d="M775.39,781.29c1.19-22.57,1.93-45.17,2.2-67.77s.08-45.04-.57-67.55c-.37-12.63-.88-25.25-1.54-37.86-.04-.86-1.6-1.29-2.17-1.39-1.32-.24-2.97-.05-4.24.32-1.87.54-5.13,1.71-5.01,4.13,1.17,22.41,1.88,44.84,2.13,67.27s.05,44.38-.61,66.55c-.38,12.63-.9,25.25-1.57,37.86-.13,2.39,3.12,2.41,4.84,2.14,1.49-.23,3.04-.64,4.33-1.44.74-.46,2.15-1.28,2.21-2.26h0Z"/>
  </g>
  <g>
    <g>
      <path class="cls-1" d="M497.2,297.57c.52-5.22,1.2-10.43,1.87-15.64,1.01-7.78,2.07-15.55,3.15-23.33,1.33-9.64,2.69-19.28,4.06-28.92,1.53-10.83,3.07-21.67,4.6-32.5s3.16-22.44,4.72-33.67,3.02-21.88,4.49-32.82c1.33-9.94,2.63-19.88,3.87-29.83,1.02-8.23,2.01-16.46,2.88-24.7.61-5.81,1.2-11.64,1.51-17.48.1-2,.16-3.99.1-5.99-.03-.9-.03-1.88-.37-2.73-.58-1.46-1.95-1.86-3.42-2.01l-3.76,6.1c16.83,1.24,33.66,2.45,50.5,3.65,13.24.94,26.47,1.89,39.7,2.88,10.72.8,21.43,1.62,32.14,2.45,2.22.17,5.37-.79,6.56-2.81s-1.06-3.15-2.8-3.28c-16.88-1.31-33.75-2.59-50.63-3.82-13.22-.96-26.44-1.88-39.66-2.83-10.68-.77-21.36-1.55-32.04-2.33-2.22-.16-5.37.79-6.56,2.81s1.08,3.11,2.8,3.28c-.97-.1-2.12-.42-2.5-.88.09.1-.3-.94-.21-.33.06.4.17.79.21,1.2.03.28.04.57.06.85,0,.16,0,.32.02.47.02.35,0-.95-.01-.48,0,.11,0,.21,0,.32,0,.85,0,1.69-.04,2.53-.17,5.28-.69,10.54-1.21,15.79-.78,7.79-1.68,15.56-2.63,23.33-1.17,9.64-2.42,19.28-3.7,28.9-1.42,10.72-2.88,21.43-4.36,32.15s-3.1,22.27-4.67,33.4-3.08,21.8-4.62,32.69c-1.4,9.87-2.79,19.75-4.17,29.62-1.14,8.2-2.28,16.39-3.36,24.6-.77,5.84-1.54,11.68-2.19,17.53-.11.97-.21,1.95-.31,2.93-.23,2.26,2.71,2.67,4.39,2.45s5.39-1.3,5.62-3.56h0Z"/>
      <path class="cls-1" d="M695.29,142.08c-3.64,30.34-7.93,60.61-12.12,90.89-1.98,14.34-4.31,28.6-6.61,42.89-1.78,11.1-3.32,22.24-4.83,33.38-.29,2.13,2.85,2.17,4.26,1.96,1.3-.2,2.66-.56,3.78-1.27.7-.44,1.79-1.12,1.92-2.02,2.14-15.73,4.53-31.41,7.11-47.07,3.74-22.76,6.6-45.67,9.73-68.52,2.35-17.17,4.65-34.35,6.72-51.56.26-2.13-2.82-2.17-4.26-1.96-1.3.2-2.66.56-3.78,1.27-.69.44-1.81,1.12-1.92,2.02h0Z"/>
      <path class="cls-1" d="M574.66,109.94c5.1.21,10.2.44,15.3.76,2.21.14,4.41.29,6.61.46.48.04.96.08,1.44.12.3.02.6.05.89.08-.15-.01-.85-.08-.05,0,1.04.1,2.09.19,3.13.3,8.11.82,16.16,2.05,24.18,3.52,5.62,1.04,11.23,2.17,16.83,3.33,2.29.47,5.3-.36,7.05-1.89.56-.49,1.23-1.24,1.02-2.05s-1.2-1.12-1.91-1.27c-9.28-1.92-18.59-3.79-27.96-5.21-8.41-1.27-16.87-2.1-25.35-2.66-5.74-.38-11.49-.65-17.25-.88-2.16-.09-5.3.8-6.6,2.67s1.17,2.67,2.65,2.73h0Z"/>
      <path class="cls-1" d="M561.52,137.83c19.53.1,38.97.46,58.36,3.06.71.1,1.42.19,2.13.29.33.05.66.09.99.14.06,0,1.35.19.48.07,1.53.22,3.05.45,4.58.69,3.35.52,6.7,1.06,10.04,1.62,2.41.4,5.25-.1,7.05-1.89,1.42-1.41,1.18-3.54-1.05-3.92-10.69-1.79-21.41-3.45-32.2-4.51-9.15-.9-18.33-1.31-27.51-1.49-6.37-.13-12.73-.16-19.1-.2-2.27-.01-5.31.69-6.56,2.82-1.17,2.01,1,3.3,2.81,3.31h0Z"/>
      <path class="cls-1" d="M565.85,167.53c9.75.6,19.5,1.05,29.26,1.35,4.29.13,8.58.25,12.87.38.22,0,.43.01.65.02,1.11.03-.87-.03-.14,0,.49.02.99.03,1.48.05,1.07.03,2.14.07,3.2.11,2.21.08,4.42.16,6.62.25,6.04.25,12.08.58,18.12.95,2.32.14,5.54-.65,6.48-3.1.84-2.2-.78-4.25-3.09-4.39-9.75-.6-19.5-1.05-29.26-1.35-4.29-.13-8.58-.25-12.87-.38-.22,0-.43-.01-.65-.02-1.11-.03.87.03.14,0-.49-.02-.99-.03-1.48-.05-1.07-.03-2.14-.07-3.2-.11-2.21-.08-4.42-.16-6.62-.25-6.04-.25-12.08-.58-18.12-.95-2.32-.14-5.54.65-6.48,3.1-.84,2.2.78,4.25,3.09,4.39h0Z"/>
      <g>
        <path class="cls-1" d="M683.61,139.88c3.98,2.84,8.17,5.37,12.15,8.21.94.67,2.29.88,3.41.8,1.24-.09,2.77-.58,3.75-1.38.8-.66,1.69-1.59,1.73-2.69.05-1.04-.36-1.93-1.22-2.55-3.98-2.84-8.17-5.37-12.15-8.21-.94-.67-2.29-.88-3.41-.8-1.24.09-2.77.58-3.75,1.38-.8.66-1.69,1.59-1.73,2.69-.05,1.04.36,1.93,1.22,2.55h0Z"/>
        <path class="cls-1" d="M705.72,153.32c-9.94-5.99-19.3-12.91-29.24-18.9-1.72-1.04-4.72-.13-6.43.53-.51.2-4.5,1.97-2.96,2.9,9.94,5.99,19.3,12.91,29.24,18.9,1.72,1.04,4.72.13,6.43-.53.51-.2,4.5-1.97,2.96-2.9h0Z"/>
        <path class="cls-1" d="M700.18,178.16c-5.1-4.74-9.84-9.9-14.7-14.88-6.76-6.92-13.51-13.87-20.37-20.7-2.21-2.2-4.38-4.49-6.77-6.49-1.61-1.35-4.81-.54-6.53.18-.84.36-4.42,2.15-2.79,3.5,2.01,1.68,3.85,3.59,5.72,5.44,3.17,3.14,6.31,6.32,9.44,9.51,6.76,6.88,13.48,13.8,20.24,20.68,2.13,2.16,4.22,4.37,6.44,6.44,1.51,1.41,4.89.51,6.53-.18.93-.39,4.34-2.07,2.79-3.5h0Z"/>
      </g>
      <path class="cls-1" d="M642,62.48c.55.08,1.1.19,1.64.29.65.12-.64-.22-.03,0,.27.09.55.17.82.27.45.16.89.35,1.31.57.1.05.76.42.36.18-.38-.23.21.15.31.22.72.51,1.37,1.13,1.92,1.82.15.18.74,1.11.44.59.23.4.45.81.63,1.24,1.74,3.97,1.45,8.25.95,12.19-1.52,11.87-5.77,23.33-8.94,34.82-1.79,6.5-3.44,13.09-4.12,19.81-.12,1.17.78,1.66,1.86,1.8,9.82,1.27,19.79.59,29.66.86,1.25.03,2.51.08,3.76.15.27.01.55.03.82.05.13,0,.28.04.41.03.02,0-.89-.07-.42-.03.62.05,1.25.1,1.87.15,2.23.21,4.45.5,6.63.97.5.11,1,.24,1.5.35.22.05-.7-.2,0,0,.29.09.58.17.87.26.9.28,1.78.61,2.64.99.41.18.81.38,1.21.59.18.09.35.2.53.29.39.21-.4-.29.2.13.69.48,1.35.97,1.95,1.55.34.32.66.67.95,1.03.14.17.27.34.4.52.11.15.46.71.18.24.5.83.89,1.72,1.17,2.65.29.99.46,2.01.53,3.04.09,1.36.04,1.98-.15,3.43-.28,2.07,2.88,1.98,4.21,1.77s2.65-.56,3.78-1.25c.67-.41,1.82-1.07,1.94-1.93.57-4.26.15-8.43-2.52-11.93-2.34-3.06-6.14-4.84-9.76-5.88-9.92-2.85-20.57-2.39-30.79-2.4-2.81,0-5.62-.01-8.43-.11-.66-.02-1.32-.05-1.97-.08-.34-.02-.69-.04-1.03-.06-.96-.05.66.05-.04,0-1.29-.1-2.58-.22-3.86-.38l1.86,1.8c1.28-12.6,5.61-24.75,9.04-36.88,1.6-5.66,3.15-11.38,3.95-17.22.6-4.36.99-9.26-.62-13.46-1.89-4.92-6.36-7.33-11.38-8.03-2.34-.32-5.21.37-7.05,1.89-.54.45-1.25,1.16-1.04,1.95s1.22,1.07,1.88,1.16h0Z"/>
      <path class="cls-1" d="M643.27,63.19c.2.03.4.06.6.09.59.07-1.15-.24-.3-.05.31.07.63.12.95.19.79.17,1.58.38,2.36.62.71.22,1.41.46,2.1.72.19.07.38.16.58.23.53.19-.91-.4-.13-.05.38.17.77.34,1.15.52,3.01,1.41,5.83,3.21,8.46,5.24.29.22.58.45.86.68.01,0,.71.58.3.24s.28.24.29.25c.68.57,1.34,1.16,2,1.76,1.34,1.23,2.63,2.51,3.87,3.84,2.55,2.72,4.92,5.61,7.13,8.6s4.44,6.37,6.43,9.71c1,1.67,1.96,3.36,2.88,5.07.09.16.59,1.1.33.62.24.45.47.9.7,1.35.44.85.86,1.71,1.28,2.57,3.09,6.37,5.74,12.99,7.69,19.8.9,3.14,1.65,6.34,2.13,9.58.21,1.4.24,2.82.42,4.22.06.43-.01-.83,0-.19,0,.18,0,.35.01.53,0,.29,0,.57,0,.86-.01.59-.05,1.18-.1,1.77-.22,2.32,2.67,2.9,4.45,2.68s5.36-1.35,5.59-3.69c.52-5.42-.56-11.02-1.92-16.25-1.78-6.86-4.33-13.52-7.32-19.94-6.62-14.22-15.43-28.1-27.69-38.11-6.22-5.08-13.38-8.74-21.4-9.84-2.21-.3-5.43.85-6.54,2.88-1.21,2.2,1.06,3.29,2.86,3.53h0Z"/>
      <path class="cls-1" d="M554.89,188.54c20.85,1.85,41.72,3.49,62.55,5.58,6.84.68,13.67,1.41,20.5,2.15,2.3.25,5.17-.56,7.05-1.89.47-.33,1.31-.94,1.13-1.63s-1.27-.79-1.79-.85c-20.82-2.27-41.66-4.16-62.52-5.95-6.84-.59-13.68-1.18-20.52-1.79-2.32-.21-5.14.54-7.05,1.89-.47.33-1.31.94-1.13,1.63s1.27.8,1.79.85h0Z"/>
      <path class="cls-1" d="M490.86,298.68c23.93,3.22,47.91,6.16,71.94,8.57,22.09,2.21,44.23,3.95,66.39,5.41,14.09.93,28.19,1.75,42.29,2.54,2.36.13,5.39-.69,6.51-3.01,1.03-2.14-.91-3.92-3-4.03-24.07-1.34-48.15-2.79-72.18-4.69-22.15-1.75-44.26-3.92-66.32-6.5-14.05-1.64-28.09-3.44-42.11-5.33-2.31-.31-5.45.81-6.51,3.01s.97,3.76,3,4.03h0Z"/>
      <path class="cls-1" d="M545.73,219.68c22.64,3.56,45.28,7.07,68.03,9.83,7.25.88,14.5,1.71,21.76,2.51,2.18.24,5.39-.84,6.56-2.8,1.26-2.12-1.09-3.06-2.79-3.24-11.89-1.32-23.78-2.7-35.64-4.27-1.27-.17-2.53-.34-3.8-.51-.57-.08-1.14-.16-1.71-.23-.18-.02-1.33-.18-.24-.03-.34-.05-.68-.09-1.02-.14-2.51-.35-5.01-.71-7.52-1.07-5.31-.77-10.62-1.58-15.93-2.39-7.23-1.11-14.45-2.25-21.67-3.38-2.41-.38-5.24.12-7.05,1.89-1.42,1.39-1.2,3.5,1.03,3.85h0Z"/>
      <path class="cls-1" d="M558.18,253.55c15.44.9,30.89,1.59,46.27,3.33,5.3.6,10.59,1.27,15.88,1.96,2.3.3,5.2-.51,7.05-1.89.5-.37,1.29-1.01,1.1-1.74s-1.25-.88-1.82-.95c-15.37-2.02-30.72-3.51-46.2-4.39-5.32-.3-10.63-.59-15.95-.9-2.38-.14-5.11.44-7.05,1.89-.5.37-1.29,1.01-1.1,1.74s1.25.92,1.82.95h0Z"/>
    </g>
    <path class="cls-1" d="M490.43,301.61c26.39,3.19,52.78,6.36,79.17,9.54s50.76,6.11,76.14,9.17c3.96.48,7.92.96,11.89,1.43,3.4.41,6.82.99,10.25,1.04,6.48.09,15.24-1.41,17.85-8.37,1.96-5.23-8.01-4.91-9.49-.97-.11.29-.22.57-.36.84-.12.24-.67.92,0,.12-.12.15-.23.3-.36.44-.69.77-.11-.09.05,0,0,0-.4.29-.46.34-.79.63,1.05-.47.11-.06-.21.09-.65.22-.81.36.37-.33,1.1-.35.14-.08-.3.09-.61.15-.91.23-.54.14-.35-.19.42-.06-.51-.08-1.25.16-1.78.2s-1.3.2-1.82.06c.09.02,1.17.04.29,0-.44-.02-.87-.04-1.31-.07-6.57-.47-13.15-1.54-19.7-2.33-12.83-1.55-25.65-3.09-38.48-4.64-24.05-2.9-48.1-5.79-72.15-8.69-15.05-1.81-30.1-3.63-45.15-5.44-2.3-.28-5.43.79-6.51,2.99s.97,3.72,2.98,3.96h0Z"/>
    <path class="cls-1" d="M695.35,141.51c1.02,13.32,1.92,26.69,1.47,40.06s-2.78,25.82-5.02,38.65c-3.29,18.8-6.99,37.52-10.47,56.29-2.33,12.55-4.53,25.12-6.62,37.71-.28,1.69,3.07,1.08,3.98.91,1.3-.25,2.62-.59,3.8-1.18.56-.28,1.94-.82,2.05-1.51,3.41-20.53,7.22-40.97,11.11-61.41,1.85-9.71,3.66-19.42,5.38-29.15,2.21-12.47,4.73-24.97,5.52-37.62.95-15.14-.06-30.31-1.22-45.41-.05-.59-1.48-.66-1.74-.67-1.18-.05-2.52.19-3.64.51s-2.37.72-3.41,1.38c-.5.32-1.23.77-1.18,1.45h0Z"/>
  </g>
  <g>
    <path class="cls-1" d="M475.91,955.69c1.2-7.3-5.68-12.2-11.87-14.02-8.24-2.41-18.78-1.42-24.96,5.05-5.04,5.26-5.88,13.92-1.23,19.69,5.23,6.49,14.5,8.29,22.31,6.53,4.36-.98,8.55-3.12,11.69-6.33s4.36-7.35,4.01-11.74c-.06-.82-1.18-1.5-1.83-1.73-.99-.35-2.31-.33-3.3-.03-1.97.59-3.74,1.88-3.56,4.09.02.24-.01,1.19-.07,1.69-.04.34-.09.67-.15,1-.03.16-.07.32-.11.49-.11.53.14-.38-.02.12-.2.61-.47,1.19-.77,1.75-.07.13-.51.84-.32.55.23-.34-.07.09-.1.13-.14.16-.26.33-.39.49-.23.28-.53.53-.75.81-.26.34.13-.1.18-.15-.12.11-.24.21-.36.31-.55.44-1.12.82-1.7,1.22.61-.42.2-.12-.17.08-.29.15-.59.3-.88.44s-.61.26-.91.39c-.12.05-.65.21-.06.03.63-.19-.1.03-.22.06-.64.19-1.28.36-1.93.51-.16.04-.33.06-.49.1.04,0,.82-.1.3-.06-.42.04-.83.1-1.25.13-.36.03-.72.02-1.08.04.74-.04.01,0-.32-.02-.78-.05-1.55-.16-2.31-.29-.45-.08.06.02.13.04-.23-.06-.46-.11-.69-.18-.34-.1-.68-.2-1.02-.31s-.67-.24-.99-.37c-.16-.07-.32-.14-.49-.21-.55-.23.41.22-.11-.04-.62-.31-1.22-.67-1.79-1.06-.28-.19-.56-.4-.83-.61-.12-.09-.83-.71-.53-.42-.91-.86-1.97-2.26-2.39-3.1-.08-.17-.43-1.08-.57-1.55-.19-.66-.31-1.33-.4-2.01,0,0-.04-.52-.03-.22.02.34,0-.31,0-.38,0-.32.01-.63.03-.95.05-.69.15-1.37.31-2.04.03-.15.25-.89.1-.41.1-.3.21-.6.34-.89.27-.64.6-1.25.95-1.84.21-.35-.04.06-.08.11.09-.13.19-.26.29-.39.2-.25.4-.5.62-.74.1-.11.76-.75.42-.45-.31.28.48-.37.63-.48.32-.24.82-.49.16-.15.36-.19.72-.37,1.09-.55.02-.01.69-.31.26-.13s.24-.08.27-.09c.5-.15,1-.29,1.51-.41.22-.05.44-.09.66-.14-.1.02-.6.08-.07.01s1.04-.14,1.56-.19c.36-.03.73-.06,1.09-.08.16,0,.33-.01.49-.02.11,0,.84,0,.26,0s.44.03.6.04c.33.02.67.05,1,.09.72.08,1.44.2,2.16.35-.74-.15.21.07.47.14.38.1.75.22,1.12.34.73.24,1.44.53,2.14.84-.59-.26.26.14.45.24.32.18.63.36.94.56.59.38,1.16.81,1.69,1.27-.46-.39.26.27.41.43.22.24.43.5.62.76s.35.54.53.8c.28.41-.07-.28.17.36.23.6.37,1.19.48,1.82.06.35,0-.08,0-.13,0,.19,0,.38,0,.56-.01.39-.06.77-.13,1.16-.35,2.11,2.38,2.96,4,2.78,1.95-.21,4.44-1.29,4.8-3.47h0Z"/>
    <path class="cls-1" d="M476.07,956.85c1.91-15.54,3.82-31.08,5.73-46.61.45-3.69.68-7.51,1.51-11.14.63-2.75,1.98-5.39,4.24-6.82.03-.02,1.03-.56.41-.25.32-.16.65-.31.98-.45-1.12.48,1.69-.47.28-.09.36-.1.72-.2,1.08-.3.17-.04,1.4-.29.3-.08.86-.17,1.73-.33,2.6-.46.25-.04.49-.07.74-.11-1,.15.52-.06.52-.06.98-.12,1.96-.23,2.95-.34,1.97-.21,3.94-.4,5.91-.56,8.56-.69,17.15-.84,25.73-.47,2.04.09,4.43-.52,6.15-1.65.38-.25,1.17-.74,1.02-1.3s-1.13-.6-1.53-.62c-8.46-.36-16.94-.24-25.39.35-4.05.28-8.09.68-12.12,1.2s-7.86,1.2-11.57,2.63c-3.34,1.28-6.59,3.05-8.74,5.98s-2.49,6.68-2.92,10.18c-1.03,8.35-2.05,16.69-3.08,25.04-1.16,9.42-2.32,18.84-3.47,28.27-.15,1.22,4.24.33,4.71.19,1.23-.35,3.79-.97,3.98-2.52h0Z"/>
    <path class="cls-1" d="M478.92,917.11c8.32-2.19,15.38-3.66,23.72-4.92,4.12-.62,8.25-1.13,12.4-1.53s7.87-.66,11.85-.82c1.95-.08,4.57-.59,5.74-2.35,1.1-1.65-.94-2.54-2.34-2.48-17.74.74-35.34,3.35-52.51,7.87-1.23.33-4.25,1.51-3.78,3.28s3.76,1.25,4.91.95h0Z"/>
    <path class="cls-1" d="M527.44,887.59c-.76,14.93-1.81,29.85-2.91,44.76-.55,7.46-1.11,14.92-1.67,22.39-.27,3.62-.44,7.27-.82,10.88-.15,1.42-.36,2.82-.66,4.22-.06.29-.13.57-.2.86-.15.63.23-.76-.07.27-.21.71-.43,1.41-.69,2.1-.37.97-.79,1.91-1.3,2.81-.08.15-.17.3-.26.45.52-.9.09-.15-.04.02-.33.45-.65.9-1.01,1.32-.19.22-.49.73-.76.83.58-.21.59-.54.12-.14-.16.13-.32.28-.48.41-.27.21-.54.41-.82.61-.45.33-.62.1.28-.17-.2.06-.41.24-.59.34-.31.17-.62.32-.94.46-.17.08-.35.14-.52.22-.6.27.63-.23.61-.23-.69.14-1.36.44-2.06.59-.48.1-1.71.13.01.02-.27.02-.55.08-.82.11-.69.08-1.37.11-2.06.15-1.07.06.86.16-.18,0-.31-.05-.63-.1-.94-.14-.94-.12.45.25-.04,0-.22-.11-.5-.16-.73-.25-.29-.11-.56-.25-.84-.37.81.36-.06-.04-.21-.13-.52-.33-.97-.73-1.45-1.1-.75-.59.41.52-.23-.21-.2-.23-.41-.46-.6-.7-.32-.4-.62-.82-.89-1.26-.16-.26-.31-.54-.46-.8-.49-.84.2.6-.15-.31-.22-.58-.44-1.16-.61-1.76s-.26-1.21-.37-1.83c-.02-.12-.05-.66-.02-.03-.02-.31-.03-.62-.02-.93,0-.62.06-1.24.16-1.86.03-.21.08-.41.12-.61.09-.4.09-.41,0-.02.06-.19.12-.38.19-.57.2-.55.43-1.09.68-1.62.12-.25.25-.51.38-.76.03-.05.6-1.04.2-.39.77-1.27,1.69-2.46,2.67-3.57.25-.28.51-.56.77-.83.84-.88-.57.48.33-.32.65-.57,1.29-1.13,1.99-1.63.01,0,.99-.64.41-.29-.5.31.61-.33.72-.38.19-.1.69-.43.9-.42-.63.23-.7.26-.22.1.09-.03.19-.06.28-.08.16-.05.33-.08.49-.12,1.12-.28-.91.06-.12.01.46-.03.92-.1,1.39-.11.24,0,.49,0,.73,0,.74-.04-1.07-.08.12,0,.51.04,1.02.1,1.53.18.26.04.51.09.77.14,1.12.23-.42-.17.25.05.5.16.99.31,1.47.51.24.1.47.2.71.31.46.22.52.31.05,0,.49.31.98.62,1.43.99.19.16.37.32.55.49-.4-.38-.26-.29.01.07.14.2.29.38.43.59s.54,1.14.2.26c.19.47.35.94.46,1.45.03.15.12,1.02.07.17.02.38.02.76,0,1.14-.24,4.75,8.62,3.7,8.84-.54.62-12.06-16.09-15.2-24.6-10.61-5.69,3.06-10.98,8.96-12.66,15.29-1.56,5.85.5,12.07,5,16.07,7.24,6.44,19.62,3.63,25.81-2.88,3.79-3.98,5.45-9.62,6.16-14.93.51-3.84.65-7.75.93-11.62.3-4.13.61-8.26.92-12.38,1.23-16.4,2.45-32.8,3.36-49.22.11-2.01.22-4.02.32-6.03.24-4.75-8.62-3.7-8.84.54h0Z"/>
    <path class="cls-1" d="M526.1,907.11c2.39-2.78,4.77-5.56,7.16-8.34.95-1.11,1.13-2.83-.26-3.69-1.47-.91-3.77-.88-5.26-.01-5.3,3.06-10.6,6.12-15.9,9.18l6.05,2.93c.12-.36.25-.7.43-1.04.07-.14.68-1.24.24-.45.38-.69.97-1.32,1.42-1.97,1.08-1.52,2.13-3.06,3.15-4.63,1.8-2.77,3.48-5.62,5.03-8.54.99-1.86-.88-3.4-2.62-3.54-2.1-.17-4.62.66-5.67,2.63-1.55,2.92-3.22,5.77-5.03,8.54-.23.35-.45.69-.68,1.04-.12.17-.23.34-.35.52.23-.34.23-.34,0,0-.47.68-.95,1.36-1.44,2.04-1.02,1.41-2.24,2.8-2.78,4.48-.43,1.35-.18,2.45,1.2,3.12s3.49.6,4.85-.19c5.3-3.06,10.6-6.12,15.9-9.18l-5.52-3.7c-2.39,2.78-4.77,5.56-7.16,8.34-1.26,1.47-.83,3.5,1.1,4.09,2.04.63,4.72.01,6.15-1.65h0Z"/>
    <path class="cls-1" d="M506.26,908.53c2.42-2.74,4.87-5.46,7.24-8.24s4.57-5.67,6.15-8.93c.92-1.9-.84-3.48-2.65-3.64-2.07-.19-4.69.65-5.66,2.66-.35.73-.73,1.44-1.15,2.13-.12.2-.25.41-.38.61-.22.35-.08.19.05-.06-.17.33-.44.64-.66.94-.99,1.37-2.07,2.68-3.17,3.97-2.32,2.7-4.7,5.35-7.05,8.02-1.3,1.48-.78,3.59,1.12,4.2,2.09.67,4.68.02,6.15-1.65h0Z"/>
    <path class="cls-1" d="M495.08,911.85c6.23-7.36,11.86-15.23,16.84-23.49,1.42-2.35-1.93-3.84-3.73-3.54-2.52.42-5.36,1.57-5.82,4.41-.34,2.1,2.38,2.91,3.99,2.73,1.92-.21,4.46-1.28,4.81-3.45l-.36.8-1.72,1.26.28-.14-2.31.62.31-.05-3.73-3.54c-4.69,7.79-9.84,14.92-15.8,21.96-1.25,1.47-.84,3.49,1.09,4.08s4.74.02,6.15-1.65h0Z"/>
    <path class="cls-1" d="M485.62,912.03c2.18-3.47,4.36-6.96,6.18-10.64s3.39-7.64,4.93-11.52c.28-.69-.43-1.46-.94-1.75-.8-.46-2.02-.54-2.9-.42-2.03.27-4.1,1.14-4.89,3.13-1.41,3.54-2.84,7.08-4.55,10.49s-3.89,6.92-6,10.27c-1.09,1.74.94,2.86,2.45,2.91,2,.07,4.58-.66,5.71-2.46h0Z"/>
    <path class="cls-1" d="M511.19,888.23c.1-.32.07-.2-.02.04-.07.19-.14.37-.21.56-.14.37-.3.73-.47,1.09-.33.72-.71,1.43-1.11,2.12s-.83,1.38-1.28,2.05c-.11.17-.22.34-.34.51-.19.29-.18.27,0,0-.26.38-.52.75-.79,1.13-2,2.85-4.1,5.69-5.46,8.92-.74,1.73.42,3.04,2.11,3.41,1.82.39,4.48-.17,5.65-1.75,3.98-5.41,8.15-10.68,12.49-15.81l-7.76-1.65c-2.4,6.49-7.25,11.64-10.31,17.78-.71,1.42.18,2.87,1.61,3.3,1.84.56,3.81.07,5.39-.96,2.68-1.76,5.13-3.91,7.24-6.33,1.26-1.46.83-3.48-1.09-4.06-2.05-.62-4.71,0-6.15,1.65-.43.5-.87.98-1.33,1.45-.23.24-.47.47-.71.7-.16.15-.32.3-.48.45.31-.28.35-.32.14-.14-1.1.87-2.16,1.73-3.33,2.5l7,2.34c3.07-6.14,7.91-11.29,10.31-17.78.65-1.75-.35-3.03-2.11-3.41-1.91-.41-4.35.22-5.65,1.75-4.34,5.13-8.51,10.4-12.49,15.81l7.76,1.65c.65-1.53,1.46-2.97,2.35-4.37.25-.38.5-.76.75-1.14.19-.29.18-.27,0,0,.12-.17.23-.34.35-.5.5-.71,1-1.42,1.49-2.13,2.17-3.13,4.1-6.2,5.22-9.86.24-.77-.46-1.7-1.03-2.1-.79-.54-2.02-.73-2.95-.62-2.17.24-4.15,1.29-4.81,3.44h0Z"/>
    <path class="cls-1" d="M430.04,880.31c4.14-1.22,8.3-2.32,12.5-3.32,2.16-.51,4.33-1,6.5-1.46,1.02-.22,2.04-.43,3.06-.63.51-.1,1.02-.2,1.54-.3.29-.06.59-.11.88-.17s.63-.12.14-.03c8.76-1.65,17.6-2.92,26.46-3.92,17.68-2,36.02-2.99,53.44-3.52,3.76-.12,8.48-.41,12.59-.3,1.46.04,2.82.29,4.35.89,1.25.49,2.96,1.47,4.27,2.39.4.28.26.18.55.42.28.23.55.47.81.71.53.48,1.04.99,1.51,1.53.39.44.75.9,1.08,1.39.17.24.32.49.47.74-.28-.49,0,.05.09.25.73,1.83,1.09,3.89,1.57,5.8.58,2.29,1.11,4.59,1.62,6.89,3.77,17.36,5.33,35.1,5.4,52.84.04,9.02-.26,18.03-.72,27.04-.24,4.66-.51,9.32-.81,13.98-.12,1.91-.07,4.1-.81,5.91-.12.3-.5.94-.56,1.02-.03.04-.5.52-.73.72.49-.42-.42.27-.58.37s-.32.19-.49.29c.7-.4-.07.02-.22.09-1.9.89-3.9,1.6-5.88,2.32-.2.07-1.51.53-.77.28-.49.17-.99.34-1.48.5-1.06.35-2.13.7-3.19,1.03-4.2,1.3-8.46,2.41-12.75,3.36-1.09.24-2.19.47-3.28.69-.51.1-1.02.2-1.54.3s-.01,0,.08-.01c-.37.07-.73.14-1.1.2-2.13.38-4.27.73-6.42,1.04-4.46.65-8.93,1.15-13.42,1.53-9.11.77-17.07,1-26.12.98-8.97-.02-17.93-.34-26.89-.76-4.45-.21-8.89-.44-13.34-.7-4.15-.24-7.42-.49-11.24-1.5-6.08-1.6-12.12-6.09-14.36-12.06-1.19-3.18-1.6-6.6-2.01-9.95-.59-4.79-1.09-9.58-1.49-14.39-.8-9.55-1.25-19.14-1.36-28.72s.12-19.32.62-28.97c.23-4.35.35-8.78,1.26-13.06.42-1.97,1-3.9,1.96-5.68.42-.79.9-1.56,1.44-2.28.24-.32.02-.03-.03.03.14-.16.28-.32.42-.47.28-.29.59-.55.88-.82-.65.62.05-.01.26-.16.16-.1.33-.19.48-.3.4-.29-.37.21-.35.18.3-.42,1.57-.72,2.04-.9.33-.13.7-.31,1.04-.39-.89.19-.17.06.31-.11,1.15-.39,2.29-.79,3.43-1.2,1.31-.47,3.5-2.29,2.24-3.8-1.33-1.59-4.22-.83-5.8-.26-.25.09-.49.18-.74.26.15-.05.88-.3.08-.03-.39.13-.77.27-1.16.4-1.09.38-2.18.74-3.25,1.17-1.64.65-3.25,1.47-4.65,2.54-3.49,2.67-5.62,6.52-6.83,10.7s-1.41,8.75-1.66,13.15c-.29,5.07-.5,10.14-.62,15.21-.49,20.01.3,40.08,2.74,59.95.43,3.52.84,7.14,2.14,10.47,1.22,3.12,3.19,5.81,5.65,8.06,3.2,2.92,6.78,4.91,10.92,6.16s8.6,1.74,12.94,2.03c18.67,1.25,37.46,1.96,56.17,1.31,18.56-.64,37.24-2.95,55.01-8.5,4.48-1.4,9.1-2.83,13.34-4.87,2.07-1,4.12-2.21,5.62-3.99s2.31-4.07,2.54-6.47c.47-4.73.63-9.52.88-14.27s.47-9.43.62-14.15c.59-18.49.17-37.07-2.58-55.39-.71-4.71-1.56-9.4-2.57-14.06-.5-2.31-1.03-4.6-1.61-6.89-.5-2-.87-4.19-1.66-6.11-1.13-2.73-3.38-4.84-5.68-6.6-3.21-2.45-6.98-3.98-10.98-4.51-2.04-.27-4.1-.13-6.15-.08-2.29.06-4.57.12-6.86.18-4.78.14-9.55.3-14.33.5-9.33.39-18.66.92-27.97,1.69-18.66,1.54-37.29,4.03-55.52,8.36-4.27,1.01-8.51,2.13-12.71,3.37-1.4.41-4.21,1.66-3.7,3.59s3.66,1.66,5,1.26Z"/>
    <path class="cls-1" d="M560.43,875.42c4.97,10.29,8.79,21.06,11.05,32.28,2.12,10.54,2.91,21.28,3.5,32,.32,5.87.55,11.75.92,17.62.29,4.55.81,9.07,1.08,13.62.25,4.27.29,8.73-.47,13.08-.17.98-.39,1.96-.66,2.91-.13.47-.28.93-.44,1.39,0,.03-.35.91-.13.36-.11.26-.22.52-.34.78-.41.89-.88,1.75-1.43,2.56-.13.19-.27.38-.4.57-.51.73.3-.34-.06.08s-.74.84-1.15,1.23c-.17.16-.35.32-.52.48-.66.62.49-.27,0,0-.46.26-.88.63-1.34.91-.13.08-.4.29-.52.3.76-.11.51-.27.03-.04s-.95.45-1.43.66c-.42.18-.84.36-1.27.52-.18.07-.35.14-.53.2l-.27.1c-.46.17-.36.13.31-.11-.35-.04-1.09.36-1.42.47-.59.18-1.18.36-1.78.53-2.23.63-4.5,1.14-6.77,1.6-.34.07-.68.13-1.02.2-.22.04-.87.15.15-.03-.58.1-1.16.21-1.74.31-1.3.22-2.6.43-3.9.63-9.28,1.4-18.66,2.13-27.93,3.56-2.49.38-5.01.55-7.53.69-1.75.09-3.49.16-5.24.2-.33,0-1.79,0-.45.01-.44,0-.89.02-1.33.03-1.01.02-2.02.03-3.03.04-8.74.09-17.48-.06-26.22-.32-8.05-.24-16.1-.57-24.13-1.09-2.9-.19-5.79-.4-8.68-.7-.26-.03-.51-.05-.77-.08-.1-.01-.19-.02-.29-.03-1.18-.11.69.16-.48-.06-1.38-.27-2.74-.63-4.07-1.1-2.29-.81-4.94-2.26-7.17-3.75-2.38-1.58-4.54-3.42-6.55-5.45-1.43-1.45-4.13-1.13-5.82-.32-1.12.54-3.7,2.39-2.21,3.89,4.51,4.55,9.81,8.26,15.81,10.54,3.71,1.41,7.59,1.84,11.52,2.16,7.56.63,15.15.97,22.74,1.26,9.08.34,18.17.55,27.25.57,7.49.01,15.04.02,22.5-.67,3.27-.3,6.51-.89,9.77-1.28,4.94-.6,9.89-1.13,14.82-1.76,5.43-.69,10.84-1.51,16.2-2.62,4.64-.96,9.31-2.18,13.64-4.15s8.14-4.96,10.4-9.23c2.15-4.04,2.95-8.64,3.17-13.16.23-4.82-.12-9.66-.53-14.46-.44-5.16-.8-10.31-1.06-15.49-.58-11.4-1.03-22.84-2.63-34.15-1.57-11.07-4.42-21.87-8.68-32.2-1.17-2.85-2.44-5.66-3.79-8.43-.87-1.8-3.31-1.84-5.02-1.34-1.11.33-4.55,1.86-3.68,3.67h0Z"/>
  </g>
  <g>
    <path class="cls-1" d="M185.02,211.71c-5.87,6.86-12.64,12.85-20.47,17.38-.04.02-.6.33-.2.11-.23.12-.45.25-.68.37-.46.24-.91.48-1.38.71-1.03.52-2.08,1-3.14,1.45.76-.33-.61.24-.77.3-.47.18-.95.36-1.43.53s-.96.33-1.44.49c.89-.3.24-.07.05-.02-.36.11-.73.21-1.1.32-.49.13-.98.26-1.47.38-.25.06-.49.12-.74.17.92-.21.25-.06.06-.02-.5.1-.99.19-1.49.28-.25.04-.5.08-.75.12-.22.03-1.16.16-.43.07-1.01.12-2.02.21-3.03.27-.25.01-.51.02-.76.04-1.23.06.32,0-.4.01-.58,0-1.15,0-1.73-.02-5.14-.16-10.14-1.34-14.92-3.23-1.26-.5-3.35.13-4.51.49-.94.3-2.95.89-3.35,1.97-2.99,8.22-7.06,16.41-14.51,21.37-.36.24-.73.48-1.1.7-.21.13-.43.26-.64.38-.54.32.39-.2-.16.09-.44.24-.88.46-1.33.68-.27.13-1.61.72-.88.42-.46.19-.93.37-1.39.54-.23.08-.47.16-.7.24-.08.03-.68.21-.14.05.59-.17-.18.05-.32.09-.24.07-.48.13-.72.19-.14.04-.91.23-.32.09.63-.15-.38.08-.51.1-.49.09-.98.17-1.47.25.84-.13-.57.06-.77.08-.43.04-.86.06-1.29.08-.07,0-.83.02-.46.02.33,0-.56,0-.64,0-1.96-.04-3.76-.27-5.67-.73s-3.82-.97-5.52-1.76-3.27-2.09-4.69-3.42l-6.9,3.31c9.79.95,20.31-2.58,27.66-9.08,6.45-5.7,11.8-13.53,14.59-21.68.14-.3.07-.55-.2-.74-9.5-4.09-18.13-10.08-24.99-17.86-6.29-7.13-10.92-15.68-13.66-24.76-5.51-18.24-3.25-38.02,5.88-54.69,4.92-8.99,11.47-17.06,19.34-23.63,1.95-1.63,3.77-2.99,5.97-4.45,1.05-.7,2.11-1.37,3.19-2.01.49-.29.99-.58,1.49-.86.98-.56-.62.32.39-.21.41-.21.81-.43,1.22-.64,1.13-.58,2.27-1.13,3.43-1.64.32-.14.64-.28.95-.42-.77.34-.2.08-.04.02.75-.3,1.51-.6,2.27-.88.55-.2,1.1-.39,1.65-.58.33-.11.66-.22,1-.33-1.14.37,0,0,.2-.05,1.36-.4,2.72-.76,4.1-1.07-1.18.27.62-.12.92-.18.7-.14,1.41-.26,2.12-.37.36-.06.71-.1,1.07-.16.16-.02.8-.1,0,0,.84-.1,1.69-.19,2.53-.26.61-.05,1.22-.09,1.83-.13.37-.02.74-.04,1.11-.05-.01,0,1.2-.04.55-.02,1.5-.03,3.01,0,4.52.09,5.8.31,11.49,1.46,17.03,3.18,6.65,2.07,12.59,4.51,18.64,8.17,7.94,4.8,14.91,11.22,19.94,19.05,6.69,10.41,10.05,22.87,10.38,35.19.1,3.6-.08,7.2-.49,10.77-.14,1.26,4.24.37,4.72.23,1.25-.35,3.79-.99,3.97-2.56,1.55-13.63-.48-27.81-6.6-40.16-4.47-9.01-11.18-16.78-19.35-22.62-6.39-4.57-13.55-7.93-20.96-10.47-10.5-3.6-21.55-5.27-32.63-4.16-12.3,1.23-24.26,5.39-34.67,12.06-9.17,5.87-17.02,13.62-23.27,22.51-5.77,8.19-10.12,17.35-12.31,27.14s-2.36,19.28-.63,28.8c3.63,19.95,16.06,37.45,33.73,47.41,2.37,1.33,4.81,2.53,7.3,3.6l-.2-.74c-2.45,7.15-6.81,13.77-12.13,19.11-1.21,1.21-2.48,2.37-3.89,3.34-.72.5-1.46.98-2.24,1.4.23-.13.14-.09-.25.12-.24.12-.48.24-.73.36-.03.01-1.2.53-.48.23-.5.21-1,.38-1.51.56-.93.33.65-.13-.4.11-.26.07-.52.14-.78.2.45-.09.51-.11.19-.04-.46.08-.92.17-1.39.25.77-.12-.49.05-.53.05-.27.02-.54.04-.81.06-.45.01-.54.02-.27.02-.95.02-1.9-.05-2.84-.14-1.71-.17-3.8.45-5.33,1.19-.62.3-2.49,1.26-1.57,2.11,1.39,1.3,2.84,2.53,4.56,3.36,1.89.91,3.95,1.51,5.97,2.07,4.85,1.33,9.95,1.37,14.91.67,10-1.41,20-6.29,26.32-14.3,3.71-4.71,6.19-10.12,8.24-15.73l-7.86,2.46c20.26,8.03,42.81,1,59.24-12.07,4.38-3.48,8.36-7.42,11.99-11.67,1.22-1.43-1.09-1.58-2.07-1.49-1.73.15-4.59.66-5.81,2.09h0Z"/>
    <g>
      <path class="cls-1" d="M252.18,207.5c2.17-.12,4.93-.73,6.37-2.55.66-.84.86-1.84.95-2.88.18-2.05-.25-4.27.17-6.28.11-.51.27-1.11.52-1.53-.03.05.36-.51.37-.49l-.16.14c-1.18.73-2.52,1.06-4.01.99l-.24-.05c.28.12.33.14.13.06.14.17.33.28.45.47.29.41.43.99.52,1.48.47,2.47-.93,4.84-.18,7.33.71,2.36,2.05,3.39,4.31,3.88,1.93.42,3.93.5,5.89.61,4.29.23,8.59.2,12.89.22,1.11,0,2.21,0,3.32,0,.67,0,1.35.02,2.02.03,1.13.02-.7-.08.42.02.33.03.67.06,1,.1,1,.13,1.96.08,2.69,1.2s.11,2.61-.47,3.68l6.09-2.82c-.22-.01-1.6-.09-.75-.04-.55-.03-1.11-.06-1.66-.1-1.34-.08-2.69-.16-4.03-.25-2.4-.15-4.83-.41-7.24-.42-2.21,0-4.97.89-6.24,2.82-.61.92-1.12,1.93-1.64,2.91-3.49,6.61-6.61,13.43-9.72,20.22-1.49,3.24-3.14,6.49-4.39,9.84-.33.88-.09,1.26.37,2,.74,1.18,1.55,2.3,2.38,3.42,2.25,3.03,4.64,5.98,7.11,8.84s4.83,5.54,7.64,7.87c.73.6,2.03,1.22,2.33,2.13.16.49-.11.62-.17.99l.08-.1c4-.51,5.15-.87,3.47-1.08-.01,0-.56-.28-.66-.33-1.29-.71-2.42-1.84-3.52-2.8-1.25-1.09-2.47-2.23-3.66-3.39-4.72-4.63-8.94-9.81-12.46-15.41-1.37-2.18-6.23-.73-7.77.68-4.42,4.03-9.05,7.81-13.89,11.31-2.26,1.63-4.52,3.19-6.8,4.63-.53.33-1.05.66-1.61.93.76-.38.12-.11,0-.03l.46-.15c-.51.13-.45.12.17-.03h.54c.64,0,.72-.01.23-.06-.13-.41.2.04.21.05-.54-.38-.81-.89-.85-1.56-.03-.41.06-.84.21-1.23.04-.09.46-.73.45-.78.03.31-.81.66-.21.24.16-.11.32-.24.48-.36.4-.29.8-.56,1.21-.84.28-.19.56-.38.84-.56.12-.08.25-.16.37-.24.74-.49-.1.06.09-.06,3.41-2.21,6.83-4.42,10.2-6.68,3.58-2.4,7.2-4.82,10.44-7.67.42-.37,1.1-.99.92-1.65s-1.08-.88-1.62-.97c-1.9-.3-4.67.35-6.15,1.65-3.24,2.85-6.86,5.28-10.44,7.67-.9.6-1.8,1.2-2.71,1.8s.62-.4-.26.17c-.18.11-.35.23-.53.34-.55.36-1.11.72-1.66,1.08-1.77,1.15-3.55,2.3-5.32,3.47-.96.64-1.97,1.26-2.86,2-1.67,1.39-2.88,4-1.79,6.09,1.71,3.25,6.48,2.62,9.36,1.74,3.59-1.09,6.63-3.3,9.7-5.38,6.21-4.22,12.11-8.88,17.66-13.94l-7.77.68c2.95,4.69,6.26,9.12,10.02,13.19,1.86,2.02,3.82,3.95,5.87,5.79,1.91,1.71,4.01,3.83,6.52,4.61,3.53,1.09,8.47.04,10.94-2.83.74-.86,1.3-1.98,1.01-3.14s-1.32-1.92-2.24-2.63c-2.54-1.94-4.73-4.36-6.85-6.73-2.47-2.77-4.84-5.64-7.11-8.58-.89-1.14-1.76-2.3-2.59-3.48-.29-.4-.56-.81-.84-1.22-.2-.29.2.36-.05-.08-.08-.14-.15-.31-.25-.44-.02-.03-.07-.22-.1-.24.09.04-.25.68.12.05.35-.59.56-1.31.84-1.93.65-1.48,1.31-2.95,1.97-4.43,1.58-3.51,3.2-7.01,4.84-10.5s3.36-7.1,5.13-10.61c.62-1.24,1.26-2.47,1.92-3.69.06-.11.12-.21.17-.31.21-.4-.31.49-.06.11.1-.15.18-.31.27-.45.07-.11.16-.22.22-.33.02-.04.08-.08.09-.12-.11.33-2.16,1.38-2.2,1.4l-2.31.62c-1.57.2-.77.06-.4.12s.58.03.08,0c.55.03,1.11.06,1.66.1,1.28.08,2.56.16,3.84.24,2.47.15,4.95.31,7.42.43,2.05.1,5.05-.92,6.09-2.82,1.51-2.77.96-5.78-2.1-7.09-2.63-1.13-5.87-1.05-8.67-1.05-4.31,0-8.61.03-12.92-.08-.61-.02-1.22-.04-1.83-.06-.19,0-1.75-.09-.79-.03-1.1-.07-2.2-.15-3.29-.3-.34-.05-.67-.11-1-.16-.27-.04-.72-.28.11.04-.11-.04-.33-.05-.41-.13-.55-.48.06.41-.08-.03-.18-.52-.71-1.02-.91-1.57-.97-2.61.66-5.26,0-7.96-.92-3.82-5.17-4.19-8.42-3.23-3.95,1.16-6.59,3.9-6.6,8.08,0,1.21.07,2.42.03,3.63-.02.56-.07,1.12-.18,1.66-.04.22-.11.43-.17.65-.12.27-.09.25.09-.06-.37.48-.05.24.95-.7l2.13-.84-.13.03,2.26-.33h-.14c-1.92.12-4.53.63-5.77,2.27s1.03,2.19,2.24,2.12h0Z"/>
      <path class="cls-1" d="M257.11,242.69c-.84-.8.42.48-.39-.38-.21-.23-.42-.45-.63-.68-.42-.47-.83-.96-1.23-1.45-.86-1.08-1.67-2.2-2.44-3.35-1.57-2.36-2.98-4.83-4.32-7.33-.61-1.15-1.21-2.31-1.81-3.47-.31-.61-.62-1.21-.93-1.82-.14-.27-.27-.54-.41-.8-.49-.91.03.25-.11-.22-.07-.23-.14-.47-.17-.71.09.73.08-.15.09-.29.04-.62-.11.17.04-.15.11-.24.2-.48.32-.71-.37.72.11-.08.21-.21.29-.38.17-.12-.08.07.74-.59-.8.27.07-.07-.61.23-.64.19,0,.07l-4.82-1.23c3.79,7.87,7.51,16.01,13.41,22.57,1.92,2.13,5.95,1.84,7.64-.53,5.42-7.6,9.55-16.35,13.02-24.99.79-1.97,2.54-4.89.37-6.54-.79-.6-1.8-.78-2.76-.9-1.97-.24-3.97-.34-5.95-.46-7.26-.46-14.53-.82-21.8-1.22-3.83-.21-7.66-.42-11.49-.65-1.68-.1-3.36-.21-5.04-.32-.73-.05-1.45-.1-2.18-.15-.52-.03-1.26-.33-.22.08.68.26.63.37.36.16.38.42.5.51.34.29-.14-.22-.08-.1.17.38-.03,0-.1-.33-.11-.39-.12-.65-.11.67,0,.04.03-.17.04-.38.05-.56.04-.73-.13.17-.02-.01.13-.21.78-1.56.13-.46.07-.11.18-.23.26-.32-.49.55-1.89,1.57-2.61,1.35.68.21,1.71.03,2.42.04.87.02,1.74.05,2.61.08.78.03-.49-.02.28.01.47.02.93.04,1.4.06.85.04,1.69.08,2.54.13,6.75.37,13.49.87,20.25,1.07,1.97.06,4.56-1.58,4.75-3.67.21-2.36-2.25-3.08-4.09-3.13-4.05-.12-8.92-.43-13.43-.71-4.87-.3-9.74-.58-14.62-.67-2.7-.05-5.24.43-7,2.7-.96,1.24-1.64,2.83-1.76,4.41-.13,1.76.4,3.47,1.79,4.61s3.02,1.19,4.66,1.3c11.93.83,23.88,1.35,35.82,2.05,2.43.14,4.86.29,7.29.48.72.06,1.43.11,2.14.19.22.03.45.07.67.09.07,0,.14.04.2.04-.73.03-2-.68-2.34-1.31l-.46-1.71c.06-1.01.09-.48-.08-.02-.09.25-.18.49-.28.74-.2.51-.4,1.02-.6,1.53-.46,1.16-.94,2.3-1.43,3.45-1.07,2.49-2.21,4.95-3.4,7.38s-2.39,4.73-3.7,7.04c-.33.58-.67,1.17-1.01,1.74-.04.07-.52.87-.29.49s-.25.4-.29.47c-.62.99-1.27,1.96-1.94,2.91l7.64-.53c-5.89-6.56-9.62-14.7-13.41-22.57-.78-1.63-3.43-1.5-4.82-1.23-3.77.71-6.9,3.94-7.64,7.66-.63,3.15,1.7,6.25,3.09,8.92,3.11,5.99,6.47,11.9,11.39,16.59,1.55,1.48,4.8.81,6.26-.44,1.63-1.41,2-3.27.38-4.81h0Z"/>
    </g>
    <path class="cls-1" d="M137.2,127.69c.35-.7,1.47-3.08,2.05-3.05-.07,0-.45.24-.55.28l-.46.15c-1.34.13-1.63.19-.87.18h-.26c.38.07.47.09.25.06.34.17.73.27,1.07.47.52.31.99.75,1.41,1.19.12.12.37.51.51.6.22.13-.22-.55-.15-.25.09.38.4.81.55,1.17,1.36,3.22,2.4,6.59,3.49,9.9,2.81,8.56,5.38,17.21,8.37,25.71,2.21,6.28,4.25,12.63,6.18,19,1.07,3.54,2.15,7.1,2.94,10.72.12.57.24,1.14.33,1.72.04.24.07.49.09.73.06.52.04.3.01.69-.05.59-.17,1.13-.3,1.7l-.12.31c-.5-1.61,1.1-2.06,4.8-1.36.05.05-.74-.5-.68-.45-1.26-1.03-2.04-2.64-2.78-4.05-.91-1.74-1.69-3.54-2.33-5.4s-1.25-3.33-3.17-4.03c-2.04-.74-4.42-.59-6.56-.7s-4.28-.22-6.42-.33c-8.73-.45-17.46-.9-26.18-1.35-1.06-.05-2.44.28-3.4.7-.79.34-1.92.81-2.36,1.6-1.5,2.71-3.01,5.42-4.51,8.13-.62,1.12-1.19,2.29-1.91,3.34-.14.21-.6.97-.56.72.06-.36,3.57-1.46,3.77-.98.08.19-.15-.15-.3-.27-.77-.65-1.21-1.54-1.42-2.52-.02-.09-.05-.62-.09-.63.29.08-.13.73,0,.26s.22-1,.37-1.49c1.3-4.17,3.21-8.19,5-12.17,5.51-12.27,11.42-24.36,17.35-36.43,2.27-4.62,4.55-9.23,6.83-13.85.3-.61-.4-1.19-.84-1.39-.8-.36-2-.34-2.84-.2-1.85.29-4.09,1-4.98,2.8-5.25,10.64-10.51,21.28-15.64,31.99-3.02,6.31-6.02,12.64-8.87,19.04-1.75,3.93-3.8,7.97-4.88,12.15-1.02,3.95,2.57,7.3,6.4,7.26,2.44-.02,5.13-.86,7.02-2.43,1.24-1.03,2.01-2.33,2.78-3.72,1.78-3.21,3.56-6.42,5.34-9.63l-5.76,2.3c8.32.43,16.63.86,24.95,1.29,2.06.11,4.12.21,6.18.32.99.05,1.98.1,2.96.15s1.48-.1,1.96.18c.3.18.59.87.74,1.29.35.96.66,1.92,1.05,2.87.71,1.75,1.54,3.45,2.49,5.08s1.82,3.07,3.38,4.06c2.3,1.45,5.27,1.14,7.72.19,1.97-.76,3.8-2.17,4.3-4.31.23-.99.27-2.07.18-3.08-.31-3.36-1.48-6.74-2.42-9.96-2.1-7.2-4.38-14.36-6.87-21.43-3.15-8.96-5.87-18.08-8.84-27.1-1.09-3.3-2.06-6.75-3.57-9.89-3.29-6.86-13.56-5.58-18.01-.77-1.12,1.21-1.86,2.72-2.59,4.18-.3.61.4,1.19.84,1.39.8.36,2,.34,2.84.2,1.86-.29,4.09-1,4.98-2.8Z"/>
    <path class="cls-1" d="M126.17,173.43c2.39-6.13,4.95-12.2,7.68-18.19,1.33-2.92,2.7-5.83,4.11-8.71,1.25-2.56,2.37-5.55,4.45-7.57l-8.28,1.5c4.53,12.07,9.05,24.13,13.58,36.2l7.17-2.93c-6.87-.18-13.73-.32-20.58-.75-2.47-.16-4.94-.33-7.41-.47-.65-.04-1.31-.09-1.97-.09-1.14,0-2.26.13-3.36.44-1.27.36-3.31.85-3.95,2.11-.71,1.4,3.02.91,3.47.82,1.14-.22,2.27-.53,3.31-1.03.62-.3,1.46-.68,1.79-1.33h0c-.93.57-1.86,1.15-2.79,1.73.19-.06-3.4.85-4.04.78.1.01.19,0,.29,0,.31.02.63.03.94.04.88.05,1.76.1,2.64.16,2.44.16,4.88.32,7.32.47,6.23.38,12.46.48,18.7.64,1.63.04,3.33-.38,4.82-1,.48-.2,2.67-1.06,2.35-1.93-4.53-12.07-9.05-24.13-13.58-36.2-.38-1.01-2.86-.55-3.53-.42-1.57.3-3.56.77-4.75,1.93-2.18,2.11-3.41,4.89-4.73,7.57-1.49,3.03-2.93,6.07-4.33,9.14-2.8,6.13-5.42,12.35-7.88,18.63-.56,1.45,2.92.93,3.47.82,1.14-.22,2.27-.53,3.31-1.03.58-.28,1.54-.69,1.79-1.33h0Z"/>
    <path class="cls-1" d="M281.62,299.37c-2.05,7.97-3.29,16.78-.69,24.78,2.37,7.28,7.34,13.21,14.33,16.37l1.81-5.55c-1.78.42-4.01.75-5.67.7-2.04-.07-3.84-.33-5.73-.92-.84-.26-1.67-.58-2.48-.92,0,0-.53-.24-.23-.1.34.16-.31-.16-.38-.19-.42-.21-.83-.43-1.23-.66-1.47-.83-2.85-1.8-4.14-2.89-.3-.25-.24-.2-.68-.62-.29-.28-.58-.57-.86-.86-.6-.63-1.18-1.29-1.72-1.97-1.09-1.37-2.06-2.83-2.88-4.38-1.48-2.79-2.46-6.46-2.88-9.84-.64-5.23-.44-10.52.74-15.66.35-1.54-1.59-2.55-2.84-2.59-9.75-.31-19.5-.74-29.23-1.41-5.25-.36-10.51-.77-15.74-1.43-1.04-.13-2.08-.27-3.12-.44-.46-.07-.93-.15-1.39-.23-.2-.04-.4-.07-.6-.11-.61-.11.94.2.15.03-2.71-.6-6.01-1.51-8.15-2.51-3.11-1.45-5.47-3.46-7.1-6.5s-2.4-6.86-3.11-10.32c-1.66-8.1-2.5-16.36-2.81-24.62s-.17-16.81.04-25.21c.21-8.33.34-16.69,1.27-24.98.46-4.08,1.12-8.15,2.11-12.14.82-3.3,1.78-6.44,3.58-9.38.38-.62.56-.89,1.17-1.59.25-.29.51-.57.79-.85.14-.14.27-.27.42-.4-.46.41.2-.14.29-.21.31-.24.66-.43.96-.67.38-.29-.05.01-.13.06.17-.1.34-.19.52-.27.4-.21.82-.4,1.24-.57.18-.08.36-.14.54-.22.63-.26-.68.18-.02.02.77-.19,1.52-.45,2.29-.62.28-.06,1.45-.27.58-.13.46-.07.92-.15,1.39-.21,1.8-.24,3.61-.38,5.42-.5,8.67-.6,17-.71,25.45-.51s17.4.71,26.08,1.32,17.33,1.31,25.99,1.98c3.83.3,7.71.46,11.51,1.03.37.06.74.12,1.1.18.45.08-.01,0-.09-.02.18.04.36.08.54.12.83.19,1.65.43,2.45.72.88.32.63.19,1.44.64.6.34,1.47.91,1.85,1.24,2.4,2.13,3.26,5.69,3.72,8.92.58,4.04.93,8.12,1.26,12.18.69,8.39,1,16.8.97,25.21-.07,17.02-1.56,34.03-4.46,50.8-.54,3.11-1.17,6.51-2.22,9.27-.57,1.49-1.26,2.94-2.13,4.29-.04.06-.46.67-.25.38.19-.25-.18.22-.17.21-.23.28-.46.56-.71.83s-.5.53-.77.78c-.09.09-.57.46-.06.06-.14.11-.28.22-.42.33-.71.55-1.45,1.08-2.2,1.58-.47.32-.94.62-1.42.92-.24.15-.48.29-.72.44-.84.51.47-.25-.19.11-1.25.68-2.5,1.33-3.8,1.9-.71.31-1.42.59-2.14.87-.49.19.23-.08.27-.1-.18.06-.35.12-.53.18-.48.16-.96.31-1.44.45-.74.21-1.5.4-2.25.57-.23.05-1.52.26-.57.12-.4.06-.8.12-1.2.17-.82.1-1.64.17-2.47.21-.28.01-.56.02-.84.03.09,0,.55,0,.05,0s-1-.03-1.51-.06c-2.03-.12-4.7.62-5.68,2.59s.82,3.27,2.58,3.37c7.8.48,15.6-1.46,22.47-5.13,5.37-2.87,10.51-6.36,13.32-11.94,1.62-3.21,2.55-6.77,3.25-10.27.83-4.15,1.46-8.35,2.04-12.54,1.24-8.83,2.09-17.71,2.55-26.61s.53-17.66.22-26.49-.87-17.82-2.07-26.63c-.5-3.69-1.49-7.61-4.15-10.37-2.5-2.6-5.84-4.11-9.32-4.87-3.87-.85-7.8-1.09-11.74-1.39-4.52-.35-9.05-.7-13.57-1.06-18.3-1.42-36.62-2.8-54.99-2.54-4.55.06-9.1.24-13.65.54-4.01.27-8.1.6-11.98,1.74-4.11,1.21-8.04,3.28-10.88,6.56-2.59,2.99-4.12,6.56-5.3,10.3-2.55,8.09-3.43,16.66-3.88,25.1s-.64,17.54-.73,26.3.08,17.64.93,26.41c.42,4.36,1.02,8.71,1.85,13.01.74,3.83,1.52,7.8,3.19,11.35s4.19,6.53,7.67,8.54c3.22,1.86,6.83,3,10.43,3.87,4.49,1.08,9.12,1.55,13.7,1.99,11.17,1.07,22.4,1.59,33.61,2.02,1.85.07,3.69.13,5.54.19l-2.84-2.59c-1.19,5.18-1.33,10.5-.81,15.78.41,4.27,1.45,8.22,3.42,12.04,3.61,7.03,9.96,12.47,17.47,14.94,5.97,1.96,12.28,1.73,18.33.31,1.37-.32,3.11-1.34,3.52-2.77s-.47-2.23-1.71-2.79c.42.19-.7-.38-.82-.44-.32-.18-.64-.37-.94-.56-.67-.43-1.31-.89-1.93-1.39-.96-.77-2.17-2.07-3.1-3.26-1.94-2.5-3.26-5.15-4.16-8.19-2.17-7.35-.88-15.24,1-22.51.53-2.05-2.54-2.76-3.95-2.59-2.02.23-4.28,1.24-4.83,3.37Z"/>
    <path class="cls-1" d="M252.81,299.26c-1.82,8.41-.29,17.18,4.05,24.58,4.05,6.9,10.9,11.8,18.29,14.62,4.37,1.66,8.96,2.74,13.65,2.8,1.95.02,4.63-.63,5.73-2.42s-.91-2.71-2.4-2.73c-.82,0-1.64-.05-2.46-.13-.24-.02-.48-.05-.71-.08.08,0,.51.07.08,0-.48-.07-.97-.15-1.45-.25-1.58-.3-3.58-.84-4.83-1.27-3.48-1.21-6.86-2.96-9.84-5.13-5.99-4.36-9.91-10.86-11.44-18.07-.91-4.3-.89-8.66.04-12.96.74-3.41-8.04-2.08-8.71,1.02h0Z"/>
    <path class="cls-1" d="M255.16,301.13c.3.26.58.53.84.83l-.24-.29c.72.89,1.19,1.91,1.39,3.04,2.82-.87,5.63-1.75,8.45-2.62-.58-.31-1.16-.62-1.74-.93-.29-.16-.58-.3-.89-.41-.88-.31-1.87-.19-2.77-.06-1.36.19-2.7.58-3.96,1.14-.63.28-1.59.76-1.95,1.43-.26.49-.16,1.08-.04,1.59.57,2.36,1.59,4.59,2.98,6.58.34.49.95.52,1.51.54,1.03.03,2.19-.18,3.17-.46s2.09-.61,2.98-1.19c.25-.16,1.33-.81,1.04-1.22-.82-1.18-1.51-2.43-2.05-3.75-.26-.63-.49-1.28-.68-1.93-.17-.59-.44-1.28-.35-1.9l-.07.37c.04-.13.07-.2.15-.31l-.36.41.09-.07-1.44.86.11-.04-4.39,1.18h.15c-.56-.02-1.12-.03-1.68-.04l.15.03-.52-.18c.82.32,1.6.83,2.38,1.25.61.33,1.55.28,2.2.21.96-.1,1.89-.31,2.81-.59.81-.25,1.69-.54,2.4-1.01.38-.25,1.14-.66,1.04-1.22-.29-1.64-1.2-3.09-2.47-4.16-.45-.38-1.73-.25-2.2-.21-1.12.1-2.33.38-3.38.77-.57.21-3.74,1.4-2.63,2.34h0Z"/>
    <path class="cls-1" d="M257.14,312.25c.46,1.47,1.25,2.76,2.26,3.92.28.15.58.23.9.24.43.07.87.07,1.31.01.56-.04,1.11-.14,1.66-.28.59-.12,1.16-.28,1.73-.49l1-.41c.52-.23,1-.52,1.43-.89l.35-.43c.14-.29.08-.52-.19-.7-.08-.09-.16-.19-.24-.28l.25.31c-.8-.99-1.4-2.12-1.78-3.33-.1-.23-.27-.37-.51-.4-.32-.14-.65-.2-1.01-.18-.49-.02-.99.02-1.47.1-.58.06-1.15.17-1.7.34l-1.14.36c-.64.22-1.25.51-1.83.85l-.61.45c-.29.21-.43.48-.42.82h0Z"/>
    <path class="cls-1" d="M254.47,315.68c1.75,1.3,3.51,2.61,5.26,3.91.59.44,1.57.45,2.25.42.57-.02,1.12-.1,1.67-.24.59-.11,1.17-.27,1.73-.49l.99-.44c.52-.25.99-.58,1.41-.99.31-.39.64-.96.11-1.35-1.75-1.3-3.51-2.61-5.26-3.91-.59-.44-1.57-.45-2.25-.42-.57.02-1.12.1-1.67.24-.59.11-1.17.27-1.73.49l-.99.44c-.52.25-.99.58-1.41.99-.31.39-.64.96-.11,1.35h0Z"/>
    <path class="cls-1" d="M198.49,168.39c-6.67,5.11-10.12,12.89-12.47,20.74-1.8,6.03-2.98,12.23-3.71,18.48-1.64,13.86-1.91,27.95-1.47,41.89.22,6.93.63,13.86,1.48,20.74.69,5.56,1.44,11.52,4.11,16.53,3.56,6.68,10.82,10.95,17.82,13.16,3.88,1.22,7.97,1.96,12.04,2.1.74.03,1.48.03,2.22.04.45,0,1.36.12-.36-.01.33.02.66.02.99.03.92.04,1.83.1,2.75.16,10.7.72,21.37,1.97,32.07,2.51.98.05,1.96.07,2.94.08,1.86,0,4.57-1.44,4.8-3.47.26-2.26-2.34-2.77-4-2.77-.72,0,1.12.05.62,0-.14-.01-.28,0-.42-.01-.38-.01-.76-.03-1.14-.05-.97-.05-1.93-.12-2.9-.18-2.58-.18-5.16-.39-7.74-.6-5.8-.48-11.59-.99-17.39-1.43-2.09-.16-4.18-.32-6.27-.43-.93-.05-1.86-.06-2.79-.07-.82,0-.15,0,.01,0-.25,0-.49-.01-.74-.03-.43-.02-.86-.04-1.29-.08-.98-.07-1.96-.18-2.94-.32-.91-.13-1.82-.29-2.72-.49.71.16-.63-.16-.79-.2-.47-.12-.94-.25-1.41-.39-1.78-.53-3.53-1.19-5.21-1.99-.54-.26.41.22-.11-.06-.21-.11-.42-.21-.62-.33-.36-.19-.71-.39-1.06-.6-.79-.46-1.56-.96-2.3-1.5-.68-.49-1.34-1.01-1.97-1.57-.05-.05-.55-.51-.3-.27.22.21-.16-.16-.16-.17-.34-.36-.68-.7-1.01-1.07-2.2-2.49-3.19-4.53-4.01-7.61-.64-2.4-1.1-4.84-1.49-7.28-.46-2.94-.81-5.89-1.08-8.85-.15-1.62-.28-3.25-.4-4.87-.06-.89-.06-.89-.12-1.79s-.1-1.77-.14-2.65c-.68-13.9-.5-27.91.76-41.77.51-5.66,1.27-11.27,2.51-16.81.84-3.75,1.7-7.03,3.01-10.47.65-1.71,1.39-3.4,2.24-5.02.42-.79.86-1.57,1.34-2.33.04-.07.44-.68.22-.36s.19-.27.24-.34c.27-.38.55-.75.84-1.12.53-.67,1.1-1.32,1.7-1.94.16-.16.32-.32.49-.48-.11.11-.58.49,0,0,.35-.29.7-.58,1.05-.85,1.43-1.1,2.26-3.18.49-4.41s-4.63-.68-6.23.55h0Z"/>
    <path class="cls-1" d="M254.91,295.91c-1.55.07-3.11.13-4.66.2-.75.03-1.5.06-2.24.09l-.69.03h.71c.65.19.78.22.39.08,1.16.44,1.55,1.31,1.16,2.62.3-.8.38-1.77-.2-2.49s-1.55-1.27-2.49-1.31c-3.58-.13-7.07.17-10.53,1.12-1.03.28-2.14.88-2.83,1.73-.52.64-.97,1.68-.69,2.52.7,2.08,3.33,2.42,5.17,1.92.64-.18,1.29-.32,1.94-.47.86-.19-.61.07-.04,0,.33-.05.66-.1.99-.13.61-.07,1.21-.12,1.82-.15.33-.02.66-.02,1-.03.24,0,1.27.03.21,0l-2.69-3.8c-.58,1.58-.19,2.95,1.18,3.95s3.13,1.06,4.71.99c2.36-.1,4.72-.2,7.08-.3,1.1-.05,2.39-.53,3.27-1.21.67-.52,1.47-1.47,1.5-2.38.09-2.24-2.17-3.06-4.05-2.98h0Z"/>
    <path class="cls-1" d="M228.03,301.68c1.43-.56,2.86-1.12,4.29-1.68.51-.23.96-.55,1.33-.96.39-.32.68-.71.88-1.18.22-.42.29-.85.2-1.3.02-.45-.12-.86-.41-1.23l-.64-.63c-.56-.39-1.18-.62-1.86-.71l-1.12-.04c-.81.06-1.58.26-2.31.62-1.43.56-2.86,1.12-4.29,1.68-.51.23-.96.55-1.33.96-.39.32-.68.71-.88,1.18-.22.42-.29.85-.2,1.3-.02.45.12.86.41,1.23l.64.63c.56.39,1.18.62,1.86.71l1.12.04c.81-.06,1.58-.26,2.31-.62h0Z"/>
    <path class="cls-1" d="M218.91,300.8c.74-.19,1.45-.47,2.17-.74.36-.14.72-.29,1.06-.46.65-.33,1.27-.72,1.87-1.11.33-.22.65-.45.96-.71.43-.29.77-.66,1.01-1.11.29-.36.45-.77.5-1.24.07-.45,0-.86-.25-1.23-.15-.42-.42-.75-.82-.99l-.84-.43c-.69-.24-1.4-.32-2.13-.26l-1.18.2c-.76.2-1.45.53-2.08,1-.37.3-.75.58-1.16.83l.96-.58c-.56.34-1.16.63-1.77.86l1.13-.42c-.34.12-.69.23-1.04.32-.58.13-1.12.37-1.6.71-.48.25-.89.58-1.23,1-.33.35-.55.75-.64,1.21-.17.41-.19.83-.06,1.27l.37.76c.39.49.88.84,1.48,1.04,1.08.35,2.21.34,3.31.06h0Z"/>
    <path class="cls-1" d="M206.59,298.3c2.32-.63,4.65-1.27,6.97-1.9,1-.27,2.13-.76,2.9-1.49.44-.42,1.09-1.25.84-1.94-.26-.73-.97-1.12-1.7-1.26-1.07-.22-2.2-.13-3.25.16-2.32.63-4.65,1.27-6.97,1.9-1,.27-2.13.76-2.9,1.49-.44.42-1.09,1.25-.84,1.94.26.73.97,1.12,1.7,1.26,1.07.22,2.2.13,3.25-.16h0Z"/>
    <path class="cls-1" d="M200.39,295.8c2.18-.55,4.37-1.09,6.55-1.64,1-.25,2.15-.84,2.86-1.62.49-.54,1.03-1.49.76-2.26-.69-1.99-3.42-1.96-5.07-1.55-2.18.55-4.37,1.09-6.55,1.64-1,.25-2.15.84-2.86,1.62-.49.54-1.03,1.49-.76,2.26.69,1.99,3.42,1.96,5.07,1.55h0Z"/>
    <path class="cls-1" d="M220.75,301.1c1.2-.33,2.35-.79,3.51-1.24.22-.09.44-.19.67-.26-1.02.3-.16.07.06,0s.47-.11.69-.18c.62-.19-.86.05-.33.07.13,0,.79-.03.13-.03s0,.04.13.04c.54.01-.73-.13-.21-.05.12.02.62.28.19.04-.46-.25.09.06.14.13.22.33-.17-.45-.07-.05.08.3.48.85.66,1.1,1.89,2.71,5.63,1.78,8.32,1.25,2.23-.43,4.46-.86,6.68-1.29,1.62-.31,4.22-2.16,3.56-4.11-.73-2.14-3.33-2.13-5.14-1.78-2.16.42-4.32.84-6.49,1.26-.52.1-1.05.21-1.57.3-.28.06-.26.05.07-.02.47-.14.94-.05,1.4.26,1.4.39,1.27.57.91-.07-.47-.84-1.13-1.56-1.95-2.06-1.86-1.14-4.25-1.49-6.39-1.18-1.57.22-2.98.68-4.47,1.23-.45.17-.9.34-1.35.52-.62.25.75-.22.11-.05-.29.08-.57.18-.86.26-1.59.43-4.25,2.08-3.56,4.11s3.36,2.27,5.14,1.78h0Z"/>
    <path class="cls-1" d="M246.07,301.75c1.64-.44,3.29-.82,4.95-1.14l-1.18.23c1.18-.23,2.37-.43,3.56-.6s2.31-.51,3.29-1.12c.57-.36,1.54-1.12,1.64-1.88.24-1.94-2.46-2.15-3.78-1.96-3.26.47-6.5,1.13-9.69,1.97-1,.27-2.13.76-2.9,1.48-.44.41-1.1,1.25-.85,1.93.26.72.97,1.11,1.7,1.25,1.08.21,2.2.12,3.25-.16h0Z"/>
    <path class="cls-1" d="M72.66,255.61c12.75-3.57,24-11.91,30.14-23.76.59-1.14,1.58-2.73.96-4.05-.71-1.51-2.79-1.84-4.19-2.43-2.74-1.16-5.26-2.74-7.58-4.6-4.91-3.92-8.89-8.95-12.04-14.36-7.05-12.09-10.87-26.08-11.33-40.05-.21-6.36.07-13.09,1.71-19.27,1.28-4.8,3.44-9.38,5.78-13.75,2.93-5.48,6.34-10.71,10.13-15.63,1.76-2.29,3.62-4.51,5.62-6.6.47-.49.95-.97,1.43-1.45.2-.2.4-.39.61-.58.26-.25.27-.25.02-.02.13-.12.26-.24.4-.36.86-.76,1.76-1.48,2.7-2.15.42-.3,1.1-.98.94-1.59s-1.09-.84-1.61-.91c-2.05-.29-4.48.46-6.15,1.65-3.87,2.74-7.17,6.35-10.17,10-3.63,4.43-6.85,9.17-9.8,14.08-2.71,4.52-5.2,9.23-7.08,14.17s-2.71,10.46-3.06,15.91c-.9,14.03,1.49,28.18,7.19,41.04,5.07,11.44,12.84,22.63,24.57,27.94.82.37,1.65.69,2.49,1,.5.19.85.25.89.85.05.73-.73,1.82-1.06,2.45-.36.7-.74,1.39-1.15,2.07-1.74,2.88-3.89,5.53-6.27,7.9-2.07,2.06-5.09,4.33-7.19,5.56-.65.38-1.3.74-1.97,1.08-.33.17-.67.33-1,.5-.44.21-.45.22-.03.02-.23.1-.46.2-.68.3-.8.35-1.62.67-2.44.96-.17.06-1.36.44-.28.1-.48.15-.96.29-1.44.42-1.03.29-4.3,1.33-3.87,2.93s3.91.86,4.82.6h0Z"/>
    <path class="cls-1" d="M79.33,255.71c3.02-1.59,5.9-3.49,8.48-5.73l-7.26-.93c.26,1.75.2,4.04,1.77,5.2,1.65,1.21,4.14.98,5.87.12,1.4-.7,2.21-1.73,3.01-3.01,1.71-2.77,3.41-5.55,5.12-8.32.44-.72.26-1.86-.2-2.51-.53-.75-1.61-1.23-2.49-1.32-2.33-.24-4.43.73-5.65,2.71-.93,1.51-1.86,3.02-2.79,4.53-.45.73-.9,1.47-1.36,2.2-.23.37-.45.73-.68,1.1-.1.16-.21.32-.3.49.28-.42.34-.52.18-.32-.61.73.09.32,2.12-1.25l2.31-.16.68.16,1.48,1.07c-.1-.08-.17-.18-.21-.3l.38.78c-.31-1.12-.38-2.35-.55-3.5-.19-1.28-1.78-1.95-2.87-2.1-1.45-.21-3.26.2-4.39,1.18s-2.28,1.88-3.5,2.72c-.29.2-.58.39-.87.58-.14.09-.29.2-.44.28.16-.08.79-.48.29-.18-.67.4-1.35.78-2.05,1.15-.88.46-1.8,1.18-2.22,2.12-.34.77-.35,1.82.2,2.51,1.36,1.69,4.14,1.67,5.93.73h0Z"/>
    <path class="cls-1" d="M101.25,244.18c.34-3.42.69-6.84,1.03-10.26.07-.74-.21-1.2-.88-1.53-.8-.4-2.01-.41-2.86-.29-1.13.17-2.32.48-3.29,1.11-.61.39-1.57,1.02-1.65,1.82-.34,3.42-.69,6.84-1.03,10.26-.07.74.21,1.2.88,1.53.8.4,2.01.41,2.86.29,1.13-.17,2.32-.48,3.29-1.11.61-.39,1.57-1.02,1.65-1.82h0Z"/>
    <path class="cls-1" d="M106.62,235.05c-.26-3.82-.52-7.64-.78-11.46-.03-.47-1.33-.46-1.49-.46-1.03,0-2.18.22-3.16.49s-2.08.6-2.98,1.15c-.4.24-1.1.59-1.06,1.14.26,3.82.52,7.64.78,11.46.03.47,1.33.46,1.49.46,1.03,0,2.18-.22,3.16-.49s2.08-.6,2.98-1.15c.4-.24,1.1-.59,1.06-1.14h0Z"/>
    <path class="cls-1" d="M100.57,224.45c-.32-1.14-.51-2.31-.56-3.5l.03.72c-.03-.88,0-1.76.13-2.63.11-.8-.3-1.45-.97-1.86-.79-.49-2.02-.59-2.91-.48-1.14.14-2.34.47-3.28,1.16-.68.5-1.47,1.17-1.59,2.07-.3,2.27-.16,4.65.46,6.85.22.79,1.03,1.26,1.76,1.47.99.29,2.3.22,3.27-.07s2.15-.76,2.87-1.57c.52-.58,1.02-1.33.79-2.15h0Z"/>
    <path class="cls-1" d="M94.06,220.29c-.11-2.55-.23-5.1-.34-7.65-.03-.65-1.23-.96-1.64-1.04-1.01-.18-2.26-.03-3.23.25s-2.12.68-2.92,1.39l-.57.58c-.29.33-.4.71-.33,1.14.11,2.55.23,5.1.34,7.65.03.65,1.23.96,1.64,1.04,1.01.18,2.26.03,3.23-.25s2.12-.68,2.92-1.39l.57-.58c.29-.33.4-.71.33-1.14h0Z"/>
  </g>
</svg>