<?xml version="1.0" encoding="UTF-8"?>
<svg id="Layer_1" xmlns="http://www.w3.org/2000/svg" viewBox="0 0 837.5 1080">
  <defs>
    <style>
      .cls-1 {
        fill: #112a46;
      }
    </style>
  </defs>
  <g>
    <path class="cls-1" d="M251.48,449.43c2.09.99,5.11.19,6.98-.95,1.31-.79,3.01-2.74.89-3.75-13.12-6.24-26.25-12.49-39.37-18.73,14.72-9.39,28.61-20.04,41.36-31.99,1.5-1.4,1.1-2.92-.91-3.39-2.16-.5-5.34.34-6.98,1.87-13.3,12.46-27.76,23.55-43.27,33.11-1.27.79-3.03,2.73-.89,3.75,14.06,6.69,28.12,13.38,42.18,20.07Z"/>
    <path class="cls-1" d="M275.44,466.33c9.27-27.34,18.54-54.69,27.82-82.03,1.86-5.47-8-5.56-9.46-1.24-9.27,27.34-18.54,54.69-27.82,82.03-1.86,5.47,8,5.56,9.46,1.24Z"/>
    <path class="cls-1" d="M305.52,454.07c1.59.84,5.48-.52,6.89-1.27,15.67-8.28,31.35-16.57,47.02-24.85.57-.3,2.91-1.42,1.81-2.31-13.05-10.6-25.89-21.44-38.53-32.52-1.96-1.72-10.76,2.07-9.3,3.36,12.31,10.8,24.83,21.36,37.53,31.69-14.74,7.79-29.47,15.58-44.21,23.36-1.2.63-2.99,1.6-1.22,2.54Z"/>
    <path class="cls-1" d="M579.55,525.49c-3.04,5.04-5.13,10.93-3.97,16.88.96,4.92,4.21,8.89,8.25,11.65,9.54,6.53,23.4,6.15,33.52,1.22,8.69-4.23,14.92-14.07,11.57-23.74-2.89-8.35-10.64-14.31-18.84-16.87-11.32-3.53-24.2.68-30.53,10.86ZM596.67,519.38c-.18.04-.38.09-.37.07,0-.02.17-.05.37-.07ZM596.84,519.34c.25-.06.17-.04,0,0h0ZM595.66,519.62c-.07.02-.19.05-.31.09.14-.06.25-.09.31-.09ZM613.45,550.89c.39-.26.24-.15,0,0h0ZM615.37,527.87c.53.63,1.04,1.28,1.51,1.96.55.8.94,1.45,1.16,1.9.77,1.57,1.38,3.2,1.69,4.92.35,1.87.37,2.51.08,4.39-.13.83-.34,1.65-.61,2.45-.04.13-.27.69-.3.8-.22.47-.45.93-.72,1.38-.46.79-1,1.52-1.56,2.24-.05.06-.04.05-.07.09-.02.02,0,0-.03.03-.19.2-.37.41-.57.6-.4.41-.82.81-1.24,1.19-.42.37-.85.73-1.29,1.07-.01,0-.02.01-.03.02-.06.04-.12.07-.17.1-.51.23-1.02.47-1.54.68-.24.1-.49.18-.73.28-.15.05-.29.09-.44.14-.47.14-.95.27-1.42.39-.27.07-.54.12-.81.18,0,0,0,0,0,0-.6.09-1.2.18-1.8.24-.26.03-1.02.06-1.26.08-1.02,0-2.04,0-3.05-.08-.22-.02-.44-.04-.66-.07-.06,0-.12-.02-.16-.02-.69-.12-1.37-.23-2.05-.39-2.35-.54-3.17-.81-5.41-2-3.71-1.96-6.92-5.21-8.13-9.5-1.47-5.19.26-10.53,3.03-15.12.57-.92,1.2-1.8,1.89-2.63.12-.13.42-.46.53-.57.43-.44.89-.84,1.35-1.25.02-.02.04-.03.06-.05-.02.01.06-.05.18-.15.08-.06.15-.12.23-.18-.11.09-.14.12-.21.17.05-.04.11-.08.15-.11.36-.24.73-.47,1.1-.7.1-.06.15-.1.21-.13.06-.02.1-.04.19-.08.09-.04.4-.2.7-.34.06-.01.12-.03.22-.06.22-.06.44-.13.66-.19.18-.05.36-.09.53-.13.06-.02.09-.02.13-.04.28-.04.62-.07.69-.08.23-.03.47-.04.7-.06.8.04,1.6.06,2.4.11.2.04.41.06.6.1.46.08.92.18,1.37.29.46.11.91.23,1.36.37.18.05.36.12.54.17.02,0,.02,0,.04.01.93.35,1.84.73,2.73,1.17.77.38,1.52.8,2.25,1.24.92.56,1.54,1,1.92,1.3,1.48,1.16,2.85,2.44,4.07,3.87Z"/>
    <path class="cls-1" d="M592.77,521.19c-.06.05-.12.1-.18.15,0,0,.08-.06.2-.16,0,0-.01,0-.02.01Z"/>
    <path class="cls-1" d="M251.4,273.23c5.6,0,7.6-7.16.9-7.16-5.6,0-7.6,7.16-.9,7.16Z"/>
    <path class="cls-1" d="M262.32,273.23c5.6,0,7.6-7.16.9-7.16-5.6,0-7.6,7.16-.9,7.16Z"/>
    <path class="cls-1" d="M273.57,273.23c5.6,0,7.6-7.16.9-7.16-5.6,0-7.6,7.16-.9,7.16Z"/>
    <path class="cls-1" d="M380.35,582.45c31.5-1.49,63.04-1.93,94.57-1.25,2.21.05,5.26-.29,6.98-1.87,1.21-1.12,1.56-2.56-.7-2.61-32.25-.69-64.5-.31-96.72,1.21-1.82.09-5.56.69-6.57,2.48-1.02,1.8.87,2.13,2.45,2.05Z"/>
    <path class="cls-1" d="M447.42,737.57c-10.88-.23-21.77-.41-32.65.1-10.73.5-21.45,1.3-32.18,1.82-1.93.09-5.41.7-6.57,2.47-1.17,1.78,1.01,2.12,2.45,2.05,20.96-1.01,41.69-2.41,62.69-1.95,2.33.05,5.09-.38,6.98-1.87,1.35-1.08,1.45-2.57-.7-2.61Z"/>
    <path class="cls-1" d="M379.65,594.62c32.36-.16,64.71-.43,97.07-.59,1.89,0,5.56-.7,6.54-2.58,1-1.92-.85-2.47-2.55-2.46-32.36.16-64.71.43-97.07.59-1.89,0-5.56.7-6.54,2.58-1,1.92.86,2.47,2.55,2.46Z"/>
    <path class="cls-1" d="M481.46,604.93c-32.9-.35-65.8.15-98.67,1.51-2.03.08-5.49.6-6.51,2.73-.92,1.94.79,3.1,2.7,3.02,32.87-1.36,65.77-1.86,98.67-1.51,2.01.02,5.52-.67,6.51-2.73.96-2.01-.82-3-2.7-3.02Z"/>
    <path class="cls-1" d="M378.18,632.84c33.14.19,66.28.39,99.42.58,5.61.03,7.59-7.14.89-7.18-33.14-.19-66.28-.39-99.42-.58-5.61-.03-7.59,7.14-.89,7.18Z"/>
    <path class="cls-1" d="M479.9,647.29c-33.14-.19-66.28-.39-99.42-.58-2.08-.01-5.5.64-6.48,2.81-.92,2.03.79,3.3,2.78,3.31,33.14.19,66.28.39,99.42.58,2.08.01,5.5-.64,6.48-2.81.92-2.03-.79-3.3-2.78-3.31Z"/>
    <path class="cls-1" d="M474.82,674.21c2.17.01,5.21-.52,6.98-1.87,1.31-1.01,1.6-1.93-.52-1.94-33.14-.19-66.28-.39-99.42-.58-2.17-.01-5.21.52-6.98,1.87-1.31,1.01-1.6,1.93.52,1.94,33.14.19,66.28.39,99.42.58Z"/>
    <path class="cls-1" d="M480.1,693.45l-99.42-.58c-1.81-.01-5.59.74-6.57,2.5-1.04,1.87.89,2.13,2.47,2.14,33.14.19,66.28.39,99.42.58,1.81.01,5.59-.74,6.57-2.5,1.04-1.87-.89-2.13-2.47-2.14Z"/>
    <path class="cls-1" d="M478.5,716.18c-33.14-.19-66.28-.39-99.42-.58-3.21-.02-5.23,2.32-5.11,4.32-.07,1.61,1.17,3.08,4.21,3.1,33.14.19,66.28.39,99.42.58,3.21.02,5.23-2.32,5.11-4.33.07-1.61-1.17-3.08-4.21-3.1Z"/>
    <g>
      <path class="cls-1" d="M479.07,708.41c5.53,0,11.05.01,16.58.02v-.03c-12.9,0-28.33,0-16.58.02Z"/>
      <path class="cls-1" d="M761.89,501.17h-119.11c.1-.26.18-.53.18-.82.35-28.16.74-56.33,1.12-84.49.09-7.15.19-14.29.28-21.44.05-3.93.83-8.39-.69-12.13-2.74-6.77-8.44-12.57-13.35-17.81-10.53-11.23-22.4-21.05-32.95-32.25-13.4-14.22-26.09-29.1-39.41-43.38-6.95-7.45-14.02-14.85-21.64-21.62-6.79-6.04-13.74-11.57-22.85-10.74-1.01-.21-2.15-.09-3.24.24-1.4.03-2.8.14-4.03.13-3.85-.02-7.69-.04-11.54-.06-6.63-.03-13.25-.06-19.88-.08-24.43-.08-48.87-.09-73.3.04-47.5.24-95,1.01-142.49,2.05-6.48.14-12.96.29-19.44.44-2.92-.37-7.11,1.24-7.16,3.61-.62,29.72-.79,59.45-.75,89.18h-48.7c-1.76,0-6.8.91-6.8,3.62v139.18c0,1.7,1.5,2.55,3.11,2.55h53.46c.19,18.68.36,37.36.49,56.05l9.95,4.71c-.02-2.3-.03-4.59-.04-6.89-.13-17.95-.3-35.91-.48-53.86h143.91c2.93.4,7.16-1.22,7.16-3.62v-139.18c0-1.7-1.5-2.55-3.11-2.55h-149.26c.13-.28.22-.57.22-.87-.03-23.29.14-46.57.48-69.85,71.24-.96,142.49-.54,213.73-.12,20.42.12,40.84.24,61.26.33.45,0,.97-.03,1.51-.1,2.91,8.72,4.64,17.86,5.77,26.96,2.7,21.68,2.48,44.57-2.37,65.94-1.96,8.61-4.83,17.95-10.97,24.55-3.33,3.58,2.27,5.67,5.1,5.09,7.24-1.49,14.44-2.54,21.64-3.26,36.6,7.56,72.01,29.31,88.12,64.15,2.19,4.72,4.08,9.8,4.72,15.01-.04,7.1-.05,14.21-.16,21.31h-76.13c-1.76,0-6.8.91-6.8,3.62v139.18c0,1.7,1.5,2.55,3.11,2.55h75.65c-.14.28-.24.57-.25.87-.3,8.75-.65,17.5-.95,26.25-.15,4.44-.28,8.88-.42,13.32-.14,4.25.13,9.99-2.39,13.68-2.08,3.04-6.56,3.75-9.87,4.75-4.82,1.45-9.71,2.65-14.71,3.24-6.76.81-13.65.33-20.45.24-27.17-.36-54.35-.42-81.52-.44v53.59h-128.99v-201.91h128.99v148.29c10.7,0,19.66,0,9.91,0v-151.9c0-1.7-1.5-2.55-3.11-2.55h-138.9c-1.76,0-6.8.91-6.8,3.62v150.07c-2.38-.04-26.09-.08-50.48-.13l12.74,10.41h0c19.45.08,36.08.14,37.73.19v47.54c0,.38.09.69.22.98.04.1.09.2.15.3.04.07.09.14.14.2.09.12.2.22.32.32.05.04.1.08.15.12.14.1.29.18.46.26.05.03.1.05.16.08.13.05.26.09.4.13.8.23,1.74.28,2.71.16h137.29c1.76,0,6.8-.91,6.8-3.62v-45.32c41.1.04-8.8-.04,32.31-.31,17.95-.12,36,.2,53.93-.73,13.7-.71,29.32-1.47,41.07-9.57,8.97-6.19,7.57-16.85,7.72-26.41.2-11.9.4-23.8.57-35.7h116.68c2.93.4,7.16-1.22,7.16-3.62v-81.14s0-.01,0-.02v-58.02c0-1.7-1.5-2.55-3.11-2.55ZM249.57,358.19h134.21v133.02h-144.12c-.49-.05-1-.05-1.53,0h-52.09v-133.02h63.52ZM303.43,274.45c-20.44.09-40.88.27-61.31.56.05-3.27.07-6.53.14-9.8,45.46-1.03,90.93-1.87,136.4-2.23,23.46-.18,46.93-.24,70.39-.21,12.35.02,24.71.06,37.06.11,6.36.03,13.46.98,19.75.11.68-.09,1.15-.09,1.56-.03,4.17,2.81,6.85,7.48,8.84,12.19-70.94-.31-141.88-1.02-212.82-.71ZM630.32,427.39c-.95-1.24-1.89-2.47-2.9-3.66-.27-.32-.56-.6-.83-.91,1.19.65,2.4,1.25,3.67,1.74.02.94.04,1.89.06,2.83ZM524.26,395.07c2.86-5,4.81-10.59,6.32-16.06,2.97-10.74,4.38-21.87,4.99-32.98,1.14-20.93,0-43.22-6.01-63.51.17.16.33.33.5.49,10.57,10.25,20.95,20.7,31.27,31.19,19.97,20.3,39.8,40.78,59.09,61.73,1.71,1.86,3.42,3.72,5.11,5.6.49.54,1.11,1.13,1.72,1.73-17.87,5.74-35.44,8.54-54.2,8.43-16.53-.1-32.61.78-48.78,3.37ZM612.57,405.71c-3.19-1.23-6.45-2.29-9.75-3.2.92.18,1.84.36,2.74.59.7.18,1.44.38,2.17.57,1.66.56,3.27,1.25,4.84,2.04ZM558.95,399.4c.43-.01.86-.02,1.28-.03.12.23.3.42.5.6-.6-.19-1.19-.39-1.78-.57ZM625.27,444.82c-11.79-16-27.78-28.68-45.59-37.35-5.25-2.56-10.66-4.73-16.18-6.6,6.27.22,12.53,2.63,18.3,4.91,6.17,2.44,12.12,5.38,18.01,8.45,7.66,3.99,14.08,8.14,19.58,14.88,3.98,4.89,7.45,10.16,11.09,15.3.03,2.69.05,5.39.07,8.08-1.7-2.68-3.49-5.25-5.27-7.67ZM755.09,626.67v13.69h-197.73v-46.89c9.79,5.99,20.56,10.33,31.8,12.72,14.49,3.08,31.88,4.29,45.88-1.42,6.57-2.68,11.74-7.42,16.39-12.67,5.56-6.26,11.03-12.56,16.87-18.56,5.84-6.02,11.9-11.83,18.15-17.43,6.3-5.64,13.16-12.75,21.26-15.69,8.65-3.14,19.08,1.01,26.42,5.63,7.91,4.97,14.5,11.69,20.97,18.36v62.27ZM755.09,551.84c-8.5-7.77-17.97-14.34-29.69-16.2-15.81-2.5-29.16,4.97-40.82,14.85-13.2,11.18-25.56,23.35-37.01,36.32-4.68,5.3-9.42,12.21-15.97,15.33-7.26,3.46-17.76,2.35-25.54,1.48-17.7-1.98-34.55-9.08-48.63-19.95-.02-.02-.05-.02-.08-.04v-76.31h197.73v44.5Z"/>
    </g>
  </g>
  <g>
    <g>
      <path class="cls-1" d="M87,614.68c5.98.43,11.96,1.05,17.94,1.18,2.43.05,5.13-.5,7.27-1.62,3.44-1.79,6.52-4.26,9.74-6.46,2.23-1.51,2.83-3.58,2.29-6.18-1.76-8.44-3.31-16.93-5.19-25.35-1.95-8.71.02-13.73,8.4-16.92,7.94-3.03,16.25-5.1,24.43-7.47,3.88-1.12,7.32.09,9.81,3.14,4.25,5.2,8.24,10.6,12.34,15.93.44.58.9,1.16,1.22,1.81,5.3,10.8,14.82,12.26,25.37,11.53,2.76-.19,4.51-1.48,5.49-4.1,1.62-4.34,3.07-8.78,5.18-12.89,3.22-6.28,6.85-12.35,10.46-18.42,1.52-2.56,4.01-3.32,6.87-2.46,1.56.47,3.18.91,4.58,1.71,6.39,3.63,12.72,7.4,19.07,11.1,3.6,2.1,5.45,5.31,4.74,9.34-1.18,6.68-2.18,13.52-4.47,19.85-2.68,7.37-.95,12.8,4.51,17.8,3.55,3.25,6.91,6.7,10.28,10.14,1.25,1.28,2.42,1.36,4.14.88,9.89-2.72,19.81-5.27,29.74-7.84,4.35-1.13,7.69.46,10.06,4.13,6.1,9.46,9.7,19.92,11.5,30.93.94,5.76-1.76,10.39-7.13,12.86-8.82,4.06-17.74,7.93-26.7,11.67-2.68,1.12-3.95,2.69-4.3,5.57-1.4,11.56-1.31,11.65,8.19,18.4,8.29,5.9,16.37,12.08,24.59,18.07,3.38,2.46,4.81,5.72,4.04,9.71-.73,3.82-1.55,7.68-2.92,11.3-2.19,5.76-4.63,11.46-7.4,16.97-3.38,6.7-6.63,8.17-13.98,6.58-7.9-1.71-15.83-3.4-23.56-5.71-8.45-2.52-13.87,2.25-19.28,7.15-.95.86-1.12,3.07-.94,4.58.39,3.23,1.12,6.44,1.92,9.6,1.88,7.49,3.89,14.94,5.83,22.41,1.62,6.26-.09,11.54-5.95,14.25-8.87,4.1-18.09,7.46-27.23,10.97-3.38,1.3-6.28.13-8.31-2.87-1.83-2.71-3.51-5.51-5.3-8.23-4.13-6.29-8.24-12.6-12.46-18.83-2.58-3.81-6.32-5.94-10.87-6.56-2.7-.37-5.41-.63-8.12-.88-3.31-.3-5.61,1.02-7.4,3.95-4.72,7.75-9.44,15.51-14.61,22.96-5.91,8.52-8.02,9.32-17.56,5.22-7.63-3.28-14.79-7.68-22.04-11.79-3.19-1.8-4.35-4.98-4.4-8.57-.13-8.43,1.08-16.71,3.65-24.69,1.37-4.26.82-7.77-1.81-11.2-2.21-2.88-4.28-5.86-6.45-8.78-1.9-2.56-4.51-3.38-7.48-2.55-2.7.75-5.36,1.7-7.94,2.8-6.01,2.59-11.98,5.25-17.9,8.02-3.48,1.63-6.45,1.08-8.78-1.83-7.7-9.6-13.05-20.32-14.46-32.66-.73-6.41,2.01-11.68,7.3-15.19,5.58-3.71,11.32-7.3,17.35-10.2,5.2-2.51,7.81-6.18,8.22-11.72.02-.27.06-.54.12-.81,1.47-6.29-.38-10.72-6.13-14.38-7.01-4.47-13.32-10.04-19.96-15.11-3.67-2.8-4.93-6.51-3.87-10.85,1.94-7.93,3.92-15.87,6.26-23.69,1.51-5.05,3.05-5.84,8.42-5.9,2.91-.03,5.81,0,8.72.01,1.63,0,3.27,0,4.9,0,0,.06,0,.13,0,.19ZM249.21,763.9c.35-6.46,2.79-11.5,7.65-15.61,6.83-5.78,13.9-8.46,23.02-5.11,7.11,2.61,14.75,3.81,22.19,5.5,3.43.78,6.15-.48,7.58-3.78,2.57-5.91,5.09-11.84,7.49-17.81,1.76-4.38.55-7.79-3.37-10.61-9.43-6.79-18.63-13.9-28.08-20.67-3.27-2.34-5.03-5.14-4.91-9.11.11-3.45.23-6.9.48-10.33.55-7.59,3.72-13.09,11.67-15.14,3.41-.88,6.68-2.37,9.92-3.79,4.66-2.03,9.25-4.23,13.85-6.38,1.87-.87,2.75-2.23,2.14-4.4-2.46-8.68-5.58-17.07-10.33-24.81-2.79-4.53-6.57-6.35-11.73-5.08-8.11,1.99-16.21,4.03-24.3,6.09-.67.17-1.41.58-1.82,1.11-1.48,1.89-2.89,1.44-4.36.07-4.33-4.01-8.66-8.01-12.97-12.04-5.96-5.57-7.3-12.12-4.78-19.86,1.91-5.86,3.22-11.92,4.71-17.91.94-3.78-.14-6.79-3.66-8.78-6.4-3.62-12.77-7.3-19.19-10.89-1.09-.61-2.37-.92-3.57-1.31-2.28-.73-3.87-.07-5.33,1.97-4,5.59-7.01,11.64-9.41,18.06-1.58,4.25-3.14,8.55-5.25,12.55-1.06,2-3.1,4.37-5.09,4.82-6.93,1.58-13.92.84-20.56-1.79-1.5-.6-2.81-2.01-3.87-3.32-1.83-2.25-3.33-4.76-5.08-7.08-4.35-5.81-8.67-11.65-13.19-17.33-1.87-2.35-4.43-3.79-7.67-3.19-8.78,1.64-17.37,3.93-25.43,7.88-3.78,1.85-3.86,2.29-3.06,6.35,1.72,8.73,3.47,17.46,4.93,26.23,1,6.03-1.13,11.17-5.91,14.96-3.41,2.7-7.07,5.09-10.67,7.53-2.58,1.75-5.46,2.16-8.58,1.98-10.52-.63-21.05-1.03-31.56-1.65-2.78-.16-4.21.85-4.82,3.54-.99,4.34-1.99,8.69-3.33,12.92-1.5,4.73-.27,8.21,3.67,11.14,7.28,5.42,14.35,11.12,21.66,16.48,3.23,2.37,4.78,5.14,4.76,9.17-.04,6.44-1.25,12.63-3.25,18.71-1.19,3.62-3.45,6.3-6.81,8.14-4.94,2.7-9.89,5.4-14.7,8.31-2.47,1.49-4.81,3.29-6.9,5.27-.9.85-1.6,2.62-1.4,3.8,1.86,10.64,6.2,20.3,12.63,28.94,2.69,3.62,4.32,3.9,8.54,2.14,6.62-2.76,13.13-5.78,19.73-8.59,2.07-.88,4.25-1.59,6.44-2.11,2.87-.67,5.47.09,7.33,2.46,2.59,3.27,5.1,6.61,7.55,9.98,3.21,4.41,3.68,9.05,2.23,14.43-1.79,6.63-2.69,13.5-3.81,20.29-.63,3.82.94,6.71,4.39,8.57,5.91,3.19,11.71,6.6,17.73,9.56,2.89,1.43,6.16,2.13,9.3,3.01,2.42.68,4.47-.05,6-2.12,3.68-4.95,7.56-9.77,10.98-14.9,1.54-2.32,2.11-5.28,3.24-7.89.56-1.3,1.15-2.78,2.17-3.66,2.8-2.43,6.02-4.07,9.92-3.72,2.98.27,5.97.49,8.95.85,4.64.55,8.55,2.54,11.19,6.49,4.09,6.1,8.08,12.27,12.07,18.44,1.72,2.66,3.21,5.5,5.05,8.07,2.86,3.99,4.42,4.77,9.07,3.05,8.25-3.05,16.3-6.62,24.43-10,2.33-.97,2.9-2.69,2.25-5.1-1.67-6.23-3.27-12.47-4.82-18.73-1.17-4.74-2.21-9.51-3.31-14.27Z"/>
      <g>
        <path class="cls-1" d="M86.5,615.73c5.54.4,11.07.96,16.62,1.14,2.35.08,4.64,0,6.92-.67s4.44-1.95,6.47-3.28,4.14-2.89,6.2-4.34c1.56-1.09,2.78-2.5,3.11-4.43.4-2.33-.53-4.89-.99-7.16-.55-2.73-1.09-5.46-1.63-8.2s-1.09-5.46-1.67-8.19c-.51-2.44-1.16-4.88-1.51-7.35-.42-3.01-.28-6.35,1.64-8.85,2.42-3.16,6.63-4.36,10.22-5.58,5.11-1.73,10.31-3.17,15.5-4.62,2.28-.64,4.81-1.77,7.21-1.69,2.17.07,4.1,1.21,5.51,2.81,3.6,4.05,6.75,8.57,10.03,12.88,1.57,2.06,3.12,4.03,4.38,6.3.95,1.72,2.11,3.33,3.5,4.73,2.5,2.51,5.61,4.25,9.03,5.18s7.2,1.16,10.84,1.05c3.84-.12,7.64-.69,9.39-4.59,1.03-2.28,1.74-4.73,2.63-7.07.95-2.49,2.02-4.93,3.25-7.3,2.53-4.85,5.29-9.58,8.08-14.29,1.02-1.73,2.06-4.63,4.31-5.04,1-.18,2,.13,2.94.42,1.32.4,2.61.82,3.83,1.49,4.95,2.72,9.78,5.66,14.66,8.52,3.67,2.15,8.51,4.19,8.72,9.12.11,2.45-.68,5.08-1.11,7.48-.46,2.6-.95,5.19-1.57,7.76-1.09,4.52-3.39,8.96-3.15,13.7.19,3.85,2.02,7.25,4.65,9.99,1.82,1.89,3.82,3.61,5.69,5.46s3.74,3.8,5.63,5.68c1.47,1.46,3.04,2,5.09,1.6,2.73-.52,5.42-1.44,8.11-2.16,5.39-1.44,10.78-2.85,16.18-4.24,4.2-1.09,9.15-3.43,12.88-.09,1.66,1.49,2.76,3.62,3.85,5.53,1.25,2.19,2.39,4.44,3.4,6.75,2,4.55,3.54,9.28,4.68,14.11.95,4.04,2.39,8.73.62,12.74-1.87,4.25-6.29,5.74-10.23,7.52-5.07,2.29-10.17,4.52-15.29,6.7-2.44,1.04-4.96,1.98-7.36,3.12-1.55.74-2.93,1.82-3.75,3.35-.91,1.7-.96,3.76-1.17,5.63-.17,1.51-.33,3.02-.33,4.54,0,2.19.44,4.24,1.86,5.97,1.9,2.3,4.59,3.97,6.98,5.68,4.55,3.24,9.04,6.55,13.52,9.88,2.22,1.65,4.44,3.3,6.67,4.94,2.11,1.56,4.6,2.98,6.38,4.92,3.36,3.65,2.04,8.21,1.02,12.54-1.25,5.3-3.4,10.36-5.59,15.33-1.07,2.43-2.19,4.84-3.38,7.22-.85,1.69-1.75,3.4-3.08,4.77-2.2,2.27-5.17,2.14-8.08,1.62-5.37-.97-10.72-2.28-16.01-3.59-2.64-.66-5.27-1.37-7.88-2.12-2.24-.65-4.49-1.07-6.83-.88-4.05.33-7.66,2.31-10.8,4.78-1.48,1.17-3.33,2.46-4.48,3.97s-1.08,3.58-.87,5.32c.65,5.37,2.2,10.64,3.56,15.87s2.98,10.82,4.26,16.28c.84,3.56.65,7.5-1.95,10.31-1.54,1.67-3.65,2.49-5.68,3.39-2.47,1.1-4.97,2.15-7.48,3.17-5.1,2.07-10.26,4.01-15.41,5.97-2.1.8-4.08,1.64-6.15.29s-3.16-3.71-4.4-5.66c-2.99-4.7-6.04-9.35-9.1-13.99-1.53-2.32-3.06-4.64-4.61-6.94-1.33-1.99-2.59-4-4.38-5.62-3.29-2.97-7.37-3.85-11.65-4.34s-8.91-1.56-12.43,1.35c-1.68,1.39-2.69,3.33-3.81,5.16-1.45,2.38-2.91,4.77-4.38,7.14-2.88,4.62-5.81,9.22-8.94,13.68-1.55,2.22-3.48,5.51-6.22,6.42s-6.21-.91-8.64-1.94c-4.89-2.08-9.56-4.62-14.18-7.25-2.37-1.35-4.73-2.72-7.1-4.07-1.89-1.07-3.41-2.25-4.21-4.34s-.76-4.37-.72-6.59c.05-2.73.24-5.46.57-8.17s.78-5.21,1.37-7.78,1.49-4.98,2.08-7.51c.47-2.03.5-4.19-.11-6.2-.7-2.31-2.2-4.14-3.61-6.04-1.6-2.15-3.13-4.35-4.73-6.5-1.21-1.62-2.65-2.93-4.66-3.44s-4.13-.07-6.15.55c-2.51.77-4.96,1.7-7.38,2.74-5.03,2.17-10.04,4.4-15.01,6.7-2.04.94-4.3,2.39-6.61,1.54-2.09-.78-3.42-3.02-4.68-4.73-5.55-7.52-9.74-16.01-11.56-25.22-.85-4.32-1.35-8.72.71-12.79s6.32-6.52,10.16-8.95c2.3-1.46,4.63-2.86,7.01-4.18,2.19-1.22,4.51-2.23,6.68-3.48,3.22-1.86,5.79-4.55,6.92-8.14.59-1.87.75-3.85,1.07-5.78s.36-3.75-.06-5.56c-.85-3.68-3.59-6.35-6.65-8.35-4.41-2.88-8.56-6.08-12.68-9.36-2.03-1.62-4.05-3.24-6.09-4.83-1.81-1.4-3.56-2.8-4.44-4.98-.76-1.89-.75-3.91-.31-5.87.59-2.67,1.3-5.31,1.97-7.96,1.37-5.41,2.71-10.88,4.42-16.19.39-1.21.85-2.72,1.87-3.57.88-.73,2.15-.79,3.24-.85,5.06-.3,10.19-.04,15.25-.04l-1.34-.94v.19c.02,1.51,2.96,1.06,2.94-.23v-.19c-.01-.75-.7-.94-1.34-.94-5.21,0-10.54-.36-15.74.07-3.02.25-5.54,1.38-6.89,4.21-.95,1.99-1.44,4.24-2.04,6.35-.78,2.73-1.52,5.48-2.23,8.23s-1.41,5.51-2.09,8.27c-.56,2.27-1.34,4.58-1.24,6.94.08,1.92.65,3.74,1.73,5.33,1.29,1.91,3.23,3.21,5.02,4.61,4.21,3.3,8.32,6.73,12.64,9.88,3.49,2.55,8.02,4.59,10.2,8.51.89,1.6,1.26,3.45,1.2,5.27-.06,2.02-.47,4.14-.84,6.13-.74,3.97-3.23,6.87-6.78,8.68-4.85,2.47-9.56,5.1-14.15,8.03-3.82,2.44-7.61,4.82-9.88,8.89-2.08,3.73-2.15,7.81-1.53,11.93,1.42,9.38,5.31,18.19,10.66,25.97,2.28,3.32,4.84,7.77,9.33,8.03,2.36.13,4.42-.8,6.51-1.77,2.56-1.19,5.14-2.36,7.72-3.52,5.03-2.25,10.06-4.66,15.35-6.23,2.22-.66,4.24-.74,6.03.97s3.26,4.32,4.78,6.4,3.36,4.03,4.25,6.44c.8,2.17.74,4.45.16,6.67-.69,2.62-1.55,5.17-2.14,7.81s-1,5.18-1.29,7.8-.47,5.45-.49,8.18c-.02,2.14,0,4.34.77,6.37,1.69,4.44,6.58,6.21,10.42,8.41,4.59,2.63,9.22,5.21,14.03,7.42,3.27,1.49,6.93,3.29,10.61,3.3,2.85.01,5.19-1.4,7.11-3.41,3.13-3.29,5.54-7.38,8.01-11.17,3.05-4.68,5.98-9.43,8.89-14.2,1.13-1.85,2.16-4.2,4.16-5.26s4.49-.36,6.54-.15c4.6.47,9.15.94,12.64,4.31,1.83,1.77,3.12,4.07,4.53,6.17,1.59,2.38,3.17,4.78,4.75,7.17,3.09,4.7,6.13,9.44,9.19,14.16,1.19,1.83,2.35,3.73,4.31,4.81,1.73.96,3.75,1.14,5.67.7,2.54-.58,5.02-1.82,7.45-2.74,2.62-1,5.23-1.99,7.83-3.02s5.19-2.07,7.77-3.16c2.38-1.01,4.89-1.96,7.13-3.27,3.18-1.88,5.41-4.9,5.88-8.6.24-1.91.04-3.89-.4-5.76-.65-2.75-1.42-5.47-2.14-8.2-1.43-5.44-2.9-10.88-4.22-16.35-.63-2.63-1.3-5.35-1.51-8.05-.07-.9-.06-1.95.26-2.81.35-.95,1.43-1.63,2.17-2.28,3.09-2.69,6.57-5.38,10.81-5.66,2.52-.17,4.85.64,7.24,1.31,2.71.76,5.43,1.45,8.16,2.1,5.09,1.22,10.28,2.65,15.47,3.36,3.18.43,6.51.15,9.13-1.87,3.2-2.48,4.84-6.62,6.49-10.17,2.3-4.93,4.58-10,6.21-15.2.76-2.44,1.34-4.93,1.84-7.44.43-2.15.81-4.26.21-6.42-1.27-4.61-6.08-7.07-9.65-9.72-4.59-3.4-9.16-6.82-13.77-10.19-3.51-2.56-7.22-4.94-10.56-7.73-1.7-1.42-2.99-3-3.28-5.26-.17-1.31-.05-2.66.06-3.96.16-1.89.24-3.93.71-5.76.52-2.03,1.93-2.94,3.77-3.71,2.6-1.1,5.21-2.19,7.81-3.3,5.2-2.23,10.37-4.5,15.52-6.84,3.82-1.74,7.57-3.49,9.65-7.36s1.29-7.98.45-12.05c-1.99-9.62-5.5-19.4-11.11-27.53-2.26-3.28-5.85-5.03-9.83-4.45-2.65.38-5.27,1.27-7.86,1.94-2.79.72-5.57,1.45-8.36,2.17s-5.57,1.46-8.35,2.21c-1.3.35-2.61.7-3.91,1.05-1.2.33-2.74,1.07-4,.98-1.12-.08-1.95-1.28-2.67-2.02-1.02-1.04-2.05-2.09-3.08-3.12-1.89-1.89-3.81-3.76-5.77-5.58-3.01-2.8-5.53-6.16-5.76-10.42-.12-2.21.34-4.44,1.06-6.52.86-2.48,1.61-4.98,2.21-7.54s1.12-5.34,1.59-8.02c.41-2.35,1.13-4.83.95-7.23-.34-4.58-3.93-6.85-7.53-8.96-4.95-2.9-9.9-5.82-14.88-8.67-3.63-2.08-8.59-4.64-12.77-2.58-2.03,1-3.03,2.88-4.14,4.75-1.44,2.43-2.88,4.86-4.29,7.31-2.75,4.77-5.47,9.58-7.49,14.71-.97,2.47-1.79,4.99-2.77,7.46-.71,1.81-1.79,2.98-3.78,3.19-3.74.4-7.74.31-11.41-.53s-6.87-2.53-9.36-5.23c-1.42-1.54-2.53-3.29-3.49-5.14-1.17-2.24-3.01-4.21-4.53-6.21-1.71-2.25-3.42-4.5-5.16-6.73-1.61-2.07-3.16-4.37-5.08-6.17-1.45-1.36-3.22-2.28-5.17-2.63-2.28-.4-4.42.14-6.61.77-5.35,1.53-10.74,2.96-16.04,4.65-4.23,1.35-8.94,2.6-12.52,5.35-2.43,1.86-4.06,4.43-4.51,7.47-.62,4.15.68,8.34,1.53,12.35,1.19,5.63,2.27,11.27,3.41,16.91.44,2.2,1.58,5.03.64,7.23-.42.98-1.19,1.55-2.03,2.14-1.07.75-2.13,1.5-3.19,2.26-2.04,1.45-4.12,2.97-6.41,4.01s-4.68,1.18-7.13,1.09c-5.46-.19-10.91-.74-16.36-1.13-.67-.05-1.6.2-1.89.88-.27.64.24,1.16.88,1.21Z"/>
        <path class="cls-1" d="M250.67,763.79c.24-3.98,1.31-7.88,3.69-11.14s5.94-6.07,9.6-7.9,7.47-2.38,11.42-1.64c2.36.44,4.58,1.41,6.87,2.11,2.48.76,5,1.39,7.52,1.96s4.84,1.05,7.26,1.55c2.17.46,4.43,1.21,6.67,1.21,1.71,0,3.41-.51,4.78-1.55,1.6-1.22,2.38-2.95,3.16-4.74,2.09-4.82,4.14-9.66,6.12-14.53,1.46-3.58,2.54-7.14.12-10.59-1.2-1.71-2.96-2.88-4.63-4.09-2.11-1.53-4.22-3.08-6.31-4.64-4.26-3.16-8.51-6.34-12.78-9.5-2.03-1.5-4.07-2.99-6.12-4.47-1.74-1.25-3.44-2.47-4.57-4.34-1.06-1.74-1.26-3.68-1.19-5.67.08-2.54.17-5.09.32-7.63.21-3.59.58-7.18,2.45-10.34,1.76-2.96,4.7-4.73,7.95-5.62,4.83-1.33,9.41-3.46,13.96-5.52,2.39-1.09,4.77-2.2,7.15-3.32,1.82-.85,4.16-1.55,5.47-3.17,1.21-1.49.94-3.15.44-4.87-.69-2.38-1.43-4.75-2.25-7.09-1.56-4.46-3.41-8.83-5.63-13.01-1.83-3.45-3.8-7.22-7.49-8.98s-7.77-.61-11.63.34c-5.21,1.29-10.42,2.59-15.63,3.91-1.24.31-2.48.63-3.72.94-1.1.28-2.22.5-3.19,1.13-.41.26-.73.57-1.07.92-.37.39-.41.65-.92.49-1.03-.32-2.02-1.67-2.78-2.37-3.9-3.61-7.94-7.13-11.7-10.89-2.79-2.79-4.75-6.25-5.16-10.22-.47-4.47,1.25-8.62,2.43-12.84.7-2.49,1.32-5,1.93-7.52.58-2.37,1.35-4.78,1.7-7.19.59-4.03-1.53-6.86-4.9-8.77-4.61-2.61-9.21-5.25-13.82-7.87-2.11-1.19-4.22-2.64-6.52-3.45-1.8-.63-3.74-1.31-5.66-.84s-3.19,1.9-4.29,3.48c-1.38,1.99-2.67,4.05-3.85,6.18-2.35,4.23-4.18,8.68-5.87,13.2-.88,2.36-1.77,4.71-2.79,7.01-.92,2.09-1.85,4.29-3.39,6-1.68,1.87-3.81,2.1-6.23,2.32s-4.79.17-7.17-.15c-2.57-.34-5.09-1-7.52-1.89s-3.85-2.69-5.32-4.67c-3.05-4.12-5.97-8.33-9.05-12.43-1.57-2.09-3.15-4.18-4.75-6.25-1.47-1.91-2.86-4.03-4.63-5.68-1.35-1.26-2.98-2.1-4.81-2.37-2.18-.32-4.41.33-6.53.77-4.81,1-9.59,2.25-14.22,3.9-2.3.82-4.57,1.72-6.78,2.74-1.51.7-3.21,1.38-4.49,2.48-2.45,2.1-.88,5.97-.36,8.6,1.03,5.2,2.05,10.41,3.01,15.63.83,4.51,2.31,9.41,1.18,13.99-1.05,4.25-4.14,7.02-7.53,9.52-2.01,1.48-4.09,2.89-6.16,4.28s-3.81,2.64-6.24,2.98-4.97-.02-7.41-.15c-2.63-.14-5.26-.28-7.89-.41-5.35-.26-10.69-.51-16.04-.81-3.4-.19-7.79-.91-9.56,2.85-.93,1.97-1.16,4.38-1.66,6.48-.62,2.55-1.28,5.09-2.06,7.6-1.1,3.57-1.1,7.16,1.43,10.13,1.42,1.67,3.32,2.89,5.05,4.21,2.08,1.57,4.14,3.16,6.2,4.75,4.12,3.18,8.24,6.37,12.43,9.46,1.62,1.2,3.12,2.55,3.97,4.42s.89,3.8.82,5.77c-.17,5-1.05,9.95-2.44,14.75-.61,2.09-1.26,4.21-2.55,6-1.16,1.62-2.7,2.86-4.43,3.82-4.57,2.52-9.16,5-13.63,7.68-2.04,1.22-4,2.51-5.84,4.01-1.58,1.29-3.23,2.58-3.89,4.59s.08,4,.52,5.9c.51,2.2,1.14,4.37,1.88,6.5,1.45,4.18,3.32,8.23,5.54,12.06,1.17,2.02,2.44,3.98,3.8,5.88,1.01,1.4,2.07,2.97,3.57,3.89,3.11,1.9,6.84-.08,9.79-1.34,4.84-2.06,9.62-4.23,14.44-6.33,2.28-1,4.56-2.01,6.95-2.73,2.1-.63,4.27-1.27,6.3-.1s3.34,3.55,4.7,5.34c1.57,2.06,3.14,4.12,4.64,6.22,2.6,3.66,3.35,7.81,2.49,12.19-.49,2.5-1.23,4.95-1.74,7.45s-.93,5-1.34,7.51-.87,4.95-1.18,7.43c-.22,1.73,0,3.48.8,5.04s2.14,2.79,3.65,3.68c2.15,1.27,4.39,2.41,6.58,3.63,4.38,2.43,8.79,5.17,13.46,7.01,2.25.88,4.6,1.45,6.93,2.08,1.91.52,3.76.76,5.64-.03,2-.84,3.14-2.54,4.4-4.21,1.52-2.01,3.05-4.01,4.57-6.02s3-4.04,4.42-6.12c1.28-1.88,2.18-3.77,2.91-5.92.68-1.99,1.31-4.45,2.67-6.11,1.24-1.51,3.39-2.72,5.23-3.27,2.29-.68,4.64-.26,6.97-.06s4.84.32,7.19.82c1.87.4,3.67,1.14,5.23,2.25,1.82,1.29,3.05,2.99,4.27,4.83,2.94,4.41,5.83,8.85,8.71,13.29,1.4,2.16,2.81,4.3,4.13,6.51,1.23,2.06,2.44,4.15,3.89,6.07,1.95,2.58,4.17,4.13,7.51,3.53,2.18-.39,4.27-1.35,6.32-2.14,2.4-.93,4.78-1.9,7.16-2.88,4.72-1.95,9.54-3.81,14.18-5.97,1.46-.68,2.72-1.79,3.07-3.43.42-1.97-.53-4.15-1.03-6.03-2.62-9.89-4.98-19.83-7.27-29.8-.31-1.33-3.21-.57-2.9.78,2.32,10.05,4.7,20.07,7.34,30.05.43,1.61,1.69,4.23.66,5.84-.49.76-1.44,1.02-2.23,1.35-1.23.51-2.45,1.03-3.67,1.55-4.59,1.94-9.17,3.9-13.8,5.75-2.28.91-4.58,1.92-6.93,2.62-1.27.38-2.47.57-3.62-.22-1.42-.99-2.46-2.66-3.4-4.08-1.36-2.05-2.55-4.21-3.86-6.29-2.77-4.39-5.64-8.73-8.49-13.06-2.38-3.62-4.52-7.8-8.25-10.22-3.53-2.29-7.61-2.69-11.71-3.06-4.5-.41-8.78-1.02-12.92,1.26-1.69.93-3.52,2.12-4.61,3.75s-1.82,3.73-2.47,5.65c-.77,2.25-1.63,4.25-2.98,6.21s-2.82,3.97-4.29,5.91-3.05,4.01-4.57,6.02c-1.12,1.49-2.2,3.46-4.34,3.27-1.1-.1-2.2-.53-3.26-.81-1.21-.32-2.41-.66-3.59-1.05-2.41-.8-4.64-1.98-6.87-3.16-4.42-2.33-8.75-4.82-13.14-7.2-1.63-.89-3.2-1.89-4.09-3.59-.93-1.79-.74-3.67-.43-5.59.8-4.94,1.51-9.9,2.56-14.79.93-4.32,2.43-8.49,1.61-12.97s-3.95-8.02-6.62-11.55c-2.47-3.27-4.84-7.58-9.34-8.02-2.19-.22-4.38.44-6.45,1.1-2.32.74-4.54,1.72-6.77,2.69-4.67,2.03-9.3,4.13-13.98,6.13-1.71.73-3.71,1.93-5.61,2-1.35.05-2.34-1.03-3.13-2-2.77-3.38-5.08-7.26-7.04-11.15s-3.66-8.32-4.83-12.71c-.26-.99-.5-1.99-.72-2.99s-.63-2.23-.49-3.3c.3-2.21,2.57-3.64,4.19-4.88,3.93-3.01,8.43-5.31,12.75-7.7,3.71-2.05,7.86-3.78,10.48-7.27s3.52-7.96,4.39-12.05c.92-4.34,1.78-9.29,1.09-13.72-.63-4.05-3.46-6.41-6.57-8.72-4.11-3.06-8.16-6.21-12.21-9.33-2.06-1.59-4.13-3.18-6.21-4.74-1.64-1.23-3.33-2.38-4.44-4.15-2.35-3.72-.27-7.95.75-11.75.64-2.39,1.21-4.8,1.76-7.21.29-1.28.47-3.42,2.04-3.77.93-.21,1.98-.01,2.92.04,1.36.08,2.71.15,4.07.22,2.63.14,5.26.27,7.89.4,5.18.25,10.35.5,15.53.79,2.25.13,4.5.32,6.73-.04s4.14-1.22,6-2.46c6.73-4.51,15.55-9.12,16.79-17.99.27-1.93.12-3.86-.2-5.78-.43-2.62-.9-5.23-1.38-7.83-.95-5.13-1.96-10.25-2.97-15.37-.33-1.66-1.03-3.66-.87-5.38.1-1.04.99-1.41,1.83-1.85,4.23-2.2,8.75-3.86,13.32-5.2,2.36-.69,4.75-1.3,7.15-1.84,2.14-.48,4.71-1.39,6.92-1.13,1.88.23,3.38,1.45,4.54,2.87,1.61,1.95,3.13,3.99,4.66,6,3.16,4.14,6.37,8.26,9.38,12.51,2.56,3.61,4.89,8.18,9.26,9.82,4.46,1.67,9.2,2.53,13.97,2.43,2.32-.05,4.76-.28,7.01-.89,1.89-.51,3.44-1.8,4.65-3.3,2.88-3.55,4.38-8.39,5.97-12.61,1.67-4.46,3.43-8.86,5.71-13.05,1.17-2.15,2.44-4.25,3.84-6.26.51-.73,1.03-1.64,1.81-2.11s1.6-.19,2.42.05c2.42.74,4.49,1.94,6.69,3.18s4.46,2.53,6.69,3.8,4.6,2.63,6.91,3.94c1.74.99,3.62,1.87,4.66,3.68.92,1.59.88,3.46.48,5.21-.56,2.5-1.21,5-1.82,7.49s-1.22,4.86-1.91,7.26c-.63,2.17-1.43,4.31-1.85,6.54-.71,3.71-.44,7.6,1.18,11.05,1.86,3.96,5.15,6.7,8.29,9.62,1.85,1.72,3.71,3.44,5.56,5.16.93.86,1.86,1.72,2.78,2.58.82.76,1.61,1.62,2.64,2.08,1.75.78,3.56.16,4.85-1.16.88-.9,1.7-1.04,2.92-1.36,1.32-.34,2.64-.67,3.97-1.01,5.04-1.28,10.08-2.54,15.13-3.79,3.82-.95,7.55-2.12,10.91.63,1.59,1.3,2.65,3.1,3.67,4.86,1.2,2.07,2.3,4.19,3.29,6.37,1.97,4.29,3.58,8.73,4.97,13.23.47,1.53,1.94,4.37.68,5.82-.59.68-1.61.97-2.4,1.34-1.23.58-2.45,1.15-3.68,1.73-4.66,2.18-9.34,4.4-14.14,6.28-3.65,1.43-7.55,2-10.76,4.41-6.29,4.72-6.38,12.69-6.66,19.84-.15,4.02-.4,7.84,2.4,11.07,1.36,1.57,3.11,2.71,4.78,3.92,2.11,1.53,4.22,3.08,6.32,4.63,4.13,3.06,8.24,6.14,12.37,9.2,2.03,1.5,4.07,3,6.11,4.48,1.66,1.2,3.38,2.39,4.34,4.27.8,1.58.85,3.36.4,5.05-.62,2.33-1.79,4.61-2.71,6.84-1.01,2.43-2.03,4.85-3.07,7.26-.88,2.06-1.58,4.55-2.93,6.35-1.04,1.38-2.47,1.83-4.15,1.58-2.32-.34-4.63-.99-6.92-1.47-4.96-1.04-9.94-2.1-14.74-3.77-3.9-1.36-7.84-2.28-11.99-1.68-3.93.57-7.55,2.24-10.79,4.5s-5.9,4.72-7.91,7.93-2.96,6.96-3.2,10.72c-.09,1.49,2.85,1.08,2.93-.23Z"/>
      </g>
    </g>
    <g>
      <path class="cls-1" d="M199.24,740.89c-.97-1.63-2.15-3.18-2.88-4.91-4.41-10.45-8.73-20.94-13.03-31.43-1.27-3.11-1.39-3.19-4.56-2.05-7.25,2.62-14.51,5.24-21.8,7.75-1.91.66-2.84,1.67-2.8,3.73.18,7.98.33,15.97.36,23.96,0,1.23-.64,2.47-.98,3.7-1.06-.99-2.44-1.8-3.09-3.01-.69-1.29-.88-2.95-.97-4.46-.36-5.98-.66-11.96-.84-17.95-.07-2.34-.82-3.16-3.16-2.39-1.37.46-2.81.83-4.24.9-2.35.12-3.33-1.61-3.83-3.55-.52-1.99,1.13-2.44,2.46-2.96,1.78-.69,3.55-1.47,5.4-1.85,2.9-.6,3.55-2.29,3.67-5.05.64-14.69,1.47-29.37,2.28-44.05.13-2.35.41-4.71.81-7.03.52-3.03,2.1-3.77,4.57-1.94,2.17,1.6,4.16,3.51,5.97,5.53,7.95,8.88,12.72,19.58,17.11,30.47.92,2.27,1.89,4.52,2.75,6.82.68,1.84,1.81,2.27,3.62,1.63,3.51-1.25,7.06-2.37,10.57-3.61,2.03-.72,3.63-.4,4.47,1.7.84,2.1-.6,2.96-2.22,3.63-3.28,1.35-6.52,2.79-9.84,3.99-2.38.86-3,2-2.05,4.49,4.32,11.27,8.48,22.6,12.67,33.92.41,1.11.6,2.3.89,3.45-.44.2-.87.39-1.31.59ZM158.55,654.33c-.48.28-.96.56-1.44.84-.2.93-.52,1.85-.59,2.79-.31,4.16-.61,8.33-.8,12.5-.43,9.79-.8,19.59-1.17,29.38-.06,1.64-.06,3.34,2.47,2.5,6.64-2.2,13.26-4.42,19.92-6.55,2.05-.66,2.48-1.77,1.66-3.7-2.37-5.6-4.3-11.42-7.09-16.8-3.07-5.93-6.89-11.47-10.4-17.16-.8-1.3-1.71-2.53-2.57-3.79Z"/>
      <g>
        <path class="cls-1" d="M200.57,740.25c-.94-1.54-2.02-3.01-2.76-4.66-.8-1.8-1.53-3.64-2.29-5.46-1.46-3.49-2.91-6.98-4.36-10.47s-2.95-7.14-4.42-10.71c-.7-1.71-1.39-3.42-2.1-5.12-.36-.86-.7-1.93-1.46-2.53-1.69-1.34-4.36.1-6.06.71-3.63,1.31-7.26,2.62-10.89,3.91-1.78.63-3.56,1.26-5.34,1.89s-3.54,1.08-5.19,1.84c-.99.45-1.93,1.13-2.47,2.11-.73,1.32-.51,2.89-.48,4.33.09,4.33.18,8.65.23,12.98.03,2.16.05,4.33.07,6.49,0,1.09.12,2.24-.07,3.32-.17.98-.61,1.92-.9,2.88l2.59-.94c-1.49-1.34-2.9-2.23-3.38-4.31s-.45-4.48-.57-6.69c-.26-4.68-.34-9.38-.61-14.06-.07-1.22-.34-2.51-1.58-3.03-1.5-.63-3.09.1-4.54.5-1.61.44-3.42.94-4.44-.71-.34-.55-.73-1.43-.75-2.08-.02-.75.48-.88,1.09-1.12,1.78-.72,3.58-1.47,5.45-1.91,1.47-.35,2.93-.89,3.89-2.12.87-1.11,1.1-2.53,1.19-3.9.14-2.28.2-4.57.31-6.85.45-9.49.96-18.97,1.48-28.46.25-4.61.34-9.26.97-13.84.13-.93.22-1.9.48-2.81.1-.33.3-.62.4-.93.09-.27-.03-.12-.05-.12.72.04,1.49.76,2.02,1.17.94.72,1.84,1.5,2.7,2.32,6.03,5.75,10.52,13.05,14.14,20.5,1.8,3.71,3.41,7.51,4.96,11.32.87,2.15,1.78,4.29,2.63,6.45.55,1.4.97,3.09,2.52,3.7,1.66.65,3.37-.12,4.94-.67,2.22-.77,4.45-1.5,6.67-2.26,1.2-.41,3.39-1.75,4.5-.59.47.49.99,1.57.71,2.25-.27.64-1.22.9-1.8,1.14-2.15.9-4.3,1.82-6.47,2.69-1.67.67-3.65,1.11-5.09,2.23-1.05.82-1.5,1.96-1.32,3.28.28,1.97,1.37,3.97,2.07,5.82,3.37,8.89,6.66,17.81,9.96,26.73.77,2.08,1.4,4.09,1.92,6.24l.81-1.23c-.44.2-.87.39-1.31.59-.54.24-1.09.9-.69,1.48s1.42.46,1.97.21c.44-.2.87-.39,1.31-.59s.94-.69.81-1.23c-1.13-4.69-3-9.16-4.67-13.69s-3.45-9.3-5.19-13.95c-.87-2.32-1.75-4.64-2.63-6.96-.4-1.04-.84-2.07-1.19-3.13-.2-.61-.48-1.46-.11-2.06.31-.5,1.05-.69,1.56-.88,1.18-.45,2.36-.89,3.52-1.36,2.19-.89,4.39-1.76,6.54-2.73,1.31-.59,2.81-1.53,2.99-3.1s-.81-3.2-2.13-3.89c-1.52-.79-3.24-.41-4.77.12-2.29.8-4.6,1.56-6.9,2.34-1.07.36-2.13.77-3.21,1.11-.75.24-1.14.32-1.6-.39-.55-.85-.82-1.98-1.2-2.92-.49-1.21-.99-2.42-1.49-3.63-1.66-4.05-3.31-8.11-5.18-12.07-3.65-7.73-8.08-15.26-14.13-21.37-1.5-1.51-3.11-3.08-4.92-4.22-1.25-.79-2.72-1.19-4.14-.62s-2.11,1.85-2.46,3.28c-.54,2.22-.72,4.59-.88,6.86-.67,9.87-1.11,19.77-1.61,29.66-.25,4.95-.47,9.9-.7,14.85-.06,1.25-.06,3.01-1.25,3.78-.66.43-1.55.48-2.29.69-1.12.32-2.2.74-3.28,1.16-1.35.53-3.11.95-4.12,2.09-1.08,1.21-.7,2.79-.08,4.13,1.76,3.81,6.02,2.78,9.28,1.79.53-.16.84-.36,1.14.03.45.59.3,1.81.32,2.49.08,2.49.18,4.99.3,7.48s.25,4.99.39,7.48c.12,2.1.06,4.4.93,6.37.74,1.68,2.28,2.63,3.6,3.82.81.73,2.32-.06,2.59-.94.5-1.65.98-2.95.97-4.7s-.03-3.66-.05-5.49c-.04-3.49-.1-6.99-.16-10.48-.03-1.75-.07-3.49-.11-5.24-.02-1.13-.36-2.86.52-3.78s2.7-1.18,3.82-1.57c1.7-.59,3.41-1.19,5.11-1.8,3.25-1.15,6.49-2.32,9.73-3.49,1.61-.58,3.21-1.18,4.82-1.74.27-.09,1-.48,1.26-.38-.15-.06-.11.03,0,.15.65.7.94,1.97,1.3,2.83.69,1.67,1.37,3.35,2.06,5.02,1.34,3.27,2.69,6.54,4.04,9.8,1.51,3.65,3.03,7.29,4.55,10.93.75,1.79,1.44,3.62,2.28,5.37.77,1.6,1.81,3.05,2.73,4.56.67,1.1,3.43.02,2.65-1.27Z"/>
        <path class="cls-1" d="M157.92,653.48c-.66.38-1.67.74-2.1,1.39-.51.77-.66,2.29-.75,3.19-.24,2.23-.33,4.49-.48,6.73-.29,4.49-.46,8.99-.65,13.49s-.37,9.13-.54,13.7c-.09,2.32-.18,4.65-.26,6.97-.04,1.15-.32,2.77.42,3.78.8,1.11,2.4.97,3.55.65,2.17-.6,4.3-1.42,6.44-2.13,4.24-1.41,8.49-2.81,12.74-4.18,1.41-.46,3.19-.93,3.9-2.39s-.12-2.94-.67-4.28c-1.63-3.97-3.08-8.01-4.84-11.93-1.94-4.35-4.34-8.46-6.87-12.49s-5.18-8.27-7.94-12.29c-.73-1.07-3.5.04-2.65,1.27,4.27,6.24,8.47,12.67,12.1,19.31,1.82,3.34,3.31,6.83,4.71,10.37.63,1.6,1.25,3.2,1.89,4.8.35.87.7,1.74,1.06,2.6.23.56.77,1.51.51,2.15-.21.51-.8.6-1.27.76-.92.31-1.86.6-2.78.9-1.85.6-3.71,1.21-5.56,1.82-3.69,1.22-7.37,2.65-11.11,3.68-.51.14-.61.35-.67-.2-.06-.49-.08-.94-.06-1.43.06-1.99.15-3.98.22-5.98.15-3.98.3-7.97.46-11.95.18-4.46.34-8.92.57-13.38s.27-9.03,1.29-13.36l-.83.96c.48-.28.96-.56,1.44-.84,1.69-.99.15-2.52-1.28-1.69Z"/>
      </g>
    </g>
    <g>
      <path class="cls-1" d="M221.63,732.95c-1.32-.81-2.93-1.37-3.92-2.48-2-2.26-1.35-3.87,1.6-4.62,2.55-.65,5.12-1.25,7.69-1.81,1.91-.41,2.53-1.47,2.06-3.36-6.56-26.13-7.14-53.03-10.21-79.61-.4-3.44-.61-3.68-4.06-3.05-4.11.76-8.2,1.67-12.34,2.1-1.35.14-3.27-.59-4.17-1.6-2.17-2.45-1.48-4.21,1.69-5.07,2.01-.54,4.07-.97,6.14-1.22,7.66-.96,15.32-1.88,23-2.66,1.11-.11,2.61.28,3.41,1,1.94,1.77,1.3,3.68-1.25,4.25-2.21.5-4.45.89-6.69,1.29-1.84.33-2.52,1.15-2.27,3.19,2.34,18.74,4.52,37.49,6.84,56.23,1,8.11,2.25,16.19,3.33,24.28.28,2.11,1.28,2.82,3.34,2.3,3.96-1,7.95-1.89,11.91-2.89,1.91-.48,3.42-.17,4.35,1.71.77,1.56.48,2.75-1.09,3.66-4.04,2.35-24.32,7.87-29.37,8.33Z"/>
      <path class="cls-1" d="M222.78,732.22c-1.09-.64-2.36-1.11-3.32-1.94-.64-.56-1.73-1.78-1.38-2.74.32-.86,1.66-.95,2.41-1.14,1.6-.4,3.2-.78,4.8-1.14,1.85-.42,4.65-.73,5.28-2.93.28-.99-.05-2.01-.29-2.97-.38-1.56-.75-3.13-1.09-4.71-2.66-12.14-4.17-24.5-5.37-36.86s-2.06-24.76-3.51-37.1c-.14-1.21-.17-2.91-1.43-3.53-1.62-.81-4.09.04-5.72.35-3.02.58-6.04,1.19-9.1,1.59-1.31.17-2.31.23-3.5-.44-.9-.5-1.8-1.5-2.01-2.54-.17-.85.23-1.34.99-1.67,1.37-.59,3.03-.83,4.5-1.08,3.05-.53,6.16-.81,9.24-1.18,3.26-.39,6.52-.77,9.79-1.13,1.47-.16,2.94-.32,4.41-.47s2.87-.3,3.99.84c.59.61,1.14,1.71.3,2.35-.41.32-1.15.36-1.65.47-.9.19-1.8.37-2.71.54-1.96.36-4.94.4-6.15,2.32-.43.68-.47,1.47-.41,2.25.11,1.6.39,3.2.59,4.79.41,3.29.81,6.58,1.21,9.86,1.54,12.66,3.04,25.33,4.59,37.99.78,6.34,1.64,12.68,2.53,19,.44,3.07.78,6.17,1.28,9.23.33,2.03,1.56,3.11,3.66,2.93,1.25-.1,2.5-.52,3.72-.82,1.59-.39,3.18-.76,4.77-1.14s3.02-.73,4.53-1.1c1.06-.26,1.88-.2,2.59.72.59.76,1.11,2.07.36,2.9-.47.52-.68.5-1.34.8-1.13.51-2.3.93-3.46,1.33-6.85,2.37-13.94,4.32-21.04,5.76-.99.2-1.99.39-3,.49-.53.05-1.56.39-1.63,1.03s.81.74,1.27.7c2.93-.28,5.86-1.06,8.71-1.76,3.95-.97,7.87-2.05,11.76-3.24,3.01-.92,6.14-1.82,8.98-3.19,1.44-.7,3.08-1.73,3.04-3.53-.05-2.22-1.97-3.84-4.08-3.93-1.2-.05-2.37.3-3.53.58-1.67.41-3.34.81-5.01,1.2s-3.18.76-4.77,1.15c-1.07.27-1.87.63-2.38-.59s-.47-2.72-.64-3.99c-.24-1.78-.5-3.56-.75-5.34-.46-3.24-.92-6.47-1.36-9.71-1.83-13.43-3.33-26.9-4.95-40.36-.81-6.74-1.63-13.48-2.47-20.22-.12-.93-.7-2.72-.1-3.58.21-.3.4-.3.77-.38.86-.18,1.73-.31,2.59-.47,2.32-.43,6.03-.56,7.45-2.81,1.17-1.85-.6-3.85-2.29-4.52-1.19-.47-2.39-.5-3.64-.38-1.72.16-3.43.36-5.14.55-6.56.72-13.25,1.25-19.75,2.43-2.43.44-5.75.8-7.56,2.7-1.39,1.46-.64,3.36.58,4.67,1.7,1.83,4.2,2.04,6.52,1.74,3.24-.41,6.44-1.07,9.65-1.68.97-.19,2.27-.68,3.27-.55.45.06.53.26.68.72.32.96.34,2.07.45,3.07.2,1.75.39,3.5.57,5.26.66,6.46,1.22,12.93,1.79,19.4,1.14,13.01,2.34,26.03,4.57,38.9.58,3.32,1.22,6.63,1.95,9.93.33,1.49.68,2.98,1.05,4.47.18.74.72,2.2-.13,2.74-.48.31-1.42.35-1.96.47-.8.18-1.61.36-2.41.55-1.58.37-3.21.68-4.74,1.22-1.65.58-3.6,1.87-2.96,3.89.76,2.39,3.29,3.31,5.25,4.45.88.52,3.53-.74,2.29-1.47Z"/>
    </g>
  </g>
</svg>