<?xml version="1.0" encoding="UTF-8"?>
<svg id="Layer_1" xmlns="http://www.w3.org/2000/svg" viewBox="0 0 699 1080">
  <defs>
    <style>
      .cls-1 {
        fill: #112a46;
      }
    </style>
  </defs>
  <path class="cls-1" d="M151.45,415.09c-2.92,31.33-3.1,62.83-2.34,94.26.38,15.93,1.01,31.85,1.63,47.77.15,3.89.3,7.78.45,11.67.13,3.44.15,6.91.49,10.34.63,6.53,3.3,12.8,9.7,15.51,3.44,1.46,7.04,2.07,10.74,2.45s7.74.72,11.61,1.02c7.71.6,15.44,1.04,23.17,1.32,16,.59,32.03.51,48.03-.2,7.81-.35,15.61-.85,23.4-1.52s18.17-.79,22.9-8.41c1.69-2.71,1.93-5.98,2.17-9.08.15-1.89.28-3.78.41-5.67.28-4.31.51-8.62.71-12.94.89-19.81,1.15-39.64,1.2-59.46s-.14-38.24-.61-57.35c-.18-7.31-.4-14.61-.71-21.92-.18-4.13-.33-8.27-.76-12.38-.12-1.17-.23-2.11-.87-3.13-3.35-5.37-10.56-6.92-16.37-7.54-8.06-.86-16.31-.7-24.4-.64-19.83.13-39.68,1.02-59.44,2.72-8.47.73-16.93,1.6-25.33,2.9-6.42,1-13.07,2.04-19.11,4.55-2.41,1-4.78,2.43-6.24,4.65-1.68,2.56,1.45,4.42,3.66,4.52,3.08.14,6.61-1,8.37-3.69.37-.56-1.08,1.29-.55.71.08-.09.19-.16.26-.25-.16.2-1.52,1.1-.76.64.16-.1.33-.2.48-.31.56-.39-1.91.97-.94.52.18-.08.36-.18.54-.26.41-.19.84-.35,1.26-.51,1.01-.4-2.02.68-.95.34.26-.08.51-.17.77-.25.56-.18,1.13-.34,1.7-.49,1.26-.34,2.53-.64,3.81-.91.69-.15,1.38-.29,2.07-.42.2-.04.39-.07.59-.11.99-.19-1.93.35-.93.17.41-.07.83-.15,1.24-.22,1.7-.3,3.41-.56,5.11-.82,3.95-.58,7.9-1.06,11.87-1.5,18.86-2.06,37.84-3.11,56.8-3.6,1.11-.03,2.21-.05,3.32-.08.5-.01.99-.02,1.49-.03-2.35.05.17,0,.73-.01,2.19-.03,4.39-.06,6.58-.07,4.01-.02,8.02,0,12.02.1s7.77.15,11.62.59c.36.04.72.1,1.08.14,1.28.15-1.28-.27-.02,0,.59.12,1.18.24,1.76.39.69.18,1.35.4,2.03.63,1.13.37-.96-.51.08.04.35.19.71.35,1.06.55.24.14.49.29.72.44.17.12,1.04.82.19.08.52.44.99.92,1.42,1.46.14.18.27.37.41.56.58.79-.31-.18-.28-.6,0,.04.05.1.05.15.25,2.6.59,5.19.74,7.82s.26,5.01.37,7.52c.03.73.06,1.47.09,2.2.01.37.03.73.04,1.1.03.79-.04-1.04,0-.24,0,.28.02.55.03.83.06,1.67.12,3.35.17,5.02.54,17.46.79,34.93.87,52.4.09,19.87-.04,39.76-.63,59.62-.26,8.73-.61,17.45-1.15,26.17-.12,1.96-.26,3.92-.4,5.89-.19,2.52-.22,5.18-1.05,7.58.27-.77.05-.14-.04,0-.16.27-.32.81-.58,1,1.14-.83-.34-.08-.2.11l.58-.47c-.19.14-.39.28-.6.4.39-.57,1.16-.66.29-.21-.79.4,1.73-.48.45-.15-.36.09-.72.19-1.09.28-.7.14-.49.11.62-.11-.25.04-.5.08-.75.11-3.55.49-7.15.71-10.72,1-7.55.62-15.11,1.08-22.67,1.4-3.78.16-7.57.28-11.35.36-.49.01-.99.02-1.48.03,1.58-.03-.09,0-.35,0-.82.01-1.65.02-2.47.03-1.98.02-3.95.04-5.93.04-15.31.02-30.62-.58-45.88-1.79-3.67-.29-7.35-.59-11.02-.98-.72-.08-1.69-.04-2.37-.3,1.02.39.68.13.27.04s-.78-.15-1.16-.24c-.77-.18-1.51-.42-2.26-.66-1.18-.37.61.34-.05-.02-.39-.22-.81-.39-1.2-.62-.33-.2-.65-.42-.97-.63-.96-.64.45.56-.29-.26-.41-.45-.83-.87-1.2-1.35-.22-.29-.42-.58-.61-.89-.07-.11-.58-1.14-.2-.32-.31-.66-.58-1.33-.81-2.02-.92-2.8-1.19-5.78-1.33-8.7-.74-15.04-1.2-30.07-1.7-44.96-1.04-30.6-1.57-61.26.11-91.86.41-7.44.95-14.87,1.64-22.28.28-2.96-3.41-3.71-5.69-3.42-1.67.21-3.44.69-4.82,1.7-.97.71-2.21,1.73-2.33,3.03h0Z"/>
  <path class="cls-1" d="M186.19,450.12c1.39,26.25,3.21,52.48,5.46,78.68.63,7.33,1.29,14.66,1.99,21.99.12,1.22,1.72,2.23,2.7,2.58,1.45.53,3.4.51,4.85.07,2.89-.87,5.52-2.82,5.21-6.07-1.22-12.84-2.34-25.69-3.35-38.55-.51-6.43-.99-12.86-1.44-19.3-.1-1.48-.21-2.97-.31-4.45s-.17-2.55-.3-4.47c-.21-3.22-.42-6.44-.62-9.65-.45-7.26-.87-14.53-1.25-21.79-.07-1.38-.35-2.35-1.54-3.19s-2.97-1.13-4.35-.98c-1.68.18-3.47.67-4.8,1.76-.95.77-2.31,2.05-2.23,3.39h0Z"/>
  <path class="cls-1" d="M223.85,450.17v97.43c0,3.02,3.15,4.08,5.79,3.78,1.68-.19,3.45-.68,4.81-1.73.95-.73,2.29-1.89,2.29-3.2v-97.43c0-3.02-3.15-4.08-5.79-3.78-1.68.19-3.45.68-4.81,1.73-.95.73-2.29,1.89-2.29,3.2h0Z"/>
  <path class="cls-1" d="M255.62,450.56c-.82,12.71-1.05,25.46-1.31,38.2-.29,13.91-.51,27.83-1.12,41.73-.29,6.58-.64,12.9-1.3,19.55-.25,2.54,3.66,2.27,5.31,1.99s3.38-.73,4.85-1.58c.8-.46,2.42-1.3,2.52-2.33,1.25-12.67,1.63-25.42,1.97-38.14.37-13.91.54-27.83.94-41.75.1-3.47.21-6.93.35-10.4.13-3.23.28-6.33.47-9.19.06-.99-.19-1.43-1.18-1.82-1.18-.47-2.93-.37-4.13-.17-1.66.28-3.38.73-4.85,1.58-.78.45-2.45,1.32-2.52,2.33h0Z"/>
  <path class="cls-1" d="M167.86,594.82c.43,7.05.81,14.1,1.28,21.15.34,5.14.89,10.37,2.58,15.27,1.82,5.25,5.04,9.71,9.94,12.42,5.71,3.16,12.61,3.36,18.98,3.42,14.37.16,28.74.23,43.11.35,3.65.03,7.3.06,10.94.09,3.3.03,6.64.18,9.94-.02,7.87-.49,16.32-3.03,20.19-10.46,1.42-2.72,2-5.81,2.48-8.81.63-3.95,1.13-7.93,1.51-11.91.77-8.06,1.07-16.17.89-24.27-.02-.91-1.84-1.3-2.37-1.38-1.49-.22-3.3.02-4.72.43-1.99.57-5.73,1.77-5.67,4.37.15,6.69-.02,13.38-.57,20.05-.51,6.21-1.06,12.63-2.54,18.7-.3,1.21-.66,2.4-1.14,3.55-.21.5-.44,1-.71,1.48.34-.59-.28.4-.29.41-.21.29-.43.58-.66.85-.14.16-.99.91-.16.22-.19.16-.38.31-.57.46-.97.79.75-.34.04-.02-.37.17-1.28.58.25-.09-1.24.55,1.29-.33.4-.11-.29.07-.67.12-.94.24,1.32-.6,1.08-.22.38-.11-.19.03-.39.06-.59.08-.66.07-.52.06.41-.03-.07-.14-3.4.1-3.78.1-1.69,0-3.38-.03-5.07-.04-3.48-.03-6.96-.06-10.45-.08-13.6-.11-27.19-.22-40.79-.33-1.57-.01-3.15-.02-4.72-.04-.69,0-1.39-.02-2.08-.04-.28,0-.56-.02-.84-.03-.61-.03-.56-.02.15,0-.28-.02-.56-.03-.83-.06-1.31-.1-2.62-.24-3.92-.47-.34-.06-.67-.13-1.01-.19-1.26-.25.48.18-.25-.06s-1.43-.42-2.13-.69c-4.26-1.63-7.47-5.19-9.3-9.45-2.2-5.13-2.87-10.81-3.27-16.33-.53-7.34-.9-14.7-1.34-22.04-.06-.92-1.81-1.29-2.37-1.38-1.49-.22-3.3.02-4.72.43-1.91.55-5.82,1.8-5.67,4.37h0Z"/>
  <path class="cls-1" d="M197.58,647.88c5.57,16.59,10.88,33.26,16.19,49.94,4.8,15.08,9.62,30.15,14.8,45.1,3.06,8.85,6.25,17.65,9.57,26.41.59,1.55,2.46,1.63,3.85,1.74,17.45,1.31,35.1,2.56,52.49-.11,1.94-.3,3.8-.9,5.42-2.03.88-.62,2.29-1.74,1.88-3.03-4.76-15.06-9.62-30.09-14.35-45.16-5.02-15.99-9.89-32.03-14.42-48.16-2.71-9.64-5.29-19.32-7.74-29.03-.25-1.01-1.58-1.45-2.44-1.62-1.48-.29-3.32-.08-4.75.33s-3.12,1.01-4.28,2.09c-.71.66-1.57,1.54-1.3,2.62,4.27,16.93,8.96,33.74,13.95,50.47,4.66,15.62,9.58,31.15,14.53,46.68,2.68,8.4,5.37,16.8,8.03,25.21l7.3-5.05c-2.09.32-4.18.59-6.28.79-1.02.1-2.04.18-3.05.26-1.42.12,1.03-.05-.28.02-.63.04-1.26.07-1.89.1-4.13.2-8.28.23-12.41.14-8.47-.17-16.92-.8-25.36-1.43l3.85,1.74c-5.78-15.21-11.11-30.58-16.18-46.04s-9.86-30.79-14.8-46.19c-3.13-9.76-6.32-19.5-9.58-29.22-.84-2.5-5.33-1.82-7.18-1.29-1.49.43-3.12,1.01-4.28,2.09-.67.62-1.65,1.59-1.3,2.62h0Z"/>
  <path class="cls-1" d="M301.87,418c21.71-9.35,43.46-18.61,65.08-28.16,21.66-9.56,43.19-19.41,64.42-29.91,12.25-6.06,24.4-12.33,36.41-18.84l-10.4-1.33c-.31,37.87-1.03,75.74-1.82,113.61-.79,37.58-1.64,75.17-2.24,112.76-.34,21.39-.59,42.79-.7,64.19-.01,2.84,3.28,3.31,5.58,2.99,1.67-.23,3.42-.7,4.83-1.66.87-.59,2.38-1.64,2.39-2.82.19-37.91.83-75.81,1.6-113.7.76-37.58,1.64-75.15,2.3-112.73.38-21.37.68-42.74.85-64.12.02-1.95-1.38-2.72-3.25-2.96-2.53-.33-4.95.44-7.16,1.63-2.62,1.42-5.25,2.83-7.89,4.23-.66.35-1.32.7-1.98,1.05-.25.13-.49.26-.74.39-.15.08-1.19.62-.52.27s-.37.19-.52.27c-.25.13-.5.26-.74.39-.83.43-1.65.86-2.48,1.29-5.12,2.65-10.26,5.26-15.43,7.84-10.56,5.26-21.2,10.36-31.89,15.33-21.3,9.91-42.83,19.35-64.4,28.67-12.15,5.24-24.31,10.45-36.46,15.68-1.75.75-5.25,3.16-3.34,5.38s6.31,1.21,8.49.27h0Z"/>
  <path class="cls-1" d="M292.94,585.41c11.21,2.34,22.34,5.08,33.39,8.09,2.79.76,5.57,1.54,8.35,2.33,1.39.4,2.78.8,4.17,1.2.31.09.62.18.93.27-.62-.18.15.04.23.07.77.23,1.55.46,2.32.69,5.57,1.66,11.12,3.37,16.66,5.13,22.07,6.99,43.93,14.63,65.85,22.1,5.2,1.77,10.42,3.48,15.54,5.49,4.72,1.86,9.4,3.85,14.18,5.55,2.84,1.01,6.5.33,9.02-1.26.95-.6,2.18-1.4,2.45-2.58.22-.94-.36-1.82-1.26-2.14-4.23-1.51-8.38-3.25-12.56-4.91-4.4-1.75-8.85-3.31-13.34-4.83-10.97-3.72-21.92-7.51-32.88-11.24-22.3-7.59-44.68-14.97-67.36-21.32-12.5-3.5-25.09-6.66-37.8-9.31-2.86-.6-6.87.41-9.03,2.42-.7.65-1.59,1.55-1.3,2.62s1.54,1.44,2.44,1.62h0Z"/>
  <path class="cls-1" d="M452.9,630.57c.05,7.42,3.42,16.09,11.16,18.46,8.64,2.65,20.06-1.75,22.42-10.98.88-3.44.69-7.26.8-10.81s.21-7.3.31-10.95c.29-10.71.56-21.42.83-32.12.35-14.1.7-28.2,1.04-42.3.38-15.94.76-31.87,1.12-47.81s.73-32.39,1.08-48.58c.33-15.04.64-30.09.94-45.13.24-12.31.48-24.63.67-36.94.13-8.04.26-16.08.29-24.12.01-2.52,0-5.03-.88-7.42-1.19-3.23-3.61-5.73-6.83-6.96-4.12-1.58-8.99-1.17-13.14.05-4.43,1.3-8.85,3.63-11.7,7.38-2.41,3.17-3.37,6.79-3.33,10.72,0,.9,1.86,1.29,2.37,1.37,1.49.22,3.3-.03,4.72-.44,2-.58,5.7-1.76,5.67-4.35-.01-1.45.27-3.28.89-4.95.26-.69.58-1.36.94-2-.45.81.19-.24.32-.43.26-.35.53-.69.82-1.02.11-.12.98-1,.38-.42s.36-.29.53-.42c.24-.18.62-.36.81-.58-.7.83-1.01.59-.55.37.21-.1.45-.23.65-.35.65-.39-1.58.69-.34.18,1.35-.57-1.67.43-.42.13,1.42-.34-.86.13-.57.1.19-.02.39-.05.58-.09.89-.17-1.47.02-.78.07.28.02.77.04,1.04-.01-.04,0-1.45-.16-.71-.02.15.03.31.03.45.05s.3.06.45.07c.7.06-.45-.05-.48-.12.02.09.96.3,1.08.34.28.11.55.26.83.36.67.25-.4-.38-.12-.07.1.1.27.16.38.25.6.44,1.17.9,1.67,1.46.22.24.42.5.61.76.07.09.31.46,0-.02.09.14.18.29.26.44.38.73.71,1.47.95,2.26.5,1.64.65,3.35.66,5.06.01,7.17-.12,14.35-.23,21.52-.17,11.34-.38,22.69-.6,34.03-.27,14.19-.57,28.38-.87,42.57-.33,15.56-.68,31.13-1.03,46.69s-.71,31.22-1.08,46.83c-.34,14.33-.68,28.66-1.04,42.99-.29,11.57-.58,23.14-.88,34.71-.2,7.49-.39,14.99-.62,22.48-.03,1.07-.06,2.14-.1,3.22-.06,1.43-.27,2.93-.67,4.34-.21.74-.48,1.46-.81,2.15-.1.2-.2.39-.31.59-.23.45.37-.54.08-.14-.25.33-.46.67-.73.98-.22.25-.91.68-.3.35.73-.4-.29.08-.44.3-.03.04,1.28-.82.63-.41-.11.07-.27.12-.38.2,1.19-.86,1.39-.61.87-.41-.95.36,1.85-.54.87-.28-.74.2,2.01-.33.69-.15-.62.08,1.87-.08.44-.08-.61,0,1.36.17.76.03-.17-.04-.36-.05-.54-.07-1.08-.12.79.3-.04,0-.62-.22-1.21-.47-1.81-.73-.56-.24.1.05.19.11-.13-.09-.28-.17-.41-.26-.34-.24-.68-.47-1.01-.74-.58-.47-1.11-.99-1.61-1.55-.28-.31-.54-.63-.79-.96-.11-.15-.22-.31-.33-.46-.35-.5.13.25-.21-.34-2.01-3.46-2.8-7.39-2.83-11.37,0-.9-1.86-1.29-2.37-1.37-1.49-.22-3.3.03-4.72.44-2.01.58-5.69,1.76-5.67,4.35h0Z"/>
  <path class="cls-1" d="M159.21,422.85c-20.85,1.09-42.25,3.74-61.08,13.37-16.99,8.69-29.99,23.58-35.92,41.75-5.62,17.21-6.05,36.52-1.96,54.11,1.98,8.49,5.11,16.8,9.78,24.19,5.12,8.09,12,14.65,19.94,19.98,18.34,12.3,40.5,16.43,62.27,16.18,2.72-.03,5.43-.14,8.14-.3s6.63-.93,8.48-3.28-1.55-3.07-3.25-2.97c-5.33.32-10.65.38-15.98.19-.84-.03,1.32.07,0,0-.27-.01-.53-.03-.8-.04-.66-.04-1.32-.08-1.99-.13-1.32-.1-2.63-.21-3.94-.35-2.6-.27-5.2-.62-7.77-1.07-1.15-.2-2.3-.42-3.44-.65-.63-.13-1.26-.27-1.9-.41.85.19.18.04,0,0-.38-.09-.75-.18-1.13-.27-2.49-.62-4.96-1.34-7.39-2.16-4.74-1.6-9.32-3.6-13.73-5.96-.3-.16-.59-.32-1.21-.68-.5-.29-1-.59-1.5-.89-1.16-.71-2.31-1.45-3.44-2.22-2.07-1.41-4.07-2.91-6-4.51-3.5-2.89-6.79-6.05-9.6-9.63-2.54-3.23-4.36-6.19-6.26-9.98s-3.44-7.69-4.71-11.71c-5.28-16.77-5.92-35-2-51.99.94-4.07,2.16-8.09,3.71-11.97.76-1.92,1.61-3.8,2.54-5.64.41-.81.84-1.61,1.28-2.41.09-.16.85-1.46.43-.76.28-.47.58-.94.87-1.4,2.56-4.01,5.51-7.78,8.85-11.17.36-.37.73-.74,1.11-1.1.25-.24.5-.48.75-.71-.1.1-.71.65-.1.1.85-.76,1.7-1.51,2.58-2.22,1.74-1.42,3.55-2.75,5.43-3.98.19-.12.38-.24.56-.37-1.21.82-.5.32-.19.13.43-.26.86-.52,1.29-.78,1.01-.6,2.03-1.17,3.07-1.71.94-.49,1.89-.96,2.85-1.42.36-.17,1.05-.41-.54.25.26-.11.51-.23.77-.35.56-.25,1.13-.5,1.7-.73.99-.41,1.99-.81,2.99-1.18.48-.18.96-.35,1.44-.52.52-.19,2.93-.94.59-.22,2.09-.64,4.18-1.28,6.3-1.82,1.13-.29,2.26-.56,3.4-.82.46-.1.92-.19,1.38-.3-2.35.55.17-.03.71-.13,2.29-.44,4.59-.83,6.9-1.16s4.71-.64,7.07-.89c.61-.07,1.23-.13,1.84-.19.25-.02.49-.05.74-.07.16-.02,1.4-.14.31-.03s.16-.01.32-.03c.25-.02.5-.04.74-.06.75-.06,1.49-.12,2.24-.18,2.39-.18,4.78-.32,7.17-.45,2.8-.15,6.64-.94,8.48-3.28s-1.56-3.06-3.25-2.97h0Z"/>
  <path class="cls-1" d="M596.38,324.08c15.64-7.14,31.28-14.28,46.92-21.42,4.46-2.03,8.92-4.07,13.37-6.1,1.22-.56,2.68-1.49,3.36-2.72.5-.9.66-2.18-.12-3.01-2.04-2.19-6.14-1.57-8.54-.47-15.64,7.14-31.28,14.28-46.92,21.42-4.46,2.03-8.92,4.07-13.37,6.1-1.22.56-2.68,1.49-3.36,2.72-.5.9-.66,2.18.12,3.01,2.04,2.19,6.14,1.57,8.54.47h0Z"/>
  <path class="cls-1" d="M604.83,439.26c4.09-.19,8.17-.45,12.25-.74,2.49-.18,4.97-.36,7.46-.55.97-.07,1.94-.15,2.92-.22.49-.04.97-.07,1.46-.11.32-.02.65-.05.97-.07-.72.05-.85.06-.39.03,7.93-.57,15.87-1.09,23.83-1.1,2.79,0,6.73-.97,8.46-3.37s-1.5-3.32-3.34-3.31c-7.95.01-15.9.52-23.83,1.1-2.39.18-4.79.36-7.18.54-.97.07-1.95.15-2.92.22-1.44.11.97-.07-.35.03-.57.04-1.14.08-1.71.12-4.16.3-8.32.57-12.49.76-2.83.13-6.68.9-8.46,3.37s1.46,3.4,3.34,3.31h0Z"/>
  <path class="cls-1" d="M600.27,561.08c18.15,3.12,36.29,6.24,54.44,9.36,2.75.47,7.14-1.08,8.35-3.78,1.33-2.97-1.19-4.44-3.76-4.88-18.15-3.12-36.29-6.24-54.44-9.36-2.75-.47-7.14,1.08-8.35,3.78-1.33,2.97,1.19,4.44,3.76,4.88h0Z"/>
  <path class="cls-1" d="M589.42,661.92c7.92,2.91,15.52,6.65,22.67,11.14.87.54,1.73,1.1,2.59,1.67q1.11.74,2.21,1.51c1.74,1.22,3.44,2.49,5.11,3.81,3.35,2.63,6.57,5.43,9.64,8.39,3.48,3.35,6.75,6.9,9.82,10.63.71.86,2.45,1.07,3.44,1.09,1.61.04,3.53-.34,5-1,1.65-.74,5.26-2.84,3.42-5.06-11.08-13.43-24.97-24.58-40.48-32.5-4.3-2.19-8.72-4.12-13.25-5.79-2.85-1.05-6.5-.44-9.03,1.21-.97.63-2.17,1.46-2.43,2.67-.21.96.37,1.91,1.29,2.25h0Z"/>
  <path class="cls-1" d="M187.11,609.88c5.17-4.14,10.35-8.28,15.52-12.42.74-.59,1.52-1.8,1.25-2.81s-1.55-1.63-2.49-1.81c-3.15-.61-6.56.45-9.03,2.42-5.17,4.14-10.35,8.28-15.52,12.42-.74.59-1.52,1.8-1.25,2.81s1.55,1.63,2.49,1.81c3.15.61,6.56-.45,9.03-2.42h0Z"/>
  <path class="cls-1" d="M188.7,624.62c11.04-7.9,21.28-16.86,30.67-26.66,2.05-2.14,1-5.48-1.71-6.38-3.23-1.08-6.72.02-9.03,2.42-1.16,1.21-2.32,2.4-3.51,3.58-.54.54-1.08,1.07-1.62,1.6-.27.27-.54.53-.82.79-.48.46-.58.61-.05.05-2.24,2.35-4.81,4.46-7.26,6.58-4.88,4.22-9.96,8.21-15.21,11.96-2.18,1.56-3.25,5.07-.64,6.79,2.79,1.83,6.58,1.13,9.17-.72h0Z"/>
  <path class="cls-1" d="M192.16,631.86c16.07-8.66,31.9-17.75,47.46-27.28,4.46-2.73,8.89-5.5,13.3-8.3.42-.26,1.72-1.07,1.51-1.83s-1.74-.82-2.23-.83c-2.96-.05-6.5.82-9.03,2.42-15.41,9.78-31.09,19.13-47.02,28.04-4.56,2.55-9.14,5.06-13.74,7.54-.42.23-1.71,1.1-1.51,1.83s1.74.82,2.23.83c3.13.05,6.3-.95,9.03-2.42h0Z"/>
  <path class="cls-1" d="M190,642.04c26.73-6.5,52.77-16.11,77.26-28.64,7.22-3.69,14.33-7.59,21.29-11.74,1.76-1.05,3.77-3.89,1.07-5.18s-6.54-.36-9.05,1.14c-5.7,3.4-11.47,6.82-17.44,9.75,1.49-.73.09-.05-.18.09-.4.21-.81.41-1.21.62-.67.34-1.35.69-2.03,1.02-1.49.75-2.98,1.48-4.48,2.21-3,1.45-6.02,2.86-9.06,4.22-6.08,2.72-12.23,5.27-18.46,7.64-3.11,1.18-6.24,2.32-9.39,3.42-1.51.53,1.46-.5-.05.02-.36.12-.72.24-1.07.37-.79.27-1.58.53-2.37.79-1.58.52-3.17,1.03-4.75,1.53-7.22,2.27-14.52,4.29-21.87,6.08-1.95.47-6.2,2.37-5.49,5.05s5.43,2.07,7.28,1.63h0Z"/>
  <path class="cls-1" d="M215.08,657.92c.32-.17,2.13-.98.51-.27.4-.17.79-.39,1.18-.58.92-.45,1.84-.89,2.76-1.32,1.85-.86,3.72-1.68,5.61-2.46s3.79-1.53,5.7-2.23c.41-.15.82-.3,1.23-.45.3-.11,1.49-.33,1.65-.58l-.84.29c.28-.09.55-.19.83-.28.55-.18,1.11-.36,1.66-.54,1.5-.48,3.08-1.05,4.27-2.13.69-.63,1.55-1.69,1.27-2.73-.68-2.56-5.54-1.98-7.23-1.44-9.17,2.92-17.97,6.58-26.51,11.01-1.76.91-3.8,3.75-1.13,4.93,2.89,1.28,6.42.15,9.03-1.21h0Z"/>
  <path class="cls-1" d="M216.7,673.45c16.84-4.62,32.88-12.08,47.22-22.05,1.95-1.36,3.53-4.48.84-6.02s-6.63-.8-9.11.92c-3.29,2.29-6.68,4.43-10.14,6.45-1.11.65,1.12-.62-.32.18-.45.25-.91.51-1.36.75-.85.46-1.7.92-2.55,1.36-1.78.92-3.57,1.81-5.39,2.66-3.63,1.7-7.33,3.24-11.09,4.63l-.42.15c-.69.25-.56.2.4-.14-.24.23-.92.32-1.26.44-.98.34-1.97.67-2.96.98-1.98.63-3.97,1.22-5.98,1.77-1.49.41-3.14,1.2-4.2,2.37-.72.78-1.51,2.16-1.12,3.29,1,2.87,5.05,2.9,7.44,2.24h0Z"/>
  <path class="cls-1" d="M225.96,688.42c14.18-4.5,28.13-9.69,41.82-15.53,2.36-1.01,4.9-4.41,2.94-6.87-2.12-2.65-5.93-2.31-8.71-1.12-3.28,1.4-6.57,2.76-9.87,4.09-1.67.67-3.34,1.32-5.01,1.97-.73.28-1.45.56-2.18.83-.44.17-.87.34-1.31.49,1.79-.64.22-.08-.09.03-6.63,2.46-13.31,4.74-20.05,6.88-1.55.49-3.11,1.26-4.15,2.56-.76.96-1.42,2.51-1,3.76,1,2.99,4.9,3.77,7.62,2.9h0Z"/>
  <path class="cls-1" d="M212.72,666.82c8.07-.57,15.67-4.01,22.52-8.12,2.92-1.75,5.75-3.62,8.65-5.41,1.44-.89,2.9-1.76,4.39-2.58.46-.25.91-.5,1.37-.74.37-.19,1.55-.71-.06.01.82-.37,1.63-.77,2.47-1.12,1.48-.63,5.4-2.83,3.47-4.88s-6.38-.85-8.41.01c-6.54,2.77-12.35,6.74-18.37,10.44-1.38.85-2.77,1.67-4.18,2.45-.39.22-.79.43-1.19.63-.38.2-1.54.72.08-.02-.69.32-1.37.65-2.07.95-.75.32-1.52.61-2.28.9-.49.17-.23.09.78-.26-.24.08-.48.15-.72.22-.36.11-.72.21-1.09.3s-.74.16-1.1.26c1.9-.55.75-.14.24-.06-.88.15-1.77.24-2.66.3-1.56.11-3.5.82-4.84,1.62-.87.52-2.2,1.48-2.45,2.58-.66,2.81,3.97,2.6,5.44,2.49h0Z"/>
  <path class="cls-1" d="M219.66,659.65c2.29-1.23,4.62-2.38,6.97-3.47.57-.27,1.15-.53,1.73-.79.63-.29.58-.26-.16.07.29-.13.57-.26.86-.38,1.15-.51,2.29-1.02,3.44-1.52,5.02-2.21,10.05-4.44,14.89-7.03,1.29-.69,4.2-3.08,1.39-3.97s-6.51.14-8.97,1.46c-2.29,1.23-4.62,2.38-6.97,3.47-.57.27-1.15.53-1.73.79-.63.29-.58.26.16-.07-.29.13-.57.26-.86.38-1.15.51-2.29,1.02-3.44,1.52-5.02,2.21-10.05,4.44-14.89,7.03-1.29.69-4.2,3.08-1.39,3.97s6.51-.14,8.97-1.46h0Z"/>
  <path class="cls-1" d="M223.03,682.55c14.19-8.04,28.47-15.92,42.85-23.62,1.26-.68,4.22-3.04,1.41-3.91s-6.52.16-8.96,1.48c-14.38,7.7-28.66,15.58-42.85,23.62-.78.44-2.24,1.23-2.55,2.23-.27.87.36,1.44,1.14,1.68,2.7.84,6.58-.12,8.96-1.48h0Z"/>
  <path class="cls-1" d="M229.31,699.5c.9-.49,1.8-.97,2.7-1.46.41-.22.83-.44,1.24-.66.21-.11.41-.22.62-.33-.67.35-.81.42-.4.21,1.72-.89,3.44-1.78,5.16-2.65,3.35-1.68,6.73-3.32,10.14-4.89,6.94-3.21,14-6.18,21.13-8.95,1.18-.46,2.71-1.46,3.39-2.59.5-.83.71-2.02-.06-2.8-2.11-2.13-6.09-1.2-8.49-.27-14.93,5.79-29.4,12.59-43.47,20.23-1.87,1.02-3.68,3.99-1.04,5.27,2.89,1.4,6.43.31,9.06-1.12h0Z"/>
  <path class="cls-1" d="M238.82,711.83c.78-.51,1.55-1.01,2.33-1.52.39-.25.77-.49,1.16-.74.87-.56-.38.24.16-.1,1.46-.91,2.93-1.82,4.4-2.7,2.9-1.73,5.83-3.41,8.8-5.01s5.97-3.15,9.01-4.62c1.48-.72,2.95-1.47,4.46-2.11-1.5.64-.04.02.2-.09.42-.19.84-.38,1.25-.57.85-.38,1.7-.75,2.55-1.12,1.16-.51,5.54-2.52,3.61-4.35-1.8-1.72-6.46-.51-8.33.31-13.82,6.04-27,13.15-39.61,21.42-.61.4-1.62,1.44-1.38,2.32s1.61,1.24,2.36,1.32c3.15.34,6.42-.71,9.03-2.42h0Z"/>
  <path class="cls-1" d="M445.74,348.02c-1.08,19.13-2.02,38.27-2.82,57.41-.8,19.14-1.47,38.29-2,57.45-.53,19.15-.92,38.31-1.18,57.47-.26,19.13-.7,38.32-.31,57.45.34,16.74,3.11,33.13,8.29,49.05.68,2.1,1.4,4.18,2.14,6.25.79,2.22,5.47,1.18,7.04.74s3.1-.95,4.32-1.93c.59-.47,1.73-1.33,1.41-2.23-5.64-15.81-9.31-32.08-10.2-48.87-.49-9.23-.28-18.51-.24-27.75s.12-19.16.23-28.74c.22-19.16.58-38.32,1.07-57.47.5-19.25,1.13-38.5,1.9-57.74.77-19.15,1.68-38.29,2.72-57.42.13-2.37.26-4.74.39-7.1.15-2.58-12.52-.83-12.76,3.42h0Z"/>
  <path class="cls-1" d="M300.64,416.49c.63,13.63.25,27.23-.83,40.83-.55,6.88-1.1,13.75-1.24,20.65-.14,6.69,0,13.38.28,20.07.58,13.64,1.75,27.24,2.37,40.88.3,6.76.47,13.53.36,20.29-.1,6.12-.28,12.33-1.16,18.4-.36,2.44-.88,4.88-1.82,7.16-.41,1.01-.91,1.98-1.48,2.9-.16.25-.33.5-.5.75-.53.79.4-.44-.22.29-.41.48-.81.96-1.25,1.42-.46.48-.95.94-1.45,1.37-.18.15-.35.3-.53.45.83-.69-.4.29-.56.4-1.04.75-2.05,1.52-2.99,2.4-.88.83-1.72,1.69-2.63,2.48-.03.02-.37.37-.45.38.51-.4.58-.47.21-.19-.14.1-.29.2-.43.29.34-.36,1.51-.76,1.83-.88,2.48-1.49,4.75-1.68,6.81-.59-.11-.06-.21-.13-.3-.22-.74-.63-2.44-.55-3.28-.5-1.64.1-3.45.5-4.98,1.1-.92.36-5.58,2.31-3.75,3.85,1.55,1.3,4.23.97,6.02.68,2.63-.43,5.22-1.36,7.48-2.8,2.05-1.3,3.68-3.13,5.46-4.74.11-.1.42-.47.57-.49.05,0-.96.65-.36.31s1.12-.8,1.65-1.21c1.23-.96,2.44-1.95,3.51-3.09,1.63-1.74,3.04-3.77,4.01-5.95,2.03-4.56,2.4-9.76,2.78-14.68.55-7.15.69-14.33.58-21.5-.22-14.22-1.39-28.39-2.22-42.58s-1.19-28.75-.12-43.13c.6-8.04,1.32-16.06,1.58-24.12.27-8.03.2-16.07-.17-24.1-.04-.81-1.88-.99-2.28-1.02-1.5-.12-3.25.17-4.68.58s-3.08.92-4.34,1.84c-.69.5-1.51,1.06-1.46,2.03h0Z"/>
</svg>