<?xml version="1.0" encoding="UTF-8"?>
<svg id="Layer_1" xmlns="http://www.w3.org/2000/svg" viewBox="0 0 1024 1080">
  <defs>
    <style>
      .cls-1 {
        stroke: #112a46;
        stroke-miterlimit: 10;
      }

      .cls-1, .cls-2 {
        fill: #112a46;
      }
    </style>
  </defs>
  <path class="cls-2" d="M345.76,590.07c-18.34,14.4-36.71,28.77-55.1,43.11-31,24.18-62.01,48.35-93.33,72.12-8.98,6.81-18.04,13.49-27.19,20.07-2.17,1.56-3.08,3.16-3.01,5.86.08,3.06.31,6.13.66,9.18.67,5.76,1.83,11.46,3.31,17.06,3.4,12.86,8.51,25.22,14.62,37.02,11.52,22.25,28.04,45.25,50.51,57.49,2.33,1.27,4.72,2.46,7.18,3.47,2.89,1.19,6.58,2.83,9.73,2.61,2.43-.17,4.69-1.54,6.85-2.61,3.25-1.61,6.5-3.24,9.74-4.88,22.17-11.17,44.25-22.52,66.33-33.86,32.48-16.68,64.94-33.42,97.39-50.18,36.75-18.98,73.49-37.98,110.22-57,34.87-18.05,69.73-36.11,104.59-54.19,27.37-14.19,54.75-28.39,82.11-42.59,13.67-7.1,27.35-14.19,41.02-21.29.61-.32,1.22-.64,1.84-.95,2.26-1.18,4.92-3.98,3.01-6.6s-6.23-2.24-8.67-.97c-4.12,2.14-8.23,4.28-12.35,6.41-11.28,5.86-22.56,11.71-33.84,17.56-16.76,8.7-33.52,17.39-50.28,26.08-20.68,10.73-41.37,21.45-62.06,32.17-23.11,11.98-46.23,23.95-69.35,35.92s-47.73,24.7-71.6,37.04c-23.01,11.89-46.02,23.78-69.04,35.65-20.47,10.56-40.94,21.11-61.43,31.64-16.44,8.45-32.88,16.88-49.34,25.28-10.84,5.53-21.69,11.06-32.58,16.49-1.61.8-3.22,1.6-4.83,2.39l6.51-.53c-17.95-4.82-32.24-19.14-43.26-33.63-12.86-16.89-22.78-36.23-28.89-56.56-2.96-9.87-5.15-20.16-5.19-30.5l-2.23,3.41c8.87-5.81,17.25-12.47,25.7-18.87,14.49-10.97,28.9-22.07,43.28-33.19,29.45-22.77,58.81-45.67,88.12-68.62,6.45-5.05,12.89-10.1,19.33-15.15,2.12-1.67,3.27-4.79.68-6.63s-6.8-1.08-9.15.76h0Z"/>
  <path class="cls-2" d="M630.61,370.64c-3.88,3.13-7.76,6.25-11.64,9.37-9.54,7.67-19.1,15.32-28.67,22.96-12.08,9.65-24.18,19.27-36.32,28.85-11.48,9.07-22.99,18.1-34.58,27.03-4.55,3.5-9.11,6.99-13.71,10.42-.23.17-.45.34-.68.51-.41.31,1.03-.76.09-.07-.49.36-.98.73-1.47,1.09-.85.63-1.7,1.25-2.55,1.87-1.44,1.04-2.88,2.07-4.34,3.08-.54.37-1.07.73-1.62,1.09-.44.29-1.71,1.11-1.5,1.88s1.72.87,2.24.88c2.95.08,6.53-.78,9.03-2.42,7.71-5.04,14.98-10.81,22.29-16.41,11.31-8.65,22.51-17.44,33.7-26.25,12.24-9.64,24.44-19.33,36.61-29.05,10.06-8.03,20.11-16.07,30.15-24.13,3.26-2.61,6.51-5.23,9.76-7.85,1.52-1.22,3.11-2.39,4.57-3.68.06-.05.13-.1.19-.15.56-.45.87-1.17.24-1.68-.71-.57-2.48-.46-3.25-.38-2.95.28-6.2,1.15-8.54,3.04h0Z"/>
  <path class="cls-2" d="M172.06,748.79c-2.77,2.5-5.55,5-8.33,7.49-6.61,5.93-13.24,11.85-19.88,17.75-7.96,7.08-15.95,14.15-23.97,21.16-6.82,5.96-13.66,11.92-20.62,17.71-2.22,1.85-4.45,3.69-6.75,5.43-1.35,1.03-3.18,2-3.81,3.64-.7,1.82-.26,4.18-.1,6.07.13,1.45.32,2.9.57,4.33,1.14,6.56,3.34,12.93,6.1,18.98,3.06,6.71,6.72,13.14,11.23,18.98,4.08,5.28,8.89,10.3,14.51,13.95,2.66,1.73,5.56,3.26,8.59,4.23,1.73.55,3.42.94,5.26.63,1.36-.23,2.56-.78,3.79-1.38,1.15-.56,2.3-1.13,3.44-1.7,10.94-5.42,21.83-10.96,32.7-16.51s21.92-11.24,32.87-16.89c6.34-3.27,12.67-6.55,19-9.84.3-.15.6-.31.89-.46,2.21-1.15,5.02-4.22,2.96-6.77s-6.07-2.43-8.7-1.06c-7.5,3.9-15,7.78-22.51,11.65-15,7.74-30.02,15.46-45.09,23.08-7.5,3.8-15.02,7.58-22.57,11.28l6.52-.5c-1.03-.28-2.04-.61-3.03-1.01-.42-.17-.84-.35-1.25-.54-.25-.12-.5-.23-.75-.36-1.29-.64.83.47,0,0-1.96-1.12-3.83-2.35-5.6-3.76-.89-.71-1.75-1.44-2.59-2.21-.23-.21-.46-.43-.69-.64l-.23-.22c-.39-.37-.31-.29.25.24-.16-.45-1.03-1.04-1.36-1.38-1.76-1.85-3.41-3.81-4.96-5.83-3.31-4.32-6.18-8.97-8.65-13.81-.16-.31-.32-.62-.47-.94-.03-.07-.55-1.1-.18-.37s-.14-.3-.17-.37c-.15-.31-.29-.63-.44-.94-.57-1.25-1.12-2.52-1.63-3.79-.96-2.38-1.82-4.8-2.56-7.25-.79-2.61-1.44-5.25-1.91-7.94-.23-1.3-.41-2.6-.53-3.91-.02-.23-.03-.47-.06-.7.23,1.52.02.25,0-.12-.03-.63-.04-1.26-.05-1.89l-2.21,3.49c4.26-2.8,8.12-6.33,12.01-9.61,6.75-5.7,13.41-11.51,20.05-17.33,7.39-6.48,14.75-13,22.1-19.53,6.16-5.48,12.31-10.97,18.44-16.48,2.93-2.63,5.88-5.24,8.78-7.89.04-.04.08-.07.12-.11,1.03-.93,2.06-2.02,2.21-3.49.12-1.26-.52-2.62-1.58-3.32-2.56-1.69-6.86-1.37-9.17.71h0Z"/>
  <path class="cls-2" d="M121.03,800.27c.04,10.92,3.65,21.44,8.37,31.16s11.35,19.36,19.85,26.58c4.13,3.51,9.03,6.52,14.3,7.93,3.04.81,7,.3,9.03-2.42.77-1.03,1.45-2.39,1.01-3.71-.42-1.24-1.43-2.36-2.73-2.7-1.03-.28-2.04-.61-3.03-1.01-.42-.17-.84-.35-1.25-.54-.25-.12-.5-.23-.75-.36-1.29-.64.83.47,0,0-1.96-1.12-3.83-2.35-5.6-3.76-.89-.71-1.75-1.44-2.59-2.21-.23-.21-.46-.43-.69-.64l-.23-.22c-.39-.37-.31-.29.25.24-.16-.45-1.03-1.04-1.36-1.38-1.76-1.85-3.41-3.81-4.96-5.83-3.31-4.32-6.18-8.97-8.65-13.81-.16-.31-.32-.62-.47-.94-.03-.07-.55-1.1-.18-.37s-.14-.3-.17-.37c-.15-.31-.29-.63-.44-.94-.57-1.25-1.12-2.52-1.63-3.79-.96-2.38-1.82-4.8-2.56-7.25-.79-2.61-1.44-5.25-1.91-7.94-.23-1.3-.41-2.6-.53-3.91-.02-.23-.03-.47-.06-.7.23,1.52.02.25,0-.12-.03-.63-.04-1.26-.05-1.89-.01-3.13-3.08-4.66-5.95-4.38-1.68.17-3.48.67-4.8,1.77-1,.84-2.21,2.09-2.21,3.49h0Z"/>
  <path class="cls-2" d="M897.56,347.34c10.01,15.87,18.86,32.46,26.2,49.73,6.53,15.34,11.92,31.22,15.55,47.51,1.61,7.24,2.88,14.56,3.66,21.94.74,6.97,1.02,12.69.78,19.46-.21,5.97-.86,11.95-2.13,17.79-.58,2.65-1.28,5.27-2.14,7.84-.19.58-.4,1.17-.61,1.74-.12.33-.25.67-.37,1-.07.17-.46,1.17-.24.61s-.13.32-.19.46c-.12.27-.24.55-.36.82-.26.58-.53,1.17-.81,1.74-1.08,2.24-2.31,4.4-3.7,6.46-.68,1-1.4,1.96-2.14,2.92-.53.69.68-.79.11-.13-.18.21-.35.42-.53.63-.39.45-.79.89-1.19,1.32-.81.86-1.65,1.68-2.53,2.47-.4.36-.82.72-1.23,1.06-.38.31-1.28.79.19-.14-.26.17-.51.39-.76.57-.91.67-1.85,1.31-2.82,1.91-.47.29-.94.56-1.41.83-.24.14-1.11.61-.05.03s.1-.06-.17.07c-.96.48-1.94.93-2.93,1.33-.46.19-.92.36-1.39.54-1.15.44.62-.34.73-.25-.06-.05-.86.28-.95.31-1,.31-2,.59-3.02.84-.53.13-1.07.24-1.61.35-1,.22,1.74-.3.73-.14-.29.05-.59.1-.88.15-1.11.18-2.22.31-3.33.42-.52.05-1.04.09-1.57.12-.26.02-.53.03-.79.04-.13,0-.26.01-.4.02-.82.04.78-.02.82-.02-2.37-.04-4.72-.03-7.09-.25-.56-.05-1.12-.11-1.68-.18-.28-.03-.56-.07-.84-.1-.24-.03-1.42-.2-.41-.05s-.16-.03-.42-.07c-.29-.05-.57-.09-.86-.14-.63-.11-1.25-.23-1.87-.35-2.58-.51-5.13-1.15-7.65-1.9-1.26-.37-2.51-.77-3.76-1.19-.66-.22-1.32-.45-1.97-.69-.31-.11-.61-.22-.91-.34-1.06-.39.59.24-.19-.07-2.67-1.05-5.31-2.17-7.91-3.39-11.81-5.54-22.82-12.73-33.12-20.71-.39-.3-.01-.01.06.04-.16-.13-.33-.26-.49-.38-.33-.26-.65-.52-.98-.77-.77-.61-1.53-1.22-2.29-1.84-1.37-1.12-2.73-2.25-4.08-3.4-2.88-2.45-5.7-4.97-8.47-7.54-5.76-5.34-11.28-10.93-16.6-16.72-11.42-12.43-21.87-25.75-31.37-39.69-10.52-15.43-19.91-31.64-27.91-48.52-7.38-15.59-13.62-31.75-18.19-48.39-3.91-14.26-6.65-28.94-7.23-43.73-.02-.39-.03-.78-.04-1.17-.02-.45,0-.04,0,.04,0-.19,0-.39-.01-.58-.02-.89-.03-1.78-.03-2.67,0-1.56.03-3.11.08-4.67.11-3.1.35-6.2.72-9.28.68-5.58,1.83-11.13,3.63-16.46.2-.58.4-1.16.62-1.74.11-.29.21-.57.32-.85.15-.39.42-1.03.09-.24.5-1.18,1.01-2.36,1.58-3.51,1.07-2.18,2.29-4.3,3.65-6.31.68-1,1.42-1.95,2.15-2.91.19-.25-.74.87-.11.14.18-.21.36-.42.54-.62.42-.48.85-.95,1.29-1.41.81-.85,1.66-1.67,2.55-2.45.41-.36.82-.7,1.24-1.05.81-.68-.58.44-.29.23.26-.18.5-.38.76-.57.95-.7,1.94-1.36,2.95-1.97.43-.26.86-.5,1.29-.75.88-.5-.18.12-.56.29.3-.14.59-.3.88-.45.92-.46,1.87-.88,2.82-1.27.5-.2,1-.39,1.51-.58.95-.36-1.69.56-.72.25.28-.09.55-.18.83-.27,1.04-.32,2.09-.61,3.15-.86.49-.12.99-.21,1.48-.32.43-.1-1.88.33-.73.14.29-.05.59-.1.88-.15,1.11-.17,2.22-.31,3.34-.41.52-.05,1.05-.08,1.57-.12.31-.02.62-.03.92-.05,1.22-.06-1.34.02-.42.01,2.33-.01,4.64.05,6.96.27.61.06,1.21.12,1.82.2.28.03.56.07.85.11.14.02.28.04.42.06.68.08-1.27-.2-.59-.09,1.25.21,2.49.41,3.73.66,2.53.51,5.03,1.15,7.51,1.88,1.31.39,2.62.81,3.91,1.25.61.21,1.22.42,1.82.64.31.11.61.23.92.34.78.29-.87-.34.19.07,11.63,4.55,22.52,10.84,32.72,18.01,2.82,1.98,5.59,4.03,8.31,6.15-.53-.41.44.35.6.47.33.26.65.52.98.78.71.57,1.42,1.14,2.12,1.71,1.43,1.17,2.84,2.35,4.24,3.55,5.79,4.95,11.36,10.16,16.73,15.58,11.61,11.72,22.27,24.38,32.02,37.68,5.08,6.92,9.9,14.02,14.49,21.28.61.96,2.55,1.28,3.5,1.34,1.61.1,3.56-.27,5.01-.96,2.11-1,4.89-3.03,3.28-5.57-9.43-14.9-19.88-29.17-31.38-42.54-10.42-12.12-21.72-23.53-33.99-33.78-10.73-8.97-22.17-17.19-34.54-23.75-10.26-5.45-21.32-9.94-32.8-11.96-10.5-1.85-21.57-1.89-31.78,1.52-10.54,3.51-19.57,9.89-25.98,19.02-6.37,9.07-9.63,20.17-11.04,31.05-1.76,13.66-.87,27.67,1.31,41.22,2.62,16.3,7.23,32.25,13.04,47.68,6.68,17.74,15.02,34.83,24.51,51.22,9.19,15.87,19.54,31.1,30.99,45.43,10.27,12.85,21.44,25.01,33.6,36.09,10.74,9.78,22.28,18.82,34.71,26.37,10.45,6.35,21.68,11.71,33.51,14.93,10.16,2.77,21.1,3.94,31.53,2.03s20.94-6.69,28.58-14.68c7.6-7.95,12.21-18.19,14.63-28.82,2.9-12.74,2.88-26.1,1.57-39.04-1.59-15.77-5.3-31.29-10.22-46.33-5.68-17.37-13.05-34.19-21.61-50.33-4.57-8.62-9.45-17.06-14.66-25.31-.6-.96-2.55-1.28-3.5-1.34-1.61-.1-3.56.27-5.01.96-2.11,1-4.89,3.03-3.28,5.57Z"/>
  <path class="cls-2" d="M876.34,360.4c4.45,7.06,8.7,14.25,12.7,21.57,1.93,3.53,3.8,7.09,5.61,10.69.43.85.85,1.7,1.27,2.55.21.42.42.85.62,1.27.68,1.39-.39-.83.27.56.87,1.82,1.73,3.64,2.58,5.47,5.92,12.86,11.07,26.1,14.98,39.72,1.72,6,3.2,12.07,4.34,18.2.52,2.81.97,5.64,1.33,8.48.16,1.3.31,2.6.43,3.91.06.64.12,1.27.17,1.91.09,1.12.13.06,0,0,.08.03.07,1.12.08,1.25.27,4.8.24,9.63-.29,14.41-.23,2.04-.55,4.08-.98,6.09-.2.92-.6,1.9-.7,2.82.14-1.33.24-.81.09-.33-.07.22-.14.45-.21.67-.16.51-.34,1.02-.52,1.52-.63,1.72-1.37,3.4-2.26,5-.2.37-.42.73-.63,1.09-.11.18-.23.35-.33.53.9-1.58.55-.84.3-.48-.51.72-1.02,1.43-1.59,2.11-.51.61-1.06,1.19-1.62,1.76-.89.9,1.28-1.15.09-.1-.35.3-.7.6-1.06.88-.62.49-1.28.93-1.94,1.36-.8.53,1.56-.91.76-.47-.16.09-.31.18-.47.27-.37.2-.74.4-1.12.58-.65.32-1.32.58-1.99.86,2.77-1.14.03-.05-.78.17-.72.19-1.45.33-2.18.48,2.93-.61-.06-.02-.9.05-.71.06-1.43.1-2.15.11-.4,0-.8,0-1.2,0-.97,0,1.81.07.84.02-.27-.02-.54-.02-.82-.04-1.77-.11-3.53-.34-5.27-.67-.44-.08-.87-.17-1.31-.26-.22-.05-.44-.1-.66-.15-.96-.21,1.55.39.59.14s-1.96-.51-2.93-.81c-1.97-.6-3.91-1.29-5.81-2.06-2.05-.82-4.06-1.73-6.04-2.71-.4-.2-2.17-1.14-.49-.23-.49-.27-1-.52-1.49-.79-1.1-.59-2.19-1.2-3.27-1.83-9.34-5.42-17.97-12.01-26.09-19.11-2.31-2.02-4.58-4.08-6.81-6.19-.55-.52-1.1-1.04-1.64-1.56.92.9,0,0-.16-.16-.27-.27-.55-.53-.82-.8-1.2-1.17-2.38-2.36-3.56-3.56-4.72-4.81-9.27-9.78-13.67-14.88-9.46-10.99-18.2-22.58-26.28-34.61-9.05-13.47-17.3-27.49-24.58-42-.43-.85-.85-1.7-1.27-2.55-.21-.42-.42-.85-.62-1.27.42.86-.25-.53-.27-.56-.81-1.68-1.6-3.36-2.37-5.05-1.58-3.44-3.11-6.9-4.57-10.39-2.76-6.6-5.3-13.3-7.55-20.09-3.91-11.79-7.04-23.91-8.57-36.26-.15-1.19-.28-2.38-.39-3.58-.06-.64-.12-1.27-.17-1.91-.09-1.12-.13-.06,0,0-.08-.03-.07-1.12-.08-1.25-.14-2.49-.2-4.99-.15-7.48.09-4.45.51-8.91,1.48-13.25.11-.48.22-.95.34-1.42s.74-2,.08-.37c.37-.92.6-1.92.94-2.86.63-1.71,1.39-3.38,2.28-4.97.21-.37.42-.73.64-1.09.23-.39.76-.96-.31.47.12-.16.23-.34.35-.51.5-.72,1.03-1.43,1.6-2.1.52-.61,1.07-1.18,1.63-1.75s-.7.72-.67.64c.03-.11.36-.32.44-.4.35-.3.7-.6,1.06-.88.62-.49,1.28-.93,1.94-1.36.8-.53-1.56.91-.76.47.16-.09.31-.18.47-.27.37-.2.74-.4,1.12-.58.65-.32,1.32-.58,1.99-.86-2.77,1.14-.03.05.78-.17.72-.19,1.45-.33,2.18-.48-2.93.61.06.02.9-.05.78-.07,1.56-.1,2.35-.11.4,0,.8,0,1.2,0-2.58,0-.64-.01-.02.03,1.77.12,3.54.36,5.29.69.44.08.88.17,1.31.27.22.05.44.11.66.15-1.98-.39-1.04-.25-.59-.14.98.26,1.96.52,2.93.82,4,1.23,7.87,2.85,11.62,4.69.4.2,2.17,1.14.49.23.49.27,1,.52,1.49.79,1.1.59,2.19,1.2,3.27,1.83,2.17,1.26,4.31,2.59,6.41,3.97,4.56,3.01,8.96,6.26,13.21,9.69,4.68,3.77,9.19,7.76,13.55,11.89.27.26.55.52.82.78.16.15,1.1,1.03.16.16.51.48,1.01.98,1.5,1.47,1.15,1.13,2.29,2.27,3.42,3.42,2.32,2.36,4.6,4.77,6.85,7.21,9.66,10.52,18.6,21.7,26.9,33.32,4.26,5.98,8.35,12.08,12.28,18.28.71,1.12,2.43,1.72,3.65,1.89,1.59.21,3.61-.11,5.04-.87,2.44-1.29,4.74-3.91,2.98-6.69-8.15-12.88-17.02-25.32-26.66-37.13-8.78-10.76-18.22-20.97-28.36-30.45-8.45-7.9-17.46-15.28-27.21-21.52-7.98-5.09-16.61-9.67-25.77-12.19-8.04-2.21-16.64-3.09-24.76-.75s-15.04,7.79-19.38,15.26-5.81,16.61-6.03,25.16c-.3,11.46,1.41,22.98,4,34.12,3.17,13.6,7.77,26.86,13.16,39.74,6.35,15.14,13.83,29.82,22.15,43.96,8,13.59,16.81,26.72,26.41,39.23,8.56,11.17,17.77,21.87,27.72,31.82,8.78,8.78,18.07,17.1,28.19,24.31,8.17,5.83,16.99,11.07,26.4,14.62,7.69,2.9,16.23,4.78,24.48,3.79,8.44-1.02,16.37-4.7,21.9-11.29s8.07-15.05,9.06-23.4c1.28-10.71.2-21.73-1.71-32.3-2.37-13.14-6.28-25.98-10.99-38.46-5.6-14.84-12.41-29.24-20.02-43.16-3.96-7.25-8.17-14.37-12.58-21.36-.71-1.12-2.43-1.72-3.65-1.89-1.59-.21-3.61.11-5.04.87-2.44,1.29-4.74,3.91-2.98,6.69Z"/>
  <path class="cls-2" d="M732.69,239.07c-9.56,6.22-19.01,12.62-28.38,19.11-15.78,10.92-31.63,22.02-46.19,34.55-5.75,4.95-11.24,10.21-15.4,16.6-4.87,7.48-8,15.96-9.9,24.66-4.83,22.06-2.24,45.29,3.13,67,7.15,28.9,19.69,56.37,34.85,81.9,14.86,25.04,32.44,48.77,53.58,68.88,16.03,15.25,34.46,28.76,55.29,36.63,17.76,6.71,36.59,8.58,55.14,4.13,9.4-2.26,18.27-6.29,26.86-10.66,9.31-4.73,18.33-10.04,27.2-15.53,14.02-8.68,27.75-17.87,41.2-27.42.73-.52,1.47-1.04,2.19-1.57,2.34-1.69-2.09-1.76-2.9-1.66-2.93.35-6.14,1.18-8.57,2.94-2.79,2.02-5.62,4-8.45,5.96-3.09,2.14-6.19,4.27-9.3,6.37-.85.58-1.7,1.15-2.56,1.72-.47.31-.93.63-1.4.94-.21.14-.42.28-.63.42.62-.41-.2.13-.38.25-2.01,1.33-4.02,2.65-6.03,3.97-8.66,5.63-17.43,11.11-26.38,16.26-4.31,2.48-8.67,4.88-13.11,7.15-.53.27-1.07.54-1.6.81-.28.14-1.13.55-.01,0-.23.11-.47.23-.7.34-1.03.5-2.06.99-3.09,1.47-1.94.9-3.9,1.76-5.88,2.57-.21.08-.42.17-.62.25-1.11.46,1.17-.44.4-.15-.45.17-.9.34-1.36.51-.87.32-1.75.61-2.63.9-1.62.54,1.41-.39-.01,0-.47.13-.93.27-1.4.39-.42.11-.83.21-1.25.32-1.66.42,1.5-.3-.18.04-.96.19-1.91.38-2.88.55-.15.03-.53.14-.64.11.03,0,1.6-.22.6-.09-.54.07-1.08.15-1.63.21-.93.11-1.86.2-2.79.28-.28.02-.55.04-.83.06.11,0,1.26-.06.36-.03-.56.02-1.11.05-1.67.07-2.04.06-4.07.02-6.11-.06-.23,0-.46-.02-.69-.04.86.05.23.02.05,0-.52-.04-1.04-.08-1.56-.13-1.11-.1-2.21-.22-3.31-.37-4.33-.57-8.62-1.47-12.82-2.64-19.64-5.46-37.65-16.93-53.21-29.95-20.86-17.46-38.34-38.74-53.32-61.36-16.78-25.33-30.96-52.72-40.33-81.68-7.24-22.37-11.93-46.3-9.9-69.89.79-9.23,2.71-18.41,6.32-26.97,1.64-3.89,3.63-7.64,5.99-11.14,1.14-1.69,2.37-3.32,3.69-4.88.56-.67,1.15-1.32,1.74-1.96.09-.1.4-.41-.03.04.12-.12.23-.24.35-.36.3-.31.6-.62.91-.92,5.71-5.7,12.07-10.77,18.42-15.72,7.71-6,15.6-11.76,23.57-17.42,7.35-5.23,14.78-10.35,22.25-15.41,2.87-1.94,5.75-3.87,8.63-5.8.96-.64-.61.41.18-.12.28-.19.56-.37.84-.56.51-.34,1.02-.68,1.53-1.02.81-.54,1.63-1.07,2.44-1.61.67-.44,1.33-.88,2-1.31.34-.22,1.74-.97,1.55-1.68s-1.79-.67-2.18-.68c-2.84-.01-6.61.85-9.03,2.42h0Z"/>
  <path class="cls-2" d="M820.69,356.52c.9,9.55,1.26,18.44,1.11,28.1s-.81,19.32-2,28.92c-.67,5.4-1.51,10.78-2.51,16.14-.56,3,3.59,3.87,5.75,3.61,2.68-.32,6.55-1.76,7.12-4.83,3.57-19.17,5.05-38.72,4.38-58.21-.2-5.73-.55-11.44-1.09-17.15-.11-1.14-1.72-1.99-2.61-2.26-1.46-.45-3.38-.36-4.82.06-2.63.78-5.63,2.51-5.33,5.62h0Z"/>
  <path class="cls-2" d="M845.2,401.26c1.08,16.1.48,32.28-1.79,48.25-.1.68,2.11.73,2.2.73,1.51.03,3.2-.29,4.65-.7s3.06-.89,4.38-1.72c.7-.44,1.41-.85,1.54-1.73,2.27-15.97,2.87-32.15,1.79-48.25-.05-.71-1.94-.72-2.2-.73-1.51-.03-3.2.29-4.65.7s-3.06.89-4.38,1.72c-.6.38-1.6.89-1.54,1.73h0Z"/>
  <path class="cls-2" d="M821.63,510.84c-.4,3.86-1.93,7.73-3.14,11.38-2.09,6.32-4.37,12.57-6.69,18.81-4.68,12.62-9.57,25.17-14.53,37.69-1.09,2.75-2.18,5.5-3.29,8.25-.37.92.53,1.86,1.27,2.17,1.07.45,2.24.5,3.39.43,2.64-.17,5.99-1.14,7.64-3.38,5.16-7.02,10.32-14.04,15.48-21.06,8.17-11.12,16.34-22.24,24.51-33.35,1.89-2.57,3.78-5.15,5.67-7.72l-12.29.78c-.6,8.43-3.11,16.81-5.48,24.88-2.76,9.39-5.88,18.67-9.15,27.89-1.33,3.75-2.69,7.5-4.07,11.23-.34.93.5,1.85,1.27,2.17,1.07.45,2.24.5,3.39.43,2.5-.16,6.18-1.1,7.64-3.38,3.78-5.95,7.56-11.91,11.34-17.86,6-9.45,12-18.9,18-28.36,1.38-2.18,2.77-4.36,4.15-6.54l-12.29.78c-.77,5.16-1.53,10.31-2.3,15.47-1.22,8.22-2.44,16.43-3.66,24.65-.28,1.88-.56,3.76-.84,5.64-.41,2.74,3.66,2.82,5.46,2.55,2.65-.4,6.17-1.5,7.28-4.23,2-4.94,4-9.88,6.01-14.82,3.21-7.92,6.42-15.84,9.63-23.76.73-1.81,1.46-3.61,2.2-5.42l-12.74,1.68c-1.99,10.79-3.98,21.58-5.97,32.37-.28,1.54-.57,3.09-.85,4.63-.46,2.47,3.04,2.7,4.66,2.6,2.73-.17,5.87-1.17,7.64-3.38,7.08-8.87,14.15-17.73,21.23-26.6,1-1.25,2-2.51,3.01-3.76l-12.29.78c-.41,6.12-.82,12.24-1.23,18.36-.14,2.11,2.11,2.67,3.85,2.65,2.51-.02,5.75-.72,7.61-2.55,5.49-5.42,10.98-10.84,16.46-16.26.78-.77,1.55-1.53,2.33-2.3.66-.65,1.58-1.59,1.29-2.65-.27-1-1.56-1.51-2.45-1.65-2.81-.47-6.91.33-9.03,2.42-5.49,5.42-10.98,10.84-16.46,16.26-.78.77-1.55,1.53-2.33,2.3,3.82.04,7.64.07,11.46.11.41-6.12.82-12.24,1.23-18.36.17-2.47-2.79-2.72-4.66-2.6-2.73.17-5.87,1.17-7.64,3.38-7.08,8.87-14.15,17.73-21.23,26.6-1,1.25-2,2.51-3.01,3.76l12.29-.78c1.99-10.79,3.98-21.58,5.97-32.37.28-1.54.57-3.09.85-4.63.5-2.74-3.74-2.81-5.46-2.55-2.65.4-6.17,1.5-7.28,4.23-2,4.94-4,9.88-6.01,14.82-3.21,7.92-6.42,15.84-9.63,23.76-.73,1.81-1.46,3.61-2.2,5.42l12.74-1.68c.77-5.16,1.53-10.31,2.3-15.47,1.22-8.22,2.44-16.43,3.66-24.65.28-1.88.56-3.76.84-5.64.37-2.48-2.97-2.71-4.66-2.6-2.5.16-6.18,1.1-7.64,3.38-3.78,5.95-7.56,11.91-11.34,17.86-6,9.45-12,18.9-18,28.36-1.38,2.18-2.77,4.36-4.15,6.54l12.29-.78c6.21-16.81,12.35-33.84,16.49-51.3.99-4.17,1.9-8.41,2.2-12.7.18-2.47-2.8-2.72-4.66-2.6-2.64.17-5.99,1.14-7.64,3.38-5.16,7.02-10.32,14.04-15.48,21.06-8.17,11.12-16.34,22.24-24.51,33.35-1.89,2.57-3.78,5.15-5.67,7.72l12.29-.78c3.09-7.68,6.13-15.39,9.13-23.11,5.11-13.15,10.21-26.32,14.73-39.69.92-2.72,1.82-5.45,2.62-8.21.48-1.67,1-3.39,1.18-5.13.28-2.74-3.57-2.84-5.46-2.55-1.66.25-3.4.71-4.84,1.62-.88.56-2.33,1.46-2.45,2.61h0Z"/>
  <path class="cls-2" d="M797.28,582.8c5.04-11.4,8.43-23.47,10.79-35.69s3.72-25.6,3.67-38.51c-.03-6.79-.44-13.58-1.35-20.31-.1-.7-1.89-.7-2.19-.71-1.51-.02-3.2.3-4.65.71s-3.06.89-4.38,1.71c-.56.35-1.66.9-1.55,1.71,1.65,12.11,1.7,24.43.71,36.6s-3.2,25.34-6.7,37.6c-1.87,6.57-4.14,13.03-6.9,19.28-.85,1.93,4.36,1.04,5.02.91,1.66-.33,3.34-.77,4.87-1.49.83-.39,2.26-.91,2.66-1.81h0Z"/>
  <path class="cls-1" d="M462.48,381.5c-18.01-7.27-40.1-5.5-58.84-2.46-19.27,3.12-38.51,8.86-55.74,18.06-1.65-27.85-3.21-56.5-11.25-83.34-5.61-18.72-16.52-37.56-38.43-39.19-10.28-.77-22.06,1.61-30.42,7.72-7.61,5.56-11.53,13.82-13.2,22.77-2.15,11.59-1.14,23.65.23,35.26,1.87,15.82,4.88,31.5,7.76,47.16,1.8,9.78,3.6,19.56,5.26,29.36.61,3.59,1.9,6.82-1.26,9.4-1.76,1.43-4.17,2.27-6.29,3.01-10.18,3.55-22.19,4.68-32.04,9.56-.06-.2-.12-.41-.19-.62-.84-2.61-1.45-6.35-3.02-8.63-1.95-2.83-6.96-3.82-10.14-4.7-7.28-2.03-14.95-2.57-22.49-2.46-18.68.27-37.45,4.76-55.05,10.67-13.97,4.7-28.58,10.18-40.64,18.73-1.22.86-2.15,2.29-2.4,3.75-.01.07-.02.14-.03.2-.02.17-.04.35-.04.52,0,.14-.04.27-.03.41,2.35,55.27,12.78,110.43,25.07,164.33,1.02,4.46,2.04,8.91,3.14,13.35.43,1.72,1.62,3.15,3.56,3.31,20.52,1.75,41.66,1.17,62.01-1.78,15.3-2.22,30.92-5.74,44.54-13.16,6.15-3.35,11.87-7.46,16.58-12.62,2.68-2.94,4.23-5.25,4.28-9.25.03-2.29-.04-4.58-.1-6.86,41.83,4.08,84.73,1.82,126.26-3.83,19.49-2.65,38.99-6.19,57.84-11.79,14.14-4.2,28.37-9.67,39.34-19.67,25.47-23.22,28.88-62.34,25.19-94.21-2.02-17.47-6.35-34.91-13.42-51.08-5.58-12.74-12.3-26.36-26.05-31.91ZM241.2,603.88c-14.49,17.57-42.34,21.53-63.82,23.44-14.32,1.28-29.9,1.6-43.45.66-9.81-40.11-17.45-80.94-22.74-121.84-2.13-16.47-3.76-33.01-4.57-49.59,11.58-7.42,27.12-12.76,40.66-16.75,18.06-5.32,38.26-9.71,57.13-6.31,1.95.35,3.91.78,5.8,1.37.8.25,1.58.57,2.37.84.57.2,1.68,1.11,1.62.85,1.95,2.89,2.76,8.32,3.7,11.45,2.69,8.99,4.92,18.12,6.96,27.27,4.91,22.08,8.66,44.42,11.57,66.83,2.65,20.43,4.93,41.15,4.78,61.78ZM488.82,459.49c4.88,29.64,4.71,66.61-15.33,91.35-7.94,9.8-18.7,14.58-30.58,18.48-16.64,5.47-33.99,8.81-51.3,11.46-44.91,6.88-91.59,9.45-136.85,4.53-.53-.06-1.12.01-1.74.17-1.51-33.38-6.53-66.84-13.04-99.57-2.7-13.56-5.78-27.08-9.69-40.35,3.18-1.78,6.86-2.72,10.37-3.65,5.75-1.54,11.6-2.77,17.29-4.55,8.98-2.81,24.32-9.23,22.42-20.7-5.01-30.22-12.54-60.41-14.68-91.01-.7-9.92-1.06-20.69,2.42-30.19,2.75-7.49,7.28-10.89,15.15-12.15,20.85-3.36,33.22,11.87,39.67,29.37,10.85,29.42,11.52,62.64,13.39,93.54.26,4.27,7.17,1.37,8.98.23,15.26-9.65,33.28-15.27,51.01-18.56,16.52-3.06,34.68-4.76,51.16-.57,5.74,1.46,11.73,3.76,15.82,8.16,4.56,4.91,7.91,11.48,10.86,17.41,7.31,14.65,12.02,30.56,14.67,46.63Z"/>
  <path class="cls-2" d="M251.8,852.65c9.26-4.54,18.41-9.28,27.57-14.01,15.28-7.88,30.53-15.82,45.76-23.78,19.63-10.26,39.25-20.55,58.86-30.85,22.45-11.79,44.89-23.61,67.32-35.44,23.76-12.52,47.51-25.06,71.26-37.61s46.63-24.64,69.93-36.97c21.36-11.3,42.72-22.61,64.08-33.92,17.82-9.44,35.64-18.88,53.46-28.33,12.69-6.73,25.38-13.46,38.07-20.19,5.97-3.17,11.96-6.3,17.91-9.5.26-.14.51-.27.77-.41,2.17-1.15,4.99-3.84,3.05-6.43-1.82-2.45-6.27-2.13-8.65-.87-4.08,2.17-8.17,4.33-12.25,6.5-11.24,5.96-22.48,11.92-33.72,17.88-16.72,8.87-33.45,17.73-50.18,26.59-20.65,10.94-41.3,21.87-61.95,32.8-23.06,12.21-46.13,24.4-69.2,36.6s-47.46,25.07-71.19,37.59-45.76,24.12-68.65,36.16c-20.44,10.75-40.88,21.48-61.34,32.19-16.41,8.59-32.82,17.16-49.27,25.67-10.78,5.59-21.57,11.17-32.42,16.61-1.61.81-3.22,1.61-4.83,2.4-2.22,1.09-4.95,3.88-3.05,6.43s6.22,2.06,8.65.87h0Z"/>
  <path class="cls-2" d="M753.81,263.71c.15-.08.31-.15.46-.22.99-.5-2.01.63-1.07.39,1.14-.3,1.5-.19-.44,0,.42-.04.83-.1,1.25-.12.22,0,.45,0,.67-.01-2.56.1-1.46-.04-.82,0,1.1.07,2.17.26,3.24.47.78.15-1.69-.4-.91-.2.14.04.29.07.43.1.3.07.59.15.88.23.62.17,1.23.36,1.84.56,1.41.47,2.8,1,4.16,1.58.72.31,1.43.62,2.14.95.37.17.74.35,1.11.52.12.06.25.12.37.18-1.75-.82-.68-.33-.29-.14,3.43,1.74,6.76,3.69,10,5.76,8.2,5.25,15.9,11.29,23.22,17.7,1.03.9,2.05,1.81,3.06,2.72.52.47,1.03.94,1.54,1.41.26.24.52.48.77.71.19.17,1.38,1.25.38.35,2.17,1.94,4.23,4.03,6.29,6.08,4.5,4.49,8.86,9.13,13.07,13.89,20.03,22.61,37.01,47.96,50.83,74.8,1.95,3.78,3.12,6.16,4.93,10,1.57,3.33,3.09,6.69,4.55,10.08,2.82,6.56,5.43,13.21,7.77,19.96,4.08,11.79,7.4,23.91,9.21,36.27.4,2.73.72,5.47.95,8.23.04.52.14,1.07.12,1.59.04-1.27-.02-.24,0,.04.02.31.03.62.05.93.06,1.32.1,2.63.12,3.95.04,4.52-.23,9.05-1.01,13.51-.17.99-.37,1.97-.6,2.95-.11.47-.23.95-.35,1.42-.06.23-.13.46-.19.7-.14.49-.64,1.21.03-.07-.38.72-.54,1.64-.83,2.41-.34.9-.72,1.79-1.14,2.67-.37.78-.77,1.54-1.2,2.29-.21.37-.43.72-.65,1.08s-.77.99.31-.44c-.14.19-.27.4-.41.59-.96,1.35-2.06,2.57-3.24,3.73-.65.65,1.23-1.07.52-.49-.15.13-.3.26-.45.39-.3.26-.61.5-.93.74-.63.48-1.29.92-1.97,1.34-2.23,1.37-3.24,4.93-.71,6.52,2.91,1.83,6.44.87,9.15-.79,6.69-4.1,11.32-11.04,13.67-18.41,3.03-9.51,3.3-19.38,2.55-29.27-.91-11.99-3.56-23.82-7-35.32-4.17-13.94-9.61-27.5-15.83-40.64-7.12-15.04-15.23-29.61-24.24-43.61-8.11-12.6-16.99-24.71-26.64-36.19-8.47-10.09-17.55-19.63-27.22-28.58-7.68-7.11-15.77-13.82-24.4-19.75-6.63-4.56-13.65-8.75-21.13-11.75-5.67-2.28-11.84-3.77-17.93-2.5-1.26.26-2.52.7-3.65,1.29-2.08,1.1-5.12,4.01-3.03,6.51s6.12,2.26,8.66.91h0Z"/>
  <path class="cls-2" d="M462.09,394.57c.97,1.26,1.77,2.62,2.59,3.99-.64-1.08-.02-.03.23.44.23.44.45.87.67,1.31.47.95.91,1.9,1.33,2.87,1.99,4.53,3.61,9.23,5.04,13.97,3.67,12.22,6.03,24.86,7.37,37.54.37,3.47.65,6.95.84,10.43.1,1.81.18,3.63.23,5.45.01.4.02.81.03,1.21.02.71,0,.06,0-.07,0,.25,0,.51.01.76.01.91.02,1.83.02,2.74,0,7.14-.4,14.28-1.31,21.37s-2.3,13.85-4.38,20.55c-.5,1.61-1.04,3.2-1.62,4.78-.28.76-.57,1.52-.87,2.27-.14.35-.28.71-.43,1.06-.03.07-.42.93-.12.29.28-.6-.07.15-.12.28-1.32,3.04-2.82,6.01-4.52,8.87s-3.52,5.51-5.58,8.06c-.12.14-.23.28-.35.43-.5.62.24-.29.28-.33-.28.3-.54.63-.81.94-.54.62-1.1,1.23-1.67,1.83-.95,1-1.93,1.97-2.95,2.89-.91.82-1.85,1.6-2.81,2.36-.64.51,1.28-.97.32-.25-.25.19-.5.38-.76.56-.52.38-1.04.74-1.56,1.11-2.17,1.48-4.42,2.82-6.73,4.08-1.16.64,1.23-.64.41-.22-.31.16-.62.32-.93.48-.63.32-1.26.63-1.9.94-1.26.61-2.54,1.19-3.83,1.74-2.73,1.18-5.51,2.24-8.31,3.24-.76.27,1.84-.63.81-.28-.16.06-.33.11-.49.17-.33.11-.66.22-.99.33-.75.25-1.5.49-2.26.73-1.54.49-3.08.95-4.63,1.39-3.12.89-6.26,1.7-9.42,2.44-3.33.78-6.67,1.48-10.03,2.14-.83.16,1.87-.35.72-.14-.19.04-.39.07-.58.11-.39.07-.78.14-1.16.22-.88.16-1.76.32-2.63.47-1.78.31-3.55.6-5.33.88-7.15,1.12-14.33,2.01-21.54,2.73-7.34.74-14.69,1.3-22.05,1.73-3.69.22-7.39.4-11.08.55-.88.04-1.76.07-2.64.1,2.07-.08.57-.02.07,0s-1.03.03-1.54.05c-1.84.06-3.68.11-5.53.16-13.48.33-26.96.3-40.44-.03-10.53-.25-21.05-.68-31.57-1.28-1.9-.11-3.8-.23-5.7-.35-1.64-.1-3.52.31-5.01.97-1.13.5-2.77,1.45-3.39,2.62-1.42,2.68,1.22,3.98,3.56,4.13,9.62.62,19.26,1.08,28.89,1.39,13.19.43,26.38.6,39.58.43,15.2-.19,30.41-.78,45.56-2s30.01-3.11,44.81-6.03c13.09-2.58,26.17-6.08,38.4-11.49,5.34-2.36,10.58-5.11,15.38-8.45,5.25-3.66,9.76-7.96,13.77-12.94,8.67-10.75,13.81-24.14,16.66-37.54,3.05-14.33,3.59-29.13,2.8-43.73-.74-13.5-2.73-26.97-5.99-40.09-2.44-9.81-5.49-19.72-10.48-28.56-.77-1.36-1.59-2.69-2.55-3.92-.72-.93-2.44-1.23-3.49-1.29-1.61-.09-3.55.28-5.01.97-1.86.87-5.14,3.08-3.31,5.46h0Z"/>
  <path class="cls-2" d="M234.4,544.11c-1.7,1.73-3.68,3.22-5.59,4.71-1.45,1.13-2.92,2.23-4.4,3.33,1.78-1.33.15-.12-.29.21s-.87.64-1.31.96c-.92.67-1.84,1.34-2.76,2.01-9.17,6.62-18.48,13.06-27.8,19.46-10.46,7.17-20.96,14.28-31.48,21.35-8.8,5.91-17.61,11.8-26.43,17.66-4.21,2.8-8.46,5.55-12.66,8.39-.06.04-.12.08-.18.12-.54.35-2.1,1.36-1.84,2.31.22.81,1.42.93,2.07,1,3.47.4,7.14-.75,10.29-2.1,3.87-1.65,7.74-3.31,11.61-4.96l28.01-11.97c11.26-4.81,22.52-9.62,33.77-14.43,9.73-4.16,19.46-8.32,29.2-12.48,4.73-2.02,9.5-3.98,14.2-6.07.07-.03.14-.06.2-.09l-11.62-.4c-.91.96-1.89,1.84-2.9,2.68-.51.42-1.03.82-1.55,1.22-.92.7,1.23-.89.03-.02-.37.27-.75.54-1.13.8-2.97,2.06-6.08,3.93-9.23,5.7-.81.46-1.62.91-2.43,1.35-.23.12-.45.25-.68.37-.98.53,1.56-.83.57-.3-.55.29-1.09.58-1.64.87-1.96,1.03-3.92,2.03-5.9,3.02-4.22,2.11-8.49,4.14-12.77,6.12-17.19,7.97-34.73,15.17-51.93,23.14-3.6,1.67-7.18,3.37-10.7,5.21-2.93,1.54-5.92,3.09-8.63,5.02-.64.45-1.79,1.07-1.79,1.95,0,.79.51,1.1,1.34,1.28,2.86.63,6.51-.19,9.16-1.27,3.65-1.49,7.3-2.99,10.96-4.48l26.31-10.76c10.57-4.32,21.13-8.64,31.7-12.97,9.17-3.75,18.34-7.5,27.5-11.25,4.44-1.82,8.98-3.48,13.35-5.46.06-.03.12-.05.18-.08l-7.22-2.76c-3.09,1.66-6.19,3.33-9.28,4.99-7.39,3.97-14.78,7.95-22.17,11.92-8.94,4.81-17.88,9.61-26.81,14.42-7.76,4.17-15.52,8.35-23.28,12.52-3.76,2.02-7.52,4.05-11.29,6.07-.05.03-.11.06-.16.09-.87.47-2.79,1.3-3.22,2.4-.38.97.44,1.45,1.29,1.64,3.53.77,7.77-.63,10.97-2.02,2.98-1.29,5.97-2.59,8.95-3.88,7.17-3.11,14.33-6.21,21.5-9.32,8.67-3.76,17.34-7.51,26.01-11.27l22.48-9.74c3.63-1.57,7.29-3.09,10.9-4.72.05-.02.11-.05.16-.07l-11.62-.4c-5.08,3.95-10.16,7.9-15.24,11.85-8.06,6.27-16.12,12.54-24.18,18.81-1.86,1.45-3.72,2.89-5.58,4.34-.7.54-1.06,1.44-.3,2.06.88.7,3.05.56,3.99.47,3.67-.35,7.56-1.44,10.51-3.74,5.08-3.95,10.16-7.9,15.24-11.85,8.06-6.27,16.12-12.54,24.18-18.81,1.86-1.45,3.72-2.89,5.58-4.34.56-.44.96-1.17.52-1.78-.49-.68-1.81-.78-2.53-.8-3.3-.08-6.61.87-9.61,2.17s-5.97,2.59-8.95,3.88c-7.17,3.11-14.33,6.21-21.5,9.32-8.67,3.76-17.34,7.51-26.01,11.27l-22.48,9.74c-3.63,1.57-7.32,3.05-10.9,4.72-.05.02-.11.05-.16.07l9.03,2.02c3.09-1.66,6.19-3.33,9.28-4.99,7.39-3.97,14.78-7.95,22.17-11.92,8.94-4.81,17.88-9.61,26.81-14.42,7.76-4.17,15.52-8.35,23.28-12.52,3.76-2.02,7.52-4.05,11.29-6.07.05-.03.11-.06.16-.09.91-.49,5.2-2.79,2.41-3.85-1.08-.41-2.39-.39-3.52-.29-2.05.2-4.2.6-6.11,1.38-3.65,1.49-7.3,2.99-10.96,4.48l-26.31,10.76c-10.57,4.32-21.13,8.64-31.7,12.97l-27.5,11.25c-4.45,1.82-8.96,3.52-13.35,5.46-.06.03-.12.05-.18.08l8.71,1.96c.93-.67,1.91-1.28,2.89-1.87.51-.3,1.03-.6,1.55-.89.3-.17.61-.34.91-.5,1.4-.77-1.64.87-.2.11,3.03-1.6,6.11-3.1,9.22-4.55,8.04-3.78,16.2-7.32,24.34-10.88,17.94-7.85,36.01-15.57,53.21-24.99,3.67-2.01,7.3-4.12,10.76-6.47,2.96-2.01,5.95-4.15,8.42-6.77.5-.52,1.01-1.1.52-1.78s-1.81-.78-2.53-.8c-3.31-.08-6.6.89-9.61,2.17-3.87,1.65-7.74,3.31-11.61,4.96l-28.01,11.97c-11.26,4.81-22.52,9.62-33.77,14.43-9.73,4.16-19.46,8.32-29.2,12.48-4.73,2.02-9.51,3.96-14.2,6.07-.07.03-.14.06-.2.09l10.52,1.22c3.47-2.29,6.94-4.59,10.4-6.89,8.46-5.62,16.9-11.25,25.34-16.91,10.47-7.03,20.93-14.09,31.34-21.21,9.67-6.62,19.32-13.27,28.86-20.09,6.17-4.41,12.6-8.74,18.24-13.84.32-.29.63-.58.92-.88,2.42-2.46-2.16-2.67-3.69-2.53-2.07.2-4.17.64-6.11,1.38-1.5.57-3.25,1.19-4.4,2.36h0Z"/>
</svg>