<?xml version="1.0" encoding="UTF-8"?>
<svg id="Layer_1" xmlns="http://www.w3.org/2000/svg" viewBox="0 0 837.5 1080">
  <defs>
    <style>
      .cls-1 {
        fill: #112a46;
      }
    </style>
  </defs>
  <g>
    <path class="cls-1" d="M107.05,786.97c.3,3.8.6,7.61.87,11.42.23,1.57,1.68,2.84,2.89,3.74.52.39,1.07.76,1.64,1.07,1.9,1.03,4.24.5,6.2-.12.98-.31,1.94-.69,2.9-1.12.59.01,1.17-.04,1.74-.18.68-.1,1.34-.29,1.98-.58.58-.22,1.1-.53,1.57-.93.44-.28.8-.65,1.08-1.09,0-.01.01-.02.02-.04.05,0,.1,0,.15,0,.68.04,1.34-.04,2-.23.67-.15,1.28-.42,1.85-.8.55-.27,1.02-.64,1.42-1.1.19-.24.39-.51.55-.8.82-.38,1.64-.77,2.46-1.15.55-.1,1.08-.26,1.59-.51.58-.23,1.1-.56,1.55-.98.03-.02.05-.05.08-.07,4.29-2.15,8.46-4.49,12.54-7,.54-.1,1.06-.26,1.55-.51.37-.22.73-.44,1.1-.65.48-.34.86-.78,1.18-1.26,2.44-1.58,4.86-3.2,7.24-4.88,7.65-5.36,15.09-11.02,22.48-16.74.33-.25.49-.57.47-.97-1.01-1.97-2.66-4.37-4.9-5.1-.34-.62-1.02-1.01-1.76-1.17-18.02-4.06-35.84-8.97-53.38-14.74-4.81-1.58-9.6-3.24-14.37-4.94-.18-.08-.36-.14-.5-.17-1.97-.71-4.78.09-6.49,1.41-.19.14-.37.3-.54.46,0,0-.02.02-.03.02-.61.61-1.17,1.48-.93,2.38,1.13,15.79,2.52,31.55,3.77,47.33ZM175.57,763.08c.14.22.27.44.39.66-2.97,2.29-5.95,4.58-8.95,6.84-.23-.18-.46-.35-.69-.54,3.1-2.29,6.18-4.61,9.24-6.96ZM158.9,775.42c.26.19.53.37.79.56-1.68,1.21-3.36,2.41-5.06,3.58-.02-.02-.05-.04-.07-.06-.26-.19-.54-.36-.83-.52,1.74-1.17,3.46-2.36,5.17-3.57ZM144.75,784.69c.21-.12.42-.25.62-.38.39.2.77.41,1.14.64-.14.09-.28.18-.42.27-.44-.19-.89-.37-1.35-.53ZM158.23,757.44c3.48.88,6.98,1.72,10.48,2.54-8.64,6.63-17.4,13.15-26.6,18.97-1.76,1.11-3.54,2.2-5.35,3.24-.82.48-1.65.94-2.49,1.4-.13.07-.25.14-.38.21-.36.19-.73.39-1.09.58-3.11,1.63-6.28,3.13-9.47,4.6-1.91.88-3.82,1.74-5.74,2.61-1.07-14.41-2.32-28.8-3.46-43.21-.11-1.39-.21-2.77-.32-4.16,14.62,5,29.44,9.42,44.42,13.22Z"/>
    <path class="cls-1" d="M218.43,761.63c-.24-8.91-.34-17.82-.54-26.74-.18-7.98-.78-16.16-3.87-23.61-.77-1.85-1.69-3.63-2.74-5.33-.02-.03-.04-.05-.06-.08-.08-.14-.16-.28-.25-.41-2.51-3.78-6.81-5.54-11.2-5.99-3.5-.36-7.02-.12-10.53-.05-2.62.05-5.25.08-7.87.09-6.34.03-12.68-.02-19.02-.09-13.7-.16-27.4-.45-41.09-.73-9.68-.2-19.37-.51-29.05-.44-1.01,0-2.02.02-3.02.08-.32.02-.66.05-1,.09-9.12.89-18.91,4.74-24.17,12.59-2.63,3.92-3.66,8.32-3.9,12.99-.27,5.18-.05,10.39,0,15.57.24,21.9.49,43.79.75,65.69.03,2.75.06,5.49.1,8.24.03,2.14.07,4.31.55,6.41.32,1.42.88,2.69,1.61,3.83.02.06.04.13.07.19,1.72,3.1,4.14,5.41,7.5,6.65,3.06,1.13,6.36,1.26,9.58,1.32,8.99.15,17.97.44,26.95.67,18.99.49,38.06,1.52,57.04.4,9.76-.58,19.5-1.62,29.15-3.14,4.88-.77,10.12-1.32,14.71-3.22,4.43-1.83,7.67-4.98,9.42-9.45,1.6-4.08,1.93-8.55,1.96-12.9.03-4.63-.19-9.26-.32-13.88-.26-9.58-.52-19.15-.78-28.73ZM196.36,824.23c.27-.07,1.01-.18.18-.03-.06.01-.12.02-.18.03ZM71.92,713.22c.72-1.66,1.7-3.12,2.92-4.5.25-.29.52-.57.79-.84,0,.02.63-.57.73-.66.37-.31.74-.61,1.13-.9.22-.16,1.31-.88.57-.43.7-.43,1.74-1.27,2.55-1.41-.01,0-.83.35-.3.15.23-.09.45-.19.68-.28.12-.05.84-.31,1.05-.39.2-.06.41-.12.61-.17.24-.06.48-.12.71-.18.08-.02.16-.05.23-.09.32-.05.67-.07.96-.11.15-.02.68-.07.93-.1,2.49-.14,5.01-.08,7.5-.05,4.69.04,9.38.13,14.07.22,12.76.25,25.52.54,38.28.75,12.28.21,24.57.4,36.85.24,2.36-.03,4.73-.09,7.09-.16,1.03-.03,2.05-.05,3.08-.03.05,0,.3,0,.46.01.16.01.44.03.49.04.61.06,1.21.15,1.82.25.61.1,1.54.41,2.38.79.78.36,1.47.85,2.11,1.43,2.63,2.34,3.75,5.78,4.31,9.17.69,4.13.54,8.35.54,12.53-.01,20.89-.02,41.78-.03,62.67,0,5.31,0,10.61,0,15.92,0,4.16.14,8.56-1.63,12.43-.35.76-.81,1.44-1.35,2.08-.15.18-.31.35-.47.52.1-.11.46-.38-.09.08-.35.3-.72.56-1.09.85.77-.59-.36.18-.56.3-.04.02-.08.05-.12.08-.13.05-.25.09-.34.13-.19.08-1.27.39-.82.3-.03,0-.06.02-.08.02-.29.08-.59.16-.88.23-.18.04-.47.07-.65.15-.36.06-.72.13-1.08.19-1.04.16-2.08.29-3.13.4-1.06.11-2.12.2-3.18.29-.14.01-1.03.09-1.15.1-.68.06-1.36.11-2.04.17-20.84,1.68-41.75,2.39-62.66,2.14-10.2-.12-20.85-.49-30.7-1.07-2.45-.14-4.91-.27-7.36-.48-.89-.08-1.79-.17-2.68-.3-.48-.07-.95-.14-1.42-.23-.18-.03-.35-.07-.53-.1,0,0-.54-.13-.65-.15-3.43-.94-6.44-2.69-7.75-6.24-1.56-4.22-1.06-9.2-1.12-13.62-.06-5.24-.13-10.49-.19-15.73-.12-10.57-.25-21.15-.37-31.72-.12-10.43-.28-20.86-.34-31.29-.03-4.51.12-9.15,1.93-13.36Z"/>
    <path class="cls-1" d="M650.06,877.06c.46,0,.95,0,0,0h0Z"/>
    <path class="cls-1" d="M705.77,818.93c9.14,1.93,20.21-1.55,25.63-9.39,5.23-7.57,5.56-18.1.21-25.67-5.88-7.98-16.63-9.06-25.37-5.56-4.77,1.91-8.59,5.23-11.59,9.37-2.86,3.96-4.87,8.49-4.91,13.43-.09,9.23,7.52,16.02,16.03,17.82ZM715.31,814.29s.27-.03.44-.03c-.23.03-.43.06-.44.03ZM717.57,813.82s.09-.05.21-.1c-.11.06-.2.11-.21.1ZM714.27,781.8c-.17-.04-.12-.03,0,0h0ZM711.49,781.49c-.15.02-.34.04-.38.03.02,0,.04-.01.05-.02.07,0,.19-.01.32-.01ZM710.54,781.63s0,0,0,0c-.03.01-.11.04-.26.09-.02,0-.03,0-.05.02.14-.05.26-.09.31-.1ZM711.13,781.51s.01,0,.02,0c0,0,0,0-.02,0ZM701.63,791.24c.82-1.72,1.9-3.31,3.08-4.8.63-.8,1.3-1.57,2.01-2.31.03-.03.04-.04.05-.06.02-.02.02-.02.05-.04.13-.12.26-.24.39-.36.39-.34.8-.67,1.22-.98.05-.04.2-.14.31-.21.15-.09.32-.19.33-.19.14-.08.29-.16.44-.24.1-.06.18-.1.23-.14.11-.04.23-.09.35-.13.06-.02.12-.03.15-.04.15-.04.55-.1.78-.17.13-.02.25-.04.38-.05.05,0,.07-.01.11-.02.18,0,.35,0,.38,0,.16,0,.32,0,.47,0,.04,0,.06,0,.09,0,.02,0,.04,0,.07,0,.42.06.84.11,1.25.18.18.03.35.07.52.11.08.02.18.05.27.08.41.13.81.27,1.2.43.77.31,1.62.74,2.09,1.03,1.74,1.12,3.21,2.61,4.44,4.27,3.83,5.42,4.02,12.96,1.54,18.97-.62,1.51-1.17,2.48-2.21,3.83-.26.34-.54.67-.82.99-.11.12-.22.23-.33.35-.02.02-.02.03-.03.04-.27.25-.54.5-.83.73-.17.14-.33.27-.5.4-.05.04-.26.18-.4.28-.2.12-.5.29-.57.34.02,0-.11.06-.25.14-.02,0-.03,0-.05.02-.16.06-.76.28-.81.31-.18.05-.36.09-.54.14-.03,0-.05,0-.09.01-.02,0-.35.06-.65.1-.04,0-.08,0-.15,0-.21,0-.42.01-.63.02-.21,0-.42,0-.63,0-.04,0-.05,0-.07,0-.77-.11-1.53-.18-2.29-.34-.16-.03-.31-.07-.46-.1-.01,0-.01,0-.03,0-.46-.14-.91-.28-1.36-.45-1.53-.57-2.7-1.18-3.84-2.02-2.95-2.16-5.11-5.14-6.06-8.68-1.05-3.89-.3-7.84,1.4-11.43Z"/>
    <path class="cls-1" d="M650.32,861.17s.08-.04.13-.07c.02-.01.05-.03.07-.04-.33.17-.31.16-.19.1Z"/>
    <path class="cls-1" d="M719.1,853.95c.16-.06.29-.11.34-.12,0,0,0,0,0,0-.06-.01-.24.06-.34.12Z"/>
    <path class="cls-1" d="M735.26,849.64c.12-.21.08-.17,0,0h0Z"/>
    <path class="cls-1" d="M789.47,790.67c-.68-8.57-1.47-17.13-2.35-25.67-.06-.56-.64-.96-1.21-1.22-.13-.3-.31-.58-.59-.84-.7-.67-1.6-.93-2.55-1.05-.66-.08-1.34-.03-2-.03-3.43-.02-6.86.06-10.28.11-6.55.1-13.09.22-19.64.33-8.56.15-17.12.31-25.68.47-9.6.18-19.2.35-28.8.52-9.54.17-19.08.34-28.63.5-8.42.14-16.85.27-25.27.39-6.22.08-12.45.16-18.67.19-1.09,0-2.17,0-3.26,0-1.9,0-5.51,1.66-5.51,3.96,0,29.65-.61,59.29-1.19,88.94-.15,7.66-.29,15.32-.41,22.98-.03,1.84,1.52,3.03,3.3,3.13.04,0,.09,0,.13,0,0,.08,0,.15.02.23.17.65,1.3.65,1.75.7,21.22,2.18,42.52,3.63,63.85,4.32,21.52.7,43.06.62,64.57-.19,12.02-.45,24.03-1.14,36.02-2.06,1.19-.09,2.62-.33,3.93-.79.12-.01.24-.02.36-.04,1.3-.18,2.67-.55,3.77-1.3.67-.46,1.86-1.28,1.87-2.2.06-30.5-1.1-60.99-3.52-91.39ZM650.94,877.07c-.39,0-.79-.01-1.18-.01.12,0,.22,0,.3,0-.17,0-.33,0-.42,0-.76,0-1.53-.02-2.29-.03-1.47-.02-2.95-.04-4.42-.06-2.64-.04-5.28-.09-7.91-.15-3.81-.08-7.62-.19-11.43-.35.09-5.65.19-11.3.29-16.95,1.97,1.62,4.11,3.02,6.43,4.12,6.57,3.09,13.78,3.22,20.66,1.05,3.88-1.23,7.43-3.08,10.62-5.62,3.07-2.44,5.4-5.51,7.8-8.57,2.75-3.5,5.5-7.01,8.25-10.51.89-1.14,1.79-2.28,2.82-3.29,6.84,2.1,9.33,10.26,13.33,15.38,4.35,5.57,11.05,7.48,17.92,6.87,4.31-.39,8.58-1.49,12.56-3.23-.11,1.62-.07,3.23.02,4.73.13,2.19.43,4.51,1.43,6.49,1.4,2.77,4.26,3.9,7.29,3.91,3.64.02,6.98-1.38,10.31-2.68.23-.07.46-.13.69-.19.01,0,.02.01.03.02.13.07.56.34.56.31.28.23.55.48.79.74.17.19.31.4.48.6-.32-.38-.19-.11-.05.07-.06.06-.11.12-.13.14-.33.3-.69.56-1.04.84-1.72,1.38-3.8,3.72-2.51,6.04.13.24.3.44.48.64-2.51,0-5.01,0-7.52,0-14.23,0-28.46-.01-42.69-.05-13.82-.04-27.65-.1-41.47-.26ZM649.36,861.65c.15-.07.3-.14.3-.13-.03.04-.16.09-.3.13ZM679.26,836.4s-.02,0-.03,0c-.06-.04-.02-.1.03,0ZM681.37,835.86s0,0-.01.01c0,0,0,0,0,0,0,0,0,0,.02-.01ZM681.45,835.83s.02-.02.03-.04c0,0,.02,0,.03-.01,0,0,0,0,.01,0-.03.03-.06.07-.1.09.01-.01.02-.02.03-.03ZM681.56,835.73s-.02,0-.03.01c.08-.09.08-.07.03-.01ZM679.3,836.42s0,0,0,0c-.01,0-.03,0-.04,0,.01,0,.02,0,.03,0ZM715.98,854.81c.16-.02.35-.05.35-.05-.06.03-.21.05-.35.05ZM767.11,805.38c.34-.18.68-.35,1.02-.52.17-.08.35-.15.52-.24.02-.01.02-.01.04-.02.02,0,.02,0,.04-.01.22-.08.84-.2,1.02-.36.11-.03.22-.06.34-.09.06-.02.14-.03.21-.04.17-.02.34-.05.5-.08.36-.01.72-.05,1.09-.07.02,0,.03,0,.06,0,.18.02.38.01.56.02.96.05,1.19.09,2.14.29.38.08.79.12,1.19.13.07,2.89.14,5.78.23,8.68.43,14.35,1.02,28.7.83,43.06-.09,7.13-.39,14.25-.91,21.36-2.55-.03-5.1-.05-7.64-.06-1.7,0-3.41,0-5.11-.01-1.49-1.49-3.83-2.25-5.75-2.76-1.11-.29-2.24-.51-3.37-.74-.51-.11-1.02-.22-1.53-.35-.21-.05-.42-.12-.64-.18-.01,0-.04-.02-.06-.03.18-.16.36-.32.54-.47,1.66-1.37,3.75-2.94,3.47-5.37-.32-2.78-3.79-4.86-6.27-5.35-3.81-.75-7.53.39-11.06,1.76-.57.22-1.15.45-1.72.67,0,0,0,0,0,0-.16.05-.32.1-.48.15-.13-.08-.28-.16-.42-.23-.01-.01-.01-.02-.03-.03-.1-.14-.22-.31-.34-.44,0-.01-.01-.01-.02-.02,0,0,0,0,0,0-.32-.95-.68-1.84-.88-2.83-.26-1.31-.39-2.64-.45-3.97,0-.1,0-.21-.01-.31,0-.05,0-.11,0-.18,0-.37,0-.75.02-1.12.03-.69.07-1.37.15-2.06.14-1.23.35-2.46.75-3.64.04-.11.07-.2.11-.27-.02.04-.06.1-.09.16.13-.22.22-.46.35-.68.04-.07.11-.16.16-.23.61-.56,1.11-1.27,1.2-1.97,4.02-4.33,7.07-9.64,9.83-14.79,3.42-6.39,6.5-13.21,11.2-18.79,2.29-2.72,4.88-5.17,7.66-7.01.32-.21.65-.42.98-.62.17-.1.33-.2.5-.3-.15.09-.66.34.07-.04ZM769.54,804.28c.06-.02.12-.03.19-.05-.22.09-1.06.28-.19.05ZM745.9,869.65s0-.03,0-.04c.06-.09.14-.18.26-.18-.04,0-.15.11-.25.22ZM745.89,869.66s-.03.03-.04.04c.01-.03.03-.05.04-.08,0,0,0,.02,0,.03ZM745.87,869.79s0,.02,0,.03c-.07.12-.08.05-.04-.07.01.01.02.03.04.04ZM751.82,873.32s0,0-.01,0c0-.14.01-.09.01,0ZM751.81,873.44s0,0,0,0h0s0,0,0,0ZM751.76,873.49s.01.07.02.08c-.02.06-.05.1-.1.08-.03-.01.02-.08.08-.16ZM751.47,873.13s.09.02.16.1c-.09-.05-.16-.09-.16-.1ZM736.02,864.6c.06.06.06.07,0,0h0ZM735.52,849.03s.03-.02.04-.04c-.05.06-.11.11-.18.19.07-.07.11-.12.14-.15ZM735.78,848.77c.08-.09.11-.12,0,0h0ZM647.06,771.21c13.26-.19,26.53-.42,39.79-.65,14.11-.25,28.21-.51,42.32-.77,11.52-.21,23.03-.42,34.55-.61,3.72-.06,7.44-.12,11.16-.17.36,0,.71,0,1.07-.01,0,.02,0,.04,0,.06-.04,1.05-.07,2.11-.1,3.16-.06,2.07-.11,4.13-.14,6.2-.07,4.06-.09,8.11-.07,12.17.02,3.07.07,6.15.12,9.22-6.27.34-12.52,2.64-17.7,6.01-6.29,4.09-11.08,9.89-14.86,16.31-3.8,6.44-6.83,13.33-10.92,19.6-.88,1.35-1.82,2.67-2.83,3.94-.24.12-.47.25-.67.39-1.43.96-2.43,2.25-3.12,3.71-1.21,1.09-1.86,1.59-3.38,2.55-.3.19-.61.36-.91.56-.02.01-.02.02-.04.02-.14.08-.28.15-.42.23-.32.16-.63.32-.95.47-.16.08-.32.15-.48.22,0,0,0,0,0,0,0,0,.02,0,.02,0,0,0-.02,0-.03,0-.48.22-.47.19-.34.12-.26.1-.57.24-.62.26-.13.05-.27.09-.4.14-.26.07-.53.15-.79.22-.07.02-.12.03-.17.04-.05,0-.1.02-.17.03-.34.06-.67.11-1.01.17,0,0,0,0-.01,0-.12,0-.22,0-.27,0-.24.02-.49.03-.73.04.21-.02-.59,0-.86-.02-.33-.02-.66-.05-.99-.08,0,0-.09-.01-.17-.02-.12-.02-.37-.07-.42-.07-.75-.15-1.48-.33-2.2-.58-1.29-.44-2.51-1.12-3.61-1.94-5.82-4.3-7.38-12.12-12.97-16.67-7.12-5.79-18.07-3.3-23.7,3.43-2.75,3.3-5.33,6.76-7.98,10.14-2.51,3.2-4.89,6.6-7.89,9.36-1.18,1.08-2.05,1.72-3.55,2.65-.02.01-.04.02-.06.04.04-.02.06-.03.11-.06-.06.03-.12.06-.18.09-.04.02-.09.05-.13.07-.05.03-.1.05-.15.08-.3.15-.61.28-.9.43t0,0c-.09.03-.17.05-.21.07-.05.02-.1.03-.14.05-.02,0-.05.01-.07.02-.24,0-.56.11-.78.15-.05,0-.11,0-.18,0-.21.01-.53.02-.64.02-.56-.02-1.12-.04-1.68-.08-.1,0-.19-.02-.29-.03-.08-.01-.19-.03-.23-.04-.36-.07-.72-.13-1.08-.21-6.07-1.37-11.25-5.47-15.32-10.04-1.2-1.35-2.31-2.76-3.35-4.24-.27-.38-.68-.6-1.16-.73.34-17.53.69-35.07.87-52.61.07-7.53.11-15.05.13-22.58,7.31-.04,14.63-.14,21.94-.24ZM724.28,885.03c-13.28.09-26.55-.12-39.82-.62.11,0,.22,0,.33,0,14.27.05,28.54.07,42.81.07,7.26,0,14.53.01,21.79.02-8.36.29-16.73.47-25.11.52Z"/>
    <path class="cls-1" d="M413.4,872.27c-.09,0-.17,0-.26,0-.03,0-.04,0-.07,0h-.14c.13,0,.38,0,.47,0Z"/>
    <path class="cls-1" d="M389.62,916.87c13.89-.82,27.72-2.26,41.6-3.34,4.66-.36,9.32-.67,13.99-.95,2.17-.13,5.16-.76,6.64-2.5,1.47-1.73-1.29-2.14-2.47-2.07-13.89.82-27.72,2.26-41.6,3.34-4.66.36-9.32.67-13.99.95-2.17.13-5.16.76-6.64,2.5-1.47,1.73,1.29,2.14,2.47,2.07Z"/>
    <path class="cls-1" d="M442.29,831.39s0,0-.01,0c-.09,0-.22-.05-.36-.1.1.07.24.12.38.1Z"/>
    <path class="cls-1" d="M383.25,934.65c16.16-.51,32.31-1.18,48.47-1.5,5.32-.11,10.64-.18,15.96-.24,2.37-.03,5.01-.69,7.05-1.89.39-.23,1.37-.74,1.21-1.32-.15-.57-1.35-.54-1.71-.53-16.17.18-32.33.66-48.49,1.22-5.32.18-10.63.36-15.95.53-2.38.07-4.98.67-7.05,1.89-.39.23-1.37.74-1.21,1.32.15.57,1.35.54,1.71.53Z"/>
    <path class="cls-1" d="M380.13,959.46c17.39.62,34.77,1.22,52.17,1.24,5.67,0,11.33-.03,17-.09,2.15-.02,5.23-.78,6.63-2.56,1.43-1.82-1.25-2.33-2.54-2.32-17.39.16-34.77.01-52.15-.56-5.67-.19-11.34-.39-17.01-.59-2.11-.08-5.27.84-6.63,2.56-1.46,1.86,1.28,2.27,2.54,2.32Z"/>
    <path class="cls-1" d="M446.42,978.45c-12.33-.13-24.59.13-36.9.91-4.12.26-8.24.53-12.36.79-2.15.13-5.13.78-6.66,2.44-1.54,1.66,1.37,1.9,2.41,1.84,11.8-.73,23.59-1.62,35.41-1.72.24,0,.48,0,.72,0,.04,0,.29,0,.43,0,.07,0,.14,0,.15,0,.25,0,.51,0,.76,0,.93,0,1.87,0,2.8,0,2.27,0,4.55.02,6.82.05,2.39.02,5.05-.51,7.05-1.89.46-.32,1.32-.91,1.14-1.59-.17-.65-1.28-.8-1.78-.81Z"/>
    <path class="cls-1" d="M486.45,1022.36s0,0,.01,0c.03-.03.07-.07.12-.11-.15.04-.21.1-.13.11Z"/>
    <path class="cls-1" d="M496.4,882.86s0-.01,0-.02c-.27-3.68-1.49-7.31-2.83-10.71-2.01-5.11-4.59-10-7.49-14.67-6.2-9.98-14.13-19.73-24.14-26.1-3.47-2.21-7.27-3.91-11.25-4.83-1.81-1.11-3.96-1.69-6.12-1.87-.82-.24-1.73-.31-2.44-.28-13.04.56-26.09,1.13-39.13,1.75-10.25.49-20.5,1-30.75,1.5-8.28.4-16.55.79-24.83,1.17-2.07.1-5.23,1.51-5.55,3.83-.11.81.13,1.4.57,1.83.04.13.09.27.12.4.24,1.13.34,2.3.44,3.45.07.82.13,1.64.17,2.45.01.19.02.38.03.57,0,.03,0,.06,0,.09.02.46.04.91.06,1.37.1,2.35.16,4.7.21,7.06.27,13.59.13,27.18-.04,40.77-.2,16.98-.53,33.95-.87,50.93-.33,16.18-.68,32.36-.98,48.54-.2,10.92-.47,21.84-.37,32.76,0,.75.02,1.5.03,2.25,0,.16.04.3.07.45-.05.14-.06.28-.02.43.04.17.15.3.3.41.73,1.35,2.53,1.83,4.17,1.64,1.25-.15,2.56-.51,3.59-1.24,18.63,0,37.25,0,55.88,0,20.03,0,40.05,0,60.08,0,3.13,0,6.27,0,9.4,0,3.06,0,6.09.06,9.13-.35,3-.4,6.06-1.22,8.74-2.65,2.18-1.16,4.31-2.8,4.93-5.3.18-.71-.28-1.06-.95-1.22.72-15.69,1.72-31.36,2.79-47.03.52-7.59,1.01-15.18,1.43-22.77.55-9.97,1.29-19.97.71-29.95-.68-11.68-2.85-23.2-5.13-34.65ZM450.48,888.13c-.22-.19-.48-.35-.78-.48.24-.02.48-.03.73-.04-.01.18,0,.35.05.53ZM465.67,885.96c7,3.22,13.76,6.94,20.74,10.2-.02,3.12-.03,6.23-.06,9.35-1.04-.84-2.09-1.68-3.14-2.51-6.02-4.84-12.03-9.69-18.11-14.45-.94-.73-1.87-1.48-2.82-2.21,1.13-.13,2.25-.26,3.38-.38ZM464.5,844.87c7.73,8.23,14.15,18.07,18.51,28.48.87,2.09,1.72,4.27,2.36,6.5-.37-.08-.74-.16-1.11-.22-.24-.04-.48-.07-.71-.11-.33-.07-.66-.12-1.01-.14-7.58-.94-15.3.21-22.83,1.12-2.15.26-4.3.51-6.46.7-.65.06-1.3.1-1.95.14.09-3.49.44-6.97.91-10.44,0-.01.02-.02.02-.03.38-.67.41-1.24.23-1.72.73-4.86,1.65-9.71,2.4-14.53.7-4.47,1.34-9,1.39-13.54.01-1.29-.02-2.59-.13-3.86,3.01,2.29,5.79,4.89,8.37,7.64ZM385.4,833.7c10.26-.5,20.52-1,30.78-1.47,8.31-.38,16.61-.74,24.92-1.09.11,0,.22-.02.34-.03.14.05.31.12.47.17-.15-.1-.21-.2.03-.07.11.06.22.12.33.17.04,0,.07,0,.09,0-.02,0-.05,0-.07.01.1.05.2.1.3.15.23.13.44.28.65.43.1.1.21.2.31.3.46.47.74,1.14,1.19,1.59.06.13.12.25.17.38.13.29.24.59.34.9.27.78.46,1.58.6,2.39.14.82.24,1.64.3,2.47.01.16.04.75.04.86.01.51.02,1.03,0,1.54-.12,8.24-1.88,16.42-3.22,24.55-11.87-.85-23.71-1.25-35.63-.61-4.45.24-8.9.57-13.34.92-1.97.16-5.23,1.38-5.6,3.64-.39,2.37,2.85,2.71,4.43,2.59,3.92-.31,7.83-.6,11.76-.83,1.67-.1,3.34-.18,5-.25.79-.03,1.58-.06,2.38-.09.31-.01.62-.02.93-.03-.03,0-.05,0-.06,0,.09,0,.19,0,.28,0,.29,0,.33,0,.26,0,.06,0,.11,0,.17,0,6.31-.12,12.62.08,18.92.47,3.19.2,6.37.44,9.55.7-.51,3.89-.86,7.81-.79,11.73.01.79.33,1.4.82,1.84-6.23-.23-12.46-.35-18.69-.21-7.41.17-14.8.71-22.18,1.45-4.91.49-9.82,1.05-14.72,1.62-1.88.22-5.21,1.26-5.65,3.44-.45,2.25,2.98,2.39,4.33,2.23,7.99-.92,15.98-1.85,24-2.44,1.71-.13,3.43-.24,5.14-.33.11,0,.21-.01.32-.02-.02,0-.03,0-.05,0,.4-.03.8-.04,1.19-.05.91-.04,1.83-.07,2.74-.09,3.57-.1,7.14-.11,10.72-.06,4.96.07,9.91.26,14.86.49,2.2.1,5.33-.77,6.58-2.75.32-.51.41-.95.34-1.32.14.14.29.27.48.39,1.69,1.1,3.27,2.39,4.86,3.62.6.47,1.2.94,1.8,1.41.1.08.55.43.7.55.09.07.18.14.2.15l.58.46c1.45,1.14,2.89,2.29,4.33,3.44,5.84,4.67,11.65,9.37,17.5,14.04,1.59,1.27,3.17,2.54,4.78,3.77-.18,13.3-.43,26.6-.66,39.9-.2,11.15-.67,22.28-1.1,33.42-.33,8.38-.48,16.77-.61,25.16-17.41,1.11-34.83,2.14-52.27,2.86-8.46.35-16.93.63-25.4.82-2.1.05-4.2.09-6.3.13-.43,0-.85.01-1.28.02-.03,0-.7.01-.93.02-1.17.02-2.34.03-3.52.05-4.37.06-8.75.09-13.12.11-9.91.04-19.82-.04-29.73-.16-.05-8.45.15-16.9.3-25.34.28-16,.64-31.99.96-47.99.35-17.34.69-34.68.92-52.02.19-14.16.35-28.33.13-42.49-.07-4.76-.18-9.52-.51-14.27-.04-.54-.06-1.15-.09-1.78,10.8-.51,21.6-1.02,32.4-1.55ZM343.26,835.01s.06.03.09.05c-.03-.02-.06-.03-.09-.05ZM343.35,835.05c.83.36,1.86.48,2.69.5-.98-.01-1.94-.12-2.69-.5ZM484.57,1022.5c-.16,0-.59,0-.68,0-.66,0-1.32,0-1.98,0-1.39,0-2.77,0-4.16,0-2.62,0-5.24,0-7.87,0h-.06c5.36-.32,10.73-.66,16.09-1.01.41-.03.87-.1,1.34-.22.02.01.03.03.05.04-.07.14-.14.28-.22.41-.04.06-.11.16-.12.18-.06.08-.23.23-.37.34.1-.03.25-.04.42-.02,0,0-.04.01-.09.03-.03,0-.06.01-.1.02.02-.01.04-.02.06-.03,0,0-.07.02-.15.05-.08.02-.14.03-.19.05.02-.02.04-.03.07-.05-.02.02-.05.03-.07.05-.02,0-.05.01-.06.01,0,0,0,0-.01,0,0,0,0,0,0,0,0,0,0,0,0,0-.05,0-.11.02-.19.04-.05,0-.09,0-.17,0-.48.03-.96.07-1.44.09-.02,0-.05,0-.08,0ZM486.42,1022.42h-.01c-.07.04-.12.06-.11.05,0,0,.05-.02.1-.04,0,0,0,0,0,0,0,0,.01,0,.02,0ZM485.83,1022.45s.1,0,.2,0c-.08.01-.16.02-.2,0ZM486.91,1022.26s.08-.02.09-.03c.04,0,.07,0,.11.01-.04,0-.11,0-.19.02Z"/>
    <path class="cls-1" d="M588.79,549s0,0,0,0c0,0,0,0,0,0Z"/>
    <path class="cls-1" d="M688.73,556.18c1.5,0,3.01,0,4.51,0-1.34,0,.33.03.69.05.56.04,1.11.13,1.66.2.06,0,.23.04.34.06.18.04.36.08.53.13.59.15,1.18.34,1.75.54.4.14.8.31,1.2.47-.02,0,.77.38.97.49.99.55,1.93,1.18,2.82,1.89,1.29,1.02,2.82,2.75,3.95,4.52,2.17,3.4,2.75,7.6,2.97,11.7.25,4.86.46,9.73.62,14.59.73,21.73.74,43.48.3,65.22-.47,23.32-1.48,46.64-3.12,69.91-.39,5.46-.81,10.91-1.27,16.36-.42,4.95,9.71,3.46,10.08-.85,1.96-23.06,3.22-46.19,3.96-69.32.72-22.51.95-45.04.52-67.55-.19-9.88-.5-19.77-1.03-29.64-.13-2.4-.16-4.83-.67-7.19-.5-2.3-1.43-4.47-2.58-6.51-2.19-3.9-5.71-7.19-9.7-9.19-4.62-2.32-9.29-2.88-14.39-2.87-3.18,0-6.36.01-9.55.02-7.17.01-14.33.02-21.5.02-16.31,0-32.63-.03-48.94-.1-4.35-.02-8.69-.04-13.04-.06-2.11-.01-4.21-.02-6.32-.04-1.05,0-2.1-.01-3.15-.02-.46,0-.92,0-1.38,0-.03,0-.09,0-.16,0,.11,0,0,0-.15,0,.06,0,.11,0,.14,0-.05,0-.11,0-.17,0-.2,0-.48,0-.55,0-8.35-.06-16.71-.13-25.06-.22-14.79-.16-29.58-.36-44.36-.73-10.03-.25-20.08-.48-30.08-1.21-1.44-.11-2.87-.22-4.3-.38-.55-.06-1.11-.13-1.66-.21-.09-.01-.19-.03-.28-.05-.1-.03-.2-.07-.31-.1-.11-.17-.24-.35-.27-.41-.03-.05-.17-.48-.28-.96-.14-.59-.23-1.2-.28-1.8-.04-.43-.03-.65-.06-1.32-.03-.69-.05-1.38-.07-2.07-.05-1.4-.09-2.79-.13-4.19-.08-2.93-.14-5.86-.18-8.79-.36-23.94.21-47.89-.14-71.84-.08-5.41-.21-10.82-.42-16.22,3.73-.94,7.43-2,11.09-3.19,11.36-3.71,23.03-8.62,32.11-16.59,1.11-.98,2.2-1.98,3.24-3.04.58-.59.85-1.3.85-1.99.15-.24.23-.5.23-.77-.16-12.32-.22-24.63-.25-36.95-.04-14.71-.03-29.43,0-44.14.03-15.5.09-30.99.17-46.49.07-14.84.16-29.68.26-44.52.08-12.74.18-25.48.27-38.22.01-1.33.02-2.65.03-3.98,0-.22-.16-.39-.45-.51-.04-.72-.14-1.45-.35-2.2-1.72-6.17-8.45-8.53-13.82-10.58-14.51-5.53-29.71-9.18-45.1-11.14-17.56-2.24-35.44-2.3-53.05-.6-18,1.73-35.88,5.19-53.17,10.54-4.38,1.35-8.73,2.79-13.03,4.38-4.43,1.64-8.49,4.01-12.2,6.91-1.85,1.45-3.63,2.97-5.4,4.51-1.48,1.29-3,2.52-4.14,4.13-1.13,1.59-1.4,3.17-1.06,4.71-.36,11.34-.58,22.69-.74,34.04-.1,6.91-.18,13.82-.24,20.73-.87.9-1.44,2.11-.02,2.82-.06,6.88-.1,13.76-.13,20.64-.04,9.89-.04,19.78-.03,29.67-.76.94-1.09,2.09,0,2.95,0,4.92.01,9.85.03,14.77.04,10.12.12,20.24.22,30.36-1.12,1.23-1.35,2.69.04,4,.04,3.54.07,7.08.11,10.62.16,12.56.37,25.11.7,37.67.03,1.31.07,2.62.11,3.93,0,.18.1.33.28.44.19.37.46.73.86,1.07,8.77,7.61,20.09,12.19,31.12,15.4,3.83,1.12,7.71,2.07,11.61,2.91-.33.37-.58.78-.6,1.23-.62,15.82-.73,31.66-.86,47.49-.15,17.75-.22,35.49-.47,53.24-.11,7.6-.24,15.21-.49,22.8-.12,3.54-.22,7.08-.35,10.63-.1,2.75-.2,5.6-1.03,8.25-.02.06-.12.35-.19.53-.08.17-.19.42-.22.49-.06.12-.52.75-.76,1.14.15-.15.32-.23.1,0-.08.08-.16.17-.24.26-.01.03-.02.05-.02.06,0-.01,0-.03,0-.04-.02.03-.05.05-.07.08-.19.19-.39.37-.58.55,0,0,0,0-.02,0-.26.17-.53.34-.8.51-.04.02-.07.04-.09.05-.35.16-.7.32-1.06.46-.12.05-.24.09-.36.13-.41.12-.81.25-1.22.36-.86.24-1.74.42-2.61.61-.12.02-.24.04-.36.06-3.6.59-7.25.87-10.89,1.11-5.27.36-10.56.57-15.84.74-.38.01-.76.02-1.14.04-.05,0-.09,0-.13,0-.74.02-1.49.04-2.23.06-1.62.04-3.24.08-4.86.12-3.45.07-6.89.13-10.34.18-15.48.21-30.97.22-46.46.17-16.32-.05-32.64-.18-48.97-.3-14.39-.11-28.79-.23-43.18-.25-4.46,0-8.81.1-13.09,1.53-4.69,1.57-9.16,4.03-12.55,7.68-3,3.23-5.24,7.24-5.84,11.66-.41,3.06-.13,6.3-.12,9.39.07,15.27.06,30.55.4,45.82.06,2.84.13,5.68.26,8.51.04.84,1.38,1.42,1.99,1.59,1.14.31,2.63.2,3.75-.13,1.98-.59,4.35-1.79,4.24-4.13-.06-1.24-.1-2.47-.14-3.71,0-.31-.02-.63-.03-.94,0-.03,0-.04,0-.07,0-.17,0-.33-.01-.5-.02-.84-.04-1.68-.06-2.51-.08-3.61-.13-7.21-.17-10.82-.09-8.1-.13-16.2-.17-24.3-.02-3.52-.03-7.05-.05-10.57-.01-3.19-.33-6.57.28-9.71.43-2.2.85-3.24,1.98-5.08.23-.38.48-.75.73-1.11.08-.12.51-.65.56-.72.65-.74,1.33-1.44,2.07-2.09.15-.13.3-.26.46-.39.03-.02.06-.04.1-.07.37-.26.74-.53,1.12-.77.19-.12.38-.24.58-.36.01,0,.07-.04.13-.08.1-.06.32-.18.4-.22.31-.15.62-.3.94-.44.07-.03.52-.24.89-.4.06-.02.13-.04.23-.07.22-.06.44-.14.67-.2.44-.12.88-.22,1.32-.33.25-.04.5-.08.75-.11.51-.06,1.02-.09,1.53-.14.17,0,.34,0,.52,0,.77,0,1.54,0,2.32,0,1.6,0,3.2,0,4.8,0,3.36,0,6.72.02,10.08.04,7.43.04,14.86.09,22.29.15,16.16.12,32.33.25,48.49.32,15.82.07,31.63.09,47.45-.08,12.81-.13,25.63-.33,38.42-1.01,4.19-.23,8.39-.49,12.56-1,5.89-.71,12.46-1.86,17.27-5.57,2.58-1.99,4.36-4.41,5.27-7.56.8-2.75.87-5.68.96-8.52.23-7.09.47-14.19.62-21.28.36-17.31.44-34.62.57-51.92.12-16.79.21-33.59.64-50.38.07-2.8.16-5.59.27-8.39,7.27,1.18,14.6,1.95,21.93,2.42,6.47.41,12.95.59,19.44.55-.33.43-.52.92-.49,1.48.65,10.33.79,20.69.32,31.03-.47,10.31-1.46,20.58-1.83,30.89-.44,12.19-.21,24.38-.18,36.57.05,18.8.04,37.6.02,56.4-.02,24.86-.06,49.71-.09,74.57-.03,24.22-.07,48.45-.08,72.67,0,17.42-.03,34.84.05,52.26,0,1.33.01,2.66.02,3.99.02,2.72,10,.95,9.97-2.67-.1-16.13-.08-32.27-.07-48.4,0-23.73.04-47.45.07-71.18.04-25.14.07-50.28.1-75.42.02-19.86.04-39.72,0-59.59-.02-9.18-.12-18.37-.09-27.55.07-20.47,2.61-40.83,2.34-61.3-.06-4.66-.25-9.31-.53-13.96,5.91-.24,11.81-.67,17.69-1.3,7.3-.78,14.61-1.83,21.84-3.26.83,23.13.37,46.28.38,69.42,0,5.92.04,11.85.13,17.77.09,5.74.08,11.53.51,17.25.25,3.37,1.69,6.34,5.07,7.46,1.11.37,2.36.51,3.53.66,7.86,1.03,15.89,1.12,23.81,1.38,13.55.45,27.11.68,40.66.87,16.75.23,33.49.37,50.24.47,16.85.1,33.7.15,50.55.17,14.56.02,29.12.01,43.69-.02ZM162.74,598.55c.26-.11.48-.19.5-.17,0,.01-.3.11-.5.17ZM491.35,373.94c-.07.02-.13.05-.2.07-6.2,2.19-12.53,3.97-18.94,5.42-1.73.39-3.47.76-5.21,1.1-.81.16-1.62.32-2.44.47-.39.07-.78.14-1.17.21-.17.03-.34.06-.51.09-3.59.62-7.2,1.15-10.82,1.6-7.44.93-14.91,1.53-22.4,1.83-3.72.15-7.47.02-11.19.22,1.43-.07.09,0-.27,0-.52,0-1.03,0-1.55-.02-.93-.01-1.86-.03-2.79-.05-1.85-.04-3.7-.1-5.55-.19-7.33-.32-14.64-.95-21.91-1.95-3.43-.47-6.85-1.03-10.26-1.68-.46-.09-.92-.2-1.39-.27.1.02.18.03.25.04-.14-.02-.32-.06-.48-.09-.86-.18-1.72-.36-2.59-.56-1.65-.37-3.28-.76-4.92-1.18-5.97-1.54-11.86-3.43-17.52-5.87-.33-.14-.66-.28-.98-.43-.1-.04-.19-.08-.28-.12-.62-.27-1.23-.58-1.84-.88-1.25-.62-2.48-1.27-3.7-1.95-2.23-1.26-4.39-2.64-6.44-4.17-.25-.19-.49-.4-.74-.59-.09-9.16-.17-18.32-.22-27.48-.02-4.27-.03-8.55-.04-12.82,7.51,3.32,15.4,5.84,23.32,7.84,13.4,3.38,27.18,5.34,40.95,6.32,14.64,1.04,29.39.93,44.02-.29,14.03-1.17,28.05-3.4,41.65-7.1,6.86-1.87,13.66-4.14,20.23-6.93.02,6.7.17,13.41.43,20.11-.06.03-.13.06-.18.09-.62.36-1.9,1.04-1.96,1.85-.07.99-.15,1.99-.22,2.98-.02.21,0,.39.06.56-.44,6.91-1.88,13.73-3.9,20.35-.35.16-.69.34-1.04.5-1.38.62-2.78,1.21-4.18,1.78-.66.27-1.33.53-1.99.78-.36.14-.71.27-1.07.4ZM491.32,373.95c.2-.07.29-.1,0,0h0ZM490.97,374.08c-.07.03-.15.05-.22.08.05-.02.13-.05.22-.08ZM360.68,223.82c12.97,2.65,26.15,4.24,39.35,5.07,14.28.9,28.6.96,42.88.06,14.21-.9,28.33-2.7,42.26-5.7,8.99-1.93,17.87-4.44,26.46-7.71-.21.35-.33.74-.33,1.16.08,15.58-1.35,31.08-2.77,46.57-1.88.75-3.77,1.48-5.67,2.15-.33.12-.67.23-1.01.35-.02,0-.02,0-.04.01-.75.24-1.49.49-2.24.73-1.42.45-2.84.88-4.27,1.29-2.98.86-5.99,1.64-9.01,2.36-1.52.36-3.04.7-4.57,1.03-.76.16-1.51.32-2.27.47-.05.01-.12.02-.2.04-.45.09-.89.17-1.34.26-3.23.61-6.47,1.16-9.72,1.64-6.68.99-13.4,1.73-20.14,2.25-.84.06-1.68.13-2.52.18-.36.02-.72.05-1.08.07-.24.02-.48.03-.72.05-.47.03-.3.07-.07.04-.68.16-1.65.06-2.29.09-.91.05-1.81.09-2.72.13-3.45.15-6.9.25-10.35.29-6.88.08-13.76-.04-20.63-.38-3.39-.17-6.77-.38-10.15-.66-.76-.06-1.53-.13-2.29-.19-.41-.04-.82-.07-1.23-.11-.05,0-.19-.02-.32-.03-.13-.01-.28-.03-.32-.03-1.68-.16-3.36-.34-5.03-.53-6.38-.73-12.74-1.66-19.06-2.83-5.89-1.09-11.74-2.39-17.52-3.97-1.34-.37-2.68-.75-4.01-1.14-.13-.04-.26-.08-.38-.12-.31-.1-.63-.19-.94-.29-.69-.22-1.37-.44-2.05-.66-2.5-.82-4.98-1.71-7.42-2.68-.52-.2-1.03-.43-1.54-.64.05-5.77.1-11.54.17-17.31.12-9.3.27-18.6.5-27.89,8.02,2.79,16.29,4.88,24.6,6.58ZM503.52,413.62c-.73,1.32-1.57,2.58-2.56,3.69-1.14,1.27-2.38,2.34-3.75,3.24-.68.44-1.37.86-2.08,1.26-.14.07-.56.3-.65.34-.44.23-.88.45-1.33.67-1.76.86-3.54,1.68-5.33,2.47-.17.07-.33.14-.5.21.46-.56.91-1.13,1.36-1.69,5.09-3.19,10.07-6.54,14.83-10.2ZM517.68,282.37c-.02,3.41-.02,6.82-.04,10.24-.46-.05-.91-.05-1.37-.01.11-2.02.22-4.05.35-6.07.31-4.82.71-9.64,1.13-14.46-.02,3.43-.04,6.87-.06,10.3ZM510.21,393.22c-.44,1.7-.88,3.4-1.34,5.1-.28,1.02-.55,2.04-.83,3.06-2.12,1.77-4.27,3.52-6.44,5.23,3.01-4.37,5.88-8.84,8.61-13.39ZM358.83,276.4c13.21,2.7,26.65,4.29,40.1,5.15,14.33.92,28.7.87,43.04-.03,13.91-.87,27.74-2.67,41.37-5.6,8.34-1.79,16.64-4.07,24.68-7.01-.44,4.94-.87,9.88-1.23,14.82-.82,11.44-1.27,22.89-1.37,34.36-.54.25-1.08.52-1.62.77-2.69,1.21-5.42,2.31-8.18,3.33-.37.14-.74.27-1.12.41-.13.05-.66.23-.78.28-.08.03-.14.05-.18.06-.43.15-.86.29-1.29.43-1.5.5-3,.97-4.52,1.42-6.23,1.86-12.55,3.1-18.88,4.56,1.57-.36.08-.02-.26.05-.38.07-.76.14-1.13.2-.87.15-1.74.3-2.61.45-1.7.28-3.4.54-5.11.79-3.4.49-6.81.9-10.23,1.25-3.46.35-6.93.63-10.4.85-1.78.11-3.55.2-5.33.28-.67.03-1.34.06-2.01.08.04,0-.03,0-.35,0-.17,0-.34.01-.52.02-.52.01-1.04.03-1.55.04-7.05.16-14.11.05-21.16-.32-6.84-.36-13.67-.98-20.46-1.87-.72-.1-1.44-.2-2.16-.3-.19-.03-.6-.09-.79-.12-.43-.06-.86-.13-1.29-.2-1.65-.26-3.31-.53-4.96-.83-3.17-.56-6.33-1.2-9.47-1.91-5.98-1.35-11.9-2.99-17.69-4.99-.67-.23-1.34-.47-2.01-.71-.3-.11-.6-.22-.9-.33-.18-.07-.36-.14-.54-.2-1.28-.49-2.55-1.01-3.81-1.55-2.5-1.06-4.96-2.22-7.36-3.48-.52-.27-1.03-.57-1.55-.86-.01-8.53,0-17.05.02-25.58.02-6.66.06-13.32.1-19.97,7.67,2.62,15.56,4.63,23.48,6.25ZM507.82,374.21c.2,2.11.39,4.22.61,6.32-5.9,11.43-12.63,22.42-20.17,32.84-1.46,2.02-2.96,4.01-4.48,5.98-.86.55-1.71,1.08-2.56,1.6,5.4-5.72,9.9-12.21,13.85-19.01,4.65-8.01,8.57-16.51,11.83-25.17.32-.85.62-1.71.92-2.57ZM337.35,202.44c1.26-1.46,2.86-2.68,4.31-3.94,1.49-1.29,2.84-2.43,4.41-3.59.73-.54,1.48-1.07,2.25-1.56.41-.27.82-.53,1.24-.78-.16.09-.59.32.15-.08.24-.13.49-.26.74-.39.41-.21.83-.4,1.25-.6.22-.09.45-.18.67-.26.97-.37,1.96-.72,2.94-1.06,1.91-.68,3.83-1.33,5.76-1.96.4-.13.8-.27,1.2-.39-1.19.35.23-.07.5-.16,1.01-.31,2.03-.62,3.04-.92,1.97-.59,3.96-1.15,5.94-1.68,2-.54,4.01-1.05,6.02-1.54.98-.24,1.95-.47,2.93-.69.42-.1.84-.19,1.26-.29.28-.06.56-.13.84-.19.18-.04.28-.06.32-.07,3.93-.96,7.98-1.61,11.97-2.27,2.01-.33,4.02-.64,6.03-.93,1.01-.14,2.02-.28,3.03-.41.51-.07,1.01-.13,1.52-.19.22-.03.43-.05.65-.08.07,0,.12-.01.17-.02.03,0,.06,0,.11-.01,8.33-.9,16.68-1.5,25.07-1.61,2.21-.03,3.16-.03,5.45,0,2.1.03,4.19.09,6.29.17,4.1.17,8.19.45,12.27.84,14.68,1.42,29.04,4.55,43.09,9.22,3.19,1.06,6.36,2.18,9.46,3.47,2.32.97,4.91,2.11,6.86,4.08,1.71,1.73,2.68,4.1,2.67,6.53-.01,2.62-1.39,4.96-3.11,6.64-.21.2-.42.4-.64.59,0-.02-.52.4-.63.48-.35.25-.7.48-1.06.7-.01,0-.03.02-.06.03,0,0,0,0,0,0,0,0,0,0,0,0-.05.03-.11.06-.16.08-.18.09-.36.19-.53.28-.6.3-1.72,1.06-1.98,1.75-1.57.61-3.14,1.21-4.73,1.77-.68.24-1.37.47-2.05.7l-.14.05c-.36.12-.72.23-1.09.35-1.42.45-2.84.88-4.27,1.29-2.98.86-5.99,1.64-9.01,2.36-1.52.36-3.04.7-4.57,1.03-.18.04-.4.07-.59.12-.24.05-.48.1-.72.15-.84.17-1.67.33-2.51.49-3.23.61-6.47,1.16-9.72,1.64-3.32.49-6.64.92-9.97,1.3-1.72.19-3.43.37-5.15.53-.36.03-.71.07-1.07.1-.06,0-.11.01-.15.01-.06,0-.13.01-.22.02-.9.08-1.79.15-2.69.22-13.68,1.04-27.42,1.17-41.12.53-.2-.01-.53-.03-.67-.03-.42-.02-.83-.05-1.25-.07-.83-.05-1.67-.1-2.5-.15-1.71-.11-3.43-.24-5.14-.38-3.32-.27-6.64-.59-9.95-.97-6.38-.73-12.74-1.66-19.06-2.83-3.01-.56-6-1.17-8.98-1.84-.6-.14-1.2-.28-1.8-.42-.15-.04-.55-.13-.65-.16-.4-.1-.8-.2-1.2-.3-1.43-.36-2.85-.73-4.27-1.12-4.84-1.33-9.63-2.87-14.31-4.67-1.58-1.36-3.11-2.96-3.64-4.86.03-.86.05-1.72.08-2.58.23-.56.56-1.07.89-1.45ZM417.54,438.3s-.05,0-.07,0c.16,0,.2,0-.2,0-.04,0-.07,0-.11,0-.08,0-.16,0-.24,0,0,0,.03,0,.06,0-.42,0-.84-.02-1.25-.03-1.85-.04-3.7-.1-5.55-.19-7.33-.32-14.64-.95-21.91-1.95-3.43-.47-6.85-1.03-10.26-1.68-.83-.16-1.66-.32-2.49-.49-.41-.08-.82-.17-1.23-.26-.18-.04-.36-.08-.54-.12-.02,0-.03,0-.05,0-1.61-.37-3.21-.74-4.81-1.16-5.97-1.54-11.86-3.43-17.52-5.87-.62-.27-1.23-.54-1.84-.82-.32-.15-.64-.29-.96-.44-.06-.03-.26-.12-.45-.22.05.02-.62-.31-.76-.38-.27-.14-.54-.28-.81-.42-.66-.35-1.32-.7-1.97-1.07-2.23-1.26-4.39-2.64-6.44-4.17-.58-.44-1.14-.91-1.7-1.37-.34-11.98-.56-23.96-.73-35.95-.03-1.99-.04-3.98-.07-5.97,6.65,3.71,13.97,6.38,21.16,8.48,13.92,4.06,28.45,6.15,42.9,7.07,15.53.99,31.19.67,46.66-.97,14.52-1.54,29.07-4.17,42.96-8.71,2.46-.8,4.92-1.67,7.38-2.6-2.54,6.71-5.53,13.27-8.87,19.59-3.88,7.33-8.43,14.33-13.93,20.55-2.77,3.14-5.48,5.78-8.72,8.35-.81.64-1.64,1.27-2.48,1.87-.39.28-.79.56-1.19.83-.17.12-.34.23-.52.35.02-.01-.39.26-.57.38-.14.09-.38.24-.42.27-.18.11-.35.22-.53.33-.41.25-.83.5-1.25.74-.15.08-.3.16-.45.24-.12.04-.24.1-.36.14-.71.26-1.43.52-2.15.77-.26.09-.52.18-.79.27-.06.02-.1.04-.15.05-.04.01-.07.02-.12.04-1.45.45-2.9.9-4.37,1.3-1.6.44-3.21.84-4.82,1.2-.06.01-.21.05-.37.09-.37.08-.75.15-1.13.23-.81.16-1.63.31-2.45.44-1.64.27-3.29.51-4.94.69-.41.05-.83.09-1.24.13-.17.02-.27.03-.34.03-.1,0-.19.02-.29.02-.91.07-1.81.13-2.72.18,0,0-.01,0-.02,0-3.73.15-7.46.22-11.19.22-.93,0-1.86,0-2.79-.02ZM482.12,546.24s.04.02.06.03c.09.17.04.11-.06-.03ZM588.46,549c-.1,0-.14,0,0,0h0Z"/>
    <path class="cls-1" d="M365.38,586.59c-.09.08-.16.19-.16.27,0,0,.01-.01.02-.02.02-.06.07-.14.14-.25Z"/>
    <path class="cls-1" d="M375,380.85c.25.04.36.06,0,0h0Z"/>
    <path class="cls-1" d="M416.98,438.29c.06,0,.12,0,.18,0,.1,0,.21,0,.31,0-.15,0-.38,0-.49,0Z"/>
    <path class="cls-1" d="M512.1,209.59c.05-.03.11-.06.16-.08,0,0,0,0,0,0-.41.2-.31.16-.16.08Z"/>
  </g>
  <path class="cls-1" d="M208.27,463.83c-3.52-.02-6.52-2.54-7.14-6.45-1.2-7.62-2.3-15.26-3.52-22.87-.26-1.6-.77-3.18-1.38-4.69-2.06-5.18-3.02-5.76-8.52-5.01-3.65.5-6.84-.19-9.51-2.84-1.53-1.52-1.61-2.76.6-3.67,1.26-.52,2.46-1.16,3.72-1.68,11.26-4.66,17.64-12.93,18.86-25.15.37-3.7,1.05-7.37,1.48-11.06.2-1.71,1.15-2.06,2.62-1.92,5.3.51,7.72,2.95,8.18,8.3.41,4.79.55,9.63,1.3,14.37.5,3.19,1.65,6.32,2.85,9.34,1.25,3.15,3.51,5.25,6.93,6.41,3.12,1.06,6.17,2.64,8.85,4.56,2.39,1.71,1.78,3.14-1.05,4.01-3.36,1.03-6.91,1.83-9.94,3.52-8.08,4.5-11.77,11.83-11.98,20.93-.09,3.72.17,7.44.36,11.16.09,1.75-.38,2.86-2.71,2.77ZM207.66,407.9c-2.98,5.87-7.67,9.31-12.25,11.91,3.6,3.79,7.02,7.38,10.44,10.99,3.32-4.58,8.07-8,14.41-10.11-5.85-3.03-10.05-6.75-12.6-12.79Z"/>
  <path class="cls-1" d="M640.2,144.65c-4.19-.07-7.27-2.88-8.11-6.84-1.38-6.48-2.88-12.93-4.44-19.36-.71-2.91-2.28-4.56-5.75-4.45-3.62.12-7.26-.64-10.14-3.25-2.3-2.08-2.11-3.31.66-4.58.41-.19.82-.4,1.26-.52,12.18-3.44,16.75-12.71,18.33-24.17.57-4.11.84-8.26,1.26-12.39.2-1.99,1.41-2.25,3.1-1.88,3.52.77,4.87,2.74,5.37,7.13.53,4.66,1.36,9.3,2.12,13.93.78,4.75,3.53,8.06,7.71,10.28,2.25,1.19,4.53,2.3,6.73,3.58,1.32.77,2.64,1.63,3.72,2.7,2.17,2.14,1.9,3.61-.71,5.14-3.21,1.88-6.49,3.65-9.59,5.69-3.57,2.34-5.87,5.69-6.6,9.93-.94,5.45-1.79,10.91-2.54,16.39-.23,1.67-.56,2.87-2.37,2.66ZM652.66,104.67c-4.66-3.15-9.11-6.16-13.67-9.24-2.37,6.04-5.94,11.39-12.12,13.69,3.29,2.85,6.57,5.69,9.89,8.57,2.92-6.78,9.93-9.32,15.9-13.02Z"/>
  <path class="cls-1" d="M228.72,915.43c-4.93-.27-8.4-3.4-9.2-8.03-.03-.18-.06-.36-.1-.54-.51-2.49-.29-5.63-1.76-7.26-1.23-1.37-4.51-.69-6.71-1.43-2.6-.87-5.18-2.05-7.44-3.57-1.58-1.07-1.55-2.76.46-3.89,1.5-.85,2.95-1.8,4.38-2.76,4.4-2.96,7.47-6.77,8.25-12.24.39-2.77,1.24-5.48,1.86-8.22.45-1.97,1.72-2.36,3.49-1.9,2.97.77,4.85,2.73,5.91,5.53,1.29,3.4,2.53,6.81,3.79,10.21.78,2.13,2.19,3.24,4.51,3.76,2.97.66,5.91,1.71,8.66,3.01,1.11.52,1.68,2.16,2.5,3.3-.98.68-1.92,1.43-2.95,2.01-1.1.62-2.29,1.1-3.45,1.62-5.29,2.34-8.18,6.41-8.8,12.15-.21,1.99-.54,3.96-.75,5.95-.19,1.85-1.17,2.56-2.65,2.31ZM225.68,885.16c-2.33,2.68-4.58,5.25-6.85,7.86,1.75.96,3.56,1.96,5.04,2.77,2.54-2.35,4.97-4.6,7.37-6.81-1.74-1.19-3.66-2.51-5.56-3.82Z"/>
  <path class="cls-1" d="M127.67,296.45c-.3-3.16-.68-6.31-.89-9.47-.16-2.38.63-2.89,2.93-2.11,4.07,1.38,6.09,4.06,5.89,8.32-.29,6.15,1.55,11.04,7.37,13.93,2.03,1.01,3.96,2.2,5.92,3.33,1.25.73,2.65,1.33,3.67,2.3,1,.95,2.3,2.38,2.18,3.46-.1.93-1.91,1.87-3.13,2.45-3.19,1.51-6.52,2.72-9.7,4.26-3.54,1.71-5.41,4.72-5.86,8.6-.37,3.15-.71,6.31-1.08,9.47-.3,2.57-1.14,3.16-3.6,2.37-3.21-1.03-5.3-3.06-5.56-6.61-.16-2.17-.17-4.38-.57-6.51-.46-2.47-1.2-4.89-1.95-7.3-.6-1.89-2.01-2.68-4-3.12-2.14-.48-4.37-1.31-6.13-2.59-2.46-1.78-2.17-3.52.49-5.02,1.74-.98,3.55-1.82,5.37-2.64,5.65-2.56,9.21-6.45,8.64-13.13ZM129.67,322.23c3.54-5.16,9.72-6.25,15.2-9.04-3.73-2.36-7.08-4.48-9.07-5.73-2.5,1.82-4.51,3.38-6.63,4.79-2.13,1.42-4.37,2.68-6.52,3.99,2.33,1.99,4.51,3.86,7.02,6Z"/>
  <path class="cls-1" d="M612.1,485.31c-2.98-.7-5.48-2.12-6.62-5.28-.18-.51-.4-1.02-.5-1.55-.68-3.54-1.69-6.78-6.01-7.39-.57-.08-1.2-.56-1.56-1.04-.66-.9-1.15-1.93-1.7-2.91.9-.51,1.76-1.13,2.72-1.51,1.17-.47,2.43-.72,3.64-1.1,2.16-.68,3.22-2.2,3.37-4.43.14-2.17.34-4.34.5-6.51.14-1.95,1.21-2.5,2.97-1.99,3.05.9,4.69,3.26,5.91,5.96.52,1.15.89,2.39,1.14,3.62.73,3.57,1.43,7.01,5.64,8.36.93.3,1.43,1.91,2.14,2.91-.95.59-1.89,1.2-2.85,1.77-.31.18-.67.27-1.01.4-4.93,1.92-5.36,2.52-5.3,7.79.02,1.7-.02,3.2-2.47,2.89ZM607.92,470.08c1.92,1.94,3.24-.21,5.03-.43-2.11-2.97-3.41.34-5.03.43Z"/>
  <path class="cls-1" d="M737.65,367.09c.12,1.8-.61,3.19-3.01,3.25-2.2.05-3.91-2.21-3.9-5.25,0-2.07,2.01-4.46,3.69-4.42,1.54.04,3.17,3.11,3.22,6.42Z"/>
  <path class="cls-1" d="M108.65,409.09c.12,1.8-.61,3.19-3.01,3.25-2.2.05-3.91-2.21-3.9-5.25,0-2.07,2.01-4.46,3.69-4.42,1.54.04,3.17,3.11,3.22,6.42Z"/>
</svg>