<?xml version="1.0" encoding="UTF-8"?>
<svg id="Layer_1" xmlns="http://www.w3.org/2000/svg" viewBox="0 0 837.5 1080">
  <defs>
    <style>
      .cls-1 {
        fill: #112a46;
      }
    </style>
  </defs>
  <g>
    <path class="cls-1" d="M772.78,199.55c.5-21.14-1.5-42.37-7.32-62.75-5.45-19.1-14.23-37.45-26.74-52.95-1.55-1.93-3.17-3.8-4.83-5.63-1.58-1.74-6.54-.43-8.04,1.43-17.91,7.01-34.1,17.82-48.04,31.04-14.69,13.93-26.75,30.45-36.5,48.15-11,19.95-19.1,41.36-25.83,63.08-7.02,22.66-12.82,45.73-18.12,68.85-.31,1.37-.62,2.74-.92,4.11-11.49,1.6-21.3,9.06-28.58,17.83-10.9,13.14-17.69,29.45-22.59,45.64-3.74,12.36-6.44,24.99-8.37,37.75-.18,1.18.79,2.3,1.89,2.58,13.06,3.38,25.9,7.58,39.11,10.39,3.02.64,6.07,1.24,9.16,1.45,2.33.16,5.4-.88,5.91-3.48,1.86-9.53,4.34-18.94,6.83-28.33,12.52,5.27,25.46,9.58,38.5,13.26.03,0,.06.01.09.02-1.05,4.17-2.08,8.34-3.09,12.52-2.01,8.25-3.95,16.51-6.02,24.74-.2.8.44,1.75,1.05,2.17,3.09,2.11,6.4,4.06,10,5.15,3.78,1.14,7.7,1.39,11.62,1.06,1.51-.13,4-1.02,4.54-2.68,3.84-11.77,7.33-23.66,10.48-35.63,14.49,2.92,29.26,5.12,44.06,5.72-2.64,10.96-6.91,21.46-10.13,32.25-.33,1.1.89,1.99,1.79,2.2,12.86,2.99,25.64,6.29,38.46,9.43,2.94.72,5.88,1.43,8.82,2.12,2.44.57,6.19-.36,6.96-3.08,6.12-21.6,10.95-44.01,11.29-66.54.09-5.98-.06-12.23-.89-18.36.07-.06.14-.13.21-.19.87-.79.32-1.31-.47-1.6-1.06-6.69-3-13.18-6.41-18.96-2.35-3.99-5.75-7.62-10.06-9.47-.37-.16-.76-.27-1.15-.35,5.19-20.66,9.94-41.46,14.25-62.31,4.81-23.25,8.53-46.84,9.09-70.62ZM567.49,326.25c.89-1.51,1.81-3,2.77-4.47.11-.16.39-.58.46-.69.23-.34.47-.68.71-1.02.52-.73,1.05-1.46,1.59-2.17,1.94-2.57,4.04-5.02,6.33-7.29.25-.25.5-.49.76-.74.07-.07.15-.14.22-.21.56-.48,1.1-.98,1.66-1.45,1.09-.91,2.21-1.77,3.38-2.57.55-.38,1.12-.73,1.68-1.09.12-.07.23-.13.35-.2.29-.17.59-.33.88-.48,1.18-.62,2.4-1.14,3.64-1.65.08-.03.16-.05.24-.08.3-.1.6-.19.9-.28.64-.19,1.28-.35,1.93-.5-4.47,20.35-8.42,40.81-11.82,61.36-.38,2.3-.65,4.64-1.2,6.9-.13.34-.05.63.23.86,1.09.57,2.19,1.13,3.29,1.68-12.39,4.6-24.69,9.43-36.88,14.54-.65.27-1.26.76-1.71,1.36,3.06-17.61,7.56-34.85,15.05-51.11,1.68-3.65,3.52-7.23,5.55-10.71ZM546.01,393.44c.13-.8.25-1.61.38-2.41.06.13.13.26.22.39,1.33,1.89,4.13,1.54,5.94.78,7.27-3.05,14.57-6,21.91-8.87,1.82-.71,3.63-1.41,5.46-2.11.91-.35,1.82-.69,2.73-1.04.46-.17.91-.34,1.37-.52.17-.06.34-.13.5-.19-.06.02,0,0,.2-.07,1.28-.48,2.57-.94,3.85-1.41-4.53,3.29-9.11,6.49-13.78,9.57-5.17,3.4-9.98,6.38-15.5,9.61-2.24-.63-4.49-1.27-6.73-1.91-2.18-.62-4.36-1.23-6.54-1.82ZM568.36,399.68c7.1-4.3,14.07-8.83,20.87-13.59-1,3.86-1.98,7.72-2.89,11.6-2.66,1.32-5.33,2.64-7.99,3.96-.24.12-.49.25-.74.38-1.53-.36-3.05-.74-4.57-1.12-1.56-.4-3.12-.81-4.68-1.23ZM585.01,403.58h0s0,0,0,0t0,0ZM649,431.38c-.09,0-.18-.01-.27-.02-.72-.06-1.43-.19-2.15-.3-.1-.02-.16-.02-.21-.03-.04-.01-.09-.03-.17-.05-.4-.11-.8-.22-1.19-.34-2.55-.81-4.43-1.86-6.62-3.3,3.65-14.62,7.03-29.3,10.82-43.88,4.21-16.18,8.57-31.92,14.76-47.48,1.16-2.9,2.24-6.01,3.82-8.72.05-.08.1-.16.15-.24.21-.25.4-.52.62-.77.08-.09.18-.18.26-.27.06-.05.12-.09.18-.14-.03,0-.05,0-.07-.01,0,0,.12-.06.23-.12.03-.03.07-.05.09-.07.03,0,.05-.02.08-.02,0,0,0,0-.02.02.03-.02.05-.02.04-.02.03-.01.07-.02.1-.03-.01,0-.03,0-.04,0,.02,0,.04-.02.05-.02.02,0,.05,0,.08,0,0,0,.02,0,.03,0,.13-.04.21-.06.27-.07,0,0,.02,0,.03,0-.06.02-.14.04-.23.07.13-.01.27-.02.31-.03.04,0,.07,0,.11-.01.02,0,.03,0,.06,0,.06,0,.12.01.18.02.19.6.33,1.23.42,1.86.06.43.11.86.15,1.29,0,.05.01.1.02.14.02.21.01.45.02.65.04,1.13.03,2.25,0,3.38-.2,6.25-1.09,12.49-2.08,18.66-2.83,17.5-6.97,34.82-11.59,51.93-2.56,9.51-5.25,18.68-8.23,27.96ZM669.37,325.56s-.02,0-.03,0c.02-.01.03-.01.03,0ZM669.37,325.57s0,0,0,0c0,0,0,0,0,0,0,0,0,0,0,0ZM712.6,389.36c.15-.08.28-.15,0,0h0ZM743.38,359.74c.56.17,1.18.24,1.8.23-1.51,1.44-2.98,2.93-4.41,4.45.52-1.75,1.03-3.51,1.54-5.26.32.27.7.48,1.07.59ZM711.36,435.05c-.4-.1-.8-.19-1.2-.29.3-.96.59-1.93.9-2.89,2,.44,4.3-.23,5.67-1.76,6.06-6.75,12.89-12.24,20.49-17.61,6.93-4.89,14.09-9.44,21.22-14.02-.36,3.34-.79,6.68-1.29,10-.18,1.22-.39,2.43-.59,3.64-.68.26-1.31.58-1.83.95-6.42,4.71-13.33,7.49-20.4,10.39-7.82,3.2-15.7,6.46-22.65,11.34-.09.06-.2.15-.33.25ZM743.06,371.46c.75-.93,1.2-1.48,1.77-2.14.72-.83,1.44-1.65,2.18-2.46,1.48-1.62,3.01-3.19,4.58-4.72,1.53-1.49,3.11-2.93,4.73-4.32.21-.19.44-.36.65-.55.13.54.27,1.07.39,1.61.4,1.78.72,3.57,1,5.38-8.29,7.54-16.58,15.08-24.88,22.62,1.51-4.31,2.95-8.65,4.34-13,2-.07,3.95-.85,5.22-2.42ZM756.72,373.54s0,0,0,0c-.47.47-.95.93-1.42,1.4-.95.93-1.89,1.87-2.84,2.8l-5.32,5.26c-3.55,3.5-7.09,7.01-10.64,10.51-2.83,2.79-5.65,5.59-8.48,8.38.53-2.03,1.44-3.98,2.18-5.95.55-1.47,1.08-2.95,1.62-4.43.31.05.58.07.77.06,2.09-.11,4.22-.78,5.78-2.2,6.06-5.51,12.12-11.02,18.18-16.53-.02.23.03.46.16.69ZM757,373.23s.04-.05,0,0h0ZM721.95,405.18c.94-.02,2.23-.19,3.38-.63-2.59,2.56-5.19,5.12-7.78,7.69.71-2.33,1.36-4.67,1.95-7.04.81,0,1.63,0,2.44-.02ZM715.67,418.13s.05.02.07.03c1.08.26,2.4.16,3.61-.22-1.79,1.54-3.53,3.14-5.23,4.79.52-1.53,1.04-3.06,1.54-4.59ZM759.49,379.84c0,3.86-.15,7.72-.42,11.58-1.22.1-2.44.58-3.4,1.2-10.09,6.52-20.51,12.87-30.08,20.23,10.71-10.58,21.41-21.16,32.12-31.74.59-.58,1.18-1.17,1.78-1.76,0,.16,0,.32,0,.48ZM722.88,385.81s0,0,0,0c0,0,0,0,0,0,0,0,0,0,0,0ZM716.68,436.33c-.09-.02-.19-.04-.28-.07.74-.27,1.43-.61,2-1.01,6.52-4.58,13.39-7.25,20.55-10.18,5.68-2.33,11.39-4.74,16.72-7.81-1.69,9.13-3.82,18.17-6.26,27.13-10.93-2.62-21.82-5.4-32.73-8.06ZM751.87,344.66c.3.46.59.92.86,1.4.04.07.08.15.13.23-3.31,2.19-6.36,4.8-9.07,7.71.94-3.37,1.85-6.75,2.74-10.13.44-1.31.89-2.61,1.33-3.92.02.02.04.04.06.06,1.52,1.36,2.82,2.96,3.94,4.66ZM741.39,330.92c-1,4.07-2.04,8.14-3.11,12.2-2.87,8.46-5.9,17.18-9.57,25.42-1.81,4.06-3.77,8.1-6.3,11.76-1.02,1.48-2.92,3.61-4.54,5.14-.13.12-.75.66-.8.72-.46.39-.93.77-1.42,1.13-1.02.77-2.08,1.48-3.18,2.13-.03.02-.05.03-.09.05-.34.18-.68.36-1.02.54-.63.32-1.27.61-1.92.88-.29.12-.59.24-.89.36-.05.02-.09.04-.13.05-.05.01-.11.03-.19.05-.27.08-.54.16-.82.24-.11.02-.21.03-.32.05-.73.1-1.46.18-2.19.26-1.38.07-2.76.13-4.13.19-10.26-1.04-20.49-2.29-30.66-3.98-.1-.02-.2-.01-.3-.02.79-3.21,1.56-6.42,2.3-9.64,1.94-8.44,3.71-16.92,5.15-25.45,1.1-6.48,2.08-13.02,2.4-19.59.13-2.64.14-5.32-.19-7.95-.2-1.58-.6-3.43-1.69-4.66,0-.01-.02-.02-.03-.03-.3-.46-.76-.82-1.44-.98-.1-.02-.19-.04-.29-.06-.34-.1-.69-.18-1.06-.2-4.29-.73-8.75-.2-12.2,2.75-2.24,1.91-3.58,4.37-4.72,7.03-3.21,7.43-5.96,15.03-8.44,22.74-3.16,9.8-5.96,19.72-8.57,29.68-16.29-4.55-32.01-10.8-46.48-19.61-.76-.47-1.71-.64-2.66-.61.49-3.05.89-6.12,1.41-9.13,1.04-5.97,2.12-11.94,3.24-17.9,2.23-11.81,4.65-23.6,7.24-35.34,5.1-23.11,10.77-46.13,17.39-68.85,6.28-21.58,13.67-42.94,23.67-63.11,9.06-18.28,20.31-35.45,34.35-50.3,12.88-13.62,28.57-25.61,45.47-32.97.76-.33,1.53-.64,2.3-.96,12.72,14.42,21.89,31.55,27.86,49.79,6.39,19.51,9.23,40.07,9.32,60.56.1,23.56-3.11,47.01-7.6,70.1-4.4,22.61-9.64,45.12-15.15,67.49Z"/>
    <path class="cls-1" d="M735.66,163.75c-3.51-4.72-9.05-7.57-14.59-9.2-6.63-1.95-13.67-2.3-20.5-1.51-6.64.77-13.52,2.77-18.99,6.72-5.52,3.99-9.51,9.78-11.64,16.22-2.67,8.09-2.62,17.06.43,24.82-1.17.55-2.77,1.56-1.87,2.8,2.42,3.34,5.45,5.9,8.86,7.79.64.62,1.32,1.23,2.03,1.8,13.24,10.66,32.8,8.71,46.04-.97,6.52-4.77,11.34-11.51,13.62-19.27,2.23-7.56,2.27-16.09-.39-23.55-.73-2.04-1.73-3.89-2.99-5.65ZM677.34,179.27c1.1-5.8,3.54-11.47,7.56-15.85,1.01-1.1,1.92-1.95,2.9-2.7.56-.43,1.14-.82,1.72-1.21.07-.04.1-.07.14-.1.02,0,.02-.01.04-.02.31-.17.62-.34.94-.5.24-.12.49-.23.73-.35.02-.01.04-.02.06-.03.03-.01.05-.02.08-.03.51-.2,1.02-.39,1.54-.57.14-.04.31-.11.4-.14.28-.08.56-.16.84-.24.33-.09.67-.17,1-.25.05-.01.08-.02.12-.03.01,0,.02,0,.03,0,.65-.12,1.29-.24,1.95-.34.35-.05.71-.1,1.06-.15.17-.02.45-.04.47-.05,1.4-.12,2.8-.18,4.21-.18.13,0,.25,0,.38,0,.37.01.74.03,1.12.05.74.04,1.49.1,2.23.17,1.5.15,2.8.35,3.95.59,3.32.69,6.61,1.78,9.59,3.42-.7.6-.96,1.24-.41,1.77,5.1,4.9,6.97,12.55,7.35,19.4.17,3.07-.03,5.94-1.16,8.82-1.31,3.35-3.27,6.41-5.45,9.25-1.09,1.42-2.25,2.78-3.48,4.07-1.08,1.13-1.79,1.83-3.2,2.9-.24.19-.5.36-.74.54-.04.03-.05.04-.08.06-.54.32-1.08.65-1.64.94-.11.06-.24.13-.36.21.02,0,0,0-.11.05-.16.07-.31.14-.47.21-.64.28-1.29.54-1.95.78-.05.02-.09.03-.14.05.04,0,.08-.02.13-.03-.12.03-.25.07-.37.11,0,0,0,0,0,0-.23.07-.45.15-.67.21-.72.21-1.44.4-2.17.56-.1.02-.21.04-.33.06-.3.05-.6.11-.89.16-.77.13-1.54.22-2.32.31-.07,0-.12.01-.17.02-.02,0-.04,0-.07,0-.4.02-.79.05-1.19.07-.8.03-1.6.04-2.4.03-.12,0-.53-.02-.72-.02-.2-.01-.64-.04-.74-.05-.81-.07-1.61-.16-2.41-.28-.45-.07-.9-.15-1.35-.23-.11-.02-.92-.19-.95-.19-.81-.2-1.61-.43-2.4-.7-1.44-.48-2.85-1.07-4.2-1.78-3.05-3.03-5.41-6.7-6.81-10.86-1.92-5.73-2.28-12.01-1.16-17.94ZM711.19,208.73c-.17.1-.35.2-.53.24-.03,0,.46-.21.53-.24ZM722.99,207.78c-1.1,1.19-2.27,2.3-3.54,3.28-.66.51-1.34,1-2.04,1.47-.89.59-.99.65-1.84,1.12-.67.37-1.36.7-2.05,1.02-.12.04-.67.29-.8.34-.48.19-.97.35-1.45.53-.11.03-.22.07-.33.1-.43.13-.87.23-1.3.35-.1.03-.16.04-.21.06-.04,0-.07.01-.13.02-.5.09-1.01.19-1.52.26-.16.02-.65.08-.69.09-.37.03-.73.06-1.1.08-.45.02-.9.04-1.35.04.01,0-.19,0-.3,0-.12,0-.44-.02-.49-.02-1.58-.08-3.07-.27-4.5-.61-.43-.1-.84-.23-1.26-.35,3.5-.22,6.95-.81,10.21-1.73,3.33-.94,6.65-2.2,9.63-3.97,3.07-1.82,5.71-4.18,8.1-6.82.55-.61,1.1-1.24,1.64-1.88-1.28,2.4-2.84,4.63-4.69,6.64Z"/>
    <path class="cls-1" d="M708.27,209.89s0,0,0,0c.06-.02.15-.04.24-.08-.42.1-.49.15-.25.08Z"/>
    <path class="cls-1" d="M669.31,325.63s-.1.05-.16.08c-.03.02-.05.04-.08.07-.03.02-.06.04-.08.07.09-.02.24-.13.33-.21Z"/>
    <path class="cls-1" d="M669.55,325.55s-.06.02-.09.03c.05,0,.12-.02.19-.04-.04,0-.06,0-.1,0Z"/>
    <path class="cls-1" d="M606.72,451.43c-1.14.2-2.27.52-3.31,1.05-.57.29-1.58.79-1.75,1.46-4.08,16.66-8.17,33.32-12.25,49.99-.4,1.62,2.73,1.24,3.55,1.1,1.14-.2,2.27-.52,3.31-1.05.57-.29,1.58-.79,1.75-1.46,4.08-16.66,8.16-33.32,12.25-49.99.4-1.62-2.73-1.24-3.55-1.1Z"/>
    <path class="cls-1" d="M630.06,466.74c-9.04,25.31-14.2,51.75-19.67,78-1.54,7.38-3.11,14.75-4.8,22.1-.49,2.13,2.46,3.16,4.06,3,2.18-.21,4.25-1.37,4.77-3.6,5.95-25.79,10.32-51.96,17.4-77.49,1.95-7.04,4.14-14.01,6.6-20.89,1.71-4.8-6.99-4.93-8.35-1.12Z"/>
    <path class="cls-1" d="M662.06,458.78c-1.19.33-3.74.88-4.04,2.33-4.43,21.57-10.14,42.85-15.38,64.23-1.38,5.61-2.72,11.24-3.98,16.87-.31,1.37,2.76.75,3.42.62,1.13-.23,2.26-.54,3.32-1.01.48-.22,1.68-.66,1.81-1.23,4.77-21.29,10.54-42.35,15.49-63.59,1.41-6.05,2.76-12.12,4.01-18.21.2-.99-4.29-.1-4.66,0Z"/>
  </g>
  <g>
    <g>
      <path class="cls-1" d="M617.29,671.22c-.78,0-1.73-.24-2.44-.92-.66-.63-.96-1.52-.84-2.43.2-1.53,1.48-2.64,3.41-2.97,5.56-.94,10.96-2.67,16.06-5.17,1.46-.71,3.6-.66,4.68.83.51.71.67,1.55.47,2.37-.33,1.34-1.51,2.04-1.99,2.28-5.79,2.83-12.1,4.84-18.75,5.96-.17.03-.37.05-.58.05Z"/>
      <path class="cls-1" d="M600.57,671.8c-.13,0-.26,0-.38-.02-7.54-.74-14.79-2.67-21.57-5.76h0c-.93-.42-1.54-1.26-1.64-2.25-.13-1.32.7-2.41,1.45-2.94,1.21-.86,2.87-1.03,4.21-.42,5.92,2.7,12.3,4.4,18.98,5.05,1.12.11,2.09.7,2.58,1.59.46.82.47,1.8.03,2.68-.69,1.4-2.3,2.07-3.66,2.07Z"/>
      <path class="cls-1" d="M564.31,656.93c-.66,0-1.33-.16-1.92-.57-2.44-1.71-4.88-3.49-7.24-5.22-4.14-3.03-8.43-6.16-12.8-8.95-.92-.59-1.42-1.51-1.38-2.53.05-1.11.76-2.1,1.96-2.72,1.1-.57,2.72-.88,4.01-.05,4.49,2.87,8.84,6.05,13.04,9.12,2.34,1.71,4.76,3.47,7.16,5.16.9.63,1.37,1.58,1.28,2.61-.1,1.14-.88,2.12-2.13,2.71-.56.26-1.27.45-1.98.45Z"/>
      <path class="cls-1" d="M532.04,636.25c-.42,0-.84-.07-1.24-.23-2.98-1.19-6.52-1.91-11.13-2.27-5.54-.44-10.6-.02-15.04,1.26h0c-.81.23-2.04.28-3.03-.28-.69-.39-1.18-1.02-1.38-1.78-.46-1.71.68-3.38,2.71-3.97,5.34-1.53,11.3-2.07,17.72-1.6,5.53.41,9.81,1.27,13.45,2.72,1.55.62,1.88,1.82,1.96,2.31.15,1.06-.31,2.1-1.27,2.85-.7.55-1.72.98-2.76.98Z"/>
      <path class="cls-1" d="M471.95,662.33c-.14,0-.28,0-.43-.02-.89-.09-2.13-.62-2.68-1.8-.41-.88-.32-1.9.24-2.73,6.02-8.97,13.17-16.52,21.25-22.44,1.17-.86,3.18-1.23,4.6-.23.79.56,1.25,1.41,1.26,2.33.01,1-.5,1.96-1.41,2.63-7.22,5.29-13.91,12.37-19.34,20.46h0c-.75,1.12-2.12,1.81-3.49,1.81ZM471.66,657.98h0ZM492.96,639.06h0ZM493.03,639.01s0,0,0,0c0,0,0,0,0,0Z"/>
      <path class="cls-1" d="M443.46,711.84c-1.3,0-2.36-.54-2.9-1.47-.5-.87-.48-1.91.06-2.85,5.12-8.9,10.18-18.04,15.07-26.88l2.32-4.2c1.03-1.86,3.9-2.36,5.52-1.46,1.39.77,1.84,2.43,1.04,3.87l-2.36,4.25c-4.89,8.84-9.95,17.97-15.08,26.89-.78,1.36-2.47,1.85-3.68,1.85h0Z"/>
      <path class="cls-1" d="M409.26,764.32c-.21,0-.41-.01-.6-.04-1.21-.17-2.14-.83-2.55-1.82-.19-.46-.51-1.67.52-2.99,6.72-8.63,13.38-18.2,20.36-29.25.8-1.27,2.39-2.01,3.96-1.84.92.1,2.1.61,2.66,1.76.42.86.35,1.88-.18,2.72-7.09,11.21-13.94,21.04-20.95,30.05-.78,1-2.08,1.41-3.21,1.41Z"/>
      <path class="cls-1" d="M374.8,802.28c-.4,0-.81-.06-1.22-.2-1.04-.36-1.8-1.18-2.02-2.2-.22-.99.11-2.02.87-2.76,7.07-6.81,13.73-13.94,21.55-22.56,1.34-1.48,4.17-1.66,5.59-.37,1.01.92,1.35,2.62.03,4.07-7.89,8.69-14.6,15.89-21.76,22.78h0c-.71.68-1.83,1.23-3.03,1.23Z"/>
      <path class="cls-1" d="M334.49,830.62c-1.02,0-2.02-.37-2.68-1.29-.51-.71-.68-1.6-.45-2.44.39-1.43,1.69-2.09,2.07-2.25,7.37-3.19,14.53-7.39,21.9-12.87,1.09-.81,2.77-.99,4.07-.42,1.01.44,1.68,1.29,1.8,2.3.07.62-.01,1.81-1.39,2.83-7.71,5.72-15.59,10.34-23.42,13.73h0c-.58.25-1.25.4-1.9.4ZM358.05,815.44s0,0,0,0c0,0,0,0,0,0Z"/>
      <path class="cls-1" d="M300.51,837.95c-8,0-16.77-1.22-26.15-3.65h0c-1.04-.27-1.84-1.02-2.13-1.99-.3-1-.04-2.08.7-2.9,1-1.11,2.68-1.59,4.2-1.2,10.72,2.78,20.46,3.86,28.92,3.21.54-.04,1.91-.03,2.88.97.6.61.87,1.43.78,2.29-.19,1.85-1.97,2.94-3.62,3.06-1.81.14-3.68.21-5.58.21ZM275.97,832.62s0,0,0,0c0,0,0,0,0,0ZM275.5,829.88h0s0,0,0,0h0Z"/>
      <path class="cls-1" d="M255.81,826.01c-.73,0-1.45-.2-2.04-.65-4.29-3.32-7.67-7.69-10.13-11.13-2.54-3.55-5.7-8.31-7.54-13.65h0c-.58-1.67.41-3.37,2.34-4.04,2.07-.71,4.09.07,4.69,1.82,1.58,4.6,4.42,8.87,6.72,12.07,2.41,3.36,5.35,7.16,8.84,9.87,1.33,1.03,1.57,2.8.55,4.12-.73.95-2.11,1.59-3.44,1.59ZM240.42,799.1h0Z"/>
      <path class="cls-1" d="M235.77,787.79c-1.85,0-2.97-1.21-3.15-2.54-.28-2.08-.4-4.17-.51-6.19-.44-7.82-.85-17.06-.61-26.48h0c.05-2.08,2.16-3.3,4.09-3.27,1.9.05,3.25,1.36,3.21,3.11-.04,1.54-.03,3.13-.01,4.67v.3c.04,4.79.15,9.68.33,14.54l.05,1.45c.12,3.48.24,7.09.7,10.52.25,1.89-1.24,3.54-3.48,3.84-.21.03-.42.04-.61.04Z"/>
      <path class="cls-1" d="M235.68,736.32c-.09,0-.18,0-.27,0-1.86-.11-3.13-1.45-3.03-3.19.45-7.35,1-14.8,1.54-22.01.43-5.76.87-11.71,1.26-17.57.07-1.14.78-2.12,1.94-2.69,1.13-.56,2.82-.74,4.07.08.88.59,1.36,1.57,1.29,2.64-.39,5.88-.83,11.86-1.26,17.64-.53,7.18-1.09,14.61-1.53,21.91-.12,2.02-2.12,3.18-4,3.18ZM239.73,693.85h0s0,0,0,0Z"/>
      <path class="cls-1" d="M239.59,675.14s-.09,0-.13,0c-1.9-.06-3.24-1.37-3.18-3.12.41-13.4.15-25.28-.8-36.33h0c-.1-1.15.44-2.22,1.47-2.94,1.02-.71,2.75-1.17,4.16-.51.94.44,1.55,1.31,1.64,2.33.99,11.42,1.26,23.63.84,37.33-.06,2.04-2.09,3.25-3.99,3.25Z"/>
      <path class="cls-1" d="M234.33,610.2c-1.58,0-2.84-.88-3.18-2.32-2.24-9.55-5.25-18.58-8.93-26.84h0c-.42-.94-.3-2,.31-2.85.92-1.27,2.67-1.71,3.9-1.58,1.24.13,2.22.8,2.68,1.84,3.81,8.53,6.9,17.83,9.21,27.66.42,1.77-.84,3.48-2.93,3.97-.36.08-.72.13-1.06.13Z"/>
      <path class="cls-1" d="M217.66,571.61c-.16,0-.31,0-.47,0h0c-.67-.03-1.2-.24-1.61-.54-.52-.1-1.03-.25-1.53-.44-2.33-.93-4.14-2.87-4.96-5.32-1.33-3.97,0-8.37,3.36-11.21,3.29-2.77,8.83-4.28,12.58-1.62,1.67,1.18,2.82,3.24,3.32,5.96.42,2.27.23,4.6-.54,6.56-1.55,3.95-5.68,6.63-10.16,6.63ZM219.22,556.97c-.89,0-1.89.96-2.26,1.42-1.09,1.34-1.38,3.2-.77,4.88.2.54.59,1.28,1.33,1.79.19.13.39.24.58.3.5-.2,1.24-.45,2.08-.42.72-.87.97-1.96,1.06-2.73.22-1.89-.32-4.38-1.46-5.08-.18-.11-.37-.16-.57-.16Z"/>
      <path class="cls-1" d="M653.22,680.47c-1.2,0-2.86-.61-3.52-1.41-.71-.84-.8-1.99-.23-2.92.61-1,1.23-1.99,1.86-2.97,9.21-14.34,20.65-26.96,33.98-37.5.93-.73,2.47-1.36,3.98-.92,1.1.32,1.91,1.18,2.12,2.24.2,1.04-.2,2.07-1.07,2.76-3.15,2.49-6.2,5.1-9.06,7.76-5.15,4.79-9.98,9.98-14.34,15.41-2.16,2.69-4.25,5.48-6.22,8.32-1.04,1.49-2.04,3-3,4.49-.47.73-.93,1.46-1.39,2.2-.22.36-.51.63-.82.86l.04.97-1.52.59c-.22.09-.5.13-.81.13ZM653.2,678.21h0s0,0,0,0h0Z"/>
      <path class="cls-1" d="M688.12,678.61c-.75,0-1.48-.21-2.08-.68-13.71-10.88-26.48-23.06-37.96-36.19-.68-.78-.89-1.82-.57-2.77.47-1.39,1.89-2.13,3.06-2.36,1.4-.28,2.66.08,3.45.99,11.27,12.89,23.72,24.77,36.99,35.3,1.33,1.05,1.54,2.83.5,4.14-.75.94-2.09,1.58-3.39,1.58Z"/>
    </g>
    <g>
      <path class="cls-1" d="M600.21,957.96l-1.02-.61c-37.77-22.46-162.79-103.44-188.24-119.3-34.59,16.41-147.24,81.76-170.81,94.21l-.45.27c-6.01,3.66-11.69,7.12-19.25,1.48-16.48-7.87-136.89-63.3-176.9-86.58l-1.63-.95.63-1.78c40.03-112.68,87.73-243.13,147.42-365.35l.88-1.81,1.9.65c25.09,8.62,50.52,21.63,75.11,34.22,12.5,6.4,25.42,13.01,38.03,18.9,41.4-24.23,81.74-44.86,119.92-61.34l1.2-.52,1.05.77c5.72,4.2,36.81,20.5,66.87,36.27,30.19,15.83,58.78,30.83,66.56,36,7.6-3.14,33.05-16.88,57.69-30.19,27.77-15,53.99-29.17,61.05-31.77,1.05-.35,2.07-.26,2.94.24,1.96,1.13,2.52,3.83,3.12,6.7.2.95.5,2.4.72,2.79l.14.24.08.26c9.6,33.29,18.47,67.48,27.05,100.54,23.02,88.76,46.83,180.53,87.23,264.64l.87,1.82-1.7,1.09c-51.06,32.78-187.5,93.23-199.39,98.6l-1.08.49ZM412.22,831.26l1.03.65c32.1,20.2,156.61,100,187.04,119.19,5.64-2.5,137.45-60.83,193.79-94.93-39.9-83.83-63.53-174.92-86.39-263.02-9.02-34.78-18.34-70.71-28.54-105.69-9.08,4.11-33.31,17.21-56.81,29.93-23.21,12.56-45.31,24.52-55.25,29.19l-3.4,1.5c-.13.05-.26.1-.38.15-1.22.46-2.63.24-3.59-.54-.34-.28-123.02-65.41-134.56-71.82-38.46,18.37-78.17,37.39-115.6,59.89-2.51,2.2-5.71,2.17-8.84-.09-36.27-18.25-71.96-35.51-106.12-51.33-59.13,121.85-105.83,249.5-145,359.9,53.7,28.4,179.51,86.72,179.51,86.72,25.5-12.95,145.85-83.06,181.99-99.21l1.11-.5Z"/>
      <path class="cls-1" d="M557.46,568.49c13.48,120.04,26.9,240.11,40.39,360.13-.48,3.5,9.03,1.32,8.76-1.72-1.34-11.98-2.69-23.95-4.03-35.93-3.22-28.75-6.45-57.5-9.67-86.26-7.26-64.72-14.52-129.43-21.78-194.15-1.77-14.79-3.13-29.64-4.98-44.4-.28-2.49-9.03-.65-8.69,2.33h0Z"/>
      <path class="cls-1" d="M421.65,484.66c-4.73,110.09-9.46,220.19-14.19,330.28-.12,1.66-.22,3.38-.22,5.04-.06,1.47,8.58.35,8.69-2.33,3.66-85.26,7.32-170.52,10.99-255.78.94-21.99,1.89-43.98,2.83-65.96.14-4.53.48-9.06.58-13.58.06-1.47-8.58-.35-8.69,2.33h0Z"/>
      <path class="cls-1" d="M298.59,548.82c-23.05,121.61-46.14,243.23-69.18,364.84-1.01,5.15,8.21,4.18,8.7-.03,17.62-92.91,35.23-185.82,52.85-278.73,4.55-23.97,9.09-47.95,13.64-71.92-.1-4.96,6.95-18.18-1.23-17.71-2.05.14-4.37,1.38-4.78,3.55h0Z"/>
      <path class="cls-1" d="M49.31,836.63c53.7,28.4,179.51,86.72,179.51,86.72,25.5-12.95,145.85-83.06,181.99-99.21l1.11-.5,1.03.65c32.1,20.2,156.61,100,187.04,119.19,5.64-2.5,137.45-60.83,193.79-94.93l6.59,2.7c-51.06,32.78-187.5,93.23-199.39,98.6l-1.08.49-1.02-.61c-37.77-22.46-162.79-103.44-188.24-119.3-34.59,16.41-147.24,81.76-170.81,94.21l-.45.27c-6.01,3.66-11.69,7.12-19.25,1.48-16.48-7.87-136.89-63.3-176.9-86.58l6.07-3.21Z"/>
      <path class="cls-1" d="M676.6,487.78c6.52,36.58,14.45,72.9,23.44,108.94,8.23,33,17.35,65.78,27.22,98.33,8.18,27,16.88,53.85,26.09,80.53,6.42,18.61,13.08,37.13,20.04,55.54,2.95,7.8,5.77,15.72,9.09,23.37.04.1.08.2.12.3.99,2.42,6.74.74,5.8-1.55-2.56-6.27-4.99-12.6-7.41-18.92-6.58-17.23-12.88-34.57-18.97-51.98-9.01-25.79-17.55-51.74-25.61-77.85-9.87-31.96-19.02-64.14-27.34-96.53-9.18-35.74-17.35-71.76-24.17-108.03-.86-4.56-1.69-9.13-2.51-13.7-.44-2.47-6.25-1.02-5.8,1.55h0Z"/>
      <path class="cls-1" d="M788.88,859.7c1.2-6.32,2.39-12.64,3.59-18.95l-5.79,1.17c.75,6.31,1.5,12.63,2.25,18.94.14,1.14,2.61.73,3.25.54.88-.26,2.69-.89,2.54-2.1-.75-6.31-1.5-12.63-2.25-18.94-.12-1.03-2.3-.74-2.86-.62-.88.18-2.72.71-2.93,1.8-1.2,6.32-2.39,12.64-3.59,18.95-.38,2.01,5.43,1.05,5.78-.8h0Z"/>
      <path class="cls-1" d="M785.99,840.24c.76-2.85,1.3-5.77,1.5-8.71.11-1.51-.76-1.97-2.24-1.95-1.61.03-3.28.45-4.81.92-.17.05-1.19.31-1.2.39l1.71-.25c-.06-.11-.11-.23-.14-.35.02-.44-.14-.94-.13-1.41.02-1.51.15-3.02.25-4.52.21-3.08.5-6.16.86-9.23.23-1.97-5.56-.87-5.76.85-.53,4.48-.89,8.98-1.1,13.48-.08,1.71-.1,3.58,1.96,4,1.41.29,2.78-.07,4.12-.49.63-.2,1.36-.48,2.04-.5l-1.16-.16.27.12-.56-.51c.28.6.04,1.48-.04,2.12-.09.79-.2,1.58-.33,2.37-.26,1.57-.61,3.13-1.02,4.67-.47,1.75,5.3.91,5.76-.85h0Z"/>
      <path class="cls-1" d="M771.84,802.51c.44-2.95.89-5.91,1.33-8.86.17-1.15-1.71-1.01-2.41-.89-.75.13-1.53.33-2.2.72-.38.22-1.07.58-1.15,1.05-.44,2.95-.89,5.91-1.33,8.86-.17,1.15,1.71,1.01,2.41.89.75-.13,1.53-.33,2.2-.72.38-.22,1.07-.58,1.15-1.05h0Z"/>
      <path class="cls-1" d="M771.28,871.65c3.56-3.58,7.41-6.86,11.5-9.82.32-.23.7-.78.58-1.21s-.71-.69-1.11-.76c-1.46-.25-2.93.26-4.1,1.1-4.09,2.95-7.94,6.24-11.5,9.82-.3.3-.71.73-.58,1.21.12.46.71.69,1.11.76,1.27.22,3.15-.14,4.1-1.1h0Z"/>
      <path class="cls-1" d="M744.53,886.03c4.34-2.39,8.67-4.78,13.01-7.17.62-.34,1.88-1.45.61-1.89s-2.97.03-4.08.64c-4.34,2.39-8.67,4.78-13.01,7.17-.62.34-1.88,1.45-.61,1.89s2.97-.03,4.08-.64h0Z"/>
      <path class="cls-1" d="M784.89,864.5c1.32-1.38,2.64-2.76,3.97-4.14.29-.31.72-.71.59-1.2-.12-.45-.71-.68-1.11-.75-.71-.12-1.47-.06-2.16.15l-.76.26c-.43.17-.83.4-1.18.7-1.32,1.38-2.64,2.76-3.97,4.14-.29.31-.72.71-.59,1.2.12.45.71.68,1.11.75.71.12,1.47.06,2.16-.15l.76-.26c.43-.17.83-.4,1.18-.7h0Z"/>
      <path class="cls-1" d="M720.13,898.06c3.26-2.35,6.35-4.92,9.28-7.68.28-.26.34-.69.06-.96-.33-.32-1.11-.35-1.51-.33-1.38.07-2.84.51-3.86,1.47-.34.32-.68.64-1.02.95-.1.09-.2.18-.3.28-.16.15-.1.1.02-.02-.16.15-.33.29-.49.44-.72.64-1.45,1.26-2.19,1.87-1.46,1.2-2.96,2.36-4.5,3.46-.27.19-.74.63-.63,1.03s.74.55,1.06.58c1.37.14,2.98-.29,4.1-1.1h0Z"/>
      <path class="cls-1" d="M697.19,909.02c1.81-2.21,3.8-4.26,5.94-6.16.25-.22.39-.55.1-.79-.33-.27-1.13-.23-1.48-.2-.77.07-1.54.23-2.26.51-.58.22-1.15.47-1.62.89-2.14,1.89-4.12,3.95-5.94,6.16-.21.25-.43.52-.1.79s1.13.23,1.48.2c.77-.07,1.54-.23,2.26-.51l.67-.28c.35-.16.66-.36.95-.61h0Z"/>
    </g>
  </g>
</svg>