<?xml version="1.0" encoding="UTF-8"?>
<svg id="Layer_1" xmlns="http://www.w3.org/2000/svg" viewBox="0 0 837.5 1080">
  <defs>
    <style>
      .cls-1 {
        fill: #112a46;
      }
    </style>
  </defs>
  <g>
    <path class="cls-1" d="M634.62,403.22c-4.59-3.4-9.16-6.82-13.77-10.19-3.51-2.56-7.22-4.94-10.56-7.73-1.7-1.42-2.99-3-3.28-5.26-.17-1.31-.05-2.66.06-3.96.16-1.89.24-3.93.71-5.76.52-2.03,1.93-2.94,3.77-3.71,2.6-1.1,5.21-2.19,7.81-3.3,5.2-2.23,10.37-4.5,15.52-6.84,3.82-1.74,7.57-3.49,9.65-7.36,2.07-3.84,1.29-7.98.45-12.05-1.99-9.62-5.5-19.4-11.11-27.53-2.26-3.28-5.85-5.03-9.83-4.45-2.65.38-5.27,1.27-7.86,1.94-2.79.72-5.57,1.45-8.36,2.17-2.78.73-5.57,1.46-8.35,2.21-1.3.35-2.61.7-3.91,1.05-1.2.33-2.74,1.07-4,.98-1.12-.08-1.95-1.28-2.67-2.02-1.02-1.04-2.05-2.09-3.08-3.12-1.89-1.89-3.81-3.76-5.77-5.58-3.01-2.8-5.53-6.16-5.76-10.42-.12-2.21.34-4.44,1.06-6.52.86-2.48,1.61-4.98,2.21-7.54.62-2.65,1.12-5.34,1.59-8.02.41-2.35,1.13-4.83.95-7.23-.34-4.58-3.93-6.85-7.53-8.96-4.95-2.9-9.9-5.82-14.88-8.67-3.63-2.08-8.59-4.64-12.77-2.58-2.03,1-3.03,2.88-4.14,4.75-1.44,2.43-2.88,4.86-4.29,7.31-2.75,4.77-5.47,9.58-7.49,14.71-.97,2.47-1.79,4.99-2.77,7.46-.71,1.81-1.79,2.98-3.78,3.19-3.74.4-7.74.31-11.41-.53-3.56-.81-6.87-2.53-9.36-5.23-1.42-1.54-2.53-3.29-3.49-5.14-1.17-2.24-3.01-4.21-4.53-6.21-1.71-2.25-3.42-4.5-5.16-6.73-1.61-2.07-3.16-4.37-5.08-6.17-1.45-1.36-3.22-2.28-5.17-2.63-2.28-.4-4.42.14-6.61.77-5.35,1.53-10.74,2.96-16.04,4.65-4.23,1.35-8.94,2.6-12.52,5.35-2.43,1.86-4.06,4.43-4.51,7.47-.62,4.15.68,8.34,1.53,12.35,1.19,5.63,2.27,11.27,3.41,16.91.44,2.2,1.58,5.03.64,7.23-.42.98-1.18,1.55-2.03,2.14-1.07.75-2.13,1.5-3.19,2.26-2.04,1.45-4.12,2.97-6.41,4.01-2.26,1.03-4.68,1.18-7.13,1.09-5.26-.18-10.5-.7-15.75-1.09-.26-.18-.63-.25-.99-.25-5.21,0-10.54-.36-15.74.07-3.02.25-5.54,1.38-6.89,4.21-.95,1.99-1.44,4.24-2.04,6.35-.78,2.73-1.52,5.48-2.23,8.23-.72,2.75-1.41,5.51-2.09,8.27-.56,2.27-1.34,4.58-1.24,6.94.08,1.92.65,3.74,1.73,5.33,1.29,1.91,3.23,3.21,5.02,4.61,4.21,3.3,8.32,6.73,12.64,9.88,3.49,2.55,8.02,4.59,10.2,8.51.89,1.6,1.26,3.45,1.2,5.27-.06,2.02-.47,4.14-.84,6.13-.74,3.97-3.23,6.87-6.78,8.68-4.85,2.47-9.56,5.1-14.15,8.03-3.82,2.44-7.61,4.82-9.88,8.89-2.08,3.73-2.15,7.81-1.53,11.93,1.42,9.38,5.31,18.19,10.66,25.97,2.28,3.32,4.84,7.77,9.33,8.03,2.36.13,4.42-.8,6.51-1.77,2.56-1.19,5.14-2.36,7.72-3.52,5.03-2.25,10.06-4.66,15.35-6.23,2.22-.66,4.24-.74,6.03.97,1.87,1.8,3.26,4.32,4.78,6.4,1.49,2.05,3.36,4.03,4.25,6.44.8,2.17.74,4.45.16,6.67-.69,2.62-1.55,5.17-2.14,7.81-.57,2.57-1,5.18-1.29,7.8-.31,2.72-.47,5.45-.49,8.18-.02,2.14,0,4.33.77,6.37,1.69,4.44,6.58,6.21,10.42,8.41,4.59,2.63,9.22,5.21,14.03,7.42,3.27,1.49,6.93,3.29,10.61,3.3,2.85.01,5.19-1.4,7.11-3.41,3.13-3.29,5.54-7.38,8.01-11.17,3.05-4.68,5.98-9.43,8.89-14.2,1.13-1.85,2.16-4.2,4.16-5.26,1.93-1.02,4.49-.36,6.54-.15,4.6.47,9.15.94,12.64,4.31,1.83,1.77,3.12,4.07,4.53,6.17,1.59,2.38,3.17,4.78,4.75,7.17,3.09,4.7,6.13,9.44,9.19,14.16,1.19,1.83,2.35,3.73,4.31,4.81,1.73.96,3.75,1.14,5.67.71,2.54-.58,5.02-1.82,7.45-2.74,2.62-1,5.23-1.99,7.83-3.02,2.6-1.02,5.19-2.07,7.77-3.16,2.38-1.01,4.89-1.96,7.13-3.27,3.18-1.88,5.41-4.9,5.88-8.6.24-1.91.04-3.89-.4-5.76-.65-2.75-1.42-5.47-2.14-8.2-1.43-5.44-2.9-10.88-4.22-16.35-.63-2.63-1.3-5.35-1.51-8.05-.07-.9-.06-1.95.26-2.81.35-.95,1.43-1.63,2.17-2.28,3.09-2.69,6.57-5.39,10.81-5.66,2.52-.17,4.85.64,7.24,1.31,2.71.76,5.43,1.45,8.16,2.1,5.09,1.22,10.28,2.65,15.47,3.36,3.18.43,6.51.15,9.13-1.87,3.2-2.48,4.84-6.62,6.49-10.17,2.3-4.93,4.58-10,6.21-15.2.76-2.44,1.34-4.93,1.84-7.44.43-2.15.81-4.26.21-6.42-1.27-4.61-6.08-7.07-9.65-9.72ZM569.24,461.02c0,.09,0,.17.02.27,2.32,10.05,4.7,20.07,7.34,30.05.43,1.61,1.69,4.23.66,5.84-.49.76-1.44,1.02-2.23,1.35-1.23.51-2.45,1.03-3.67,1.55-4.59,1.94-9.17,3.9-13.8,5.75-2.28.91-4.58,1.92-6.93,2.62-1.27.38-2.47.57-3.62-.22-1.42-.99-2.46-2.66-3.4-4.08-1.36-2.05-2.55-4.21-3.86-6.29-2.77-4.39-5.64-8.73-8.49-13.06-2.38-3.62-4.52-7.8-8.25-10.22-3.53-2.29-7.61-2.69-11.71-3.06-4.5-.41-8.78-1.02-12.92,1.26-1.69.93-3.52,2.12-4.61,3.75-1.14,1.7-1.82,3.73-2.47,5.65-.77,2.25-1.63,4.25-2.98,6.21-1.38,2-2.82,3.97-4.29,5.91-1.51,2.01-3.05,4.01-4.57,6.02-1.12,1.49-2.2,3.46-4.34,3.27-1.1-.1-2.2-.53-3.26-.81-1.21-.32-2.41-.66-3.59-1.05-2.41-.8-4.64-1.99-6.87-3.16-4.42-2.33-8.75-4.82-13.14-7.2-1.63-.89-3.2-1.89-4.09-3.59-.93-1.79-.74-3.67-.43-5.59.8-4.94,1.51-9.9,2.56-14.79.93-4.32,2.43-8.49,1.61-12.97-.82-4.49-3.95-8.02-6.62-11.55-2.47-3.27-4.84-7.58-9.34-8.02-2.19-.22-4.38.44-6.45,1.1-2.32.74-4.54,1.72-6.77,2.69-4.67,2.03-9.3,4.13-13.98,6.13-1.71.73-3.71,1.93-5.61,2-1.35.05-2.34-1.03-3.13-2-2.77-3.38-5.08-7.26-7.04-11.15-2.05-4.05-3.66-8.32-4.83-12.71-.26-.99-.5-1.99-.72-2.99-.22-1.04-.63-2.24-.49-3.3.3-2.21,2.57-3.64,4.19-4.88,3.93-3.01,8.43-5.31,12.75-7.7,3.71-2.05,7.86-3.78,10.48-7.27,2.56-3.41,3.52-7.96,4.39-12.05.92-4.34,1.78-9.29,1.09-13.72-.63-4.05-3.46-6.41-6.57-8.72-4.11-3.06-8.16-6.21-12.21-9.33-2.06-1.59-4.13-3.18-6.21-4.74-1.64-1.23-3.33-2.38-4.44-4.15-2.35-3.72-.27-7.95.75-11.75.64-2.39,1.21-4.8,1.76-7.21.29-1.28.47-3.42,2.04-3.77.93-.21,1.98-.01,2.92.04,1.36.08,2.71.15,4.07.22,2.63.14,5.26.27,7.89.4,5.18.25,10.35.5,15.53.79,2.25.13,4.5.32,6.73-.04,2.21-.36,4.14-1.22,6-2.46,6.73-4.51,15.55-9.12,16.79-17.99.27-1.93.12-3.86-.2-5.78-.43-2.62-.9-5.23-1.38-7.83-.95-5.13-1.96-10.25-2.97-15.37-.33-1.66-1.03-3.66-.87-5.38.1-1.04.99-1.41,1.83-1.85,4.23-2.2,8.75-3.86,13.32-5.2,2.36-.69,4.75-1.3,7.15-1.84,2.14-.48,4.71-1.39,6.92-1.13,1.88.23,3.38,1.45,4.54,2.87,1.61,1.95,3.13,3.99,4.66,6,3.16,4.14,6.37,8.26,9.38,12.51,2.56,3.61,4.89,8.18,9.26,9.82,4.46,1.68,9.2,2.53,13.97,2.43,2.32-.05,4.76-.28,7.01-.89,1.89-.51,3.44-1.8,4.65-3.3,2.88-3.55,4.38-8.39,5.97-12.61,1.67-4.46,3.43-8.86,5.71-13.05,1.17-2.15,2.44-4.25,3.84-6.26.51-.73,1.03-1.64,1.81-2.11.79-.47,1.6-.19,2.42.05,2.42.74,4.49,1.94,6.69,3.18,2.23,1.26,4.46,2.53,6.69,3.8,2.3,1.31,4.6,2.63,6.91,3.94,1.74.99,3.62,1.87,4.66,3.68.92,1.59.88,3.46.48,5.21-.56,2.5-1.21,5-1.82,7.49-.6,2.43-1.22,4.86-1.91,7.26-.63,2.18-1.43,4.31-1.85,6.54-.71,3.71-.44,7.6,1.18,11.05,1.86,3.96,5.15,6.7,8.29,9.62,1.85,1.72,3.71,3.44,5.56,5.16.93.86,1.86,1.72,2.78,2.58.82.76,1.61,1.62,2.64,2.08,1.75.78,3.56.16,4.85-1.16.88-.9,1.7-1.04,2.92-1.36,1.32-.34,2.64-.67,3.97-1.01,5.04-1.28,10.08-2.54,15.13-3.79,3.82-.95,7.55-2.12,10.91.63,1.59,1.3,2.65,3.1,3.67,4.86,1.2,2.07,2.3,4.19,3.29,6.37,1.97,4.29,3.58,8.73,4.97,13.23.47,1.53,1.94,4.37.68,5.82-.59.68-1.61.97-2.4,1.34-1.23.58-2.45,1.15-3.68,1.73-4.66,2.18-9.34,4.4-14.14,6.28-3.65,1.43-7.55,2-10.76,4.41-6.29,4.72-6.38,12.69-6.66,19.84-.15,4.02-.4,7.84,2.4,11.07,1.36,1.57,3.11,2.71,4.78,3.92,2.11,1.53,4.22,3.08,6.32,4.63,4.13,3.06,8.24,6.14,12.37,9.2,2.03,1.5,4.07,3,6.11,4.48,1.66,1.2,3.38,2.39,4.34,4.27.8,1.58.85,3.36.4,5.05-.62,2.33-1.79,4.61-2.71,6.84-1.01,2.43-2.03,4.85-3.07,7.26-.88,2.06-1.58,4.55-2.93,6.35-1.04,1.38-2.47,1.83-4.15,1.58-2.32-.34-4.63-.99-6.92-1.47-4.96-1.04-9.94-2.1-14.74-3.77-3.9-1.36-7.84-2.28-11.99-1.68-3.93.57-7.55,2.24-10.79,4.5-3.09,2.15-5.9,4.72-7.91,7.93-2.01,3.22-2.96,6.96-3.2,10.72,0,0,0,0,0,0Z"/>
    <path class="cls-1" d="M522.19,385.18c-1.52-.79-3.24-.41-4.77.12-2.29.8-4.6,1.56-6.9,2.34-1.07.36-2.13.77-3.21,1.11-.75.24-1.14.32-1.6-.39-.55-.85-.82-1.98-1.2-2.92-.49-1.21-.99-2.42-1.49-3.63-1.66-4.05-3.31-8.11-5.18-12.07-3.65-7.73-8.08-15.26-14.13-21.37-1.5-1.51-3.11-3.08-4.92-4.22-1.25-.79-2.72-1.19-4.14-.62-1.42.57-2.11,1.85-2.46,3.28-.54,2.22-.72,4.59-.88,6.86-.67,9.87-1.11,19.77-1.61,29.66-.25,4.95-.47,9.9-.7,14.85-.06,1.25-.06,3.01-1.25,3.78-.66.43-1.55.48-2.29.69-1.12.32-2.2.74-3.28,1.16-1.35.53-3.11.95-4.12,2.09-1.08,1.21-.7,2.79-.08,4.13,1.76,3.81,6.02,2.78,9.28,1.79.53-.16.84-.36,1.14.03.45.59.3,1.81.32,2.49.08,2.49.18,4.99.3,7.48.12,2.49.25,4.99.39,7.48.12,2.1.06,4.4.93,6.37.74,1.68,2.28,2.63,3.6,3.82.81.73,2.32-.06,2.59-.94.5-1.65.98-2.95.97-4.7-.01-1.83-.03-3.66-.05-5.49-.04-3.49-.1-6.99-.16-10.48-.03-1.75-.07-3.49-.11-5.24-.02-1.13-.36-2.86.52-3.78.86-.89,2.7-1.18,3.82-1.57,1.7-.59,3.41-1.19,5.11-1.8,3.25-1.15,6.49-2.32,9.73-3.49,1.61-.58,3.21-1.18,4.82-1.74.24-.08.86-.4,1.17-.38,0,.03.04.08.1.15.65.7.94,1.97,1.3,2.83.69,1.67,1.37,3.35,2.06,5.02,1.34,3.27,2.69,6.54,4.04,9.8,1.51,3.65,3.03,7.29,4.55,10.93.75,1.79,1.44,3.62,2.28,5.37.77,1.6,1.81,3.05,2.73,4.56.36.59,1.31.55,2.01.19.42-.19.84-.38,1.26-.57.45-.2.94-.69.81-1.23-1.13-4.69-3-9.16-4.67-13.69-1.72-4.65-3.45-9.3-5.19-13.95-.87-2.32-1.75-4.64-2.63-6.96-.4-1.04-.84-2.07-1.19-3.13-.2-.61-.48-1.46-.11-2.06.31-.5,1.05-.69,1.56-.88,1.18-.45,2.36-.89,3.52-1.36,2.19-.89,4.39-1.76,6.54-2.73,1.31-.59,2.81-1.53,2.99-3.1.17-1.5-.81-3.2-2.13-3.89ZM479.78,353.52c3.9,5.75,7.72,11.66,11.04,17.75,1.82,3.34,3.31,6.83,4.71,10.37.63,1.6,1.25,3.2,1.89,4.8.35.87.7,1.74,1.06,2.6.23.56.77,1.51.51,2.15-.21.51-.8.6-1.27.76-.92.31-1.86.6-2.78.9-1.85.6-3.71,1.21-5.56,1.82-3.69,1.22-7.37,2.65-11.11,3.68-.51.14-.61.35-.67-.2-.06-.49-.08-.94-.06-1.43.06-1.99.15-3.98.22-5.98.15-3.98.3-7.97.46-11.95.18-4.46.34-8.92.57-13.38.21-3.94.27-8,.99-11.89Z"/>
    <path class="cls-1" d="M575.45,419.1c-.05-2.22-1.97-3.84-4.08-3.93-1.2-.05-2.37.3-3.53.58-1.67.41-3.34.81-5.01,1.2-1.59.38-3.18.76-4.77,1.15-1.07.27-1.87.63-2.38-.59-.49-1.19-.47-2.72-.64-3.99-.24-1.78-.5-3.56-.75-5.34-.46-3.24-.92-6.47-1.36-9.71-1.83-13.43-3.33-26.9-4.95-40.36-.81-6.74-1.63-13.48-2.47-20.22-.12-.93-.7-2.72-.1-3.58.21-.3.4-.3.77-.38.86-.18,1.73-.31,2.59-.47,2.32-.43,6.03-.56,7.45-2.81,1.17-1.85-.6-3.85-2.29-4.52-1.19-.47-2.39-.5-3.64-.38-1.72.16-3.43.36-5.14.55-6.56.72-13.25,1.25-19.75,2.43-2.43.44-5.75.8-7.56,2.7-1.39,1.46-.64,3.36.58,4.67,1.7,1.83,4.2,2.04,6.52,1.74,3.24-.41,6.44-1.07,9.65-1.68.97-.19,2.27-.68,3.27-.55.45.06.53.26.68.72.32.96.34,2.07.45,3.07.2,1.75.39,3.5.57,5.26.66,6.46,1.22,12.93,1.79,19.4,1.14,13.01,2.34,26.03,4.57,38.9.58,3.32,1.22,6.63,1.95,9.93.33,1.49.68,2.98,1.05,4.47.18.74.72,2.2-.13,2.74-.48.31-1.42.35-1.96.47-.8.18-1.61.36-2.41.55-1.58.37-3.21.68-4.74,1.22-1.65.58-3.6,1.87-2.96,3.89.76,2.39,3.29,3.31,5.25,4.45.09.05.19.08.31.1.03,0,.05,0,.08.01,0,0,.01,0,.02,0,.2.03.4.03.56.02,2.93-.28,5.86-1.06,8.71-1.76,3.95-.97,7.87-2.05,11.76-3.24,3.01-.92,6.14-1.82,8.98-3.19,1.44-.7,3.08-1.73,3.04-3.53Z"/>
  </g>
  <g>
    <path class="cls-1" d="M523.45,481.97c-10.61,1.4-21.22,2.82-31.83,4.25l-2.65,3.92c12.39-1.65,24.79-3.29,37.18-4.91l-2.71-3.26Z"/>
    <path class="cls-1" d="M771.47,822.03c-.26-2.07-.17-4.17-.32-6.26-.96-13.13-1.89-26.27-2.96-39.39-.35-4.32-.67-8.73-1.78-12.89-1.31-4.9-4.68-8.16-10.08-8.6-4.43-.36-8.87-.6-12.35-.84-4.97.29-8.96.43-12.94.78-10.03.86-20.06,1.72-30.08,2.61-.06-1.63-.15-3.27-.33-4.89-1.69-14.98-3.6-29.93-5.09-44.92-1.33-13.37-2.15-26.79-3.32-40.18-.49-5.56-3.05-7.64-8.65-7.46-1.18.04-2.35.23-3.52.4-10.16,1.49-20.32,2.91-30.46,4.51-17.68,2.78-35.34,5.65-53,8.53-25.55,4.16-51.07,8.5-76.65,12.39-3.98.6-7.95.88-11.98,1.66-21.58,4.17-43.29,7.64-64.95,11.36-2.56.44-3.52-.45-3.53-3.03,0-1.98.03-4.01-.34-5.94-1.83-9.63-3.68-19.27-5.72-28.86-4.21-19.81-8.56-39.59-12.83-59.38-.7-3.24-.28-3.78,3-4.37,7.69-1.39,15.38-2.78,23.06-4.17,32-5.81,64.06-11.3,95.97-17.51,45.05-8.77,90.34-15.96,135.82-22.04,10.79-1.44,21.57-3.21,32.2-5.5,9.46-2.04,15.66-8.12,17.97-17.74,2.31-9.65,2.44-19.43,1.46-29.25-.84-8.49-2.84-16.62-7.19-24.09-3.13-5.37-7.53-8.93-13.78-9.53-13.28-1.28-23.59-4.4-77.23.66-18.42,1.74-36.77,4.15-55.11,6.67l.8,3.82c.69-.09,1.38-.18,2.08-.27,25.31-3.28,50.49-5.45,75.86-8.28,5.23-.58,50.33-.45,52,5,1.45,4.75,1.74,8.19,2.91,13.04,2.88,11.94,3.93,23.98,2.23,36.21-.96,6.94-4.57,11.71-11.36,13.45-7.64,1.96-15.34,3.91-23.13,5-30.32,4.23-60.75,7.68-91.01,12.27-26.3,4-52.52,8.67-78.6,13.92-39.64,7.99-79.29,15.65-119.42,20.87-26.57,3.46-52.97,8.14-79.47,12.11-20.75,3.11-41.55,5.9-62.31,8.95-31.1,4.57-62.16,9.34-93.27,13.84-12.4,1.79-24.86,3.15-37.31,4.53-1.21.13-2.79-.73-3.79-1.6-5.14-4.42-8.62-10.04-11.08-16.29-4.36-11.08-6.91-22.57-7.18-34.49-.07-3.25.21-6.53.57-9.78.59-5.4,3.53-9.08,8.72-10.75,5.87-1.9,11.7-4.1,17.71-5.39,25.31-5.42,50.62-10.86,76.05-15.68,24.89-4.73,49.88-9.01,74.91-12.97,48.9-7.74,97.79-15.53,146.79-22.53,9.01-1.29,18.01-2.55,27.03-3.8l-4.93-2.91c-22.84,3.05-45.7,6.02-68.48,9.5-42.92,6.55-85.85,13.15-128.63,20.54-40.54,7-80.93,14.89-121.32,22.76-9.32,1.82-18.41,4.93-27.47,7.86-5.88,1.9-9.15,6.33-9.68,12.6-.15,1.81-.35,3.62-.41,5.43-.37,11.12,1.62,21.9,5.02,32.42,7.03,21.79,20.34,33.89,44.29,34.09,13.04.11,26.18-.58,39.12-2.18,23.16-2.87,46.2-6.7,69.3-10.12,20.94-3.11,41.9-6.03,62.8-9.35,33.82-5.38,67.6-11.01,101.4-16.53,3.89-.64,4.18-.43,4.94,3.33,2.85,14.06,5.57,28.15,8.58,42.17,3.5,16.33,7.24,32.62,10.93,48.91.25,1.12.85,2.2,1.47,3.18,1.5,2.34,1.41,2.7-1.43,3.25-7.85,1.51-15.69,3.09-23.57,4.43-17.64,2.99-35.27,6.09-52.97,8.69-11.67,1.71-23.46,2.59-35.19,3.92-10.19,1.16-20.36,2.59-30.56,3.61-28.11,2.82-56.3,4.95-84.33,8.41-21.88,2.7-43.59,6.85-65.33,10.67-4.95.87-9.75,2.81-14.47,4.63-3.3,1.27-4.7,4.1-4.41,7.69.28,3.53.41,7.08.81,10.59,3.08,27.43,6.19,54.86,9.34,82.28.22,1.88-.38,2.89-2.24,3.36-2.91.73-5.81,1.51-8.65,2.44-11.77,3.85-23.15,8.45-33.43,15.64-6.04,4.23-8.41,9.45-7.21,16.54.11.63.1,1.27.24,1.89,2.22,9.72,4.08,19.55,6.79,29.13,2.19,7.74,5.17,15.29,8.27,22.74,2.27,5.46,6.8,8.89,12.4,10.75,9.42,3.13,19.15,3.32,28.86,2.39,22.96-2.21,44.52-9.45,65.44-18.8,4.8-2.14,7.24-5.89,7.32-11.14.03-1.72.13-3.48-.14-5.17-1.99-12.46-3.76-24.96-6.22-37.32-1.28-6.45-3.52-12.76-5.84-18.93-2.45-6.49-7.51-10.3-14.31-11.77-1.06-.23-2.1-.6-3.17-.79-4.81-.87-9.63-2.45-14.43-2.38-7.41.1-14.81,1.25-22.2,2.15-2.49.3-3.49-.5-3.77-2.92-1.89-16.33-3.94-32.64-5.76-48.98-1.47-13.18-2.75-26.38-4.04-39.57-.49-4.98.46-6.56,5.1-8.28,2.97-1.1,6.03-2.15,9.14-2.68,21.4-3.61,42.75-7.64,64.26-10.43,23.41-3.03,46.98-4.85,70.47-7.23,12.11-1.23,24.21-2.51,36.31-3.85,2.45-.27,3.65.39,4.08,2.99,1.84,11.02,3.8,22.01,5.8,33,2.64,14.47,5.35,28.93,8.09,43.38.7,3.67.62,3.87-3.16,4.63-15.42,3.14-30,8.54-43.82,16.09-6.24,3.41-8.89,8.3-8.64,15.31.6,16.22,4.12,31.85,9.27,47.14,2.39,7.08,7.41,11.62,14.58,13.96,8.44,2.76,17.05,4.51,25.92,4.59,26.84.24,52.06-6.94,76.66-16.88,4.24-1.71,6.81-4.97,7.05-9.54.27-5.15.36-10.33.05-15.48-.84-14.24-4.22-27.95-8.91-41.41-3.38-9.7-10.13-14.81-20.04-15.28-12.38-.59-24.8-.54-37.2-.62-3.86-.03-4.01.05-4.65-3.9-1.42-8.69-2.78-17.4-4.32-26.07-2.79-15.65-5.75-31.26-8.53-46.91-1.05-5.89-2.5-6.27,5.31-7,41.4-3.88,82.11-12.09,122.95-19.56,17.15-3.14,34.37-5.94,51.56-8.84,3.64-.61,3.96-.14,4.29,3.58.71,7.96,1.27,15.94,2.4,23.85,2.77,19.33,5.78,38.62,8.83,57.91.78,4.92,1.84,9.82,3.26,14.58.67,2.24.09,2.68-1.79,3.06-5.34,1.1-10.67,2.21-15.97,3.47-12.07,2.88-23.66,7.02-34.47,13.24-4.77,2.74-7.02,6.4-6.53,12.02,1.51,17.54,5.7,34.36,12.87,50.44,3.41,7.66,9.45,12,17.64,12.81,8.29.82,16.69,1.68,24.98,1.26,22.85-1.15,45.16-5.94,67.34-11.36,6.65-1.62,10.15-5.58,10.53-12.38.07-1.18.28-2.36.24-3.53-.56-15.8-3.02-31.26-8.52-46.14-2.34-6.33-6.84-10.86-12.77-13.95-13.52-7.05-27.92-8.78-42.9-6.91-3.88.49-4.15.32-4.7-3.62-.96-6.92-1.66-13.89-2.73-20.8-3.88-25.04-8.14-50.03-9.85-75.35-.25-3.7.02-4.02,3.64-4.55,16.98-2.52,33.99-4.88,50.93-7.67,14.87-2.45,29.62-5.72,44.5-8.08,20.72-3.28,41.53-6.05,62.3-9.03,2.99-.43,3.71.02,4.09,3.16.63,5.32,1.15,10.65,1.61,15.99,1.87,21.81,3.63,43.62,5.59,65.42.26,2.88,1.01,5.73,1.8,8.55-3.3.3-6.6.61-9.89.92-13.32,1.28-26.48,3.4-39.12,8.06-5.92,2.18-8.92,6.08-9.13,12.66-.41,13.03,1.15,25.76,4.95,38.19,2.88,9.41,6.65,18.45,12.59,26.44,5.21,7,12.09,10.57,20.87,10.13,4.35-.22,8.72-.51,13.02-1.12,13.13-1.87,26.25-3.78,39.33-5.94,12.01-1.98,23.96-4.22,35.28-9.02,7.38-3.13,11.44-8.06,10.38-16.42ZM684.7,547.61c2.47-.81,4.96-1.58,7.47-2.28-.64.36-1.29.84-1.65,1.43-.03.04-.05.09-.07.14-2.19.34-4.39.66-6.58.99.28-.09.56-.19.84-.28ZM630.84,555.99c.47-.27.94-.54,1.42-.81,1.72-.96,3.48-1.85,5.24-2.74,10.44-1.3,20.89-2.58,31.32-4,.06,0,.12-.02.19-.03-.6.21-1.2.42-1.79.64-1.25.44-2.51.88-3.77,1.32-.32.11-.64.22-.97.33-.02,0-.03.01-.05.02-.05.02-.09.03-.15.05-.54.18-1.07.36-1.61.53-6.35.93-12.69,1.89-19.01,2.94-3.65.6-7.3,1.22-10.95,1.83.04-.02.08-.05.12-.07ZM596.87,560.74c1.44-.42,3.65-1.63,3.67-3.38,3.48-.49,6.97-.99,10.45-1.47,5.25-.74,10.5-1.43,15.76-2.1-2.23,1.26-4.41,2.62-6.55,4.02-10.6,1.78-21.2,3.57-31.8,5.38,2.82-.82,5.65-1.64,8.47-2.45ZM566.21,566.43c.05.19.13.37.23.55-1.29.22-2.57.45-3.86.68,1.21-.41,2.42-.82,3.63-1.22ZM550.3,565.32c.93-.17,1.86-.35,2.8-.52.04,0,.08-.01.12-.02-2.1.73-4.2,1.47-6.3,2.21,1.13-.55,2.26-1.1,3.38-1.67ZM398.66,595.14c-.92.4-2.05,1.38-2.42,2.46-6.68,1.18-13.35,2.36-20.05,3.45-29.04,4.73-58.06,9.55-87.14,13.99-40.12,6.13-80.28,12.06-120.45,17.84-13.4,1.92-26.91,2.97-40.47,1.56-1.89-.2-3.73-.89-5.59-1.36.04-.33.09-.66.13-.99.5-.13.99-.32,1.49-.38,15.67-1.96,31.36-3.72,47-5.89,33.73-4.68,67.43-9.51,101.13-14.4,27.59-4,55.15-8.17,82.72-12.28,17.42-2.59,34.84-5.23,52.27-7.74.03,0,.07,0,.1,0-2.91,1.25-5.82,2.5-8.73,3.75ZM418.42,593.27c.1-.03.19-.07.29-.1.05-.02,6.4-4.24,6.35-4.46,19.16-3.3,38.34-6.47,57.45-10.05,17.22-3.23,34.37-6.87,51.56-10.25-3.78,1.66-7.6,3.23-11.46,4.69-.69.26-2.38,1.14-2.69,2.11-32.78,5.89-65.53,11.9-98.3,17.84-1.36.25-2.34.34-3.21.22ZM194.01,924.85c3.52-2.12,5.38-5.3,5.65-9.4.16-2.5.32-5,.48-7.5.24-.02.47-.03.71-.05.39,3.92,1.09,7.85,1.1,11.77,0,4.52-2.25,7.92-6.46,9.91-20.7,9.78-42.29,16.44-65.23,18.04-4.49.31-9.05-.27-13.58-.51-.95-.05-1.89-.41-2.84-.62,0-.3,0-.61-.01-.91,1-.18,2-.5,3.01-.53,25.09-.78,48.55-8.3,71.65-17.28,1.93-.75,3.75-1.84,5.53-2.92ZM192.64,871.2c-3.34-6.34-6.68-12.66-10.11-19.17,4.36.37,11.48,14.04,10.11,19.17ZM162.04,848.02c7.46-.88,12.52,1.84,15.43,8.25,3.4,7.49,7,15.08,8.96,23,2.49,10.09,3.63,20.53,4.93,30.88.99,7.81-.96,11.08-8.3,13.94-22.92,8.92-46.17,16.63-68.58,17.12-10.27.63-10.63.74-13.34-6.34-6.33-16.57-11.4-33.49-12.91-51.32-.49-5.81,1.58-9.86,6.16-13.25,8.01-5.92,17.04-9.65,26.29-12.96,13.4-4.8,27.21-7.64,41.36-9.31ZM400.02,867.54c-.29-7.25-.7-14.49-1.07-21.74-.04-.84-.15-1.67-.22-2.51.31-.04.62-.07.93-.11.7,4.23,1.69,8.45,2.03,12.71.5,6.22.76,12.48.67,18.72-.06,4.83-2.54,8.28-7.23,10.21-21.07,8.7-42.85,14.4-65.7,15.27-5.4.21-10.86-.55-16.27-1.07-1.8-.17-3.53-.98-5.3-1.49.02-.32.03-.65.05-.97,1.35-.23,2.69-.51,4.05-.67,23.5-2.71,46.59-7.46,69.27-14.11,4.91-1.44,9.47-4.1,14.14-6.29,3.33-1.56,4.78-4.38,4.64-7.96ZM358.71,808.76c2.07-.2,4.17-.03,6.26-.03,0-.03,0-.05,0-.08,4.81,0,9.62-.12,14.42.04,4.09.13,4.38.53,5.67,4.52,3.46,10.71,4.76,21.81,5.77,32.93.58,6.32.7,12.68,1.02,19.02.22,4.26-1.87,6.87-5.62,8.73-8.53,4.25-17.51,7.2-26.81,8.91-19.28,3.56-38.63,6.7-57.94,10.09-2.78.49-4.71-.41-5.77-2.86-1.55-3.57-3.27-7.13-4.2-10.88-2.92-11.71-5.38-23.5-6.29-35.62-.7-9.27,2.04-15.67,10.87-19.63,10.12-4.54,20.09-9.72,30.99-11.78,10.39-1.96,21.07-2.37,31.63-3.38ZM589.9,863.46c.15-.18.48-.22.72-.32,1.41,3.1-.55,7.83-4.09,9.39-2.06.91-4.27,1.53-6.47,2.07-20.22,4.98-40.63,8.87-61.47,10.1-2.25.13-4.53-.12-6.8-.23-.3-.01-.59-.24-.88-.37,0-.18,0-.37,0-.55,1.11-.17,2.21-.39,3.32-.51,19.63-2.1,39.05-5.33,58.14-10.41,6.54-1.74,13-3.61,17.53-9.18ZM546.07,798.01c8.72-1.08,17.18.49,25.23,4.18,3.6,1.65,5.73,4.02,6.25,8.13,1.49,11.97,3.23,23.92,4.87,35.87-.07.03-.15.06-.22.08,0,3.27-.07,6.53.02,9.8.12,4.08-1.57,7.27-5.21,8.8-4.75,1.99-9.63,3.94-14.65,4.95-14.68,2.95-29.44,5.52-44.2,8.05-6.53,1.12-13.14,1.77-19.7,2.67-.68.09-1.63.32-1.9.8-1.32,2.32-2.89,1.27-3.98.13-1.67-1.75-3.34-3.66-4.39-5.8-5.4-11.03-8.17-22.89-10.51-34.84-.94-4.8-1.42-9.7-1.99-14.57-.79-6.76.29-8.8,6.42-11.97,10.87-5.62,22.18-9.91,34.38-11.68,9.88-1.43,19.68-3.39,29.58-4.61ZM656.69,843.25c-1.22-1.07-2.29-2.39-3.21-4.01-9.6-16.92-13.29-35.18-12.84-54.46.12-5.13,2.6-8.18,7.24-10.06,8.09-3.27,16.56-4.99,25.12-5.94,21.75-2.43,43.54-4.53,65.32-6.69,2.53-.25,5.1-.07,7.66-.04,3.23,11.53,5.46,23.33,6.62,35.24.58,5.96.89,11.95.94,17.94.02,2.9.03,5.82-.13,8.72-.06,1.2-.22,2.41-.72,3.51-.24.53-.53.97-.97,1.35-.09.06-.19.14-.33.24-.15.11-.21.16-.23.18,0-.01-.05,0-.28.09-.48.2-.47.2-.35.16-.31.12-.61.25-.92.37-.58.23-1.15.44-1.73.66-.72.27-1.45.52-2.18.77-.29.1-.59.2-.88.29-.12.04-.2.07-.27.09-.08.02-.19.06-.35.1-1.33.4-2.66.78-4.01,1.13-.67.17-1.35.34-2.02.51-.38.09-.75.18-1.13.27-.1.02-.66.15-.83.18-5.38,1.14-11.45,2.04-16.4,2.62-9.61,1.12-19.25,2-28.87,3.04-10.36,1.12-20.71,2.27-31.09,3.15-.97.08-2.1.26-3.17.6ZM756.39,831.01c-9.38,4.14-19.31,6.45-29.36,8.05-16.59,2.63-33.23,4.96-49.88,7.19-3.93.53-7.98.32-11.97.19-1.33-.04-2.56-.23-3.72-.57,7.82-.73,15.63-1.58,23.44-2.42,9.94-1.07,19.89-2.02,29.83-3.13,12.73-1.43,25.53-3.47,37.54-8.1,2.77-1.07,6.02-2.21,7.97-4.58,1.83-2.22,1.87-5.04,1.94-7.79.17-6.31.04-12.62-.38-18.91-.88-13.06-3.05-26.01-6.42-38.65,1.04,0,2.08,0,3.12,0,1.99,0,2.9.99,3.05,3.01,1.27,17.12,2.71,34.22,3.85,51.34.58,8.68-.93,10.81-9,14.37Z"/>
  </g>
</svg>