<?xml version="1.0" encoding="UTF-8"?>
<svg id="Layer_1" xmlns="http://www.w3.org/2000/svg" viewBox="0 0 837.5 1080">
  <defs>
    <style>
      .cls-1 {
        fill: #112a46;
      }

      .cls-2 {
        fill: #3f6e77;
      }
    </style>
  </defs>
  <g>
    <path class="cls-1" d="M93.1,520.78c-7.2-2.88-15.11-2.23-21.2-8.53,2.51-1.96,4.56-3.86,6.88-5.32,12.82-8.05,25.69-16.01,38.57-23.95,2.67-1.65,5.34-2.91,5.21-6.95-.06-1.82,1.53-3.81,2.66-5.53,8.46-12.86,16.86-25.75,25.52-38.47,22.91-33.64,45.84-67.27,69.02-100.72,3.46-4.99,3.96-9.56,2.74-15.27-6.1-28.65-9.6-57.63-9.58-86.97,0-2.87-.11-5.76.17-8.6.6-6.11,4.73-7.91,9.75-4.25,1.88,1.37,3.46,3.16,5.15,4.78,14.1,13.55,28.19,27.1,42.91,41.25,19.77-20.28,39.97-40.11,58.19-62.28,41.24,26.07,83.02,49.99,127.99,70.55,4.96-2.67,11.16-5.97,17.33-9.32,13.99-7.59,27.95-15.23,41.95-22.8,4.64-2.51,9.39-4.51,14.87-1.1-6.62,23.44-19.26,44.04-28.11,66.9,2.26,1.83,4.39,3.66,6.63,5.34,40.21,30.02,82.45,56.9,126.16,81.51,11.14,6.27,22.03,13,33.18,19.24,5.85,3.28,10.31,8.51,16.9,10.95,2.3.85,3.87,5.33,4.63,8.43,3.19,12.91,5.96,25.92,8.86,38.9,8.31,37.15,16.9,74.24,24.81,111.47,3.84,18.09,6.38,36.46,9.57,54.69,4.64,26.45,9.43,52.88,14,79.34,5.02,29.05,9.36,58.2,10.57,87.71.31,7.53.63,15.07.66,22.61.02,4.78-2.51,8.22-6.45,10.97-9.74,6.79-20.36,11.66-31.64,15.14-25.72,7.94-52,13.35-78.5,17.95-64.24,11.16-128.29,22.93-191.5,39.49-45.87,12.02-92.73,20.23-139.16,30.09-21.17,4.5-42.24,9.68-63.58,13.09-24.17,3.86-48.34,8.86-73.04,7.71-5.89-.27-11.78-1.7-17.53-3.15-4.37-1.1-6.11-4.26-7.11-9.03-5.42-25.77-11.97-51.31-17.21-77.11-9.74-48.05-19.13-96.18-28.13-144.38-7.99-42.82-15.49-85.73-22.71-128.68-2.42-14.38-3.42-29-4.78-43.54-.23-2.42.59-5.21,1.7-7.44,3.01-6.05,6.42-11.9,9.7-17.82,1.23-2.22,2.52-4.41,3.95-6.9ZM164.32,941.76c.39.52.78,1.04,1.17,1.56,2.03-.22,4.08-.35,6.1-.68,28.82-4.8,57.67-9.41,86.44-14.5,66.29-11.72,132.17-25.39,197.65-41.04,42.89-10.26,85.97-19.59,129.86-24.6,51.51-5.88,101.88-16.81,150.89-33.81,1.6-.55,3.1-1.38,5.74-2.56-4.08-3.46-7.26-6.49-10.77-9.08-28.13-20.77-56.32-41.44-84.48-62.17-31.1-22.89-62.22-45.75-93.23-68.76-12.15-9.02-23.93-18.54-36.05-27.6-6.63-4.95-13.62-9.42-22.16-15.28-1.58,2.5-2.6,4.71-4.14,6.46-15.85,18.02-31.88,35.89-47.67,53.97-6.88,7.87-8.03,8.29-17.54,4.11-29.84-13.12-59.71-26.19-89.59-39.24-1.6-.7-3.33-1.12-5.79-1.93-55.87,91.67-112.8,182.42-166.43,275.16ZM339.33,654.64c5.39-12.81,10.85-24.89,15.6-37.24,7.3-18.98,14.12-38.15,21.12-57.25q3.78-10.32,14.92-10.45c.78,0,1.57,0,2.35,0,48.55.99,97.05,3.32,145.21,9.66,9.81,1.29,16.25-.31,21.77-8.4,3.58-5.25,8.36-9.68,13.32-15.29-2.34-1.75-3.92-2.71-5.23-3.95-25.45-23.97-50.76-48.1-76.36-71.91-10.3-9.58-21.17-18.54-31.91-27.63-2.74-2.32-3.7-4.92-2.99-8.27,1.08-5.1,2.36-10.16,3.3-15.29,5.45-29.87,14.12-58.88,25.06-87.09,8.85-22.83,19.46-44.97,29.28-67.43,1.09-2.48,2.07-5.01,3.09-7.52-3.58.27-6.09,1.43-8.54,2.74-18.4,9.85-36.98,19.39-55.13,29.69-16.1,9.14-31.71,19.12-47.52,28.77-17.15,10.46-34.24,21.01-51.42,31.43-7.25,4.39-14.73,5.51-21.9-.11-6.13-4.81-12.48-9.47-17.93-14.98-30.08-30.44-59.9-61.13-89.85-91.7-1.14-1.17-2.65-1.97-4.71-3.47,0,3.63-.27,6.23.04,8.75,2.81,22.5,4.59,45.21,8.88,67.43,6.23,32.23,11.18,64.79,20.51,96.38,1.3,4.4.67,7.98-3.49,10.91-11.3,7.94-21.9,16.99-33.67,24.12-25.43,15.41-51.48,29.8-77.15,44.81-14.64,8.56-29.05,17.5-43.52,26.35-1.31.8-2.27,2.19-3.97,3.87,11.43,1.61,21.76,3.02,32.07,4.53,42.32,6.2,84.03,16.3,126.8,19.61,9.06.7,11.47,3.61,13.21,12.47,4.86,24.82,9.87,49.61,14.65,74.45.72,3.72,2.33,5.82,5.89,7.33,15.85,6.71,31.56,13.76,47.35,20.61,3.52,1.53,7.2,2.71,10.84,4.06ZM157.02,940.41c52.78-94.5,111.19-184.66,166.75-277.52-78.57-34.16-155.85-70.61-231.74-109.96-1.38-.71-2.83-1.29-4.26-1.88-.19-.08-.52.06-.75.18-.2.1-.35.31-.52.48-1.08,27.52,59.17,360.3,70.52,388.71ZM680.1,429.48c-60.17,70.89-119.3,140.56-177.99,209.69,39.95,29.92,79.4,59.84,119.27,89.21,39.79,29.31,79.98,58.07,121.03,87.82,0-2.71.09-3.94-.01-5.16-1.15-13.51-1.68-27.11-3.63-40.51-5.39-37.14-10.57-74.34-17.3-111.25-11.65-63.85-25.48-127.29-34.04-191.7-1.64-12.34-4.67-24.5-7.33-38.1ZM549.26,570.73c-54.07-3.59-107.78-7.15-161.44-10.71-13.23,35.57-26.18,70.4-39.29,105.64,27.93,13.14,55.54,27.15,84.51,37.53,12.46-11.4,112.29-124.98,116.22-132.46ZM333.11,209.25c-18.69,20.09-37.09,39.88-55.69,59.88.98,1.14,1.78,2.15,2.66,3.07,16.02,16.8,31.98,33.66,48.13,50.34,5.01,5.18,10.56,9.83,15.94,14.8,35.06-21.09,69.38-41.73,104.82-63.05-40.95-19.08-78.63-41.82-115.86-65.04ZM472.55,421.63c9.71,8.52,18.59,16.18,27.3,24.04,2.96,2.67,5.92,3.55,9.94,2.95,20.38-3.05,40.81-5.8,61.21-8.74,2.43-.35,4.77-1.24,7.17-1.88-10.12-28.36-63.68-106.57-74.71-115.01-12.28,32.33-21.02,65.57-30.91,98.64ZM99.44,546.39c0,.65-.02,1.3-.02,1.95,52.19,26.2,104.55,52.01,157.7,76.02-4.15-24.55-8.17-48.31-12.25-72.4.15.13-.03-.16-.25-.19-27.52-4.38-55.09-8.53-82.56-13.2-12.01-2.04-23.66-2.44-35.4,1.43-5.41,1.78-11.21,2.33-16.8,3.59-3.5.79-6.95,1.86-10.41,2.8ZM226.43,334.3c-1.93,2.42-2.62,3.19-3.19,4.03-24.35,36.1-48.66,72.23-73.04,108.31-4.82,7.13-9.91,14.07-14.78,21.17-.89,1.3-1.32,2.92-1.97,4.39.4.37.79.73,1.19,1.1,34.93-22.62,72.95-40.14,106.34-65.15-4.79-24.31-9.5-48.21-14.55-73.85ZM583.52,447.69c-22.55,3.81-45.71,4.97-69.96,9.89,26.31,23.09,49.63,46.87,76.4,67.57,5.8-6.99,11.24-13.54,15.88-19.12-1.83-4.25-3.67-7.31-4.48-10.62-3.96-16.28-9.81-31.83-17.84-47.72ZM522.84,326.42c-.28.27-.57.54-.85.81,1.06,1.43,2.13,2.85,3.18,4.29,21.68,29.67,43.84,59.03,60.22,92.16,1.39,2.8,2.99,5.5,4.26,8.35,1.65,3.7,4.02,4.35,8.08,1.91-.5-2.82-.89-5.86-1.59-8.83-3.53-14.96-7.27-29.87-10.66-44.86-.93-4.13-.95-8.47-1.39-12.75-20.24-13.58-40.75-27.34-61.26-41.1ZM614.43,493.4c.6.18,1.19.35,1.79.53,3.03-3.54,5.99-7.15,9.13-10.59,1.85-2.03,1.77-4.02,1.01-6.47-2.62-8.47-5.03-17-7.58-25.49-.96-3.19-2.1-6.33-3.08-9.24-4.57-.64-5.76.92-5.24,4.79,1.23,9.04,2.3,18.12,3.11,27.21.57,6.4.59,12.84.86,19.26ZM622.97,391.2c-6.79-5.6-17.21-11.45-21.31-12.3,6.98,15.14,14.2,30.81,21.42,46.47-.91-7.48-2.52-14.8-4.17-22.12q-1.75-7.78,4.06-12.05ZM636.7,437.8c.93,8.99,1.88,18.12,3.01,28.94,4.24-4.92,7.39-8.58,10.64-12.35-2.39-5.34-4.61-10.3-6.83-15.27-1.53-3.4-3.67-4.15-6.81-1.33ZM112.72,532.28c-.01-.4-.03-.8-.04-1.2-4.72-1.09-9.45-2.18-14.5-3.35-1.5,2.94-2.72,5.35-4.66,9.16,7.44-1.78,13.32-3.2,19.21-4.61ZM632.55,395.89c-.44.48-.88.97-1.32,1.45,2.52,3.97,5.03,7.94,7.65,12.07,1.63-3,2.77-5.09,4.13-7.59-3.55-2.01-7-3.97-10.46-5.93ZM612.25,431.09c-2.48-6.84-4.96-13.69-7.44-20.53,1.27,16.81,2.13,19.41,7.44,20.53ZM598.87,450.84c1.11-2.51,2.09-4.88-2.15-5.97.94,2.6,1.55,4.28,2.15,5.97Z"/>
    <path class="cls-1" d="M448.9,212.71c-.87-8.54.12-16.34,1.35-23.92,4.25-26.25,8.99-52.42,13.71-78.6.69-3.82,2.02-7.58,3.51-11.17,1.49-3.58,4.15-5.81,9.44-4.75-1.33,7.4-2.62,14.5-3.87,21.61-4.72,26.96-9.43,53.93-14.11,80.89-.54,3.08-.76,6.22-1.38,9.29-.92,4.57-1.26,4.76-8.66,6.64Z"/>
    <path class="cls-1" d="M569.54,286.98c2.12-5.57,5.92-6.54,8.96-7.98,25.89-12.24,51.82-24.4,77.83-36.35,10.17-4.67,20.56-8.87,30.93-13.06,2.99-1.21,6.28-1.67,9.43-2.48.3.47.59.93.89,1.4-.93,1.28-1.6,3.01-2.85,3.77-4.21,2.57-8.49,5.13-13,7.1-33.4,14.59-66.85,29.07-100.32,43.5-3.4,1.47-7.01,2.44-11.88,4.11Z"/>
    <path class="cls-1" d="M603.73,106.8c-1.47,3.38-2.55,6.22-3.92,8.92-12.17,23.86-24.38,47.69-36.59,71.53-1.89,3.69-3.78,7.4-9.68,6.47.63-2.34.84-4.4,1.71-6.13,12.88-25.53,25.82-51.02,38.82-76.48,1.61-3.16,4.04-5.42,9.66-4.31Z"/>
  </g>
  <g>
    <path class="cls-2" d="M282.58,422.86c11.97-3.14,21.55-3.38,30.84.74,8.77,3.89,14.99,10.27,17.22,19.79,1.53,6.48.68,12.99-1.33,19.3-1.04,3.28-2.35,6.47-3.59,9.68-.51,1.33-.32,1.87,1.21,2.41,4.21,1.51,8.44,3.08,12.39,5.14,4.51,2.36,7.04,6.61,8.63,11.31,2.01,5.93,3.17,12.05,2.27,18.33-1.36,9.49-6.01,17.3-13.47,23.1-11.87,9.23-25.4,13.51-40.47,11.28-10.27-1.52-18.26-6.89-23.47-16-2.27-3.97-1.63-6.56,1.88-9.48,2.51-2.08,5.37-3.4,8.58-3.93,2.69-.44,5.11.18,7.46,1.62,3.55,2.17,7.22,4.16,10.88,6.14.99.54,2.16.77,3.25,1.12,6.79,2.2,16.39-3.87,14.48-13.63-1.26-6.41-4.64-11.55-9.58-15.52-3.92-3.14-8.44-4.04-13.34-1.67-1.82.88-3.98,1.16-6.02,1.46-1.58.23-2.73-.64-3.12-2.24-1.37-5.61-1.69-8.17,3.22-12.1,3.48-2.79,6.7-5.8,9.35-9.41,5.81-7.93,4.93-18.56-2.12-25.39-2.92-2.82-6.37-4.69-10.3-5.68-3.21-.81-5.16-.24-6.72,2.71-1.79,3.39-3.22,7-4.57,10.6-.76,2.04-1.07,4.25-1.55,6.38-1.08,4.82-3.15,6.97-9.35,7.46-2.75.21-5.53.01-8.29.08-1.68.04-3.26-.31-4.48-1.42-.62-.57-1.12-1.54-1.21-2.37-.72-7,1.61-13.27,4.95-19.23,6.37-11.35,15.99-18.37,26.35-20.63Z"/>
    <path class="cls-2" d="M372.34,521.54c-4.38.7-8.45.64-12.23-1.76-3.41-2.16-4.57-5.44-3.13-9.18,1.99-5.13,5.8-8.16,11.16-9.23,1.41-.28,2.63-.15,3.9,1.08,1.41,1.38,3.44,2.12,5.14,3.22,1.93,1.25,4.01,2.5,3.99,5.2-.03,3.07-1.17,5.78-3.6,7.67-1.57,1.22-3.47,2.01-5.22,3Z"/>
    <path class="cls-2" d="M444.35,429.41c-.81-2.57-1.61-5.33-2.55-8.04-3.07-8.9-7.83-16.66-15.23-22.69-12.11-9.86-25.39-12.19-40.02-6.53-.46.18-1.01.14-1.51.22-1.17.19-2.55.07-3.47.66-2.48,1.59-5.05,3.21-7.08,5.3-5.09,5.24-7.65,11.95-9.54,18.81-4.01,14.53-3.91,29.07.93,43.46,3.56,10.6,8.44,20.56,14.98,29.64,5.05,7.01,11.16,12.81,19.41,16,14.56,5.63,32.8,1.75,42.06-14.41,3.59-6.27,4.92-13.26,5.73-20.36,1.64-14.22-.62-28.08-3.72-42.06ZM421.3,474.64c-.57,4.15-1.42,8.25-4.07,11.69-1.3,1.7-1.59,1.8-3.46.71-7.59-4.41-13.4-10.52-17.57-18.24-6.15-11.4-9.27-23.61-10.04-36.48-.38-6.31-.52-12.61.54-18.87.34-1.99.59-4.03,2.22-5.55,1.78-1.66,1.93-1.74,4.06-.63,3.48,1.81,6.36,4.37,8.95,7.26,5.39,6.01,9.22,13,12.3,20.4,1.88,4.52,3.47,9.15,4.48,11.83,2.48,10.52,3.79,19.11,2.59,27.88Z"/>
  </g>
</svg>