<?xml version="1.0" encoding="UTF-8"?>
<svg id="Layer_1" xmlns="http://www.w3.org/2000/svg" viewBox="0 0 837.5 1080">
  <defs>
    <style>
      .cls-1 {
        fill: #112a46;
      }
    </style>
  </defs>
  <g>
    <path class="cls-1" d="M793.24,451.99c-3-20.91-5.95-41.83-8.82-62.75-5.51-40.09-10.85-80.2-16.31-120.29-5.5-40.44-11.12-80.86-17.1-121.22-1.56-10.53-3.14-21.06-4.75-31.58-.72-4.7-1.44-9.4-2.17-14.1-.65-4.2-1.03-8.05-3.1-11.8-5.31-9.65-15.09-14.93-25.43-17.7-22.66-6.06-47.5-2.15-70.25,1.41-36.27,5.68-72.86,9.68-109.29,14.27-81.19,10.23-162.42,20.18-243.41,31.85-40.79,5.88-81.51,12.19-122.12,19.16-9.65,1.65-19.38,2.66-27.76,8.14-7.29,4.77-14.08,10.53-17.84,18.54-3.23,6.87-4.58,14.49-3.85,22.03,1.03,10.6,2.72,21.15,4.27,31.68,2.61,17.79,5.37,35.56,8.14,53.32,6.85,43.77,13.91,87.5,21.04,131.22,5.07,31.07,10.13,62.14,15.37,93.18.27,1.62.55,3.23.83,4.84-2.5,2.31-4.89,4.73-7.16,7.28-4.21,4.73-7.88,9.95-11.26,15.29-3.28,5.18-6.18,10.6-8.62,16.23-5.01,11.53-8.25,23.95-8.84,36.53-.54,11.35,1.7,22.65,5.83,33.2,6.06,15.46,15.76,29.92,28.11,41.27.17.56.57,1.11,1.26,1.62.93.67,1.87,1.32,2.82,1.96,1.41,1.16,2.86,2.27,4.33,3.35-9.56,3.66-18.96,7.78-28.06,12.47-8.57,4.41-17.28,8.86-25.49,13.91-3.83,2.36-7.68,5.01-10.7,8.37-2.81,3.11-4.9,6.89-6.23,10.85-2.73,8.12-2.75,17.02-2.31,25.48,1.07,20.56,2.86,41.13,4.87,61.61,1.81,18.45,4,36.85,6.68,55.19,5.65,38.64,13.46,76.94,22.13,115.01,3.67,16.08,9.21,34.67,26.14,41.16,9.98,3.83,21.25,2.8,31.62,1.53,11.23-1.37,22.43-2.96,33.64-4.45,45.71-6.07,91.42-12.14,137.13-18.21,11.43-1.52,22.85-3.04,34.28-4.55,9.14-1.21,18.31-2.33,27.23-4.79,8.46-2.34,17.02-5.73,23.76-11.48,3.18-2.71,5.85-5.83,7.85-9.51,2.35-4.34,3.25-9.16,3.4-14.06.16-5.13-.55-10.23-1.12-15.31-.38-3.4-.67-6.82-1-10.23-.63-6.54-1.3-13.07-1.98-19.6-1.56-14.92-3.21-29.82-4.91-44.72-3.48-30.47-7.16-60.93-11.08-91.35-2.49-19.3-4.67-38.74-8.17-57.88-2.54-13.92-7.29-28.65-17.46-38.95-6.08-6.15-13.61-9.25-21.83-11.43-2.73-.73-5.48-1.36-8.25-1.96-.53-.89-1.19-1.51-2.32-1.95-1.44-.56-3.4-.58-4.87-.13-.35.11-.71.23-1.06.37-2.98-.6-5.95-1.2-8.91-1.86-10.63-2.37-21.38-4.07-32.21-5.16-.05,0-.11,0-.16,0,1.76-1.93,3.45-3.92,5.06-5.97,2.98-3.8,5.72-7.82,8.17-11.98,6.5-11.13,10.89-23.59,12.4-36.41,1.41-11.9.38-24.1-2.65-35.68,9.02-1.14,18.04-2.3,27.05-3.49-1.4,6.94-2.79,13.88-4.19,20.82-.15.37-.25.75-.26,1.12,0,.05,0,.1,0,.15-.09.42-.17.85-.26,1.27-2.73,13.56-5.46,27.12-8.19,40.67-.62,3.08-1.24,6.16-1.86,9.24-.6,3,3.63,3.87,5.75,3.61.32-.04.65-.09.99-.16,15.41-1.62,30.78-3.62,46.14-5.74,18.21-2.51,36.38-5.22,54.55-8.02,18.16-2.81,36.31-5.72,54.44-8.72,15.2-2.52,30.39-5.09,45.57-7.76,10.25-1.8,20.5-3.6,30.7-5.62.67-.13,1.34-.27,2.01-.4,2.34-.48,7.19-3.54,4.85-6.53-11.45-14.59-21.49-30.1-31.19-45.89-3.22-5.25-6.42-10.51-9.63-15.77,29.24-4.53,58.47-9.11,87.7-13.74,16.93-2.68,33.86-5.38,50.79-8.08,8.2-1.31,16.41-2.61,24.61-3.92,7.84-1.25,15.85-2.14,23.55-4.07,8.38-2.1,17.58-5.57,23.34-12.32,5.24-6.15,7.14-13.99,6.01-21.88ZM679.4,107.47c.08,0,.13-.01.2-.02,0,0,0,0,.01,0,.95-.07,1.89-.14,2.84-.2.91-.05,1.88,0,2.81-.04,2.36,1.14,4.24,2.52,6.04,4.59,4.47,5.15,6.98,11.92,9.01,18.33,2.37,7.49,4,15.21,5.37,22.94,1.7,9.63,3.09,19.31,4.68,28.96,3.94,23.9,7.54,47.87,11.14,71.82,4.97,33.15,9.8,66.32,14.37,99.53,3.71,26.97,7.48,53.98,10.11,81.08.78,8.02-.58,19.13-8.33,23.66-3.01,1.76-6.63,2.3-10.46,2.9-4.53.7-9.07,1.29-13.59,1.99-19.36,3.01-38.73,5.92-58.12,8.78-43.46,6.4-86.96,12.52-130.48,18.52-43.64,6.01-87.29,11.89-130.96,17.67-15.89,2.1-31.78,4.19-47.67,6.26-.7-1.1-1.4-2.21-2.14-3.28-5.82-8.55-13.21-16.05-21.52-22.19-3.27-2.41-6.7-4.61-10.25-6.58-.24-.16-.49-.3-.77-.41-14.9-8.13-31.9-12.49-48.79-13.15-19.99-.78-40.3,2.92-58.55,11.19-1.22-7.95-2.44-15.91-3.66-23.86-3.35-21.81-6.7-43.63-10.05-65.44-4.08-26.56-8.16-53.13-12.24-79.7-3.54-23.05-7.08-46.11-10.62-69.16-1.78-11.59-3.83-23.17-5.34-34.8-1.39-10.69,2.97-21.96,12.12-27.19,2.91-1.66,6.04-2.8,8.98-3.63,4.19-1.19,7-1.71,11.3-2.41,3.85-.63,7.71-1.24,11.57-1.85,21.24-3.34,42.52-6.5,63.8-9.62,27.93-4.1,55.88-8.1,83.83-12.06,30.91-4.37,61.83-8.68,92.76-12.93,30.14-4.14,60.29-8.23,90.45-12.23,25.88-3.44,51.76-6.82,77.66-10.07,18.06-2.26,36.12-4.52,54.22-6.41,2.83-.3,5.67-.58,8.51-.84.59-.05,1.18-.1,1.77-.16ZM153.24,606.86c-.19-.5-.36-1.01-.55-1.51-1.72-4.7-3.11-9.54-3.98-14.39-.2-1.13-.37-2.26-.52-3.4-.04-.35-.09-.7-.13-1.04-.08-.66-.14-1.31-.2-1.97-.11-1.32-.19-2.64-.22-3.96,0-.04,0-.08,0-.12,0-.12,0-.23,0-.35-.01-1.44.03-2.89.11-4.33.32-5.99,1.24-11.94,2.67-17.76.34-1.36.7-2.72,1.09-4.07.17-.58.35-1.16.53-1.74.07-.2.21-.64.23-.7.13-.4.27-.8.4-1.2.98-2.86,2.09-5.67,3.31-8.44,2.41-5.49,5.25-10.78,8.45-15.84.75-1.19,1.49-2.4,2.32-3.54-.76,1.04.08-.11.19-.27.16-.23.32-.46.49-.69.49-.69.99-1.38,1.49-2.06,1.73-2.34,3.55-4.61,5.49-6.77,1.89-2.11,3.89-4.13,5.95-6.08.24-.22,1.89-1.83.71-.67.49-.48,1.04-.92,1.56-1.37,1.16-1,2.35-1.98,3.55-2.94,2.31-1.85,4.7-3.6,7.14-5.27,1.28-.88,2.58-1.73,3.9-2.56.6-.38,1.2-.75,1.8-1.11.24-.15.49-.28.72-.44-1.56,1.02.07-.04.41-.23,5-2.87,10.21-5.4,15.6-7.46.11-.04.22-.08.33-.12.08-.03.17-.07.25-.09.01,0,.03,0,.04-.01.17-.06.34-.12.5-.19-.09.04-.16.07-.24.1.52-.18,1.04-.36,1.56-.54,1.44-.48,2.89-.93,4.34-1.36,2.69-.79,5.4-1.49,8.13-2.1,1.26-.28,2.52-.54,3.78-.78.47-.09,2.79-.44.53-.11.76-.11,1.51-.25,2.27-.37,2.63-.4,5.27-.72,7.91-.95,2.67-.23,5.35-.38,8.04-.43.68-.01,1.36-.02,2.04-.02.21,0,.42,0,.63,0,1.33.03,2.66.07,4,.14,5.07.26,10.13.86,15.12,1.81.6.11,1.19.24,1.79.36.26.06.51.11.77.17,1.33.31,2.65.64,3.97.99,2.39.65,4.75,1.38,7.09,2.19,2.32.81,4.6,1.7,6.85,2.68.94.41,2,.78,2.9,1.29.11.07.22.13.29.17.26.13.52.26.78.39.57.29,1.13.58,1.69.88,1.09.58,2.17,1.18,3.23,1.79,1.94,1.94,3.77,3.99,5.44,6.17,2.68,3.5,4.5,6.49,6.54,10.6,4.04,8.15,6.61,16.98,8.04,25.95,1.48,9.27,1.75,18.92.99,27.87-.79,9.4-2.6,18.72-5.48,27.7-1.4,4.37-3.06,8.66-4.99,12.81-.92,1.97-1.9,3.91-2.95,5.81-.08.14-.16.28-.23.42.02-.03-.08.15-.14.25-.02.03-.04.06-.05.1.02-.04.03-.06.05-.09,0,0,0,.02-.01.02-.29.5-.58,1-.88,1.5-.54.9-1.1,1.79-1.68,2.67-2.32,3.53-4.92,6.86-7.81,9.95-.7.75-1.41,1.48-2.14,2.2-.21.21-.42.47-.66.65,0,0,0,0,0,0-.02.01-.04.03-.05.04-.45.43-.91.85-1.38,1.27-1.73,1.57-3.51,3.06-5.35,4.5-1.92,1.51-3.9,2.94-5.92,4.31-.36.25-2.13,1.22-.61.41-.48.26-.94.6-1.4.89-1.13.71-2.28,1.41-3.43,2.08-2.15,1.25-4.34,2.44-6.56,3.56-.51.26-1.02.51-1.53.76-.27.13-.55.26-.82.4-1.12.51-2.24,1.02-3.37,1.51-2.4,1.03-4.83,2-7.29,2.89-1.16.42-2.32.81-3.48,1.21,2.25-.78.02-.01-.51.15-.73.23-1.46.45-2.19.67-2.49.74-4.99,1.4-7.52,2-.57.14-1.15.27-1.73.39-.28.06-.55.12-.83.18-1.24.24-2.47.48-3.71.69-2.56.44-5.14.81-7.72,1.09-.7.08-1.41.15-2.11.22-.18.02-.37.03-.55.05-1.4.1-2.79.19-4.19.25-2.57.11-5.15.14-7.73.08-.58-.01-1.17-.03-1.75-.05-.35-.01-.7-.03-1.05-.04,0,0-.01,0-.02,0-.44-.18-1.24-.07-1.71-.11-.69-.05-1.39-.11-2.08-.18-2.53-.24-5.05-.57-7.56-.99-1.25-.21-2.49-.44-3.72-.7-.56-.12-1.12-.24-1.68-.37-.33-.08-.67-.16-1-.23-.09-.02-.15-.04-.2-.05-.11-.03-.21-.05-.32-.08-4.84-1.25-9.58-2.89-14.13-4.95-1.55-.7-3.06-1.47-4.57-2.27-.14-.14-.29-.27-.43-.41-1.01-.98-1.99-1.98-2.96-3-1.87-1.98-3.67-4.03-5.39-6.14-3.58-4.4-6.83-9.07-9.71-13.95-.67-1.14-1.32-2.29-1.95-3.46-.31-.58-.62-1.17-.93-1.75-.18-.35-.36-.71-.54-1.06.47.91-.13-.26-.17-.36-1.11-2.29-2.13-4.62-3.06-6.99-.08-.21-.18-.42-.26-.63ZM230.68,660.24c22.6-2.45,44.89-10.31,63.86-22.84,8.08-5.34,15.66-11.74,21.78-19.28,5.68-7,10.09-15.08,13.46-23.42,7.24-17.92,10.01-37.89,8.34-57.12-.02-.23-.05-.46-.07-.69.37,1.38.72,2.76,1.03,4.15,1.2,5.28,1.99,10.66,2.4,16.06.05.66.09,1.32.13,1.98.02.33.04.66.05.99,0,.08.01.28.02.43.05,1.35.07,2.7.07,4.05,0,2.71-.11,5.41-.31,8.11-.4,5.38-1.19,10.74-2.37,16-.59,2.62-1.28,5.22-2.06,7.79-.36,1.19-.75,2.37-1.15,3.55-.21.62-.43,1.23-.66,1.85-.03.07-.05.13-.07.18-.02.06-.05.12-.08.21-.14.36-.28.73-.43,1.09-1.95,4.93-4.28,9.7-7,14.25-1.11,1.86-2.28,3.68-3.51,5.46-.61.89-1.24,1.76-1.88,2.63-.13.17-.26.34-.39.52,0,0,0,0,.01,0,0,0,0,0-.01,0-.03.04-.06.08-.09.13-.16.22-.28.29-.32.28-.29.37-.57.86-.77,1.1-2.75,3.42-5.72,6.65-8.89,9.67-1.54,1.47-3.13,2.9-4.76,4.27-.05.04-.2.16-.32.27,0,0-.02.02-.02.02-.41.34-.83.67-1.25,1-.88.69-1.77,1.37-2.67,2.04-3.43,2.53-7.01,4.86-10.71,6.98-.03.02-.33.2-.54.31-.02,0-.04.02-.05.03-.13.07-.26.14-.39.22.1-.06.16-.09.24-.14-.36.19-.71.39-1.07.58-1.04.55-2.09,1.08-3.14,1.6-1.97.97-3.96,1.88-5.98,2.73-1.83.77-3.68,1.48-5.55,2.17-.27.1-.58.21-.75.27-.51.17-1.02.34-1.53.51-1.02.33-2.05.65-3.07.95-2.16.64-4.34,1.21-6.54,1.73-1.05.24-2.09.48-3.15.69-.33.07-.65.13-.98.19.04,0-.14.03-.37.07-.03,0-.05.01-.08.02-.26.05-.53.1-.79.15.18-.04.33-.06.46-.09-4.34.76-8.72,1.28-13.12,1.55-1.07.07-2.15.12-3.22.16-.45.02-.89.03-1.34.04-.3,0-.6,0-.9,0-2.15,0-4.3-.05-6.45-.17-2.25-.12-4.5-.31-6.75-.57-1.01-.12-2.03-.25-3.04-.39-.48-.07-.96-.14-1.44-.21-.27-.04-.54-.09-.82-.13-4.33-.79-8.62-1.78-12.83-3.07-.35-.11-.69-.22-1.04-.33,7.63.47,15.31.24,22.83-.58ZM406.61,704.06c-2.7-12.43-6.14-24.69-10.44-36.66.4.29.81.57,1.2.87.44.35.87.7,1.29,1.06.17.14.8.74.85.78.77.77,1.53,1.55,2.23,2.38,1.57,1.85,2.89,3.87,4.04,6.01.03.05.13.26.18.36.07.15.14.3.21.45.29.63.55,1.27.82,1.92.63,1.55,1.21,3.11,1.75,4.68,2.12,6.12,3.65,12.43,4.88,18.79,2.53,13,4.16,26.19,6.09,39.28,1.39,9.43,2.78,18.87,4.18,28.3-.57.43-1.11.94-1.07,1.72.78,17.57,1.48,35.17.82,52.75-.19,5.09-.5,10.18-.96,15.25-.54-10.84-1.71-21.66-2.82-32.48-1.84-17.9-3.31-35.83-5.26-53.71-1.9-17.36-4.28-34.69-7.99-51.76ZM440.74,940.17c-.35.93-.76,1.84-1.2,2.73-.31.25-.6.52-.85.83-2.31,2.83-5.17,5.41-8.16,7.62-.17.13-.34.25-.52.38-.05.03-.09.06-.16.11-.28.19-.56.38-.84.56,1.58-2,3.01-4.05,4.81-5.78,2.47-2.37,4.97-4.69,7.2-7.29-.1.28-.18.57-.29.85ZM402.76,926.07c10.65-12.93,18.78-27.62,24.07-43.52,1.39-4.18,2.6-8.42,3.64-12.69-.52,4.12-1.19,8.23-2.04,12.3-.6,2.89-1.3,5.77-2.08,8.61-.28,1.02-.78,2.72-.92,3.17-.45,1.45-.93,2.88-1.44,4.31-1.93,5.44-4.25,10.75-6.99,15.83-1.39,2.58-2.91,5.08-4.5,7.54-.03.05-.18.27-.25.38-.16.23-.32.46-.48.69-.41.58-.82,1.16-1.24,1.74-.83,1.13-1.68,2.24-2.56,3.34-1.77,2.21-3.64,4.33-5.6,6.38-.95.99-1.91,1.96-2.89,2.91-.49.48-.99.95-1.49,1.41-.08.07-.16.14-.23.22-.04.03-.68.61-.74.66-4.18,3.7-8.63,7.08-13.26,10.18-1.15.77-2.3,1.52-3.47,2.25-.51.32-1.03.64-1.54.96-.29.18-.59.36-.89.54,1.29-.79-.21.12-.38.22-2.39,1.4-4.82,2.74-7.28,4.02-4.41,2.29-8.91,4.39-13.47,6.35,3.5-1.98,6.93-4.06,10.29-6.26,13.33-8.72,25.61-19.25,35.75-31.56ZM343.86,974.33c1.98,2.66,6.08,1.87,8.65.89,22.16-8.45,43.74-19.97,60.32-37.23,15.03-15.65,24.09-35.77,28.5-56.83-.34,12.22-1.77,24.42-4.25,36.39-.79,3.83-1.68,7.63-2.68,11.41-.9,3.41-1.74,6.76-3.69,9.75-1.66,2.53-3.74,4.58-5.94,6.69-2.46,2.36-4.82,4.68-6.87,7.42-.99,1.33-1.9,2.62-2.96,3.65-.26.25-.53.5-.81.73-.11.1-.24.19-.35.28-.05.03-.13.08-.25.16-.09.05-.18.1-.27.15-.03.01-.04.02-.07.04-.59.3-1.18.6-1.77.9-1.37.7-2.74,1.4-4.12,2.1-2.19.73-4.39,1.46-6.59,2.15-.03.01-.06.02-.09.03-.22.07-.44.14-.66.2-.66.2-1.32.4-1.99.6-1.47.44-2.95.86-4.42,1.27-2.73.76-5.48,1.47-8.24,2.12-.37.09-.75.2-1.12.26.27-.06.54-.12.81-.19-.3.07-.6.13-.9.2-.75.17-1.5.33-2.26.48-1.59.33-3.18.63-4.78.92-1.42.25-2.88.57-4.32.73-.12,0-.26.02-.35.03-.47.06-.94.13-1.4.19-.94.12-1.88.23-2.83.33-2.78.31-6.44,1.01-8.56,2.99-.97.91-.61,1.4.16,1.66-.54.08-1.09.15-1.63.23-.49.07-.99.14-1.49.2.24-.03.37-.05.43-.05-.13.02-.55.07-.84.11-3.97.52-7.94.99-11.92,1.44-6.95.78-13.91,1.46-20.87,2.16,6.92-2.4,13.73-5.18,20.37-8.31-.67,1.19-.84,2.57.05,3.77ZM433.74,965.3c.29-.12.6-.25,0,0h0ZM439.16,962.22c-.32.23-.65.45-.98.67-.07.05-.59.37-.75.48-.86.5-1.74.97-2.63,1.41-.4.2-.81.39-1.22.58-.9.38-1.81.74-2.73,1.08-.47.17-.94.33-1.4.5-.08.03-.13.05-.19.07-.01,0-.02,0-.04.01-.96.29-1.92.58-2.9.84-.97.26-1.95.51-2.94.74-.47.11-.94.24-1.42.32-.14.02-.25.05-.32.06-1.97.4-3.94.74-5.92,1.05-4.7.74-9.42,1.31-14.14,1.93-4.33.58-8.66,1.15-12.99,1.73,13.14-3.12,26.02-7.21,38.41-12.84,6.9-3.13,13.93-6.79,19.32-12.22,1.35-1.36,2.53-2.81,3.56-4.34-.82,5.52-2.95,10.67-7.15,14.91-1.25,1.27-1.95,1.85-3.6,3.02ZM361.78,648.21c4.51.99,9.05,1.86,13.56,2.8.41.89.79,1.78,1.19,2.67-.5,1.59.17,3,1.73,3.99,5.89,13.94,10.52,28.37,14.05,43.09,4.04,16.9,6.68,34.1,8.71,51.35,2.07,17.6,3.55,35.27,5.28,52.91.88,8.99,1.98,17.97,2.76,26.97.04.46.08.92.12,1.38.03.31.05.61.07.92,0,.01,0,.11.02.21.01.18.04.51.04.58.02.23.03.46.05.69.04.61.09,1.23.13,1.84.14,2.15.26,4.3.35,6.45.18,4.38.26,8.76.18,13.13-.14,8.59-.84,17.19-2.38,25.65-.39,2.15-.84,4.29-1.34,6.41-.23.95-.46,1.9-.71,2.84-.06.23-.12.45-.18.68,0,0,0,0,0,0-.17.58-.33,1.15-.51,1.73-1.24,4.1-2.71,8.14-4.45,12.06-.86,1.94-1.79,3.85-2.78,5.72-.89,1.7-.2,3.32,1.07,4.39-1.19,1.78-2.42,3.54-3.69,5.25-4.47,6-9.72,11.87-15.21,17.15-2.77,2.66-5.65,5.22-8.61,7.67-.63.52-1.26,1.03-1.9,1.54.08-.07-.71.56-.83.65-.41.32-.81.63-1.22.94-1.53,1.17-3.09,2.32-4.66,3.44-3.21,2.28-6.49,4.44-9.85,6.5-.77.47-1.55.94-2.32,1.4-.39.23-.78.46-1.17.69-.22.13-.45.26-.67.39-.01,0-.11.06-.23.13.05-.03-.78.44-.93.52-.45.25-.91.5-1.36.75-.85.46-1.71.92-2.57,1.37-3.49,1.83-7.05,3.55-10.65,5.15-.74.33-1.48.65-2.23.97.05-.02.08-.03.14-.05-.1.04-.19.08-.29.12-.04.02-.07.03-.11.05-.08.04-.19.08-.29.12-.49.2-.97.41-1.46.6-1.79.73-3.59,1.43-5.41,2.11-1.81.68-3.63,1.32-5.46,1.94-.89.3-5.5,2.26-3.79,3.78-4.2.46-8.39.94-12.57,1.49-12.78,1.68-25.49,3.75-38.22,5.79-6.83,1.09-13.66,2.18-20.5,3.22-3.41.52-6.82,1.02-10.24,1.51-1.59.23-3.18.45-4.78.67-.86.12-1.73.24-2.6.35-.04,0-.1.01-.18.02-.56.08-1.13.15-1.69.22-6.56.85-13.14,1.61-19.72,2.2-3.05.28-6.11.51-9.17.71-1.54.1-3.07.18-4.61.25-.63.03-1.26.05-1.88.08-.37.01-.75.03-1.12.04-.18,0-.35.01-.53.02-2.69.06-5.38.07-8.07.01-1.54-.03-3.23.16-4.84.59-7.05-3.17-12.04-9.53-15.33-16.36-3.67-7.64-5.66-15.96-7.52-24.18-2.3-10.22-4.56-20.45-6.73-30.69-3.92-18.53-7.57-37.11-10.76-55.78-6.22-36.39-10.45-73.05-13.39-109.84-.84-10.5-1.61-21.01-2.27-31.52-.51-8.23-.72-16.72,1.61-24.73,1.1-3.79,2.77-7.46,5.37-10.47,2.58-2.98,5.8-5.11,9.31-7.26,1.08-.67,3.46-2,5.19-2.94,2.12-1.15,4.25-2.26,6.38-3.37,4.06-2.13,8.05-4.38,12.13-6.47,8.48-4.33,16.2-7.7,25.01-11.04.26.16.51.34.76.5,16.4,10.25,35.75,15.44,55.03,15.81,20.29.38,40.46-3.82,58.95-12.19,12.72-5.76,24.7-13.59,34.89-23.23,10.07,1.1,20,2.78,29.9,4.96ZM398.63,552.65c10.24-.51,20.49-.93,30.73-1.2.11,0,.22,0,.28,0,.37-.01.74-.02,1.11-.03.81-.02,1.62-.04,2.44-.06,1.63-.04,3.26-.08,4.89-.12,3.13-.07,6.27-.13,9.4-.19,6.48-.11,12.97-.18,19.45-.22,25.99-.14,51.98.3,77.94,1.45,13.78.61,27.56,1.44,41.32,2.54,2.43,3.73,4.9,7.42,7.44,11.07-23.09-2.28-46.26-3.84-69.44-4.91-29.33-1.36-58.7-1.98-88.06-1.78-13,.09-26,.36-38.99.82.49-2.46.99-4.91,1.48-7.37ZM580.64,546.11c-.08,0-.16-.01-.25-.02.07,0,.14-.02.22-.03.01.02.02.03.03.05ZM513.22,537.42c-20.98.24-41.95.83-62.92,1.56,5.05-.65,10.1-1.24,15.16-1.74,11.75-1.18,23.55-1.99,35.35-2.44,2.96-.11,5.93-.2,8.9-.27,1.36-.03,2.71-.06,4.07-.07.3,0,.6,0,.91-.01.91,0,1.82-.02,2.73-.02,5.8-.03,11.6.02,17.4.17,12.86.33,25.72,1.13,38.52,2.44.53.05,1.1.03,1.67-.03.24.4.49.8.73,1.2-20.81-.96-41.67-1.02-62.5-.78ZM514.16,526.19c.72-.07,1.43-.15,2.15-.21,2.13-.19,4.26-.34,6.39-.43.99-.04,1.98-.07,2.97-.07.05,0,.08,0,.12,0,.22.23.49.44.79.62-4.14-.01-8.28.02-12.43.09ZM597.67,579.04c-.34.06-.7.13-.91.17-.64.12-1.28.23-1.91.35-2.9.52-5.8,1.04-8.7,1.56-14.69,2.6-29.39,5.11-44.1,7.56-17.89,2.98-35.79,5.87-53.71,8.67-18.28,2.85-36.59,5.6-54.91,8.18-15.52,2.18-31.06,4.24-46.63,5.98,1.43-7.09,2.86-14.19,4.28-21.28,1.35-6.73,2.71-13.45,4.06-20.18,25.85-.94,51.74-1.09,77.6-.67,7.25.12,14.51.29,21.76.5,3.56.11,7.12.22,10.68.35,1.78.06,3.56.12,5.33.2,0,0,0,0,0,0,.05,0,.1,0,.13,0,.44.02.89.04,1.33.05,1.03.04,2.07.09,3.1.13,14.27.62,28.54,1.42,42.79,2.45,14.63,1.05,29.25,2.35,43.83,3.96.28.38.58.75.86,1.12-.63.12-1.27.24-1.9.36-.99.18-1.98.37-2.98.55ZM563.78,518.55c.35.58.71,1.16,1.06,1.75-3.3-.03-6.61-.11-9.91-.24-.99-.04-1.99-.09-2.98-.14,1.44-.22,2.88-.44,4.31-.66,2.43-.37,4.86-.76,7.29-1.13.06.14.14.29.22.43ZM780.49,462.87c-.73,3.75-2.31,7.56-4.93,10.39-4.66,5.04-12.8,6.54-19.25,7.56-15.65,2.49-31.3,4.98-46.94,7.48-34.53,5.5-69.06,10.98-103.61,16.38-69.65,10.88-139.34,21.53-209.21,30.92-12.58,1.69-25.17,3.32-37.77,4.9-2.36-7.15-5.43-14.14-9.11-20.74,36.93-4.83,73.85-9.72,110.76-14.7,45.13-6.09,90.24-12.29,135.33-18.7,40.76-5.79,81.41-12.3,122.17-18.09,10.03-1.42,20.66-2.56,29.33-8.29,8.79-5.81,12.55-16.72,11.7-26.93-.98-11.69-2.5-23.34-3.95-34.98-4.02-32.25-8.56-64.44-13.21-96.61-4.49-31.05-9.12-62.08-13.93-93.08-3.07-19.8-5.99-39.69-9.52-59.41-1.43-7.95-3.13-15.89-5.67-23.57-2.17-6.55-4.98-13.34-9.61-18.57-4.11-4.65-8.89-6.42-14.8-6.11-12.91.69-25.81,2.42-38.64,3.93-22.5,2.65-44.98,5.51-67.44,8.42-28.93,3.75-57.85,7.6-86.76,11.51-31.27,4.23-62.54,8.53-93.8,12.88-30.29,4.22-60.58,8.5-90.85,12.86-25.21,3.63-50.42,7.3-75.61,11.11-9.6,1.45-19.19,2.92-28.78,4.44-13.46,2.13-27.5,3.9-39.52,10.77-12.09,6.91-18.84,19.2-17.23,33.25.4,3.48,1.07,6.96,1.6,10.42,2.78,18.13,5.57,36.26,8.35,54.39,4.02,26.15,8.03,52.3,12.05,78.45,3.92,25.55,7.85,51.1,11.77,76.64,2.55,16.63,5.11,33.25,7.66,49.88.34,2.21.68,4.41,1.02,6.62-3.31,1.99-6.54,4.1-9.68,6.36-3.53-20.22-6.71-40.51-10.03-60.77-6.94-42.25-13.8-84.5-20.52-126.78-5.56-34.96-11.22-69.93-16.07-105-.63-4.57-1.26-9.13-1.76-13.72-.15-1.32-.27-2.63-.38-3.95-.02-.2-.02-.4-.03-.6.04.5.04-1.56.07-2,.16-2.35.49-4.68,1.01-6.98,1.92-8.45,6.24-14.17,12.95-19.43,2.81-2.2,5.78-4.27,9.33-5.02,4.72-1.01,9.55-1.65,14.31-2.46,20.19-3.45,40.41-6.74,60.65-9.9,78.91-12.31,158.12-22.53,237.35-32.51,40.32-5.08,80.65-10.1,120.95-15.29,16.91-2.18,33.87-4.11,50.72-6.74,10.31-1.61,20.62-3.2,31.03-4.03,18.07-1.44,46.82-2.21,56.87,17.27,1.73,3.34,1.94,7.02,2.51,10.7.86,5.55,1.72,11.1,2.56,16.65,1.54,10.09,3.06,20.19,4.55,30.29,2.92,19.74,5.76,39.49,8.53,59.25,11.23,79.92,21.1,160.06,32.94,239.89.57,3.82,1.32,7.49.57,11.34Z"/>
    <path class="cls-1" d="M216.64,484.24c-.09.03-.18.06-.26.09-.1.04-.19.07-.29.11-.33.13-.54.25.55-.2Z"/>
    <path class="cls-1" d="M291.46,652.3c.1-.06.21-.12.31-.17.09-.05.19-.11.28-.16.03-.02-.16.08-.74.42.05-.03.1-.05.15-.08Z"/>
    <path class="cls-1" d="M321.43,626.62c.14-.18.28-.33.42-.41,0,0,0,0,0,0-.38.21-.48.4-.42.41Z"/>
    <path class="cls-1" d="M258.79,663.94c.12-.02.27-.05.4-.07.12-.02.25-.05.37-.07-.04,0-.25.05-.77.15h0Z"/>
    <path class="cls-1" d="M330.09,971.43s.1-.04.15-.06c.08-.03.17-.07.25-.1.05-.02.1-.04.15-.07-.93.37-.81.33-.55.23Z"/>
    <path class="cls-1" d="M311.59,608.02c.05-.08.09-.17.14-.25,0,.02-.05.1-.15.26,0,0,0,0,0-.01Z"/>
    <path class="cls-1" d="M533.38,814.41c.4-.25.74-.5,0,0h0Z"/>
    <path class="cls-1" d="M578.37,819.3c-.43.29-1,.76,0,0h0Z"/>
    <path class="cls-1" d="M592.83,810.65c-1.02.02-2.04.03-3.06.02-.48,0-.96-.01-1.43-.02-.26,0-.52-.01-.77-.02-.01,0-.04,0-.06,0-.26-.02-.91-.05-1.07-.07-.49-.04-.99-.08-1.48-.13-.92-.09-1.84-.2-2.76-.35-.89-.14-1.77-.31-2.65-.49-.03,0-.05-.01-.08-.02-.04-.01-.07-.02-.12-.03-.51-.14-1.02-.27-1.52-.43-1.61-.5-3.18-1.12-4.68-1.89-.27-.14-1.37-.56-.32-.16-.38-.15-.76-.46-1.1-.68-.72-.47-1.42-.99-2.08-1.54-1.31-1.09-2.49-2.32-3.53-3.67-.24-.31-.46-.62-.68-.93-.08-.12-.16-.23-.24-.35-.05-.07-.22-.33-.25-.39-.5-.86-.98-1.72-1.41-2.62-.9-1.9-1.61-3.89-2.17-5.91-1.64-5.91-2.09-12.1-2.11-18.22,0-.38-.33-.66-.75-.88,0-.04,0-.08,0-.13.18-7.71.2-15.43.77-23.12.06-.8-1.99-1.02-2.28-1.05-1.5-.13-3.25.16-4.68.57-1.85.53-5.62,1.52-5.8,3.9-.93,12.6-.22,25.31-1.58,37.88-.03.3-.13,1.08-.21,1.7-.1.72-.2,1.44-.32,2.16-.22,1.35-.48,2.7-.8,4.03-.58,2.46-1.34,4.89-2.38,7.2-.5,1.11-1.06,2.19-1.7,3.23-.26.43-.55.85-.84,1.26-.07.1-.18.24-.27.36-.2.25-.41.51-.62.75-.77.9-1.63,1.69-2.51,2.49,0,0,0,0-.01,0-.21.15-.42.31-.63.46-.53.37-1.09.68-1.62,1.04.14-.09.25-.17.35-.23-.13.08-.27.16-.37.22-.26.13-.53.26-.79.39-.31.12-.62.24-.93.35-.26.07-.52.15-.78.22-.39.01-.88.2-1.24.26-.43.07-.85.13-1.28.2-.03,0-.07,0-.09,0-.95.09-1.9.16-2.86.2-.51.02-1.02,0-1.53.04-.05,0-.09,0-.14,0-.96-.07-1.92-.1-2.87-.11-.38-.02-.76-.03-1.14-.05-2.94-.2-6.62.65-9.03,2.42-.59.43-1.69,1.16-1.45,2.05.23.85,1.63,1,2.28,1.05.16,1.81,1.97,3.14,4.06,3.13,1.71,0,3.41.06,5.11.25.71.08,1.42.18,2.13.3.38.08.76.17,1.13.26,1.35.34,2.67.76,3.96,1.28.05.02.11.04.16.07.24.12.49.23.73.35.6.3,1.18.62,1.75.97,1.09.66,2.1,1.4,3.09,2.19.02.02.03.03.05.04.2.18.4.36.59.55.47.45.92.91,1.35,1.38,1.74,1.91,3.22,4.05,4.47,6.31.11.2.22.41.33.62.05.1.11.2.16.3.32.66.63,1.32.92,2,.54,1.26,1.04,2.54,1.49,3.83.96,2.75,1.73,5.57,2.38,8.42,1.38,6.03,2.24,12.17,2.99,18.31.87,7.06,1.57,14.13,2.63,21.16.18,1.17,1.65,2,2.62,2.31,1.45.46,3.38.39,4.82-.04,2.53-.75,5.78-2.59,5.32-5.69-.24-1.57-.45-3.15-.66-4.73.87-.65,1.5-1.48,1.53-2.57.15-5.47.07-10.94.12-16.41.03-2.93.08-5.87.21-8.8.01-.31.03-.62.04-.93,0-.04.04-.66.04-.75.04-.77.09-1.54.15-2.31.11-1.49.24-2.97.4-4.45.61-5.56,1.61-11.14,3.57-16.4.46-1.25.98-2.48,1.57-3.68.26-.53.53-1.06.82-1.58.1-.19.25-.43.29-.51.14-.23.29-.47.43-.7.67-1.04,1.41-2.03,2.2-2.97.4-.47.81-.92,1.24-1.36.09-.09.51-.41.61-.58.04-.04.09-.08.13-.11.53-.46,1.08-.89,1.64-1.3.28-.21.59-.39.87-.6-.09.07-.14.11-.21.16.05-.03.1-.06.14-.09.35-.21.73-.44,1.11-.64.04-.01.09-.03.16-.06.19-.08.38-.16.58-.24.33-.14.67-.26,1-.39.3-.09.6-.18.9-.26.28-.07.56-.14.85-.21.04,0,.08-.02.13-.02.82-.14,1.65-.24,2.48-.34.11,0,.23-.02.34-.02.52-.03,1.05-.05,1.57-.06,2.78-.07,6.68-.97,8.48-3.29,1.81-2.33-1.57-3.06-3.26-3.02ZM530.65,815.57s-.03,0-.05,0c.02,0,.04,0,.05,0ZM530.33,815.62c-.15.04-.31.08-.47.12-.82.21-.03-.01.47-.12ZM523.78,816.28c.26,0,.44,0,0,0h0ZM569.34,817.29c-5.19,3.35-9.07,8.02-11.74,13.56-1.34,2.77-2.37,5.68-3.16,8.66-2.77-6.94-6.86-13.26-13.18-17.54-1.85-1.25-3.83-2.27-5.9-3.09,6.76-2.35,12.75-6.31,16.67-12.57.39-.63.75-1.27,1.09-1.93.17.26.33.52.51.77,4.32,6.05,11.1,9.2,18.2,10.68-.85.46-1.68.94-2.49,1.47ZM579.79,818.48c.25-.13.51-.25.76-.34.03-.01-.45.2-.76.34Z"/>
    <path class="cls-1" d="M592.21,645.37c.08-.04.16-.08.24-.13.03-.02.06-.04.08-.06-.35.17-.54.27-.63.32,0,0,0,0,0,0,.1-.04.2-.08.29-.13Z"/>
    <path class="cls-1" d="M590.84,645.79c-.05,0-.1.02-.15.02.04,0,.07,0,.11-.01.02,0,.03,0,.04-.01Z"/>
    <path class="cls-1" d="M615.46,655.8s-.04.02-.06.03c.01,0,.02,0,.03,0,.01,0,.02-.01.03-.02Z"/>
    <path class="cls-1" d="M615.47,655.95s-.03.01-.04.02c.02,0,.04-.01.05-.02,0,0,0,0-.01,0Z"/>
    <path class="cls-1" d="M615.43,655.82s-.11.07-.19.12c.01,0,.02,0,.03-.01.23-.1.25-.13.16-.11Z"/>
    <path class="cls-1" d="M614.34,656.8c.05-.07.11-.16.18-.27,0,0,0,0,0,0-.06.09-.11.18-.17.27Z"/>
    <path class="cls-1" d="M614.97,656.09s-.04.04-.06.06c.04-.03.1-.06.13-.08-.02,0-.04,0-.06.01,0,0-.01,0-.02.01Z"/>
    <path class="cls-1" d="M615.09,656.04s-.03,0-.04,0c.03-.01.08-.03.1-.04.04-.02.06-.04.09-.06-.05.02-.1.04-.15.07-.02.01-.03.02-.05.03,0,0-.01,0-.02,0,0,0-.01.01-.02.02,0,0,.02,0,.03-.01,0,0,0,0-.01,0,.02,0,.04,0,.06-.01,0,0,.01,0,.02-.01Z"/>
    <path class="cls-1" d="M624.06,648.28c-.64-.02-1.29-.06-1.93-.11-.19-.02-.29-.02-.35-.02-.25-.04-.57-.11-.61-.11-.48-.09-.96-.19-1.44-.32-.27-.07-.54-.15-.8-.24-.04-.01-.22-.08-.35-.12-.13-.06-.35-.15-.35-.15-.19-.09-.38-.19-.57-.29-.4-.22-.79-.46-1.15-.73-.67-.49-1.25-1.07-1.79-1.7-3.79-5.14-3.44-12.01-3.02-18.07.05-.76-2.01-.9-2.25-.92,0,0-.01,0-.02,0-1.04-1.6-3.42-2.25-5.35-2.05-1.68.18-3.47.67-4.8,1.75-1.02.83-2.15,1.97-2.24,3.37-.19,3.01-.38,6.02-.95,8.98-.15.76-.33,1.51-.52,2.26-.01.05-.02.09-.03.14-.01.04-.03.08-.05.13-.13.36-.25.72-.4,1.08-.26.65-.55,1.29-.88,1.91-.15.28-.31.55-.47.83-.27.34-.56.67-.85,1-.12.1-.24.19-.37.28.07-.03.14-.07.21-.1,0,0-.01.01-.02.02-.09.05-.19.1-.28.15,0,0,0,0-.01,0-.11.08-.23.15-.34.2-.06.02-.12.03-.18.05,0,0-.01,0-.02,0,0,0,0,0,0,0-.35.1-.71.2-1.07.29.13-.02.25-.03.34-.03-.12,0-.25.02-.38.04-.05.01-.11.03-.16.04-.87.19-.43.05.06-.03-.16.03-.31.06-.45.07-.65.07-1.31.12-1.97.14-.52.02-2.94,0-.81.04-1.79-.03-3.39.09-5.03.88-1.2.58-2.75,1.7-3.28,3.01-.46,1.13-.61,2.48.25,3.5.86,1.02,2.28,1.77,3.62,1.8,2.13.04,4.29-.03,6.42-.27.06.02.12.04.17.06.35.14.69.3,1.04.46.07.03.11.05.15.07.04.03.1.06.18.12.59.37,1.17.74,1.71,1.18,1.06.85,1.95,1.86,2.74,2.96,2.78,4.42,3.49,9.69,3.29,14.83-.03.86,1.92,1.2,2.34,1.26,1.04.13,2.23.04,3.34-.17.94-.03,1.88-.17,2.68-.4,1.5-.44,3.14-1.06,4.25-2.2.76-.78,1.48-1.71,1.23-2.88-.36-1.68-.58-3.38-.65-5.09.03-2.14.36-4.24,1.11-6.25.39-.75.85-1.43,1.3-2.13-.36.53-.2.1.07-.17.03-.03.07-.06.1-.1.03-.05.07-.1.1-.15-.04.06-.06.1-.09.15.13-.13.26-.26.4-.38-.08.05-.16.09-.26.16.11-.06.22-.14.32-.21,0,0,0,0,.01-.01h0s.01-.01.02-.02h-.01s0,0,0,0h0s-.03,0-.05,0c.02,0,.04-.02.05-.02,0,0,0,0,.01,0,0,0,0,0,.01-.01.02,0,.04-.02.05-.02.05-.03.09-.06.14-.09.06-.03.12-.07.17-.09-.03,0-.08.02-.12.03.2-.13.33-.17.18-.06.35-.16.56-.17-.31.2-.02.01-.04.02-.06.04.03,0,.06,0,.09,0-.03,0-.07.01-.11.02,0,0-.02.01-.03.02.07-.01.14-.03.2-.05.15-.02.31-.04.46-.05.11,0,.22-.02.33-.02.18.01.35.03.5.03,1.68.04,3.47-.31,5.01-.98,1.13-.49,2.77-1.42,3.4-2.57.29-.53.51-1.14.45-1.72.53-.39,1.07-.91.91-1.51-.22-.81-1.66-.89-2.25-.92ZM603.02,649.16c1.21,1.23,2.61,2.13,4.13,2.77-.55.35-1.09.73-1.6,1.14-1.16-1.11-2.46-2-3.86-2.71.46-.37.9-.77,1.33-1.2ZM614.95,656.09c-.11.04-.2.08-.33.14.1-.04.2-.09.29-.13.01,0,.03,0,.04,0ZM614.46,656.14c-.07,0-.06,0,.05-.02-.02,0-.04.01-.05.02ZM615.42,655.97s0,0,0,0h0s-.09,0-.14,0c.06-.02.12-.02.19-.03.02,0,.05-.02.07-.03-.01,0-.03.02-.06.03.16-.02.33-.02.51,0-.19,0-.38.02-.57.03Z"/>
    <path class="cls-1" d="M684.1,756.93c-.13.08-.27.16-.39.24-.04.03-.07.05-.1.08,0,0-.02.01-.03.02-.12.09-.25.18-.37.27-.02.02-.04.04-.06.06.27-.16.43-.27.51-.32.11-.07.3-.2.56-.39-.02,0-.03.01-.05.02-.02,0-.04.02-.06.03Z"/>
    <path class="cls-1" d="M695.01,746.83c-.89-.03-2.26.14-3.1-.19.82.09.93.1.34.03-.18-.02-.35-.05-.52-.07-.4-.06-.79-.12-1.18-.19-.15-.03-1.4-.27-2.08-.45-.07-.03-.18-.07-.4-.15-.37-.13-.73-.28-1.08-.43-.6-.26-1.18-.56-1.75-.9-.12-.07-.23-.14-.34-.21-.27-.21-.54-.41-.79-.63-1.01-.87-1.89-1.89-2.64-2.99-.14-.21-.27-.42-.4-.64-.03-.07-.36-.66-.41-.75-.42-.85-.8-1.72-1.12-2.61-.74-2.06-1.2-4.21-1.47-6.38-.52-4.24-.24-8.4.07-12.67.15-2.11-1.93-2.74-3.82-2.79-1.21-1.04-3.04-1.52-4.64-1.36-2.76.27-6.79,2.03-6.99,5.31-.27,4.39-.56,8.81-1.45,13.13-.1.48-.21.96-.32,1.44-.05.19-.09.38-.14.57-.32,1.06-.67,2.1-1.09,3.12-.37.9-.78,1.78-1.24,2.63-.09.17-.19.35-.29.52-.26.23-.49.73-.69.99-.26.33-.52.66-.8.97-.04.04-.08.08-.11.12-.5.35-.98.8-1.47,1.17-.34.19-.69.36-1.04.53-.18.09-.37.16-.56.24-.04.01-.07.02-.12.04-.83.26-1.66.45-2.51.63-.35.05-.7.09-1.05.13-2.03.21-4.08.25-6.12.21-2.73-.05-6.88,2.26-6.99,5.31-.12,3.43,3.18,4.41,5.97,4.46,1.97.04,3.94-.02,5.9-.21.02,0,.03,0,.05,0,.85.19,1.69.42,2.51.69.19.06.38.13.57.19.43.18.87.36,1.29.56.76.35,1.5.75,2.21,1.19.41.25.8.52,1.19.79.05.04.07.05.11.08.15.12.29.24.43.36.69.59,1.34,1.23,1.94,1.91,2.64,2.99,4.03,6.04,5.06,10.09,1.02,4.04,1.24,7.79,1.09,11.52-.11,2.88,3.34,3.41,5.61,3.11,1.67-.23,3.43-.7,4.82-1.67.46-.32,1.06-.76,1.55-1.26,1.5-.93,2.72-2.25,2.35-3.97-.78-3.61-1.13-6.62-.79-10.05.18-1.8.53-3.58,1.11-5.3.01-.03.29-.73.29-.74.14-.3.27-.6.42-.9.32-.63.67-1.24,1.06-1.83.17-.25.35-.49.52-.74,0-.01.01-.02.02-.03h0c.38-.4.74-.8,1.15-1.17-.06.04-.11.07-.18.11.08-.05.16-.11.24-.17,0,0,0,0,0,0,.13-.12.26-.2.36-.26.03-.02.06-.05.09-.07.01,0,.03-.02.04-.03.11-.08.25-.17.39-.24.09-.05.18-.11.27-.17,0,0,0,0,0,0-.07.05-.11.08-.17.12.17-.08.34-.15.51-.22.72-.19,2.67-.4.46-.17.71-.07,1.41-.19,2.12-.25,0,0,0,0,0,0,.41.09,1.08-.02,1.47,0,1.7.05,3.45-.26,5.01-.95,1.15-.51,2.77-1.49,3.37-2.68.18-.36.29-.69.34-1.01.39-.32.73-.66.95-1.04,1.51-2.57-1.29-3.64-3.45-3.71ZM688.29,745.91c-.15-.04-.25-.08-.25-.1,0,0,.12.05.25.1ZM663.33,749.86c.09-.06.18-.11.26-.17,2.11-1.45,3.84-3.27,5.27-5.31,2.02,3.27,4.84,5.83,8.48,7.32-2.19,1.19-4.2,2.72-5.94,4.65-1.29-1.6-2.76-3.04-4.49-4.33-1.12-.83-2.33-1.54-3.58-2.16Z"/>
    <path class="cls-1" d="M59.11,467.08c.44-.34.79-.91,0,0h0Z"/>
    <path class="cls-1" d="M88.98,477.79s0,0,0,0c-.04.02-.08.03-.11.05,0,0,0,0,0,0,.04-.02.07-.03.11-.05Z"/>
    <path class="cls-1" d="M88.47,478c.07-.03.15-.06.23-.09,0,0-.02,0-.03,0-.06.02-.12.04-.18.07,0,0-.02.01-.03.02,0,0-.01,0-.02,0-.01,0-.02.01-.03.02.01,0,.03,0,.04-.01,0,0,0,0,0,0,0,0,0,0,0,0,.02,0,.03,0,.04-.01,0,0-.01,0-.02,0Z"/>
    <path class="cls-1" d="M88.16,478.09h0c.06-.02.11-.03.17-.05.01,0,.03-.02.04-.02-.07.02-.14.05-.21.07Z"/>
    <path class="cls-1" d="M88.33,478.09c.09-.02.29-.06.65-.16-.2.02-.46.08-.6.12-.02.01-.03.02-.05.03Z"/>
    <path class="cls-1" d="M88.87,477.84c-.06.02-.11.05-.17.07.14-.04.19-.06.17-.07Z"/>
    <path class="cls-1" d="M98.72,469.83c-.53-.02-1.06-.04-1.59-.07-.26-.02-.51-.03-.76-.05-.6-.05-.5-.04.31.03-.33.21-2.03-.28-2.43-.35-.43-.08-.86-.17-1.29-.27-.21-.05-.41-.1-.62-.15-.49-.14-.4-.11.27.09-.08.12-1.76-.64-1.94-.72-.6-.27-1.17-.59-1.75-.9-.06-.04-.09-.06-.13-.08-.05-.04-.11-.08-.16-.12-.29-.21-.57-.44-.85-.67-1.01-.87-1.89-1.89-2.63-2.99-.05-.08-.3-.47-.36-.57-.16-.28-.31-.57-.46-.85-.42-.85-.8-1.72-1.12-2.61-.74-2.06-1.2-4.21-1.47-6.38-.51-4.23-.24-8.47.06-12.7.16-2.23-2.27-2.72-4.24-2.67-1.18-.58-2.74-.69-3.96-.53-1.67.22-3.43.69-4.82,1.68-.94.67-2.27,1.7-2.35,2.96-.26,4.26-.54,8.53-1.37,12.72-.39,1.98-.91,3.95-1.61,5.85-.02.02-.41.96-.46,1.07-.23.5-.48,1-.74,1.49-.43.81-.93,1.56-1.44,2.32-.02.04-.04.06-.06.1,0,0-.01.01-.02.02-.28.3-.55.61-.85.91-.28.28-.65.52-.9.82.04-.05.07-.08.11-.12-.02.01-.03.03-.05.04-.27.19-.56.37-.84.55-.33.16-.66.31-1,.44-.65.17-1.3.36-1.96.52-.04,0-.07,0-.11.02-.41.06-.82.11-1.22.16-.89.1-1.78.15-2.68.2-.13,0-.26,0-.39,0-.54,0-1.07,0-1.6-.02-1.72-.03-3.44.24-5.02.95-1.15.51-2.77,1.5-3.37,2.69-.31.61-.4,1.17-.35,1.68-.04.13-.07.26-.03.39.04.13.12.23.23.32.57,1.22,2.16,1.94,3.77,1.97,2.58.05,5.21-.02,7.82-.29.36.1.7.21,1.02.32,3.39,1.18,6.64,3.1,9.01,5.83,5.46,6.3,6.72,15.15,6.4,23.19-.03.69,2.04.71,2.19.71,1.51.02,3.2-.3,4.65-.71,1.49-.42,3.06-.89,4.38-1.71.32-.2.69-.41.98-.67.22-.13.44-.25.64-.39.61-.44,1.66-1.12,1.46-2.02-1.44-6.66-1.57-13.88,2.15-19.86.16-.26.33-.51.5-.76.04-.06.06-.1.09-.13.03-.03.06-.07.12-.13.39-.44.76-.88,1.18-1.29.22-.22.48-.41.7-.64.03-.02.04-.02.07-.05.16-.1.32-.2.48-.31-.1.02-.06,0,.05-.03.02-.01.04-.03.06-.04,0,0,0,0,0,0-.03.01-.05.02-.07.03.01,0,.02-.01.04-.02-.02,0-.05.01-.07.02-.02.01-.05.03-.07.04-.57.22-.41.13-.1,0h0s0,0,0,0c.06-.02.13-.05.2-.07,0,0,.02,0,.03,0,0,0,0,0-.01,0,.01,0,.02,0,.03-.01.01,0,.02,0,.03,0,.01,0,.02-.01.04-.02,0,0,0,0,.01,0,0,0,.01,0,.02-.01,0,0,.01,0,.02,0,.02,0,.04-.01.06-.02.04-.01.06-.02.09-.03.07-.03.13-.05.19-.08-.01,0-.03,0-.05,0,.06-.02.11-.04.16-.05.02,0,.04-.02.06-.02-.02,0-.03.01-.05.02.28-.07.37-.04-.49.21.23-.03.47-.06.69-.12-.07.02-.14.04-.2.05.02,0,.03,0,.05,0,.39-.03.77-.04,1.16-.05.19,0,.38,0,.57.01,2.99.08,6.56-.63,9.03-2.42.24-.17.57-.4.85-.66.62-.4,1.17-.88,1.5-1.41,1.55-2.54-1.33-3.49-3.41-3.56ZM75.45,479.92c-2.67-3.27-6.11-5.6-10.11-7.09.54-.31,1.08-.63,1.6-.98,2.1-1.41,3.85-3.14,5.31-5.08,2.2,3.79,5.43,6.72,9.74,8.18.28.09.55.17.83.26-2.7,1.14-5.29,2.65-7.37,4.72Z"/>
    <path class="cls-1" d="M350.14,286.53s-.02.02-.03.02c-.14.18-.31.34-.48.51.04.01.21-.13.51-.53Z"/>
    <path class="cls-1" d="M352.56,284.88c-.05.02-.1.04-.15.07-.17.08-.33.18-.5.27-.03.02-.06.04-.09.06.55-.25.75-.38.74-.4Z"/>
    <path class="cls-1" d="M359.26,284.15c-.06-.02-.12-.03-.18-.05-.06-.01-.11-.03-.17-.04,0,0-.01,0-.02,0,.92.33.72.21.36.09Z"/>
    <path class="cls-1" d="M357.99,320.68c.15.01.29.04.44.05.08,0,.16,0,.25,0,.05,0,.1,0,.16,0-.63-.08-.85-.08-.84-.05Z"/>
    <path class="cls-1" d="M339.96,325.04c4.87,3.44,10.75,4.85,16.64,4.9,11.32.1,23.13-6.46,27.13-17.4,4.06-11.11,1.18-23.94-7.69-31.83-.13-.14-.28-.27-.44-.41-9.36-7.71-23.32-7.24-32.93-.23-4.72,3.44-7.95,8.39-10.07,13.77-2.13,5.43-3.24,11.27-2.12,17.07,1.11,5.72,4.74,10.8,9.47,14.13ZM352.07,319.13c.26.14.5.28,0,0h0ZM363.59,319.97c.22-.09.41-.16.41-.16-.1.07-.25.12-.41.16ZM369.49,315.33c-.11.19-.08.14,0,0h0ZM343.74,298.49c.09-.38.16-.83.29-1.23.04-.08.09-.18.12-.26.11-.3.2-.59.31-.89.43-1.19.93-2.36,1.48-3.5.51-1.06,1.05-2.12,1.67-3.13.04-.06.08-.13.12-.19,0,0,0,0,0,0,.09-.13.18-.26.25-.4-.05.09-.09.16-.13.23.4-.51.79-1.03,1.23-1.52.17-.19.36-.36.55-.54-.04-.01.03-.14.21-.29.09-.07.18-.15.27-.22.04-.05.08-.09.11-.14-.03.05-.06.08-.09.12.19-.16.38-.32.58-.47.36-.27.73-.52,1.1-.77-.08.04-.15.07-.25.11.12-.05.23-.11.34-.18.09-.06.17-.12.25-.18.19-.13.39-.19.4-.16.36-.17.72-.33,1.09-.49.2-.06.4-.13.6-.18.5-.14,1.01-.22,1.51-.35-2.27.59-.4.09.26.03.66-.05,2.45.16.39-.07.52.06,1.04.05,1.56.11.31.04.61.08.92.13-.07-.03-.12-.04-.21-.07.13.05.26.08.39.11.06.02.12.03.18.05.33.08.66.16.98.27.52.17,1.03.38,1.54.58-.02-.02-.03-.04-.05-.06.02.03.06.05.09.08.03.01.06.02.09.04.23.09.33.16.35.2.14.06.28.12.35.16,1.11.63,2.14,1.37,3.13,2.18.08.07.93.69.27.22-.64-.46.15.16.24.25.34.35.67.71.99,1.08.71.82,1.36,1.7,1.94,2.61.26.41.52.84.75,1.26.1.17.19.35.28.53.35,1.04.86,2.02,1.2,3.07.61,1.9,1.34,4.3,1.22,6.33,0-.12-.04-1.05-.02-.21,0,.22.01.44.02.66,0,.55,0,1.1-.03,1.65-.05,1.09-.17,2.18-.36,3.26-.08.48-.18.96-.3,1.43-.06.26-.14.52-.2.79-.04.19-.04.26-.02.27-.13.36-.34.76-.43.97-.2.5-.41.99-.65,1.47-.23.48-.48.95-.75,1.41-.06.09-.11.19-.17.28-.32.27-.66.92-.9,1.21-.35.42-.72.83-1.1,1.22-.03.03-.09.09-.17.16-.07.06-.14.12-.17.14-.33.28-.68.54-1.03.79-.48.35-2.07,1.14-.22.22-.48.24-.94.53-1.42.76-.44.21-.89.4-1.33.59-.06.01-.12.03-.17.04-.46.14-.93.27-1.41.38-.15.04-.31.07-.46.1-.85.09-1.69.16-2.54.19.08.01.15.02.25.03-.13-.02-.27-.02-.4-.02-.09,0-.17.01-.26.01-.23,0-.42-.04-.42-.07-.5-.04-1.01-.08-1.51-.16-.16-.02-.32-.06-.48-.1-.11,0-.28-.02-.44-.07-.02,0-.05-.01-.07-.02-.1-.02-.19-.04-.29-.05.07,0,.12,0,.18.01-.2-.06-.4-.11-.6-.17-.47-.14-.94-.3-1.39-.47-.35-.13-1.14-.62-1.56-.68-.16-.09-.32-.17-.47-.26-.43-.25-.85-.51-1.26-.79-.41-.28-.81-.58-1.21-.89-.22-.17-.43-.36-.64-.53-.02-.02-.03-.03-.05-.04,0,0-.01-.01-.02-.02-.83-.86-1.62-1.74-2.32-2.72-.36-.51-.7-1.04-1.01-1.59-.12-.21-.23-.43-.35-.65.55.98,0-.06-.09-.24-.42-.99-.75-2.02-.99-3.06-.13-.58-.24-1.16-.32-1.75-.03-.23-.05-.47-.09-.71,0-.05-.01-.09-.02-.13,0-.03,0-.05,0-.08-.03-2.38.2-4.71.76-7.02Z"/>
    <path class="cls-1" d="M355.38,320.31s.07.02.11.03c.17.03.34.05.52.09.19,0,.14-.06-.63-.12Z"/>
    <path class="cls-1" d="M347.85,289.12s-.03.04-.05.06c-.03.03-.05.07-.08.11,0,0,0,0,0,0-.16.24-.24.48.12-.17Z"/>
    <path class="cls-1" d="M362.26,285.26c-.17-.07-.33-.15-.44-.24-.01,0-.03-.01-.04-.02.23.31.54.35.48.26Z"/>
    <path class="cls-1" d="M373.65,369.94s-.02,0-.03,0c0,0,0,0,.03,0Z"/>
    <path class="cls-1" d="M374.66,369.68c.44-.17,1.17-.62,0,0h0Z"/>
    <path class="cls-1" d="M373.03,370.01c.06,0,.12,0,.16,0,.12,0,.24-.03.35-.04.03-.01.04-.02.07-.03-.54.01-.67.06-.59.08Z"/>
    <path class="cls-1" d="M432.06,290.62c-.08.01-.16.02-.23.04-.05.01-.11.03-.16.04,0,0-.02,0-.03.01-.13.05-.26.1-.39.15.06,0,.3-.07.81-.23Z"/>
    <path class="cls-1" d="M414.81,374.45s-.01,0-.02-.01c0,0-.02,0-.03,0,0,0,.01.01.02.01,0,0,.02,0,.03,0Z"/>
    <path class="cls-1" d="M417.14,375.95s0,.02,0,.04c0,0,0,0,0,0,.02,0,.03,0,.05,0-.02-.01-.04-.03-.06-.04Z"/>
    <path class="cls-1" d="M417.14,375.95s0-.05-.02-.07c-.03-.04-.05-.08-.08-.11-.02-.02-.03-.03-.05-.05-.02.03,0,.12.15.22Z"/>
    <path class="cls-1" d="M417.14,376.37c.02-.06.03-.11.05-.17-.02-.08-.03-.17-.04-.22-.23,0-.12.24,0,.39Z"/>
    <path class="cls-1" d="M417.23,376.01s0,0,0,0c0,0,0,0,0,0,0,0-.01,0-.02,0,0,0,.02.01.03.02Z"/>
    <path class="cls-1" d="M463.02,324.69c-5.2-17.58-10.76-35.05-16.67-52.41-3.33-9.78-6.78-19.53-10.34-29.24-.26-.71-.94-1.06-1.8-1.2-1.09-1.06-3.77-.66-5-.44-.84.15-1.68.35-2.52.56-3.97.97-7.91,2.08-11.85,3.14-7.59,2.05-15.17,4.12-22.75,6.19-10.08,2.75-20.16,5.51-30.24,8.27-11.18,3.06-22.36,6.12-33.54,9.17-11.17,3.05-22.34,6.1-33.51,9.13-9.87,2.68-19.74,5.35-29.62,8-7.33,1.97-14.65,3.93-22,5.83-1.26.33-2.52.65-3.77.97-1.4.36-3.16.98-4.34,1.86-.61.45-1.67,1.18-1.45,2.08,4.59,18.09,9.01,36.22,13.32,54.37,3.96,16.67,7.82,33.35,11.71,50.04,2.13,9.12,4.26,18.24,6.43,27.35.36,1.52,3.77,1.15,5.02.95-.1.12-.18.23-.23.35-.86,2.07,4.55,1.18,5.07,1.1,25.67-3.78,51.21-8.46,76.56-14.04,25.6-5.64,51.02-12.11,76.17-19.52,14.39-4.24,28.7-8.75,42.92-13.55.62-.21,4.52-1.73,4.2-3,.46-.23.9-.47,1.3-.78.62-.48,1.66-1.22,1.43-2.15-4.48-17.78-9.31-35.47-14.51-53.05ZM442.21,382.31c-2.62-2.03-6.49-2.29-9.64-2.29-1.47,0-2.93.1-4.4.15-.5.02-.99.02-1.48.02,0,0,0-.02-.01-.03-.01-.04-.01-.07-.02-.11,0-.01,0-.02.01-.04.07-.17.14-.38.18-.57.02-.03.03-.06.03-.06.32-.47.66-.93,1-1.38,1.7-2.22,3.24-5,.8-7.35-3.48-3.35-9.06-3.44-13.44-2.26-3.96,1.07-7.22,3.23-10.5,5.58-.1-.11-.21-.21-.3-.33-.15-.19-.29-.39-.43-.59-.06-.09-.12-.18-.17-.26-.32-.58-.63-1.16-.9-1.76-1.38-3.03-2.28-6.34-2.7-9.65-.1-.79-.17-1.59-.2-2.39,0-.17,0-.34,0-.5,0-.02,0-.02,0-.03.02-.33.04-.66.08-1,.07-.57.17-1.13.36-1.68.03-.08.06-.17.09-.25.13-.17.28-.37.29-.38.32-.36.49-.82.49-1.27,3.81-6.79,5.77-14.64,7.58-22.12,2.18-9.02,4.09-18.26,8.59-26.46,1.99-3.62,4.16-6.71,6.98-9.53.72-.72,1.46-1.4,2.23-2.06.18-.15.36-.3.55-.45.03-.03.12-.1.21-.17.11-.08.25-.19.3-.23.24-.17.48-.34.72-.5.43-.29.88-.57,1.33-.84.1-.06.17-.1.23-.14.03-.01.05-.02.08-.04.35-.18.72-.34,1.08-.51,0,0,.01,0,.02,0,0,0,0,0,0,0,.03-.02.07-.03.1-.05.12-.04.23-.08.29-.1.02,0,.04-.01.05-.02.04-.01.09-.02.13-.03,0,0,0,0,0,0,.05-.01.1-.03.16-.04h0s.07,0,.1,0c0,0-.02,0-.02,0,.02,0,.04,0,.06-.01.25-.02.51-.03.76-.05,2.67,9.57,5.45,19.12,8.18,28.67,4.66,16.29,9.06,32.66,12.37,49.28.7,3.5,1.33,7.01,1.94,10.52-3,.73-6,1.47-8.99,2.22-1.39.35-2.77.7-4.16,1.05ZM280.39,422.41c-.41.09-.82.18-1.22.27-.26.06-.52.11-.78.17-.32.07-.65.14-.97.2-1.78-7.49-3.54-14.98-5.29-22.48,2.19.95,4.45,1.75,6.79,2.31,8.69,2.07,18.25.77,26.25-3.15,7.51-3.68,12.93-9.92,16.34-17.49,2.27-5.05,4.49-10.13,6.73-15.19,1.04-2.35,2.02-4.74,3.16-7.04.47-.94.97-1.86,1.58-2.72.08-.12.15-.21.22-.3,1.73.46,3.23,1.17,4.84,2.2,3.81,2.45,6.73,6.04,10.02,9.1,3.25,3.02,6.97,5.44,11.36,6.41,5.16,1.14,10.63.53,15.69-.82,4.64-1.24,9.03-3.2,12.98-5.81.28,1.22.61,2.42,1.01,3.59.88,2.58,2.06,5.44,3.98,7.43,2.94,3.05,8.18,2.82,11.93,1.79,4.08-1.13,7.33-3.36,10.73-5.78.06-.04.12-.08.18-.13.02-.01.04-.03.06-.04.11.06.21.12.33.16.25.2.47.42.7.62.02-.03.09,0,.13.15.03.05.06.08.1.11,0,0,0,0,0,0,0,0,0,0,0,0,0,0,.01.02.02.02,0,0-.01-.01-.02-.02,0,.02-.01.1-.04.2,0,.05.02.09.03.12.02.04.02.05.02.08,0,0-.02.02-.04.04-.02-.02-.04-.04-.06-.07-.03.11-.06.2-.06.21,0,.02,0,.02,0,.04-.16.24-.31.47-.48.7-1.39,1.91-3.66,4.39-2.44,6.92.83,1.71,2.77,2.3,4.53,2.54,1.75.24,3.5.2,5.25.12-5.51,1.4-11.01,2.79-16.52,4.19-16.7,4.23-33.41,8.47-50.12,12.66-16.23,4.07-32.47,8.12-48.74,12.05-6.7,1.62-13.4,3.22-20.12,4.77-2.68.62-5.37,1.23-8.06,1.83ZM299.88,396.72c.13-.1.23-.17.3-.22-.11.1-.23.2-.3.22ZM372.73,370.04c.31,0,.6.03,0,0,0,0,0,0,0,0ZM374.02,369.93s-.1,0-.14.01c.02,0,.03,0,.05-.01.03,0,.06,0,.09,0ZM374.57,369.73s.03,0,.05,0c-.06.03-.12.05-.17.07.05-.03.07-.04.12-.06ZM400.53,355.61c-.05.11-.09.2-.12.19,0,0,.05-.09.12-.19ZM405.84,374.82c-.13-.05-.24-.09-.37-.13.03-.03.23.02.65.26-.07-.04-.15-.07-.23-.1.03,0,.02,0-.05-.02ZM402.82,375.23c-.37.14-.68.17.13-.08-.04.03-.09.05-.13.08ZM414.68,374.36s.07.05.11.07c.02,0,.03,0,.05,0,0,0,0,0,.02,0-.01,0-.03,0-.05,0,.07.04.16.08.26.12-.09-.02-.2-.06-.29-.12-.71-.05-.31-.06-.02-.01-.03-.02-.06-.04-.08-.07ZM426.64,379.8s.01.09.01.14c0-.05,0-.1-.01-.14ZM426.83,380.48c.12.08.08.06,0,0h0ZM426.62,380.19s0-.02,0-.03c0,.01,0,.02,0,.03h0ZM426.68,379.73s.03-.04.06-.08c-.02.04-.04.07-.06.08ZM432.28,290.55s-.02,0-.03,0c.03,0,.06-.01.09-.02-.02,0-.04.01-.06.02ZM431.45,290.76s.02,0,.02,0c0,0-.02,0-.03.01,0,0,0,0,0,0ZM431,290.89s.03,0,.04,0c-.02,0-.04,0-.04,0ZM421.85,246.01c-.32-.35-.1-.56,0,0h0ZM246.98,295.48c4.35-1.13,8.69-2.28,13.03-3.44,9.23-2.46,18.46-4.96,27.68-7.46,10.86-2.94,21.72-5.9,32.58-8.86,11.2-3.06,22.4-6.12,33.6-9.18,10.42-2.85,20.84-5.7,31.27-8.55,8.36-2.28,16.71-4.57,25.07-6.83,4.01-1.09,8.03-2.18,12.05-3.24.48,2.25.97,4.51,1.48,6.75,1.05,4.66,2.16,9.31,3.31,13.94,1.48,5.94,3.06,11.86,4.68,17.76-7.57,1.8-14.68,5.84-19.9,11.54-5.9,6.44-9.62,14.25-12.05,22.57-2.74,9.4-4.27,19.15-7.72,28.34-.76,2.03-1.61,4.03-2.59,5.96-.14.13-.28.25-.41.39-.74.82-1.18,1.82-1.44,2.88-.55.88-1.13,1.74-1.76,2.57-.9,1.18-2.39,2.8-3.72,4.04-.71.66-1.44,1.29-2.19,1.89-.09.07-.19.15-.28.22-.09.06-.31.23-.41.3-.44.31-.88.61-1.33.9-.4.26-.8.5-1.21.74-.04.02-.12.07-.2.13-.04.01-.09.03-.15.06-.42.21-.84.42-1.26.61-.15.07-.31.13-.46.2-.01,0-.03,0-.05,0,.03-.01.05-.03.08-.04,0,0-.01,0-.02,0-.04.02-.09.03-.14.05-.26.05-.61.11-.88.2h0s.26-.07.82-.18c-.31.09-.69.17-.79.18.05,0,.1,0,.16,0-.05,0-.09.02-.14.02-.04,0-.08,0-.12.01-.01,0-.02.01-.03.02-.02,0-.05,0-.07.01-.18.03-.35.03-.41.01-.18,0-.41-.01-.56.02-.35-.01-.7-.02-1.06-.05-.14-.01-.28-.03-.43-.04-.04,0-.07-.01-.12-.02-.49-.1-.98-.18-1.47-.31-1.92-.48-3.16-1.05-4.95-2.2-3.86-2.49-6.84-6.04-10.15-9.16-3.24-3.05-7.03-5.54-11.45-6.45-6.58-1.36-14.5.42-19.72,4.65-3.82,3.09-5.46,8.27-7.38,12.6-2.18,4.93-4.36,9.86-6.55,14.79-.88,1.99-1.85,3.93-3,5.77-1.11,1.77-1.87,2.8-3.14,4.17-.57.61-1.16,1.2-1.78,1.76-.3.27-.61.54-.92.79-.03.02-.09.08-.16.14,0,0,0,0-.01,0-.12.09-.24.17-.36.26-.59.42-1.21.8-1.83,1.17-.05.02-.11.05-.18.09-.1.05-.36.16-.59.27-.11.04-.22.08-.3.12-.04.01-.09.02-.14.03-.19.04-.39.08-.53.1-.35.03-.71.06-1.06.08-.02,0-.03,0-.05,0-.43,0-.86-.01-1.29-.03-.39-.02-.77-.05-1.16-.08-.05,0-.16,0-.28-.01-.03,0-.04-.02-.08-.02-.89-.14-1.77-.29-2.65-.49-1.69-.39-3.36-.9-4.97-1.53-.14-.06-.75-.31-.81-.34-.4-.17-.8-.35-1.2-.54-.86-.4-1.71-.84-2.54-1.29-1.74-.95-3.42-2.01-5.04-3.15-1.66-1.17-3.26-2.42-4.8-3.74-.31-.26-.83-.38-1.38-.43-.83-3.58-1.67-7.17-2.51-10.75-4.02-17.22-8.06-34.43-12.24-51.6-2.36-9.72-4.78-19.43-7.23-29.13ZM443.4,388.4c-.71.22-1.42.45-2.13.66-.41.13-.83.26-1.24.38-3.06.94-6.13,1.87-9.2,2.79-12.28,3.67-24.62,7.12-37.02,10.36-6.2,1.62-12.41,3.18-18.64,4.69-3.11.76-6.23,1.5-9.35,2.23-1.56.36-3.12.72-4.68,1.08-.63.14-1.27.29-1.9.43-.04,0-.08.02-.13.03-.47.11-.94.21-1.41.32-12.51,2.8-25.06,5.38-37.65,7.74-6.9,1.29-13.82,2.52-20.75,3.68,1.46-.35,2.92-.7,4.38-1.05,15.69-3.76,31.34-7.64,46.99-11.56,16.75-4.19,33.48-8.42,50.22-12.66,11.57-2.93,23.14-5.87,34.71-8.79,1.34-.12,2.76-.46,3.93-.97.03-.01.08-.03.11-.05.9-.23,1.8-.46,2.7-.68,4.47-1.12,8.94-2.25,13.42-3.34,1.34-.33,2.68-.65,4.02-.96,1.12-.12,2.21-.39,2.91-.59-4.89,1.63-9.79,3.24-14.71,4.81-1.53.49-3.05.97-4.58,1.45Z"/>
    <path class="cls-1" d="M506.36,224.06c4.45-.53,8.89-1.05,13.34-1.58,10.59-1.25,21.18-2.5,31.77-3.76,12.89-1.52,25.77-3.05,38.66-4.57,11.07-1.31,22.14-2.62,33.2-3.93,5.4-.64,10.81-1.27,16.21-1.92.08,0,.15-.02.23-.03,2.8-.33,6.49-.94,8.53-3.1,1.94-2.06-1.73-2.46-3.07-2.3-4.45.53-8.89,1.05-13.34,1.58-10.59,1.25-21.18,2.5-31.77,3.76l-38.66,4.57c-11.07,1.31-22.14,2.62-33.2,3.93-5.4.64-10.81,1.27-16.21,1.92-.08,0-.15.02-.23.03-2.8.33-6.49.94-8.53,3.1-1.94,2.06,1.73,2.46,3.07,2.3Z"/>
    <path class="cls-1" d="M552.11,259.49c12.72-1.6,25.43-3.2,38.15-4.8,10.93-1.38,21.85-2.75,32.78-4.13,5.34-.67,10.7-1.29,16.04-2.02.07-.01.15-.02.22-.03,1.64-.21,3.42-.77,4.83-1.64.9-.55,2.18-1.54,2.43-2.68.6-2.82-3.87-2.91-5.5-2.7-4.39.55-8.77,1.1-13.16,1.66-10.45,1.32-20.9,2.63-31.35,3.95-12.72,1.6-25.43,3.2-38.15,4.8-10.93,1.38-21.85,2.75-32.78,4.13-5.34.67-10.7,1.29-16.04,2.02-.07.01-.15.02-.22.03-1.64.21-3.42.77-4.83,1.64-.9.55-2.18,1.54-2.43,2.68-.6,2.82,3.87,2.91,5.5,2.7,4.39-.55,8.77-1.1,13.16-1.66,10.45-1.32,20.9-2.63,31.35-3.95Z"/>
    <path class="cls-1" d="M661.15,281.13c-4.63.56-9.26,1.12-13.89,1.68-11.16,1.35-22.32,2.7-33.48,4.05-13.46,1.63-26.92,3.26-40.39,4.88-11.67,1.41-23.33,2.82-35,4.23-5.64.68-11.28,1.33-16.91,2.04-.08,0-.15.02-.23.03-1.71.21-3.41.69-4.79,1.78-.98.77-2.15,2.17-2.2,3.51-.12,3.12,3.17,4.75,5.96,4.42,4.63-.56,9.26-1.12,13.89-1.68,11.16-1.35,22.32-2.7,33.48-4.05,13.46-1.63,26.92-3.25,40.39-4.88,11.67-1.41,23.33-2.82,35-4.23,5.64-.68,11.28-1.33,16.91-2.04.08,0,.15-.02.23-.03,1.71-.21,3.41-.69,4.79-1.78.98-.77,2.15-2.17,2.2-3.51.12-3.12-3.17-4.75-5.96-4.42Z"/>
    <path class="cls-1" d="M637.71,320.46c-3.85.47-7.71.93-11.56,1.4-9.25,1.12-18.5,2.24-27.75,3.37l-33.43,4.06c-9.64,1.17-19.28,2.34-28.91,3.51-4.71.57-9.43,1.11-14.13,1.71-.07,0-.13.02-.2.02-1.72.21-3.41.69-4.79,1.78-.99.78-2.15,2.19-2.2,3.54-.11,3.12,3.16,4.81,5.97,4.47,3.85-.47,7.71-.94,11.56-1.4,9.25-1.12,18.5-2.24,27.75-3.37,11.14-1.35,22.29-2.7,33.43-4.06l28.91-3.51c4.71-.57,9.43-1.11,14.13-1.71.07,0,.13-.02.2-.02,1.72-.21,3.41-.69,4.79-1.78.99-.78,2.15-2.19,2.2-3.54.11-3.12-3.16-4.81-5.97-4.47Z"/>
  </g>
  <path class="cls-1" d="M743.02,601.14c.12,1.8-.61,3.19-3.01,3.25-2.2.05-3.91-2.21-3.9-5.25,0-2.07,2.01-4.46,3.69-4.42,1.54.04,3.17,3.11,3.22,6.42Z"/>
  <path class="cls-1" d="M89.02,327.14c.12,1.8-.61,3.19-3.01,3.25-2.2.05-3.91-2.21-3.9-5.25,0-2.07,2.01-4.46,3.69-4.42,1.54.04,3.17,3.11,3.22,6.42Z"/>
  <path class="cls-1" d="M646.02,923.14c.12,1.8-.61,3.19-3.01,3.25-2.2.05-3.91-2.21-3.9-5.25,0-2.07,2.01-4.46,3.69-4.42,1.54.04,3.17,3.11,3.22,6.42Z"/>
</svg>